<svg width="488" height="305" viewBox="0 0 488 305" fill="none" xmlns="http://www.w3.org/2000/svg">
<path d="M477.835 80.4193C477.711 80.8499 477.515 81.2565 477.255 81.622C476.664 82.4876 475.835 83.1638 474.868 83.5695C473.901 83.9752 472.838 84.0929 471.806 83.9087C470.83 83.7361 469.92 83.3025 469.17 82.654C468.765 82.3081 468.415 81.9025 468.131 81.4512C467.827 80.9959 467.599 80.4945 467.455 79.9664C467.14 78.8283 467.2 77.6191 467.625 76.5174C468.05 75.4157 468.818 74.48 469.816 73.8487C470.273 73.5468 470.774 73.3188 471.301 73.1731C472.035 72.9725 472.803 72.9264 473.555 73.0376C474.308 73.1487 475.03 73.4148 475.674 73.819C476.564 74.3746 477.274 75.1754 477.719 76.125C478.164 77.0747 478.326 78.1328 478.184 79.172C478.13 79.6158 478.002 80.0475 477.805 80.4489C477.805 80.4489 477.968 79.9961 478.065 79.1571C478.187 77.9621 477.907 76.7604 477.27 75.7419C476.803 74.9949 476.156 74.3772 475.388 73.9452C474.62 73.5133 473.756 73.281 472.875 73.2696C472.373 73.2581 471.873 73.3232 471.39 73.4627C470.882 73.5995 470.399 73.815 469.957 74.1012C469.02 74.7032 468.298 75.5885 467.897 76.6285C467.497 77.6685 467.438 78.8091 467.73 79.8847C467.866 80.3953 468.082 80.8813 468.369 81.325C468.631 81.7544 468.96 82.1401 469.341 82.4684C470.004 83.0491 470.802 83.4551 471.661 83.6495C472.521 83.844 473.415 83.8208 474.264 83.582C475.418 83.2564 476.429 82.5532 477.137 81.5849C477.649 80.8647 477.797 80.4044 477.835 80.4193Z" fill="#E0E0E0"/>
<path d="M482.927 85.5215H483.113L483.684 85.5958L485.912 85.8928L485.86 85.9299C486.312 84.7197 486.914 83.1383 487.634 81.2229V81.3194L485.11 79.6341H485.065V79.5821C485.183 78.4991 485.153 77.4052 484.976 76.3302V76.2709L485.021 76.2337L487.456 74.4074V74.541L485.407 69.9528L485.54 70.0196L482.571 70.6135H482.496L482.444 70.5541C481.761 69.7115 480.97 68.9626 480.091 68.3268L480.024 68.2823V68.2006C480.158 67.2726 480.306 66.2406 480.455 65.2309L480.544 65.3794L475.852 63.5753L476.022 63.5233L474.33 66.0476L474.285 66.1218H474.196C473.118 66.0053 472.03 66.0328 470.959 66.2035H470.87L470.811 66.1293L468.999 63.6941L469.177 63.7461L464.582 65.7877L464.671 65.617L465.257 68.5867V68.6832L465.183 68.7426C464.338 69.4178 463.589 70.2045 462.956 71.0813L462.807 71.1481H462.711H462.614H462.428L462.05 71.0961L461.307 70.9848L459.823 70.762L459.986 70.6655C459.377 72.2543 458.768 73.8208 458.174 75.3577L458.122 75.1795L460.639 76.8722L460.721 76.9242V77.0133C460.603 78.0911 460.63 79.1798 460.803 80.2503V80.3394L460.728 80.3913L458.293 82.2103L458.338 82.0321C459.036 83.5986 459.711 85.1355 460.372 86.6278L460.216 86.5461L463.186 85.9596H463.275L463.327 86.0264C464.005 86.868 464.792 87.6168 465.665 88.2537L465.732 88.2982V88.3799C465.576 89.4119 465.428 90.4067 465.287 91.3496L465.205 91.216L469.89 93.0349L469.749 93.0795L471.449 90.5552L471.486 90.5033H471.553C472.635 90.6214 473.729 90.5964 474.805 90.429H474.864L474.901 90.4735L476.705 92.9161H476.601L481.205 90.8967L481.16 90.971C480.937 89.7757 480.752 88.8031 480.596 88.0013C481.242 87.4918 481.836 86.9198 482.37 86.2937L482.756 85.8259C482.795 85.7155 482.853 85.6126 482.927 85.5215L482.816 85.6923C482.741 85.8037 482.615 85.967 482.444 86.1749C481.927 86.8215 481.342 87.4114 480.7 87.9344V87.8825C480.863 88.6991 481.063 89.6717 481.308 90.8522V90.9116H481.257L476.676 92.9681H476.609L476.564 92.9087L474.76 90.5701H474.857C473.765 90.7491 472.654 90.7815 471.553 90.6666L471.657 90.6146L469.972 93.1463L469.92 93.2205H469.83L465.109 91.461H465.02V91.357C465.161 90.3845 465.302 89.3822 465.45 88.3873L465.502 88.5135C464.604 87.8615 463.798 87.0925 463.104 86.2268L463.238 86.2788L460.268 86.8728H460.157L460.112 86.7688L458.07 82.1732L458.018 82.0618L458.115 81.995L460.55 80.176L460.491 80.3171C460.315 79.2221 460.287 78.1083 460.409 77.0059L460.476 77.1469L457.952 75.4542L457.848 75.3874L457.892 75.2686C458.486 73.7293 459.088 72.1652 459.696 70.5764L459.741 70.4651H459.867L461.352 70.6878L462.094 70.7991L462.473 70.8511H462.659H462.755H462.881L462.733 70.9179C463.384 70.0173 464.153 69.2082 465.02 68.5125L464.968 68.6609L464.381 65.6912V65.565L464.492 65.5205L469.095 63.4788L469.207 63.4342L469.274 63.5308L471.093 65.9659L470.944 65.9065C472.042 65.7346 473.158 65.7096 474.263 65.8323L474.122 65.8917L475.822 63.3748L475.881 63.2783L475.993 63.3154L480.677 65.1344L480.781 65.1715V65.2829C480.625 66.3297 480.477 67.3543 480.336 68.2526L480.284 68.1264C481.182 68.7805 481.989 69.552 482.682 70.4205L482.556 70.3685L485.525 69.7894H485.622V69.8785L487.649 74.4816V74.5633L487.582 74.6152L485.154 76.4119L485.191 76.3154C485.359 77.4063 485.384 78.5144 485.266 79.6118L485.221 79.5301L487.738 81.2303L487.79 81.2674V81.3268C487.047 83.2349 486.424 84.8088 485.956 86.0041H485.897L483.669 85.6477L483.098 85.5512L482.927 85.5215Z" fill="#E0E0E0"/>
<path fill-rule="evenodd" clip-rule="evenodd" d="M453.023 55.713C452.003 57.1016 450.805 58.3498 449.459 59.4251L450.387 64.1247L443.134 67.3468L440.275 63.501C438.557 63.7755 436.809 63.818 435.078 63.6273L432.443 67.6438L425.019 64.7855L425.709 60.0488C424.319 59.0284 423.07 57.8275 421.997 56.4777L417.29 57.4057L414.075 50.1596L417.921 47.2938C417.648 45.5749 417.603 43.8274 417.787 42.0968L413.793 39.4909L416.644 32.0666L421.388 32.757C422.408 31.3685 423.606 30.1204 424.952 29.0449L424.024 24.3378L431.277 21.1231L434.143 24.9689C435.862 24.6938 437.61 24.6513 439.34 24.8427L442.013 20.8633L449.437 23.7142L448.739 28.4509C450.128 29.4735 451.376 30.6742 452.451 32.022L457.151 31.094L460.366 38.3401L456.527 41.2059C456.802 42.9247 456.845 44.6727 456.653 46.4029L460.633 49.0756L457.782 56.4999L453.038 55.8095L453.023 55.713ZM445.02 47.6576C445.623 46.0872 445.748 44.3732 445.378 42.732C445.007 41.0908 444.159 39.5963 442.94 38.4372C441.72 37.2782 440.184 36.5067 438.526 36.2203C436.869 35.9339 435.163 36.1454 433.625 36.8281C432.088 37.5108 430.787 38.6341 429.888 40.0559C428.988 41.4777 428.531 43.1343 428.572 44.8161C428.614 46.498 429.154 48.1297 430.123 49.505C431.092 50.8803 432.447 51.9374 434.017 52.5428C435.06 52.9451 436.172 53.1378 437.29 53.11C438.408 53.0821 439.509 52.8343 440.531 52.3806C441.553 51.9269 442.475 51.2762 443.245 50.4658C444.015 49.6554 444.618 48.7012 445.02 47.6576Z" fill="#EBEBEB"/>
<path fill-rule="evenodd" clip-rule="evenodd" d="M444.069 128.27C442.439 130.52 440.514 132.54 438.345 134.277L439.83 141.827L428.196 147.024L423.593 140.847C420.851 141.291 418.061 141.363 415.3 141.062L411.016 147.447L399.137 142.866L400.251 135.264C398.003 133.632 395.983 131.707 394.245 129.54L386.694 131.025L381.497 119.391L387.667 114.788C387.226 112.045 387.156 109.256 387.459 106.495L381.066 102.211L385.647 90.3321L393.257 91.4457C394.887 89.1937 396.812 87.171 398.981 85.432L397.496 77.8815L409.138 72.7216L413.733 78.8912C416.479 78.4538 419.27 78.3839 422.034 78.6833L426.318 72.291L438.196 76.8718L437.083 84.4817C439.331 86.1137 441.351 88.0388 443.089 90.2059L450.64 88.721L455.837 100.355L449.66 104.951C450.099 107.695 450.172 110.487 449.875 113.251L456.26 117.535L451.679 129.414L444.069 128.3V128.27ZM431.218 115.293C432.19 112.771 432.393 110.019 431.8 107.382C431.208 104.746 429.847 102.344 427.89 100.482C425.932 98.6187 423.466 97.3782 420.804 96.9169C418.141 96.4556 415.402 96.7943 412.932 97.8901C410.462 98.9859 408.373 100.79 406.928 103.073C405.483 105.356 404.748 108.017 404.815 110.718C404.883 113.42 405.75 116.04 407.307 118.249C408.864 120.457 411.041 122.154 413.563 123.125C416.943 124.427 420.701 124.333 424.012 122.864C427.322 121.395 429.914 118.672 431.218 115.293Z" fill="#EBEBEB"/>
<path d="M121.439 23.4319C122.231 28.802 121.413 34.2865 119.087 39.1913C116.762 44.096 113.033 48.2006 108.374 50.9854C103.714 53.7702 98.3333 55.1101 92.912 54.8354C87.4907 54.5608 82.2728 52.684 77.9186 49.4425C73.5645 46.2011 70.2698 41.7407 68.4517 36.626C66.6336 31.5113 66.3737 25.9722 67.705 20.7097C69.0363 15.4473 71.8989 10.6981 75.9305 7.06326C79.9621 3.42842 84.9814 1.07134 90.3532 0.290374C93.9139 -0.232221 97.5427 -0.0481197 101.032 0.832161C104.522 1.71244 107.804 3.27165 110.691 5.4207C113.577 7.56976 116.012 10.2665 117.857 13.357C119.701 16.4474 120.918 19.8709 121.439 23.4319Z" fill="#F5F5F5"/>
<path d="M114.98 24.3671C115.584 28.4597 114.962 32.6397 113.19 36.3781C111.418 40.1164 108.577 43.2451 105.026 45.368C101.475 47.4909 97.374 48.5126 93.2422 48.3038C89.1105 48.095 85.1335 46.665 81.8148 44.195C78.4961 41.7249 75.9848 38.3258 74.5988 34.4278C73.2128 30.5299 73.0144 26.3083 74.0288 22.2976C75.0431 18.2868 77.2245 14.6671 80.297 11.8967C83.3694 9.12633 87.1948 7.32974 91.2887 6.73437C96.7685 5.93151 102.343 7.33811 106.786 10.6448C111.228 13.9515 114.176 18.8874 114.98 24.3671Z" fill="#EBEBEB"/>
<path d="M114.876 23.7221C114.749 23.7221 114.534 22.8534 113.97 21.3166C113.182 19.1582 112.065 17.1346 110.659 15.3178C108.581 12.6499 105.885 10.5275 102.804 9.13334C101.921 8.73295 101.011 8.39795 100.079 8.13106C99.1075 7.84206 98.1145 7.63104 97.1094 7.49999C96.0737 7.35921 95.0288 7.29716 93.9837 7.31439C92.9088 7.34502 91.8372 7.44921 90.7764 7.62621C89.7163 7.82297 88.6717 8.0959 87.6508 8.44288C86.6624 8.78418 85.7018 9.20118 84.7776 9.69016C83.8875 10.1505 83.0359 10.6819 82.231 11.279C81.4429 11.8488 80.6984 12.4766 80.0038 13.1573C78.7221 14.4183 77.6068 15.838 76.6851 17.3817C75.8961 18.7391 75.2564 20.1779 74.777 21.673C74.0825 23.8601 73.7319 26.1418 73.7376 28.4365C73.7376 30.0699 73.8416 30.9831 73.7376 31.0053C73.6337 31.0276 73.3293 30.1441 73.1363 28.4662C72.8844 26.0805 73.0782 23.6687 73.7079 21.3537C74.6498 17.8732 76.47 14.6929 78.994 12.1179C80.4797 10.603 82.184 9.31924 84.05 8.30924C85.0432 7.77384 86.0757 7.31469 87.1385 6.93575C89.337 6.16402 91.6465 5.75529 93.9763 5.72559C95.104 5.70953 96.2311 5.78401 97.3469 5.94831C98.4246 6.10876 99.4873 6.35707 100.525 6.69074C101.521 6.99399 102.494 7.3712 103.435 7.81924C105.168 8.6527 106.783 9.71114 108.238 10.9671C109.492 12.0684 110.611 13.3145 111.572 14.6793C112.956 16.6366 113.963 18.8346 114.542 21.1607C114.957 22.7718 114.972 23.7072 114.876 23.7221Z" fill="#E0E0E0"/>
<path d="M98.4233 39.372L99.0024 42.9728L95.7877 43.485L95.2309 39.9882C92.0236 40.3 88.8088 39.7952 86.8265 38.6964L87.955 34.4942C90.0054 35.4908 92.2808 35.9336 94.5552 35.7786L93.694 30.4183C89.9819 30.1213 85.8243 29.5719 85.0893 24.9837C84.5473 21.5759 86.5741 18.3018 91.5261 16.8689L90.9544 13.3052L94.1692 12.793L94.726 16.2898C97.0436 16.0482 99.3854 16.3638 101.556 17.2104L100.576 21.4126C98.9199 20.7759 97.1532 20.4756 95.3793 20.5291L96.248 25.986C99.9601 26.2532 104.051 26.81 104.779 31.3389C105.343 34.6798 103.368 37.9614 98.4233 39.372ZM92.9442 25.6964L92.2017 21.1379C90.561 21.7986 90.0413 22.838 90.212 23.8997C90.3828 24.9614 91.4593 25.4737 92.9442 25.6964ZM99.7003 32.549C99.5221 31.428 98.4975 30.9677 97.035 30.7078L97.7774 35.1624C99.2919 34.5239 99.8339 33.5513 99.7003 32.549Z" fill="#E0E0E0"/>
<path d="M112.953 120.245C114.332 129.567 112.914 139.088 108.878 147.604C104.843 156.12 98.3713 163.247 90.2833 168.083C82.1953 172.918 72.8544 175.246 63.4429 174.77C54.0314 174.295 44.9726 171.038 37.4133 165.411C29.854 159.784 24.134 152.042 20.9775 143.162C17.821 134.283 17.3698 124.667 19.6812 115.532C21.9925 106.396 26.9624 98.1516 33.9618 91.842C40.9611 85.5324 49.6751 81.4413 59.0007 80.0867C71.4805 78.258 84.1755 81.4615 94.2934 88.9925C104.411 96.5235 111.123 107.765 112.953 120.245Z" fill="#F5F5F5"/>
<path d="M101.741 121.901C102.791 129.006 101.709 136.261 98.6323 142.75C95.556 149.239 90.6236 154.67 84.4595 158.354C78.2955 162.038 71.1768 163.811 64.0048 163.448C56.8327 163.084 49.9297 160.601 44.1695 156.313C38.4093 152.025 34.051 146.124 31.6461 139.357C29.2413 132.59 28.8981 125.262 30.66 118.301C32.4219 111.339 36.2096 105.056 41.5438 100.248C46.878 95.4404 53.5187 92.323 60.6254 91.291C70.1366 89.8999 79.8109 92.343 87.5212 98.0832C95.2314 103.823 100.346 112.391 101.741 121.901Z" fill="#EBEBEB"/>
<path d="M101.571 120.757C101.356 120.757 100.97 119.272 99.9901 116.57C98.6254 112.829 96.6894 109.323 94.2511 106.176C92.5669 104.039 90.655 102.092 88.5492 100.37C86.1252 98.4062 83.4606 96.7596 80.6201 95.4698C79.0902 94.769 77.5093 94.1857 75.8908 93.7251C74.2093 93.2283 72.4915 92.8634 70.7532 92.6337C68.9554 92.3847 67.1407 92.278 65.326 92.3145C63.4568 92.3603 61.5934 92.5414 59.7504 92.8564C57.9117 93.1933 56.1002 93.6648 54.3306 94.2671C52.6139 94.8564 50.9458 95.5787 49.3415 96.4275C47.7869 97.2446 46.2976 98.1804 44.8869 99.2265C43.5274 100.218 42.2443 101.31 41.0486 102.493C38.8245 104.679 36.8907 107.142 35.2947 109.821C33.9113 112.166 32.7885 114.656 31.9464 117.245C30.7447 121.042 30.1362 125.001 30.1422 128.983C30.1422 131.827 30.3204 133.438 30.1422 133.438C29.9641 133.438 29.3998 131.953 29.1029 129.028C28.6515 124.897 28.9712 120.718 30.0457 116.703C31.674 110.662 34.8348 105.143 39.2222 100.682C40.4798 99.3818 41.8377 98.1828 43.2833 97.0957C44.7816 95.9468 46.3706 94.9213 48.0348 94.0295C49.7593 93.0964 51.554 92.2996 53.4026 91.6463C57.2229 90.3095 61.2344 89.5999 65.2815 89.5452C67.2412 89.5195 69.1999 89.6485 71.1393 89.9313C74.8014 90.4701 78.3624 91.5537 81.704 93.146C87.3494 95.8266 92.208 99.918 95.8102 105.025C98.2277 108.421 99.9902 112.238 101.007 116.28C101.713 119.101 101.727 120.727 101.571 120.757Z" fill="#E0E0E0"/>
<path d="M73.0029 147.924L74.0051 154.168L68.4369 155.059L67.4643 148.986C61.8887 149.535 56.3279 148.659 52.8756 146.758L54.8504 139.468C58.406 141.191 62.349 141.959 66.2913 141.695L64.8064 132.385C58.3844 131.873 51.1457 130.9 49.8687 122.949C48.9184 117.009 52.4004 111.285 61.0423 108.843L60.0549 102.658L65.6305 101.76L66.5957 107.84C70.835 107.506 75.0742 107.966 78.4746 109.422L76.7893 116.727C73.9125 115.63 70.8459 115.118 67.7687 115.22L69.2536 124.693C75.6756 125.154 82.8029 126.126 84.0576 133.981C84.9857 139.772 81.5853 145.467 73.0029 147.924ZM63.4923 124.166L62.2228 116.252C59.3793 117.395 58.4661 119.222 58.763 121.041C59.06 122.86 60.9161 123.803 63.4923 124.189V124.166ZM75.2301 136.045C74.9109 134.093 73.1291 133.298 70.5974 132.845L71.8298 140.529C74.5174 139.512 75.5123 137.864 75.2301 136.082V136.045Z" fill="#E0E0E0"/>
<path d="M9.0722 72.5884C5.62012 69.7845 3.07757 66.0194 1.76643 61.7698C0.455284 57.5201 0.434503 52.977 1.70672 48.7155C2.97893 44.454 5.48693 40.6658 8.91322 37.8304C12.3395 34.9951 16.53 33.2401 20.9543 32.7876C25.3785 32.335 29.8376 33.2054 33.7669 35.2884C37.6963 37.3714 40.9192 40.5735 43.0278 44.4891C45.1364 48.4048 46.0358 52.8581 45.6121 57.2852C45.1884 61.7123 43.4607 65.9142 40.6478 69.3589C38.7871 71.645 36.4942 73.5422 33.9001 74.9419C31.306 76.3416 28.4615 77.2164 25.5292 77.5163C22.5968 77.8162 19.6341 77.5354 16.8104 76.6898C13.9866 75.8443 11.3571 74.4506 9.0722 72.5884Z" fill="#F5F5F5"/>
<path d="M12.4496 68.4451C9.81959 66.3074 7.8829 63.4374 6.8847 60.1985C5.8865 56.9596 5.87166 53.4973 6.84206 50.25C7.81247 47.0026 9.72448 44.1162 12.3361 41.956C14.9477 39.7958 18.1415 38.459 21.5132 38.1147C24.8849 37.7705 28.283 38.4343 31.2772 40.0221C34.2715 41.61 36.7274 44.0505 38.334 47.0347C39.9407 50.019 40.6258 53.4128 40.3027 56.7866C39.9797 60.1604 38.663 63.3625 36.5192 65.9877C35.1027 67.7331 33.3555 69.1816 31.3778 70.2502C29.4002 71.3188 27.231 71.9864 24.9947 72.2147C22.7585 72.443 20.4991 72.2276 18.3463 71.5807C16.1935 70.9338 14.1896 69.8682 12.4496 68.4451Z" fill="#EBEBEB"/>
<path d="M12.8639 68.787C12.9307 68.6979 13.5618 69.1211 14.7497 69.7373C16.4195 70.6025 18.2124 71.206 20.0655 71.5265C22.797 71.9852 25.5989 71.7763 28.2322 70.9178C29.7712 70.4033 31.2306 69.6761 32.568 68.7573C33.2727 68.2708 33.938 67.7296 34.5577 67.1388C35.1944 66.5274 35.785 65.8698 36.3247 65.1713C36.8582 64.4648 37.3396 63.7204 37.765 62.944C38.1723 62.1904 38.5199 61.406 38.8044 60.598C39.0883 59.8201 39.3093 59.0206 39.4652 58.2073C39.6229 57.4291 39.7197 56.6397 39.7548 55.8464C39.8325 54.378 39.7202 52.9057 39.4207 51.4661C39.1545 50.2049 38.7486 48.9772 38.2105 47.8059C37.418 46.1019 36.3689 44.5294 35.0997 43.1434C34.1939 42.156 33.6149 41.6586 33.6891 41.5769C34.3569 41.8477 34.9592 42.2577 35.4561 42.7796C36.928 44.0827 38.1441 45.6487 39.042 47.3976C39.6721 48.6104 40.1556 49.8939 40.4823 51.2211C41.0547 53.5855 41.128 56.0432 40.6976 58.4375C40.5397 59.3149 40.3138 60.1787 40.022 61.0212C39.7205 61.8964 39.3481 62.7456 38.9084 63.5603C38.4569 64.3986 37.9405 65.2004 37.3641 65.9583C36.7833 66.7115 36.1454 67.4189 35.4561 68.0742C34.7813 68.7076 34.059 69.2884 33.2956 69.8115C32.5596 70.3126 31.7851 70.7544 30.9792 71.1331C30.2104 71.5044 29.4135 71.8147 28.596 72.0611C25.7732 72.9308 22.7739 73.0586 19.8873 72.4323C17.9659 72.03 16.1358 71.2748 14.4899 70.205C13.3465 69.4032 12.8194 68.8464 12.8639 68.787Z" fill="#E0E0E0"/>
<path d="M14.1433 50.2178L11.8047 48.3988L13.4603 46.3126L15.7396 48.1167C17.266 46.3082 19.27 44.9653 21.5231 44.2412L23.1639 47.404C21.3773 47.9428 19.7607 48.9352 18.4717 50.2846L21.9537 53.0464C24.3592 51.1755 27.1507 49.2006 30.165 51.5616C32.3923 53.3211 33.0011 56.4319 30.7664 60.0253L33.0827 61.8665L31.4271 63.9527L29.1553 62.1486C27.8868 63.5748 26.2995 64.6814 24.5225 65.3782L22.7778 62.2971C24.1268 61.7653 25.3579 60.9732 26.4009 59.9659L22.852 57.1521C20.4688 59.0378 17.655 60.9682 14.7373 58.6369C12.562 56.8848 11.9458 53.8111 14.1433 50.2178ZM25.0274 55.4148L27.9971 57.7683C28.6207 56.4616 28.3609 55.541 27.6778 54.999C26.9948 54.4571 26.0445 54.7614 25.0274 55.4445V55.4148ZM17.1502 55.0807C17.8926 55.6598 18.7538 55.3702 19.7784 54.7169L16.8978 52.4376C16.3038 53.633 16.482 54.5239 17.1502 55.0807Z" fill="#E0E0E0"/>
<path d="M469.914 304.791C469.914 304.895 364.711 304.984 234.972 304.984C105.232 304.984 0 304.895 0 304.791C0 304.687 105.18 304.598 234.972 304.598C364.763 304.598 469.914 304.687 469.914 304.791Z" fill="#263238"/>
<path d="M24.5614 284.79C24.5972 284.672 24.6444 284.557 24.7024 284.449C24.8138 284.203 24.9697 283.884 25.1627 283.468C25.7199 282.201 26.1718 280.89 26.514 279.548C27.4049 276.059 27.7167 270.736 26.3952 264.403C25.6818 260.955 24.7444 257.557 23.5888 254.232C22.4009 250.623 21.02 246.807 19.8766 242.65C18.6022 238.329 17.9865 233.842 18.0502 229.338C18.221 224.623 19.6168 219.924 21.1462 215.232C22.6756 210.54 24.2644 205.959 24.7321 201.348C25.2606 196.916 24.3717 192.43 22.193 188.534C20.1588 184.822 17.6048 181.6 15.6967 178.281C13.9124 175.209 12.5961 171.889 11.7916 168.429C10.6401 163.414 10.5566 158.214 11.5466 153.165C11.8968 151.317 12.4289 149.509 13.1354 147.767C13.1211 147.892 13.0912 148.014 13.0463 148.131C12.9646 148.383 12.8607 148.725 12.7196 149.163C12.3167 150.49 11.9871 151.838 11.7322 153.202C10.8197 158.226 10.9537 163.385 12.1257 168.355C12.9442 171.773 14.2653 175.05 16.0457 178.081C17.9537 181.355 20.5003 184.54 22.5865 188.326C24.8298 192.3 25.7528 196.883 25.2221 201.415C24.747 206.1 23.1507 210.71 21.6288 215.395C20.1068 220.08 18.711 224.72 18.5403 229.353C18.4727 233.81 19.0733 238.252 20.3221 242.531C21.4283 246.651 22.7944 250.482 23.9674 254.105C25.1132 257.451 26.0383 260.869 26.7367 264.336C28.0211 270.714 27.6499 276.096 26.6921 279.593C26.3306 280.94 25.8485 282.252 25.2518 283.513C25.0365 283.914 24.8732 284.255 24.747 284.471C24.6943 284.582 24.6322 284.689 24.5614 284.79Z" fill="#263238"/>
<path d="M18.3098 181.57C18.3098 181.57 14.4566 169.157 21.3909 161.888C21.4451 161.829 21.5149 161.786 21.5923 161.764C21.6698 161.742 21.7518 161.742 21.8291 161.765C21.9064 161.787 21.9759 161.831 22.0297 161.891C22.0834 161.951 22.1193 162.024 22.1333 162.104C22.4971 164.153 22.9648 170.397 18.3098 181.57Z" fill="#407BFF"/>
<path d="M20.6313 166.023C20.623 166.795 20.5359 167.563 20.3715 168.317C20.1116 169.891 19.8147 171.747 19.4806 173.789C19.1465 175.831 18.8644 177.687 18.6119 179.261C18.5503 180.027 18.4135 180.786 18.2036 181.525C18.134 180.758 18.1564 179.985 18.2704 179.224C18.4041 177.806 18.6491 175.853 19.0128 173.707C19.3766 171.562 19.7553 169.639 20.0374 168.25C20.1527 167.488 20.3519 166.741 20.6313 166.023Z" fill="#263238"/>
<path d="M22.8672 210.836C22.8672 210.836 25.2355 198.051 34.7906 194.881C34.8657 194.856 34.9464 194.852 35.0237 194.869C35.101 194.887 35.1719 194.925 35.2287 194.98C35.2855 195.036 35.326 195.106 35.3456 195.182C35.3653 195.259 35.3633 195.34 35.34 195.416C34.7089 197.405 32.1995 203.137 22.8672 210.836Z" fill="#407BFF"/>
<path d="M32.1847 198.184C31.8184 198.861 31.383 199.498 30.8855 200.085L27.5445 204.54L24.2184 208.994C23.7999 209.64 23.3227 210.247 22.793 210.806C23.0908 210.093 23.4748 209.42 23.9363 208.801C24.6787 207.606 25.8444 205.995 27.1585 204.272C28.4726 202.55 29.6976 201.013 30.6182 199.929C31.0705 199.288 31.5963 198.703 32.1847 198.184Z" fill="#263238"/>
<path d="M20.2843 242.916C20.2843 242.916 18.8439 229.983 27.0775 224.177C27.1423 224.13 27.2189 224.102 27.2987 224.097C27.3784 224.091 27.4583 224.107 27.5292 224.144C27.6001 224.181 27.6593 224.237 27.7002 224.306C27.741 224.375 27.7619 224.454 27.7605 224.534C27.716 226.583 26.981 232.827 20.2843 242.916Z" fill="#407BFF"/>
<path d="M25.5334 228.068C25.375 228.832 25.1413 229.578 24.8355 230.295L22.9275 235.492L21.0268 240.689C20.8137 241.428 20.5354 242.146 20.1953 242.835C20.2698 242.074 20.4394 241.326 20.7002 240.608C21.0937 239.242 21.7173 237.371 22.4671 235.337C23.217 233.302 23.952 231.483 24.5163 230.177C24.7702 229.436 25.1117 228.728 25.5334 228.068Z" fill="#263238"/>
<path d="M27.4784 275.168C27.4784 275.168 26.4984 262.198 34.9027 256.697C34.9685 256.653 35.0449 256.628 35.1237 256.625C35.2025 256.622 35.2806 256.641 35.3496 256.679C35.4185 256.717 35.4756 256.774 35.5146 256.843C35.5537 256.911 35.5731 256.989 35.5709 257.068C35.4967 259.147 34.5389 265.331 27.4784 275.168Z" fill="#407BFF"/>
<path d="M33.2535 260.551C33.0783 261.298 32.8296 262.027 32.511 262.726C31.9022 264.211 31.1969 265.941 30.41 267.856L28.3312 272.994C28.0906 273.722 27.785 274.428 27.418 275.102C27.5264 274.34 27.7232 273.592 28.0045 272.875C28.4499 271.524 29.133 269.675 29.9645 267.678C30.796 265.681 31.583 263.877 32.1918 262.592C32.4701 261.875 32.8261 261.19 33.2535 260.551Z" fill="#263238"/>
<path d="M12.7259 170.663C12.7259 170.663 1.20337 164.642 0.980641 154.568C0.978409 154.489 0.997869 154.411 1.0369 154.342C1.07592 154.274 1.13302 154.217 1.20196 154.179C1.27089 154.141 1.34903 154.122 1.42783 154.125C1.50663 154.128 1.58308 154.153 1.64883 154.196C3.36384 155.399 8.10797 159.475 12.7259 170.663Z" fill="#407BFF"/>
<path d="M3.37109 158.042C3.90848 158.593 4.38857 159.198 4.80398 159.846L8.05583 164.338L11.3151 168.792C11.8103 169.382 12.2502 170.015 12.6292 170.685C12.036 170.192 11.505 169.629 11.0478 169.007C10.1346 167.916 8.9319 166.357 7.66234 164.597C6.39278 162.838 5.29399 161.212 4.52186 160.017C4.06628 159.403 3.68032 158.741 3.37109 158.042Z" fill="#263238"/>
<path d="M25.101 197.317C25.101 197.317 13.2221 192.009 12.398 181.978C12.3914 181.9 12.4064 181.821 12.4415 181.75C12.4766 181.68 12.5304 181.62 12.597 181.578C12.6636 181.536 12.7405 181.513 12.8193 181.512C12.8981 181.51 12.9758 181.53 13.0439 181.57C14.8258 182.647 19.8149 186.433 25.101 197.317Z" fill="#407BFF"/>
<path d="M14.998 185.282C15.5659 185.804 16.0829 186.378 16.5423 186.997L20.054 191.281C21.3755 192.877 22.5708 194.325 23.5805 195.557C24.1143 196.113 24.5918 196.719 25.006 197.369C24.4022 196.904 23.8519 196.374 23.3652 195.787C22.3852 194.748 21.086 193.271 19.7199 191.593C18.3538 189.915 17.1437 188.356 16.3047 187.205C15.797 186.616 15.3586 185.971 14.998 185.282Z" fill="#263238"/>
<path d="M18.2724 227.044C18.2724 227.044 10.1056 216.91 13.9514 207.607C13.9825 207.538 14.0312 207.478 14.0926 207.434C14.154 207.39 14.2259 207.363 14.3012 207.355C14.3765 207.348 14.4524 207.36 14.5213 207.391C14.5902 207.423 14.6498 207.471 14.6939 207.533C15.8075 209.307 18.5248 214.942 18.2724 227.044Z" fill="#407BFF"/>
<path d="M14.7598 211.735C15.0282 212.457 15.227 213.203 15.3537 213.962C15.6878 215.521 16.0961 217.355 16.5267 219.382C16.9574 221.409 17.3731 223.235 17.7221 224.794C17.9358 225.522 18.0849 226.268 18.1675 227.022C17.8336 226.329 17.5843 225.599 17.4251 224.846C17.0242 223.48 16.5416 221.572 16.0887 219.456C15.6358 217.34 15.272 215.403 15.0493 213.999C14.8696 213.258 14.7725 212.498 14.7598 211.735Z" fill="#263238"/>
<path d="M26.3331 262.028C26.3331 262.028 14.5507 256.519 13.8825 246.481C13.8754 246.401 13.8909 246.32 13.9273 246.249C13.9636 246.177 14.0193 246.117 14.0881 246.075C14.1569 246.033 14.236 246.012 14.3165 246.012C14.3969 246.013 14.4755 246.037 14.5433 246.08C16.3177 247.186 21.24 251.084 26.3331 262.028Z" fill="#407BFF"/>
<path d="M16.4453 249.829C16.9978 250.356 17.4953 250.938 17.9302 251.566L21.375 255.909L24.8496 260.245C25.3688 260.811 25.836 261.422 26.2454 262.072C25.6281 261.609 25.0718 261.07 24.5898 260.468C23.6246 259.414 22.3625 257.914 21.0113 256.214C19.66 254.514 18.4944 252.932 17.6777 251.759C17.1983 251.162 16.7851 250.515 16.4453 249.829Z" fill="#263238"/>
<path d="M49.8101 210.904C49.821 211 49.821 211.097 49.8101 211.194C49.8101 211.416 49.8101 211.691 49.8101 212.025C49.8101 212.805 49.7284 213.859 49.669 215.18C49.5205 217.95 49.3052 221.81 49.0528 226.436C48.2139 231.135 45.8158 236.355 42.5937 241.418C40.2327 245.13 37.7604 248.538 35.6222 251.693C33.691 254.447 31.9544 257.332 30.4252 260.328C29.4117 262.36 28.5915 264.482 27.9752 266.668C27.7673 267.448 27.6114 268.049 27.5223 268.465C27.4867 268.678 27.4295 268.887 27.3516 269.088C27.3547 268.871 27.3795 268.655 27.4258 268.442C27.4852 268.027 27.6114 267.41 27.797 266.623C28.3447 264.401 29.121 262.242 30.1134 260.179C31.6275 257.142 33.3646 254.221 35.3104 251.441C37.4338 248.263 39.8912 244.87 42.2447 241.158C45.4446 236.117 47.8278 230.987 48.7039 226.354C49.0305 221.736 49.2978 217.875 49.4983 215.106C49.6022 213.8 49.6839 212.745 49.7507 211.966C49.7507 211.632 49.8101 211.364 49.8324 211.134C49.8546 210.904 49.7952 210.904 49.8101 210.904Z" fill="#263238"/>
<path d="M42.7945 240.474C42.7945 240.474 47.7837 228.469 41.5101 220.599C41.4605 220.54 41.3957 220.495 41.3226 220.469C41.2495 220.443 41.1707 220.437 41.0947 220.452C41.0187 220.468 40.9481 220.503 40.8906 220.555C40.833 220.607 40.7906 220.674 40.7677 220.748C40.2034 222.752 39.1715 228.929 42.7945 240.474Z" fill="#407BFF"/>
<path d="M41.9265 224.787C42.1399 225.528 42.2718 226.289 42.3199 227.059C42.4981 228.469 42.6986 230.429 42.8471 232.59C42.9956 234.75 43.0772 236.718 43.0772 238.143C43.1279 238.913 43.0805 239.687 42.9362 240.445C42.8008 239.688 42.7337 238.92 42.7357 238.151C42.6243 236.562 42.5056 234.691 42.3645 232.627C42.2234 230.563 42.0898 228.685 41.9784 227.096C41.8826 226.33 41.8651 225.556 41.9265 224.787Z" fill="#263238"/>
<g opacity="0.3">
<path d="M42.7945 240.475C42.7945 240.475 47.7837 228.47 41.5101 220.6C41.4605 220.541 41.3957 220.495 41.3226 220.47C41.2495 220.444 41.1707 220.438 41.0947 220.453C41.0187 220.469 40.9481 220.504 40.8906 220.556C40.833 220.608 40.7906 220.675 40.7677 220.749C40.2034 222.753 39.1715 228.93 42.7945 240.475Z" fill="black"/>
</g>
<path d="M27.3435 269.414C27.3435 269.414 31.3452 257.038 24.448 249.71C24.3957 249.648 24.3265 249.602 24.2488 249.578C24.1711 249.554 24.0881 249.553 24.0098 249.575C23.9314 249.597 23.8611 249.641 23.8071 249.702C23.7532 249.763 23.7179 249.838 23.7056 249.918C23.3195 251.96 22.7924 258.196 27.3435 269.414Z" fill="#407BFF"/>
<path d="M25.168 253.852C25.4448 254.57 25.6391 255.318 25.7471 256.08C26.0366 257.475 26.393 259.406 26.7196 261.551C27.0463 263.697 27.2839 265.65 27.3953 267.068C27.5049 267.832 27.5224 268.608 27.4472 269.377C27.2447 268.633 27.113 267.873 27.0537 267.105C26.8236 265.523 26.5415 263.675 26.2371 261.626C25.9327 259.576 25.6431 257.72 25.4055 256.139C25.2497 255.387 25.1701 254.621 25.168 253.852Z" fill="#263238"/>
<g opacity="0.3">
<path d="M27.3454 269.414C27.3454 269.414 31.3471 257.038 24.4499 249.71C24.3976 249.648 24.3285 249.602 24.2508 249.578C24.173 249.554 24.09 249.553 24.0117 249.575C23.9334 249.597 23.863 249.641 23.8091 249.702C23.7551 249.763 23.7199 249.838 23.7075 249.918C23.3215 251.96 22.7943 258.196 27.3454 269.414Z" fill="black"/>
</g>
<path d="M49.1484 225.841C49.1484 225.841 59.8023 218.379 58.7258 208.379C58.7229 208.294 58.695 208.212 58.6457 208.143C58.5963 208.074 58.5277 208.021 58.4484 207.991C58.3691 207.961 58.2826 207.955 58.1999 207.973C58.1171 207.992 58.0418 208.035 57.9834 208.097C56.4614 209.455 52.3186 214.11 49.1484 225.841Z" fill="#407BFF"/>
<g opacity="0.3">
<path d="M49.1504 225.844C49.1504 225.844 59.8043 218.382 58.7277 208.382C58.7249 208.297 58.697 208.215 58.6476 208.146C58.5983 208.077 58.5297 208.024 58.4503 207.994C58.371 207.964 58.2846 207.957 58.2018 207.976C58.1191 207.995 58.0438 208.038 57.9853 208.099C56.4633 209.458 52.3206 214.113 49.1504 225.844Z" fill="black"/>
</g>
<path d="M56.7736 212.077C56.56 212.818 56.2637 213.533 55.8901 214.207C55.2813 215.492 54.4052 217.244 53.3732 219.152C52.3413 221.06 51.3464 222.76 50.5817 223.963C50.2093 224.639 49.7555 225.268 49.2305 225.834C49.5204 225.123 49.8733 224.44 50.2847 223.792L52.9426 218.922L55.5857 214.052C55.9133 213.354 56.3113 212.693 56.7736 212.077Z" fill="#263238"/>
<path d="M31.6445 257.148C31.6445 257.148 44.4886 255.143 47.9334 245.684C47.961 245.61 47.9675 245.529 47.9521 245.451C47.9367 245.374 47.9001 245.302 47.8464 245.243C47.7926 245.185 47.7237 245.142 47.6474 245.121C47.5711 245.099 47.4902 245.099 47.4137 245.12C45.4092 245.692 39.6034 248.03 31.6445 257.148Z" fill="#407BFF"/>
<g opacity="0.3">
<path d="M31.6445 257.148C31.6445 257.148 44.4886 255.144 47.9334 245.685C47.961 245.611 47.9675 245.53 47.9521 245.452C47.9367 245.375 47.9001 245.303 47.8464 245.244C47.7926 245.186 47.7237 245.143 47.6474 245.122C47.5711 245.1 47.4902 245.1 47.4137 245.121C45.4092 245.693 39.6034 248.031 31.6445 257.148Z" fill="black"/>
</g>
<path d="M44.555 248.194C44.0325 248.76 43.4528 249.27 42.8251 249.716C41.7115 250.6 40.1449 251.788 38.3705 253.05C36.5961 254.312 34.9702 255.396 33.7526 256.138C33.1185 256.581 32.4329 256.945 31.7109 257.222C32.2854 256.708 32.9068 256.248 33.567 255.849L38.0884 252.649L42.6098 249.442C43.2116 248.957 43.8637 248.539 44.555 248.194Z" fill="#263238"/>
<path d="M16.4375 280.789L20.1274 304.962L34.8423 304.94L39.8018 280.789H16.4375Z" fill="#455A64"/>
<path d="M37.6435 290.112C37.6435 290.112 37.6435 290.149 37.5173 290.201C37.3946 290.285 37.2655 290.36 37.1312 290.424C36.6136 290.673 36.0598 290.838 35.4904 290.914C34.5797 291.037 33.653 290.95 32.7806 290.662C31.6073 290.289 30.5862 289.547 29.8702 288.546C29.4684 287.945 29.2328 287.248 29.1872 286.526C29.1485 286.121 29.2214 285.713 29.3981 285.347C29.5748 284.98 29.8485 284.669 30.1895 284.447C30.5794 284.252 31.0153 284.168 31.45 284.203C31.8846 284.238 32.3012 284.392 32.6544 284.648C33.3865 285.188 33.8898 285.982 34.065 286.875C34.2574 287.772 34.3199 288.692 34.2506 289.607C34.1956 290.563 33.9927 291.505 33.6492 292.399C33.2898 293.339 32.7032 294.176 31.9416 294.834C31.1565 295.532 30.161 295.947 29.113 296.014C28.059 296.04 27.0225 295.742 26.1432 295.161C25.2947 294.63 24.5418 293.96 23.916 293.178C23.2855 292.425 22.8974 291.498 22.8023 290.521C22.7644 290.041 22.8394 289.56 23.0212 289.115C23.203 288.671 23.4866 288.275 23.8491 287.959C24.2204 287.681 24.6654 287.517 25.1287 287.49C25.592 287.462 26.0532 287.571 26.4551 287.803C26.837 287.995 27.1696 288.272 27.4271 288.614C27.6846 288.955 27.8601 289.351 27.9399 289.771C28.05 290.521 27.9311 291.288 27.5986 291.97C27.2661 292.652 26.7356 293.218 26.0764 293.594C24.9934 294.186 23.7337 294.367 22.5276 294.106C21.6328 293.927 20.7761 293.593 19.9959 293.119C19.5036 292.83 19.03 292.51 18.5779 292.161C18.4138 292.049 18.262 291.919 18.125 291.775C18.2995 291.867 18.4659 291.974 18.6224 292.094C18.9491 292.31 19.4243 292.629 20.1073 292.985C20.8927 293.418 21.7425 293.721 22.6241 293.884C23.7765 294.103 24.9693 293.911 25.9948 293.342C26.5909 292.989 27.0687 292.466 27.3674 291.841C27.6661 291.216 27.7724 290.516 27.6727 289.83C27.5974 289.459 27.4377 289.111 27.2059 288.813C26.9741 288.514 26.6765 288.273 26.3363 288.108C25.9927 287.91 25.5985 287.817 25.2026 287.84C24.8067 287.864 24.4264 288.003 24.109 288.241C23.7999 288.52 23.5589 288.865 23.4044 289.251C23.25 289.637 23.1862 290.054 23.2181 290.469C23.3097 291.367 23.6722 292.216 24.2575 292.904C24.8481 293.645 25.5582 294.282 26.3586 294.789C27.1624 295.341 28.1157 295.634 29.0907 295.628C30.0498 295.561 30.9602 295.18 31.6818 294.544C32.395 293.928 32.9457 293.145 33.2854 292.265C33.6165 291.412 33.8119 290.513 33.8645 289.6C33.9348 288.723 33.8798 287.841 33.7012 286.979C33.553 286.176 33.1077 285.457 32.4539 284.967C32.1555 284.745 31.8023 284.608 31.4322 284.572C31.0621 284.535 30.6889 284.6 30.3528 284.759C30.062 284.949 29.8287 285.214 29.6782 285.527C29.5277 285.84 29.4657 286.188 29.499 286.534C29.5343 287.202 29.7443 287.85 30.1078 288.412C30.7804 289.373 31.7431 290.094 32.8548 290.469C33.6917 290.767 34.5847 290.873 35.4682 290.78C36.2256 290.681 36.961 290.455 37.6435 290.112Z" fill="#263238"/>
<path d="M435.414 229.493C440.271 224.633 446.309 221.12 452.934 219.298C459.559 217.475 466.544 217.407 473.204 219.099C461.933 226.777 448.635 230.933 434.998 231.037" fill="#407BFF"/>
<path d="M448.259 184.108C446.685 172.972 451.013 160.447 459.351 152.354C459.625 163.387 454.963 175.808 448.259 184.108Z" fill="#407BFF"/>
<path d="M441.59 205.141C447.619 193.715 457.205 184.563 468.897 179.067C467.071 185.479 463.569 191.289 458.751 195.896C453.933 200.504 447.973 203.744 441.486 205.282" fill="#407BFF"/>
<path d="M440.211 209.203C446.937 209.389 453.745 209.159 460.257 207.436C466.768 205.714 472.989 202.403 477.332 197.258C464.158 197.299 451.289 201.227 440.337 208.55" fill="#407BFF"/>
<path d="M443.625 195.832C440.21 183.04 434.582 174.19 424.522 167.018C423.75 173.31 425.251 179.67 428.753 184.953C432.255 190.236 437.53 194.094 443.625 195.832Z" fill="#407BFF"/>
<path d="M418.241 217.897C418.216 214.166 419.295 210.511 421.341 207.391C423.387 204.271 426.309 201.826 429.741 200.361C429.184 206.969 423.994 214.608 418.241 217.897Z" fill="#407BFF"/>
<path d="M415.026 207.108C414.558 201.752 412.57 196.64 409.295 192.376C406.019 188.112 401.594 184.872 396.539 183.039C398.863 193.73 405.04 202.632 415.026 207.108Z" fill="#407BFF"/>
<path d="M419.866 226.257C417.498 222.864 413.623 220.756 409.621 219.709C405.619 218.662 401.454 218.566 397.289 218.476C400.111 221.54 403.563 223.955 407.409 225.556C411.254 227.156 415.4 227.905 419.562 227.749" fill="#407BFF"/>
<path d="M424.671 253.526C417.123 251.199 408.977 251.785 401.839 255.167C394.701 258.549 389.089 264.482 386.109 271.797C400.119 269.14 413.943 262.888 424.671 253.526Z" fill="#407BFF"/>
<path d="M440.046 244.052C437.722 250.926 438.168 259.242 443.342 265.174C444.372 261.626 444.61 257.896 444.041 254.246C443.471 250.597 442.107 247.117 440.046 244.052Z" fill="#407BFF"/>
<path d="M449.135 240.229C449.511 244.662 451.024 248.924 453.527 252.602C456.031 256.279 459.44 259.25 463.427 261.225C463.611 261.346 463.818 261.427 464.036 261.462C464.253 261.498 464.475 261.488 464.689 261.433C465.32 261.181 465.379 260.319 465.305 259.644C464.288 250.831 457.762 242.308 449.135 240.229Z" fill="#407BFF"/>
<path d="M455.074 239.337C457.048 241.471 459.439 243.176 462.099 244.347C464.76 245.519 467.632 246.13 470.539 246.145C473.445 246.16 476.324 245.577 478.996 244.432C481.667 243.288 484.076 241.607 486.071 239.493C476.219 238.417 464.845 237.697 455.074 239.337Z" fill="#407BFF"/>
<path d="M456.543 160.559C456.525 160.659 456.495 160.756 456.454 160.849L456.157 161.681C455.875 162.423 455.474 163.507 454.969 164.873C454.464 166.239 453.825 167.954 453.113 169.936C452.756 170.924 452.37 171.978 451.969 173.099L450.744 176.663C449 181.652 447.032 187.643 444.968 194.31C442.904 200.977 440.751 208.365 438.628 216.145C436.505 223.926 434.678 231.395 433.097 238.203C431.515 245.011 430.238 251.173 429.288 256.377C429.043 257.677 428.806 258.909 428.59 260.09C428.375 261.27 428.204 262.369 428.026 263.401C427.67 265.472 427.365 267.254 427.157 268.717C426.949 270.179 426.764 271.293 426.638 272.087C426.578 272.451 426.534 272.741 426.497 272.956C426.459 273.171 426.437 273.253 426.437 273.253C426.427 273.154 426.427 273.055 426.437 272.956C426.437 272.741 426.497 272.444 426.541 272.072C426.645 271.285 426.801 270.15 426.987 268.694C427.172 267.239 427.454 265.443 427.796 263.371C427.959 262.332 428.137 261.226 428.33 260.045C428.523 258.865 428.768 257.632 429.006 256.333C429.927 251.136 431.233 244.959 432.718 238.136C434.203 231.313 436.133 223.852 438.227 216.056C440.321 208.261 442.526 200.888 444.597 194.214C446.668 187.539 448.673 181.592 450.455 176.581L451.709 173.025C452.125 171.911 452.511 170.857 452.883 169.87C453.625 167.895 454.241 166.202 454.791 164.828C455.34 163.455 455.748 162.408 456.045 161.666L456.379 160.842C456.498 160.656 456.535 160.559 456.543 160.559Z" fill="#263238"/>
<path d="M402.422 188.72C402.422 188.72 402.481 188.772 402.593 188.876L403.06 189.374C403.476 189.812 404.07 190.473 404.813 191.334C406.928 193.788 408.868 196.388 410.618 199.114C413.228 203.14 415.27 207.508 416.684 212.092C418.31 217.289 419.32 223.132 420.322 229.272C422.326 241.559 424.776 252.562 426.566 260.521C427.457 264.485 428.184 267.693 428.696 269.942C428.941 271.041 429.127 271.902 429.268 272.511C429.32 272.786 429.372 273.009 429.402 273.179C429.423 273.254 429.435 273.332 429.439 273.409C429.407 273.338 429.382 273.263 429.365 273.187C429.32 273.016 429.261 272.801 429.194 272.526C429.038 271.917 428.823 271.041 428.555 269.979C428.013 267.752 427.249 264.53 426.328 260.58C424.479 252.636 421.978 241.633 419.973 229.331C418.971 223.192 417.968 217.341 416.372 212.196C414.992 207.632 412.993 203.278 410.433 199.256C408.709 196.54 406.809 193.941 404.746 191.475C404.003 190.591 403.446 189.923 403.053 189.47L402.607 188.951C402.537 188.882 402.474 188.804 402.422 188.72Z" fill="#263238"/>
<path d="M458.014 238.915C457.899 238.956 457.779 238.979 457.657 238.982L456.64 239.094L455.898 239.168L455.022 239.302C454.398 239.391 453.685 239.487 452.906 239.658L451.688 239.903L450.374 240.23C449.461 240.437 448.518 240.772 447.516 241.076C445.366 241.82 443.28 242.739 441.279 243.823C439.291 244.935 437.416 246.238 435.681 247.713C434.928 248.357 434.211 249.044 433.536 249.77C432.934 250.392 432.366 251.046 431.836 251.73C431.388 252.284 430.969 252.862 430.581 253.46C430.264 253.898 429.976 254.357 429.72 254.833L429.193 255.717C429.139 255.824 429.072 255.924 428.992 256.014C429.021 255.897 429.066 255.784 429.126 255.68L429.594 254.759C429.826 254.268 430.096 253.796 430.403 253.348C430.776 252.731 431.185 252.136 431.628 251.567C432.145 250.862 432.706 250.19 433.306 249.555C433.982 248.813 434.698 248.109 435.451 247.446C437.195 245.944 439.086 244.621 441.094 243.496C443.115 242.4 445.226 241.478 447.404 240.742C448.422 240.445 449.372 240.126 450.3 239.925L451.621 239.613L452.861 239.391C453.648 239.235 454.346 239.161 455 239.094L455.876 238.99H456.618L457.65 238.945C457.77 238.922 457.892 238.912 458.014 238.915Z" fill="#263238"/>
<path d="M460.82 188.985C460.594 189.234 460.345 189.463 460.078 189.668L458.051 191.428C456.329 192.912 453.931 194.91 451.273 197.122C448.615 199.334 446.18 201.309 444.413 202.735L442.312 204.398C442.063 204.613 441.795 204.805 441.51 204.97C441.732 204.716 441.981 204.487 442.252 204.286L444.286 202.527C446.009 201.042 448.407 199.037 451.065 196.832C453.723 194.627 456.15 192.645 457.917 191.22L460.026 189.557C460.27 189.339 460.537 189.148 460.82 188.985Z" fill="#263238"/>
<path d="M463.239 202.015C463.239 202.119 458.094 203.737 451.687 205.631C445.28 207.524 440.053 208.979 440.024 208.875C439.994 208.771 445.169 207.16 451.583 205.267C457.998 203.374 463.21 201.919 463.239 202.015Z" fill="#263238"/>
<path d="M444.137 196.828C443.933 196.599 443.754 196.35 443.602 196.085L442.236 194.006C441.085 192.262 439.437 189.871 437.499 187.325C435.562 184.778 433.683 182.566 432.302 180.984C431.649 180.242 431.1 179.618 430.669 179.113C430.447 178.889 430.253 178.64 430.09 178.371C430.339 178.551 430.568 178.758 430.773 178.987C431.196 179.395 431.783 180.012 432.503 180.776C433.936 182.321 435.844 184.488 437.796 187.065C439.749 189.641 441.36 192.039 442.466 193.828C443.016 194.727 443.446 195.462 443.728 195.974C443.893 196.244 444.03 196.53 444.137 196.828Z" fill="#263238"/>
<path d="M426.171 204.066C425.808 204.757 425.401 205.424 424.953 206.063C424.21 207.273 423.134 208.966 422.05 210.874C420.966 212.782 420.045 214.586 419.4 215.834C419.092 216.545 418.738 217.234 418.338 217.898C418.554 217.145 418.84 216.414 419.192 215.715C419.786 214.401 420.677 212.604 421.76 210.689C422.844 208.773 423.936 207.095 424.775 205.915C425.183 205.257 425.65 204.638 426.171 204.066Z" fill="#263238"/>
<path d="M420.024 226.584C419.129 226.242 418.252 225.855 417.395 225.425C415.777 224.683 413.52 223.747 410.973 222.857C408.427 221.966 406.066 221.297 404.351 220.859C403.413 220.659 402.487 220.411 401.574 220.117C401.824 220.117 402.073 220.145 402.317 220.199C402.814 220.273 403.519 220.406 404.388 220.592C408.922 221.59 413.319 223.13 417.484 225.18C418.279 225.574 418.917 225.923 419.348 226.16C419.589 226.274 419.816 226.416 420.024 226.584Z" fill="#263238"/>
<path d="M424.862 253.571C424.762 253.623 424.654 253.658 424.543 253.675L423.608 253.913L420.17 254.707C416.375 255.506 412.624 256.497 408.93 257.677C405.255 258.905 401.736 260.559 398.447 262.606C397.192 263.401 396.219 264.091 395.551 264.611C395.221 264.88 394.873 265.128 394.512 265.353C394.58 265.264 394.657 265.182 394.742 265.108C394.905 264.96 395.135 264.737 395.484 264.47C396.39 263.711 397.337 263.002 398.32 262.347C401.594 260.223 405.124 258.524 408.826 257.291C412.532 256.1 416.308 255.14 420.133 254.417L423.6 253.742C424.016 253.654 424.438 253.597 424.862 253.571Z" fill="#263238"/>
<path d="M442.363 260.215C442.259 260.215 441.62 256.6 440.989 252.108C440.358 247.616 439.883 243.941 439.987 243.941C440.091 243.941 440.729 247.557 441.36 252.048C441.992 256.54 442.467 260.2 442.363 260.215Z" fill="#263238"/>
<path d="M460.583 253.601C459.996 252.985 459.447 252.333 458.943 251.648C457.955 250.423 456.596 248.73 455.052 246.896C453.508 245.063 452.082 243.429 451.043 242.249C450.452 241.634 449.904 240.979 449.402 240.289C449.596 240.415 449.771 240.567 449.922 240.742C450.241 241.046 450.664 241.484 451.236 242.063C452.327 243.199 453.79 244.818 455.342 246.659C456.893 248.5 458.222 250.215 459.158 251.485C459.618 252.123 459.989 252.643 460.234 252.97C460.383 253.16 460.501 253.373 460.583 253.601Z" fill="#263238"/>
<path d="M412.363 270.497V279.503H414.62L422.616 304.76H440.368L448.119 279.748L451.118 279.503V270.497H412.363Z" fill="#263238"/>
<path d="M449.615 279.749C449.615 279.853 441.783 279.942 432.116 279.942C422.45 279.942 414.617 279.853 414.617 279.749C414.617 279.645 422.45 279.563 432.116 279.563C441.783 279.563 449.615 279.645 449.615 279.749Z" fill="#455A64"/>
<path d="M462.386 221.839C462.014 221.97 461.631 222.072 461.243 222.143L458.132 222.885C455.504 223.539 451.903 224.526 447.99 225.855C444.078 227.184 440.611 228.565 438.124 229.634L435.191 230.919C434.84 231.094 434.475 231.24 434.1 231.357C434.424 231.137 434.767 230.946 435.124 230.785C435.8 230.436 436.787 229.953 438.02 229.389C444.452 226.458 451.17 224.196 458.065 222.64C459.387 222.351 460.463 222.136 461.206 222.009C461.593 221.914 461.988 221.857 462.386 221.839Z" fill="#263238"/>
<path d="M443.728 293.782C443.728 293.886 438.226 293.967 431.448 293.967C424.669 293.967 419.168 293.886 419.168 293.782C419.168 293.678 424.662 293.589 431.448 293.589C438.234 293.589 443.728 293.678 443.728 293.782Z" fill="#FAFAFA"/>
<path d="M444.42 291.687C444.42 291.791 438.592 291.88 431.405 291.88C424.219 291.88 418.391 291.791 418.391 291.687C418.391 291.583 424.219 291.502 431.405 291.502C438.592 291.502 444.42 291.583 444.42 291.687Z" fill="#FAFAFA"/>
<path d="M396.065 37.4659H93.7101C92.4672 37.462 91.2357 37.7036 90.0865 38.177C88.9372 38.6504 87.8928 39.3462 87.0132 40.2244C86.1336 41.1026 85.4362 42.1459 84.961 43.2945C84.4858 44.443 84.2422 45.6741 84.2442 46.917V260.485C84.2442 262.987 85.2383 265.387 87.008 267.157C88.7776 268.927 91.1778 269.921 93.6804 269.921H209.759C209.759 269.921 217.139 292.751 194.257 304.54H302.771C302.771 304.54 276.934 295.683 283.579 269.906H396.065C397.304 269.906 398.531 269.662 399.676 269.188C400.821 268.713 401.861 268.018 402.737 267.142C403.614 266.266 404.309 265.226 404.783 264.081C405.257 262.936 405.501 261.709 405.501 260.47V46.917C405.503 45.6766 405.26 44.4479 404.787 43.3013C404.314 42.1548 403.619 41.1128 402.743 40.2349C401.866 39.3571 400.825 38.6607 399.679 38.1856C398.534 37.7104 397.305 37.4659 396.065 37.4659Z" fill="#455A64"/>
<path d="M248.94 247.454C253.053 253.334 246.609 259.771 240.729 255.658C240.534 255.519 240.363 255.348 240.224 255.153C236.126 249.281 242.555 242.851 248.428 246.95C248.625 247.089 248.798 247.259 248.94 247.454Z" fill="#263238"/>
<path d="M96.4359 41.4083H392.881C394.791 41.4083 396.623 42.167 397.973 43.5176C399.324 44.8681 400.082 46.6999 400.082 48.6098V230.876H89.2344V48.6098C89.2344 46.6999 89.9931 44.8681 91.3437 43.5176C92.6942 42.167 94.526 41.4083 96.4359 41.4083Z" fill="white"/>
<path d="M96.2718 41.378H394.499C395.979 41.378 397.399 41.9662 398.446 43.0133C399.493 44.0603 400.082 45.4804 400.082 46.9611V57.125H89.4414V48.1787C89.4404 47.2828 89.6166 46.3956 89.9599 45.5681C90.3032 44.7407 90.8067 43.9893 91.4416 43.3572C92.0764 42.7251 92.83 42.2248 93.659 41.8851C94.488 41.5455 95.3759 41.3731 96.2718 41.378Z" fill="#EBEBEB"/>
<path d="M101.557 49.5831C101.557 50.0148 101.429 50.4368 101.189 50.7958C100.949 51.1548 100.608 51.4345 100.209 51.5997C99.8106 51.7649 99.3717 51.8082 98.9483 51.7239C98.5249 51.6397 98.136 51.4318 97.8307 51.1266C97.5255 50.8213 97.3176 50.4324 97.2333 50.009C97.1491 49.5856 97.1923 49.1467 97.3576 48.7478C97.5228 48.349 97.8025 48.0081 98.1615 47.7682C98.5204 47.5284 98.9425 47.4004 99.3742 47.4004C99.9531 47.4004 100.508 47.6304 100.918 48.0397C101.327 48.449 101.557 49.0042 101.557 49.5831Z" fill="#263238"/>
<path d="M108.069 49.5831C108.069 50.0148 107.941 50.4368 107.701 50.7958C107.461 51.1548 107.12 51.4345 106.721 51.5997C106.322 51.7649 105.883 51.8082 105.46 51.7239C105.037 51.6397 104.648 51.4318 104.342 51.1266C104.037 50.8213 103.829 50.4324 103.745 50.009C103.661 49.5856 103.704 49.1467 103.869 48.7478C104.034 48.349 104.314 48.0081 104.673 47.7682C105.032 47.5284 105.454 47.4004 105.886 47.4004C106.465 47.4004 107.02 47.6304 107.429 48.0397C107.839 48.449 108.069 49.0042 108.069 49.5831Z" fill="#263238"/>
<path d="M114.26 49.5831C114.26 50.0148 114.132 50.4368 113.892 50.7958C113.652 51.1548 113.311 51.4345 112.913 51.5997C112.514 51.7649 112.075 51.8082 111.651 51.7239C111.228 51.6397 110.839 51.4318 110.534 51.1266C110.229 50.8213 110.021 50.4324 109.936 50.009C109.852 49.5856 109.895 49.1467 110.061 48.7478C110.226 48.349 110.506 48.0081 110.865 47.7682C111.224 47.5284 111.646 47.4004 112.077 47.4004C112.656 47.4004 113.211 47.6304 113.621 48.0397C114.03 48.449 114.26 49.0042 114.26 49.5831Z" fill="#263238"/>
<path d="M342.023 269.95C342.023 270.047 298.962 270.128 245.93 270.128C192.898 270.128 149.83 270.047 149.83 269.95C149.83 269.854 192.846 269.765 245.93 269.765C299.014 269.765 342.023 269.846 342.023 269.95Z" fill="#263238"/>
<path d="M363.496 163.478C367.09 161.622 371.321 161.384 375.308 162.038C377.446 162.394 379.681 163.033 381.144 164.644C382.606 166.255 382.874 169.098 381.203 170.472C380.112 171.204 378.799 171.532 377.491 171.4C374.373 171.363 370.906 170.813 368.411 172.692C366.993 173.768 366.043 175.55 364.343 176.07C363.487 176.276 362.587 176.195 361.782 175.84C360.977 175.484 360.312 174.874 359.888 174.102C359.076 172.539 358.898 170.723 359.391 169.031C359.597 167.851 360.076 166.734 360.789 165.771C361.501 164.807 362.428 164.022 363.496 163.478Z" fill="#EBEBEB"/>
<path d="M355.268 147.56C357.496 150.701 361.735 149.661 363.71 147.746C365.685 145.83 366.531 143.053 367.288 140.41C369.033 134.367 370.785 128.019 369.515 121.85C369.203 119.984 368.384 118.24 367.147 116.809C366.519 116.105 365.718 115.578 364.823 115.279C363.928 114.981 362.971 114.922 362.047 115.108C359.894 115.68 358.55 117.789 357.592 119.793C354.748 125.714 353.257 132.194 353.227 138.762C353.227 141.821 353.576 145.021 355.298 147.545" fill="#EBEBEB"/>
<path d="M349.24 152.059C351.623 149.23 352.076 145.102 351.015 141.561C349.953 138.019 347.555 134.998 344.793 132.533C341.541 129.642 337.759 127.411 333.657 125.962C332.066 125.324 330.357 125.033 328.645 125.108C327.79 125.159 326.961 125.417 326.228 125.861C325.496 126.304 324.883 126.92 324.443 127.655C323.27 129.882 324.391 132.6 325.609 134.812C327.747 138.712 330.193 142.436 332.922 145.948C335.149 148.777 337.628 151.569 340.969 152.846C344.31 154.123 347.785 153.974 349.559 151.65" fill="#EBEBEB"/>
<path d="M355.119 194.876C355.241 194.41 355.308 193.931 355.32 193.45C355.424 192.418 355.55 191.111 355.698 189.56C355.889 187.645 356.181 185.742 356.574 183.858C357.082 181.561 357.775 179.309 358.646 177.124C359.5 174.941 360.657 172.889 362.083 171.029C363.248 169.516 364.734 168.281 366.434 167.413C367.586 166.844 368.822 166.46 370.094 166.277C370.573 166.259 371.048 166.189 371.512 166.069C371.031 166.021 370.546 166.021 370.064 166.069C368.744 166.173 367.452 166.51 366.248 167.064C364.46 167.909 362.892 169.156 361.667 170.709C360.178 172.592 358.977 174.687 358.104 176.924C357.221 179.142 356.53 181.432 356.04 183.769C355.675 185.677 355.427 187.606 355.297 189.545C355.171 191.201 355.127 192.515 355.104 193.458C355.06 193.929 355.065 194.405 355.119 194.876Z" fill="#E0E0E0"/>
<path d="M355.387 191.883C355.417 191.664 355.417 191.442 355.387 191.223V189.329C355.387 187.689 355.387 185.313 355.469 182.38C355.617 176.515 356.122 170.204 357.095 161.303C358.015 152.935 359.255 143.195 360.569 136.862C360.844 135.421 361.134 134.13 361.394 132.994C361.653 131.858 361.869 130.87 362.077 130.083C362.284 129.296 362.403 128.725 362.515 128.242C362.581 128.03 362.621 127.811 362.633 127.589C362.531 127.786 362.454 127.996 362.403 128.213C362.262 128.688 362.077 129.282 361.854 130.024C361.631 130.766 361.364 131.784 361.074 132.912C360.785 134.041 360.465 135.34 360.161 136.773C358.542 144.263 357.323 151.834 356.508 159.454C355.536 168.363 355.09 176.493 355.023 182.373C355.023 185.343 355.023 187.696 355.127 189.337C355.172 190.079 355.209 190.733 355.239 191.23C355.267 191.452 355.317 191.671 355.387 191.883Z" fill="#E0E0E0"/>
<path d="M355.431 176.226C355.478 175.566 355.478 174.904 355.431 174.244C355.357 172.974 355.179 171.14 354.822 168.891C354.391 166.261 353.811 163.659 353.085 161.095C352.232 157.94 351.14 154.855 349.818 151.867C347.558 146.359 344.315 141.307 340.248 136.959C339.551 136.215 338.807 135.516 338.021 134.865C337.68 134.568 337.368 134.279 337.063 134.048L336.187 133.447C335.659 133.051 335.104 132.694 334.524 132.378C334.428 132.512 336.878 133.952 339.974 137.241C343.905 141.626 347.063 146.647 349.313 152.089C350.593 155.068 351.672 158.129 352.543 161.251C353.292 163.792 353.912 166.369 354.399 168.972C354.807 171.2 355.045 173.011 355.186 174.273C355.215 174.93 355.297 175.583 355.431 176.226Z" fill="#E0E0E0"/>
<path d="M340.285 203.852L341.859 225.352H369.478L371.051 203.852H340.285Z" fill="#E0E0E0"/>
<path d="M374.347 195.373H337.619V203.852H374.347V195.373Z" fill="#E0E0E0"/>
<path d="M337.619 224.528V226.882H339.349H373.738V224.528H337.619Z" fill="#EBEBEB"/>
<path d="M341.037 231.017L339.352 226.882H372.427L370.452 231.017H341.037Z" fill="#E0E0E0"/>
<path d="M370.539 210.876C370.539 210.876 370.539 210.95 370.405 211.076C370.272 211.202 370.16 211.403 369.997 211.625L368.386 213.682L368.312 213.771L368.245 213.682L364.295 208.21H364.518L360.628 213.719L360.509 213.897L360.368 213.734L355.75 208.24H356.017L355.765 208.559L351.637 213.756L351.503 213.927L351.369 213.749L347.479 208.232H347.702L342.906 213.697L342.824 213.793L342.757 213.682L341.272 211.158L340.886 210.489C340.841 210.413 340.801 210.334 340.768 210.252C340.768 210.252 340.834 210.319 340.931 210.46L341.354 211.106C341.74 211.714 342.267 212.546 342.935 213.585H342.78L347.501 208.062L347.62 207.921L347.732 208.069C348.919 209.74 350.241 211.581 351.659 213.556H351.392L355.512 208.359L355.765 208.039L355.898 207.876L356.032 208.032L360.635 213.541H360.375L364.31 208.054L364.421 207.898L364.533 208.054L368.401 213.585H368.267L369.938 211.581L370.383 211.061C370.427 210.993 370.479 210.931 370.539 210.876Z" fill="#F5F5F5"/>
<path d="M371.438 203.711C371.438 203.808 364.511 203.882 355.98 203.882C347.45 203.882 340.516 203.808 340.516 203.711C340.516 203.615 347.435 203.57 355.973 203.57C364.511 203.57 371.438 203.615 371.438 203.711Z" fill="#F5F5F5"/>
<path d="M372.835 227.112C372.835 227.209 365.307 227.283 356.034 227.283C346.761 227.283 339.232 227.209 339.232 227.112C339.232 227.016 346.753 226.941 356.034 226.941C365.314 226.941 372.835 227.016 372.835 227.112Z" fill="#F5F5F5"/>
<path d="M285.175 106.569C284.388 93.3935 283.099 80.2575 281.307 67.161C280.23 59.2838 278.953 51.3695 276.236 43.8932C273.519 36.417 269.25 29.3565 263.051 24.4193C256.851 19.4821 248.573 16.8911 240.896 18.6061L272.234 115.33C274.573 115.642 276.956 115.946 279.265 115.486C281.574 115.025 283.839 113.652 284.752 111.462C285.261 109.884 285.406 108.211 285.175 106.569Z" fill="#263238"/>
<path d="M230.672 21.9323C224.666 21.4646 217.383 23.7661 213.968 28.7627C211.317 32.6456 211.948 39.4166 210.998 44.0419C209.513 51.4662 208.073 58.8905 207.887 66.4559C207.687 74.7563 209.023 83.0047 210.367 91.1937C211.852 100.251 213.337 109.306 214.822 118.359C215.482 122.383 216.165 126.526 218.059 130.104C219.952 133.683 223.308 136.786 227.339 137.261C231.051 137.692 234.719 135.829 237.198 133.044C239.678 130.26 241.066 126.66 241.928 123.022L230.672 21.9323Z" fill="#263238"/>
<path d="M235.965 106.481C234.169 106.392 222.193 109.265 222.193 109.265L236.129 163.834L258.439 165.638L278.239 103.519L235.965 106.481Z" fill="#AA6550"/>
<path d="M261.038 152.608C257.835 156.557 253.424 159.345 248.483 160.544C245.764 161.307 242.877 161.224 240.205 160.307C237.592 159.29 235.379 156.943 235.053 154.137L231.244 165.704L238.008 199.433L248.988 230.89L270.482 230.763L261.038 152.608Z" fill="#263238"/>
<path d="M175.204 159.297L184.803 147.692C184.803 147.692 194.076 117.423 196.861 115.159C199.645 112.895 225.073 106.51 225.073 106.51L234.138 145.614L238.748 193.738L247.205 212.848L255.505 230.822L226.365 230.904C226.365 230.904 214.486 204.08 208.19 188.481C206.146 183.413 204.873 178.068 204.411 172.623L204.099 168.911C204.099 168.911 185.145 212.766 180.676 215.588C176.206 218.409 170.63 222.656 164.483 222.396C158.336 222.136 145.7 203.872 145.7 203.872L145.633 179.476L163.496 172.007L166.592 178.756L175.204 159.297Z" fill="#407BFF"/>
<path d="M252.092 211.527L254.037 206.738L295.286 187.346L294.009 129.919L304.997 106.503C304.997 106.503 311.234 109.227 314.842 117.275C317.389 122.933 324.731 203.034 320.574 205.536C315.139 208.765 278.641 223.272 266.436 228.068C265.332 228.502 264.108 228.523 262.99 228.127C261.872 227.732 260.934 226.946 260.348 225.915L252.092 211.527Z" fill="#407BFF"/>
<path d="M300.179 205.269L304.849 106.31L281.596 102.026L274.914 97.208H269.628C269.628 97.208 271.573 102.242 271.313 106.392C271.053 110.542 251.898 184.674 251.898 184.674L262.775 230.808L311.946 230.66L300.179 205.269Z" fill="#407BFF"/>
<path d="M281.596 102.004V102.145C281.596 102.256 281.596 102.39 281.596 102.561C281.596 102.954 281.663 103.496 281.708 104.187C281.797 105.612 281.893 107.706 281.953 110.356C282.079 115.672 281.864 123.26 281.426 132.31V132.458H281.27L272.516 132.948L272.658 132.666C274.682 135.881 277.457 138.556 280.743 140.462L280.891 140.551L280.824 140.707L277.327 148.443C273.986 155.867 270.883 162.972 268.374 169.558C266.107 175.374 264.152 181.307 262.516 187.331C261.135 192.476 260.341 196.723 259.821 199.656C259.598 201.141 259.42 202.254 259.294 203.049C259.234 203.42 259.19 203.717 259.153 203.932C259.144 204.033 259.124 204.133 259.093 204.229C259.083 204.128 259.083 204.026 259.093 203.925C259.093 203.709 259.153 203.412 259.197 203.041C259.301 202.299 259.427 201.111 259.65 199.633C260.125 196.664 260.883 192.432 262.226 187.257C263.833 181.217 265.766 175.269 268.017 169.439C270.512 162.831 273.615 155.719 276.927 148.287L280.431 140.551L280.505 140.796C277.182 138.858 274.38 136.142 272.338 132.882L272.175 132.622H272.479L281.24 132.161L281.077 132.317C281.552 123.275 281.819 115.702 281.745 110.393C281.745 107.735 281.648 105.649 281.596 104.224C281.596 103.526 281.552 102.984 281.53 102.598V102.175C281.539 102.114 281.562 102.055 281.596 102.004Z" fill="#263238"/>
<path d="M254.26 224.996L253.94 224.848L253.012 224.387C252.196 224.001 251.037 223.333 249.552 222.45C248.81 221.974 248.023 221.462 247.169 220.861C246.316 220.259 245.387 219.584 244.459 218.789C242.301 217.042 240.28 215.131 238.416 213.073C233.562 207.706 229.587 201.604 226.641 194.994C223.088 186.888 220.61 178.352 219.269 169.603C218.289 163.708 217.717 157.932 217.316 152.438C217.116 149.706 216.997 146.952 217.717 144.398C218.437 141.844 220.033 139.579 222.357 138.592L222.313 138.874C221.433 138.125 220.379 137.609 219.247 137.376C218.115 137.142 216.943 137.198 215.839 137.538L215.631 137.612V137.389C215.906 128.859 216.128 121.798 216.284 116.928C216.373 114.5 216.448 112.592 216.492 111.271C216.492 110.639 216.544 110.142 216.559 109.786C216.574 109.429 216.596 109.273 216.596 109.273C216.596 109.273 216.596 109.452 216.596 109.786C216.596 110.12 216.596 110.632 216.596 111.271C216.596 112.585 216.522 114.493 216.47 116.928C216.344 121.835 216.165 128.859 215.95 137.389L215.742 137.233C216.899 136.871 218.128 136.807 219.315 137.047C220.503 137.287 221.611 137.824 222.535 138.607L222.736 138.785L222.491 138.896C220.264 139.832 218.742 142.044 218.036 144.487C217.331 146.929 217.465 149.684 217.665 152.409C218.073 157.895 218.645 163.656 219.633 169.537C220.963 178.254 223.422 186.762 226.945 194.846C229.864 201.43 233.795 207.517 238.594 212.887C240.44 214.942 242.438 216.855 244.571 218.611C245.491 219.413 246.427 220.096 247.251 220.697C248.075 221.299 248.907 221.826 249.612 222.316C251.097 223.214 252.218 223.905 253.027 224.313L253.933 224.803L254.26 224.996Z" fill="#263238"/>
<path d="M293.698 138.843C293.706 138.919 293.706 138.996 293.698 139.073C293.698 139.236 293.698 139.459 293.698 139.749C293.735 140.365 293.78 141.233 293.847 142.399C293.958 144.723 294.121 148.116 294.329 152.414C294.73 161.041 295.287 173.321 295.963 187.947V188.066L295.859 188.11L257.646 205.053L253.971 206.679L254.075 206.575C253.807 207.243 253.54 207.889 253.273 208.542V208.394C255.983 214.964 258.589 221.312 261.039 227.259L260.964 227.17C261.939 227.748 263.024 228.115 264.149 228.246C264.42 228.265 264.692 228.25 264.959 228.202C265.213 228.138 265.462 228.051 265.701 227.942L267.29 227.34L273.474 224.972L284.989 220.518C292.258 217.681 298.665 215.127 303.959 212.96C309.252 210.792 313.439 209.002 316.268 207.681C317.679 207.02 318.755 206.486 319.453 206.07C319.717 205.919 319.966 205.742 320.195 205.543C320.276 205.478 320.337 205.394 320.374 205.298C320.359 205.406 320.303 205.504 320.218 205.572C319.99 205.78 319.741 205.964 319.475 206.122C318.448 206.735 317.39 207.295 316.305 207.8C313.491 209.151 309.319 210.977 304.033 213.175C298.747 215.372 292.354 217.949 285.093 220.814L273.586 225.269L267.401 227.652L265.82 228.261C265.548 228.376 265.268 228.468 264.981 228.536C264.682 228.59 264.378 228.608 264.075 228.588C262.89 228.455 261.746 228.073 260.719 227.467H260.667V227.407C258.21 221.468 255.597 215.12 252.887 208.55V208.475V208.401C253.154 207.755 253.414 207.102 253.689 206.434V206.367L253.755 206.33L257.468 204.704L295.762 187.784L295.658 187.947C295.049 173.314 294.537 161.041 294.173 152.407C294.003 148.108 293.869 144.715 293.78 142.384C293.74 141.231 293.71 140.347 293.691 139.734C293.691 139.444 293.691 139.221 293.691 139.058L293.698 138.843Z" fill="#263238"/>
<path d="M304.069 109.316C304.121 109.361 303.245 110.356 302.02 112.093C300.425 114.361 299.076 116.793 297.996 119.347C296.927 121.904 296.138 124.57 295.643 127.298C295.257 129.392 295.16 130.713 295.093 130.706C295.063 130.395 295.063 130.081 295.093 129.77C295.14 128.925 295.229 128.082 295.361 127.246C296.209 121.691 298.412 116.431 301.775 111.93C302.278 111.251 302.816 110.6 303.386 109.977C303.591 109.735 303.82 109.513 304.069 109.316Z" fill="#263238"/>
<path d="M205.081 140.112C204.984 139.78 204.922 139.439 204.895 139.095C204.813 138.441 204.665 137.491 204.45 136.333C203.35 130.258 201.175 124.427 198.028 119.116C197.426 118.099 196.914 117.282 196.543 116.733C196.34 116.453 196.163 116.155 196.016 115.842C196.257 116.089 196.476 116.357 196.669 116.644C197.07 117.171 197.619 117.965 198.25 118.975C201.558 124.247 203.756 130.138 204.71 136.288C204.888 137.461 204.999 138.419 205.036 139.08C205.089 139.421 205.104 139.767 205.081 140.112Z" fill="#263238"/>
<path d="M245.119 161.042C244.924 160.085 244.857 159.106 244.919 158.131C244.848 157.16 244.91 156.183 245.105 155.229C245.362 157.158 245.362 159.113 245.105 161.042H245.119Z" fill="#754034"/>
<g opacity="0.3">
<path d="M277.719 134.128L284.253 135.004C282.85 131.411 283.05 111.989 281.914 108.195L281.313 132.295L272.559 132.762C272.559 132.762 276.324 137.818 278.083 138.88C278.977 139.395 279.833 139.973 280.645 140.61C280.645 140.61 268.261 169.565 266.33 174.554C262.225 185.178 259.24 203.048 259.24 203.048C269.508 185.23 275.47 164.613 280.852 144.708C281.376 143.187 281.579 141.574 281.446 139.971C281.083 137.655 279.36 135.814 277.719 134.128Z" fill="black"/>
</g>
<g opacity="0.3">
<path d="M215.846 137.411C215.727 137.767 215.942 129.244 215.994 129.066C216.046 128.888 214.881 139.289 214.673 139.905L218.259 139.118C217.368 139.561 216.58 140.187 215.947 140.954C215.314 141.722 214.849 142.614 214.584 143.573C214.066 145.508 213.863 147.513 213.982 149.512C214.22 164.428 217.457 179.744 225.475 192.291C220.233 179.811 218.622 166.135 217.353 152.638C217.108 149.987 216.9 147.344 217.642 144.783C218.385 142.222 220.085 139.497 222.416 138.628C220.62 137.143 218.095 136.401 215.846 137.411Z" fill="black"/>
</g>
<g opacity="0.3">
<path d="M261.98 227.89C262.923 229.887 266.361 229.746 268.759 229.479C271.142 229.106 273.467 228.43 275.678 227.467C285.657 223.621 295.308 220.161 305.286 216.33L303.898 213.323L265.396 228.298C264.831 228.484 264.233 228.543 263.643 228.473C263.053 228.402 262.485 228.203 261.98 227.89Z" fill="black"/>
</g>
<path d="M160.015 131.405C158.114 131.241 152.479 132.89 151.002 135.51L147.898 145.904C147.898 145.904 154.877 138.718 158.092 137.559C163.126 135.748 165.457 135.711 163.289 133.001C162.894 132.51 162.396 132.113 161.83 131.837C161.264 131.561 160.644 131.413 160.015 131.405Z" fill="#AA6550"/>
<path d="M130.652 139.266L134.038 147.069L134.171 161.249L151.047 158.762L148.619 145.176L150.282 139.207L143.326 133.334L130.652 139.266Z" fill="#AA6550"/>
<path d="M204.067 151.639L115.629 151.901L115.809 212.624L204.247 212.362L204.067 151.639Z" fill="#FAFAFA"/>
<path d="M204.227 212.373C204.227 212.373 204.227 211.995 204.227 211.267C204.227 210.54 204.227 209.456 204.227 208.052C204.227 205.239 204.19 201.111 204.152 195.832C204.108 185.275 204.034 170.114 203.945 151.657L204.1 151.813L115.67 152.103L115.863 151.91C115.915 173.589 115.974 194.184 116.019 212.633L115.84 212.455L179.571 212.359H204.286H203.87H202.645L197.842 212.396L179.689 212.492L115.84 212.767H115.67V212.589C115.61 194.139 115.543 173.544 115.477 151.865V151.672H115.677L204.108 151.457H204.264V151.613C204.264 170.107 204.301 185.297 204.308 195.884V208.075C204.308 209.463 204.308 210.525 204.308 211.252C204.308 211.98 204.227 212.373 204.227 212.373Z" fill="#263238"/>
<path d="M122.41 206.123C122.306 206.123 122.187 195.819 122.15 183.108C122.113 170.398 122.15 160.093 122.284 160.093C122.418 160.093 122.507 170.39 122.544 183.108C122.581 195.826 122.522 206.123 122.41 206.123Z" fill="#263238"/>
<path d="M199.149 199.56C199.149 199.671 181.902 199.805 160.624 199.864C139.346 199.924 122.1 199.864 122.1 199.783C122.1 199.701 139.346 199.538 160.624 199.478C181.902 199.419 199.149 199.456 199.149 199.56Z" fill="#EBEBEB"/>
<path d="M199.125 192.81C199.125 192.914 181.879 193.055 160.608 193.115C139.337 193.174 122.105 193.174 122.105 193.033C122.105 192.892 139.345 192.788 160.63 192.729C181.916 192.669 199.125 192.706 199.125 192.81Z" fill="#EBEBEB"/>
<path d="M199.104 186.062C199.104 186.166 181.858 186.307 160.587 186.366C139.317 186.426 122.062 186.366 122.062 186.285C122.062 186.203 139.309 186.04 160.587 185.98C181.865 185.921 199.104 185.95 199.104 186.062Z" fill="#EBEBEB"/>
<path d="M199.088 179.314C199.088 179.418 181.842 179.551 160.564 179.618C139.286 179.685 122.039 179.618 122.039 179.529C122.039 179.44 139.286 179.292 160.564 179.232C181.842 179.173 199.088 179.202 199.088 179.314Z" fill="#EBEBEB"/>
<path d="M199.067 172.557C199.067 172.668 181.821 172.802 160.55 172.861C139.279 172.92 122.025 172.861 122.025 172.779C122.025 172.698 139.265 172.542 160.55 172.475C181.836 172.408 199.067 172.453 199.067 172.557Z" fill="#EBEBEB"/>
<path d="M199.053 165.808C199.053 165.92 181.799 166.053 160.529 166.113C139.258 166.172 122.004 166.113 122.004 166.031C122.004 165.949 139.251 165.786 160.529 165.727C181.807 165.667 199.053 165.704 199.053 165.808Z" fill="#EBEBEB"/>
<path d="M199.03 159.059C199.03 159.163 181.784 159.304 160.513 159.364C139.242 159.423 121.988 159.364 121.988 159.282C121.988 159.2 139.228 159.037 160.506 158.978C181.784 158.918 199.03 158.955 199.03 159.059Z" fill="#EBEBEB"/>
<path d="M132.848 195.557L127.324 195.573L127.355 206.093L132.879 206.077L132.848 195.557Z" fill="#407BFF"/>
<path d="M172.93 195.468L167.406 195.483L167.436 206.004L172.959 205.988L172.93 195.468Z" fill="#407BFF"/>
<path d="M143.656 187.781L138.133 187.797L138.187 206.053L143.711 206.037L143.656 187.781Z" fill="#407BFF"/>
<path d="M163.85 183.012L158.326 183.027L158.39 206.035L163.914 206.02L163.85 183.012Z" fill="#407BFF"/>
<path d="M153.819 169.059L148.295 169.074L148.398 206.055L153.922 206.039L153.819 169.059Z" fill="#407BFF"/>
<path d="M183.578 175.823L178.055 175.839L178.139 205.981L183.663 205.966L183.578 175.823Z" fill="#407BFF"/>
<path d="M190.27 205.922C190.27 206.033 175.109 206.159 156.415 206.211C137.721 206.263 122.553 206.211 122.553 206.122C122.553 206.033 137.706 205.884 156.415 205.825C175.124 205.766 190.27 205.795 190.27 205.922Z" fill="#263238"/>
<path d="M154.863 156.475L153.148 160.106L151.091 156.483L150.936 120.467L154.707 120.46L154.863 156.475Z" fill="#263238"/>
<path d="M153.289 120.535C153.289 120.535 151.664 117.276 149.867 117.283C148.07 117.291 145.375 120.557 145.375 120.557C145.375 120.557 141.232 118.397 139.792 118.939C138.352 119.481 136.206 123.119 136.206 123.119C135.064 123.483 133.993 124.038 133.036 124.759C132.078 125.665 131.907 128.568 131.907 128.568C131.907 128.568 129.391 128.932 129.391 130.387C129.391 131.842 129.391 137.811 130.675 139.259C131.959 140.707 138.975 146.119 141.403 145.941C143.831 145.763 143.816 142.311 143.274 141.59C143.274 141.59 146.162 143.758 147.595 141.761C149.028 139.764 148.3 136.869 148.3 136.869C148.3 136.869 149.407 140.313 151.641 138.784C154.232 137.017 152.012 133.327 152.012 133.327C152.012 133.327 153.876 136.297 154.982 134.857C156.088 133.416 155.725 131.048 154.982 129.422C154.24 127.796 153.289 120.535 153.289 120.535Z" fill="#AA6550"/>
<path d="M141.105 139.911C140.683 139.6 140.306 139.233 139.984 138.82C138.316 136.933 136.887 134.849 135.729 132.613C135.459 132.164 135.251 131.679 135.113 131.173C135.217 131.121 136.331 133.222 137.986 135.627C139.642 138.033 141.186 139.83 141.105 139.911Z" fill="#754034"/>
<path d="M148.308 136.571C146.898 134.98 145.587 133.303 144.38 131.553C143.063 129.87 141.848 128.11 140.742 126.281C142.158 127.881 143.477 129.565 144.692 131.322C146 132.999 147.207 134.752 148.308 136.571Z" fill="#754034"/>
<path d="M152.256 133.483C151.879 133.002 151.555 132.482 151.291 131.931L149.123 128.093L146.933 124.262C146.598 123.75 146.317 123.205 146.094 122.636C146.509 123.087 146.87 123.585 147.17 124.121C147.786 125.063 148.603 126.4 149.457 127.9C150.311 129.399 151.031 130.788 151.528 131.797C151.83 132.332 152.074 132.897 152.256 133.483Z" fill="#754034"/>
<path d="M147.921 136.504C147.921 136.504 147.988 136.556 148.077 136.682C148.213 136.864 148.323 137.064 148.404 137.276C148.665 137.957 148.733 138.697 148.602 139.414C148.471 140.132 148.146 140.8 147.661 141.345C147.187 141.879 146.541 142.231 145.835 142.339C145.046 142.41 144.255 142.25 143.555 141.879C142.798 141.505 142.124 140.982 141.573 140.342L141.84 140.082C142.672 140.77 143.268 141.699 143.548 142.74C143.659 143.275 143.621 143.83 143.437 144.344C143.252 144.858 142.885 145.286 142.405 145.547C141.491 145.927 140.47 145.964 139.531 145.651C137.977 145.249 136.504 144.578 135.181 143.668C134.291 143.061 133.479 142.348 132.761 141.545C132.516 141.255 132.33 141.025 132.211 140.862C132.092 140.699 132.04 140.61 132.055 140.602C133.033 141.674 134.131 142.628 135.329 143.446C136.644 144.301 138.092 144.93 139.613 145.309C140.468 145.586 141.394 145.552 142.227 145.213C142.619 144.965 142.922 144.6 143.091 144.168C143.261 143.737 143.288 143.263 143.169 142.815C142.903 141.854 142.351 140.998 141.588 140.357L141.855 140.097C142.924 141.315 144.432 142.146 145.79 142.005C146.427 141.924 147.014 141.619 147.446 141.144C147.831 140.734 148.118 140.241 148.285 139.704C148.532 138.929 148.532 138.096 148.285 137.321C148.092 136.749 147.891 136.526 147.921 136.504Z" fill="#754034"/>
<path d="M151.5 132.027C151.882 132.462 152.177 132.966 152.369 133.512C152.616 134.102 152.791 134.721 152.888 135.353C152.958 136.149 152.841 136.95 152.547 137.692C152.426 138.091 152.204 138.452 151.902 138.739C151.6 139.027 151.229 139.231 150.824 139.333C150.488 139.367 150.148 139.317 149.836 139.187C149.524 139.058 149.249 138.853 149.035 138.59C148.764 138.252 148.547 137.874 148.389 137.469C148.278 137.195 148.233 137.031 148.256 137.024C148.278 137.016 148.367 137.15 148.523 137.403C148.732 137.763 148.981 138.099 149.265 138.405C149.453 138.621 149.69 138.79 149.956 138.897C150.222 139.004 150.509 139.047 150.795 139.021C151.132 138.919 151.439 138.734 151.688 138.484C151.937 138.234 152.12 137.926 152.22 137.588C152.488 136.898 152.605 136.159 152.562 135.42C152.488 134.816 152.348 134.221 152.146 133.646C151.804 132.636 151.441 132.057 151.5 132.027Z" fill="#754034"/>
<path d="M146.658 145.205C145.688 145.996 144.638 146.682 143.525 147.254C142.48 147.94 141.365 148.512 140.199 148.962C141.174 148.18 142.223 147.496 143.332 146.92C144.38 146.238 145.495 145.663 146.658 145.205Z" fill="#754034"/>
<path d="M254.17 208.179L228.534 215.64L219.164 209.241C219.164 209.241 210.634 206.627 207.857 206.271C205.081 205.914 200.507 206.115 197.463 206.122C195.856 206.209 194.263 205.791 192.905 204.927C192.905 204.927 190.269 204.831 190.974 208.209C191.85 212.396 201.814 212.366 201.814 212.366L188.606 212.411H180.922L187.604 217.118C189.298 218.302 191.312 218.944 193.38 218.959H196.067C195.377 222.671 196.721 224.691 199.178 225.76C197.24 227.586 198.213 231.001 202.014 230.86C203.856 230.793 236.018 230.86 236.018 230.86L263.695 226.925L254.17 208.179Z" fill="#AA6550"/>
<path d="M202.058 218.75C200.637 219.019 199.19 219.123 197.745 219.061C196.304 219.124 194.861 219.099 193.424 218.987C194.845 218.718 196.292 218.613 197.737 218.675C199.178 218.608 200.621 218.633 202.058 218.75Z" fill="#754034"/>
<path d="M209.789 210.793C208.082 211.238 206.345 211.555 204.592 211.743C202.876 212.064 201.139 212.255 199.395 212.315C201.102 211.873 202.839 211.556 204.592 211.365C206.308 211.047 208.045 210.856 209.789 210.793Z" fill="#754034"/>
<path d="M214.436 108.256C214.637 108.159 214.34 107.097 213.694 105.286C213.048 103.474 211.964 100.831 210.791 97.5647C209.388 93.8002 208.298 89.9264 207.532 85.9827C206.617 81.2292 206.601 76.3462 207.487 71.587C208.415 66.5014 210.063 61.7201 211.407 57.273C212.684 53.2984 213.608 49.2191 214.169 45.0823C214.555 42.2622 214.527 39.401 214.087 36.5889C213.731 34.614 213.271 33.6191 213.078 33.6191C212.588 33.7082 213.389 38.0069 211.979 44.7556C211.114 48.6984 209.991 52.5798 208.616 56.3746C207.131 60.7327 205.364 65.5808 204.361 71.0228C204.112 72.3688 203.931 73.7268 203.819 75.0913C203.775 75.7669 203.723 76.4351 203.723 77.1107C203.723 77.7863 203.678 78.4397 203.723 79.093C203.802 81.5915 204.115 84.0772 204.658 86.5173C205.581 90.6085 206.935 94.5904 208.697 98.3962C209.846 100.939 211.132 103.418 212.55 105.82C213.582 107.476 214.251 108.352 214.436 108.256Z" fill="#263238"/>
<path d="M265.209 46.5507C264.991 43.1477 264.089 39.8237 262.556 36.7777C261.024 33.7317 258.892 31.0262 256.289 28.8233C253.686 26.6204 250.666 24.9654 247.408 23.9573C244.151 22.9491 240.723 22.6087 237.331 22.9562C223.663 24.2406 213.573 36.4016 214.041 49.9733C214.449 61.8522 215.118 73.835 215.971 78.0668C218.533 90.8218 227.034 94.3558 230.382 95.2689C231.557 95.4563 232.749 95.521 233.938 95.462C233.949 95.4609 233.961 95.4623 233.972 95.4659C233.982 95.4696 233.992 95.4754 234.001 95.4831C234.009 95.4908 234.016 95.5001 234.02 95.5106C234.025 95.521 234.027 95.5323 234.027 95.5436L233.908 110.763C234.413 120.63 241.452 128.173 251.422 127.728C261.393 127.283 267.622 118.448 267.333 108.536L265.209 46.5507Z" fill="#AA6550"/>
<path d="M220.531 56.6118C220.547 57.1534 220.775 57.6669 221.167 58.0408C221.559 58.4148 222.083 58.6189 222.625 58.6089C222.891 58.6199 223.157 58.5776 223.407 58.4845C223.657 58.3914 223.885 58.2495 224.08 58.067C224.274 57.8845 224.43 57.6651 224.538 57.4216C224.647 57.1781 224.705 56.9154 224.711 56.6489C224.692 56.1087 224.462 55.5974 224.071 55.2242C223.68 54.8511 223.158 54.6456 222.617 54.6518C222.351 54.6419 222.086 54.6849 221.837 54.7783C221.587 54.8717 221.359 55.0137 221.165 55.196C220.971 55.3783 220.815 55.5974 220.706 55.8404C220.597 56.0834 220.538 56.3456 220.531 56.6118Z" fill="#263238"/>
<path d="M217.678 52.8549C217.946 53.1147 219.482 51.8823 221.732 51.7858C223.982 51.6893 225.667 52.7361 225.904 52.4466C226.016 52.3203 225.734 51.8452 224.999 51.3626C223.995 50.7389 222.823 50.4383 221.643 50.5014C220.473 50.548 219.347 50.9638 218.428 51.6893C217.76 52.261 217.545 52.7658 217.678 52.8549Z" fill="#263238"/>
<path d="M242.025 56.4031C242.045 56.9434 242.275 57.4547 242.666 57.8278C243.057 58.201 243.578 58.4064 244.119 58.4002C244.385 58.4092 244.65 58.3655 244.899 58.2717C245.148 58.1779 245.376 58.0359 245.569 57.8537C245.763 57.6716 245.919 57.453 246.028 57.2104C246.137 56.9678 246.198 56.7061 246.205 56.4402C246.188 55.8993 245.959 55.3869 245.567 55.0134C245.175 54.6398 244.653 54.435 244.112 54.4431C243.845 54.4322 243.579 54.4745 243.33 54.5675C243.08 54.6606 242.851 54.8025 242.657 54.985C242.463 55.1675 242.307 55.387 242.198 55.6304C242.09 55.8739 242.031 56.1366 242.025 56.4031Z" fill="#263238"/>
<path d="M239.788 52.3048C240.055 52.5572 241.599 51.3322 243.841 51.2357C246.083 51.1392 247.784 52.1786 248.014 51.8965C248.133 51.7702 247.85 51.2951 247.108 50.8125C246.108 50.1863 244.938 49.8854 243.76 49.9513C242.59 49.9963 241.465 50.4094 240.545 51.1318C239.869 51.6886 239.654 52.186 239.788 52.3048Z" fill="#263238"/>
<path d="M232.275 69.1885C232.275 69.0623 230.872 68.8841 228.6 68.6985C228.021 68.6985 227.472 68.5797 227.36 68.1937C227.292 67.6077 227.403 67.0147 227.68 66.4935C228.17 65.0977 228.674 63.6277 229.209 62.0909C231.325 55.8322 232.832 50.6871 232.58 50.6055C232.327 50.5238 230.404 55.5204 228.273 61.7642C227.761 63.3085 227.279 64.7859 226.789 66.2188C226.463 66.9146 226.39 67.702 226.581 68.4461C226.672 68.6448 226.808 68.8198 226.978 68.9576C227.148 69.0954 227.347 69.1922 227.561 69.2405C227.883 69.3071 228.212 69.337 228.541 69.3296C230.857 69.3444 232.275 69.2924 232.275 69.1885Z" fill="#263238"/>
<path d="M234.029 95.4551C234.029 95.4551 242.738 95.7743 253.332 88.8252C253.332 88.8252 250.363 100.333 233.992 99.5607L234.029 95.4551Z" fill="#754034"/>
<path d="M233.47 74.4907C233.879 73.9377 234.42 73.4963 235.044 73.207C235.668 72.9177 236.355 72.7898 237.041 72.8351C237.537 72.8563 238.025 72.977 238.473 73.19C238.922 73.4029 239.324 73.7039 239.654 74.0749C239.969 74.4339 240.164 74.8811 240.215 75.3555C240.265 75.8299 240.168 76.3083 239.937 76.7254C239.588 77.1408 239.124 77.4445 238.604 77.599C238.084 77.7534 237.53 77.7517 237.011 77.594C235.925 77.2766 234.914 76.7411 234.042 76.0201C233.78 75.8582 233.553 75.6462 233.373 75.3964C233.29 75.2737 233.246 75.1289 233.246 74.9807C233.246 74.8325 233.29 74.6877 233.373 74.5649" fill="#754034"/>
<path d="M238.95 70.4127C238.586 70.4127 238.675 72.8182 236.656 74.6297C234.636 76.4413 232.023 76.2854 232.016 76.6269C232.016 76.7754 232.617 77.0649 233.716 77.05C235.146 77.0044 236.516 76.4639 237.591 75.5206C238.616 74.6163 239.25 73.3492 239.358 71.9867C239.41 70.977 239.121 70.3904 238.95 70.4127Z" fill="#263238"/>
<path d="M238.624 48.4509C238.869 49.0448 241.103 48.6588 243.754 48.8592C246.404 49.0597 248.565 49.6685 248.891 49.1116C249.04 48.8444 248.646 48.295 247.763 47.7456C246.581 47.0801 245.265 46.6892 243.912 46.6018C242.558 46.5144 241.203 46.7328 239.945 47.2407C238.987 47.6565 238.52 48.1688 238.624 48.4509Z" fill="#263238"/>
<path d="M218.324 48.2959C218.74 48.7859 220.269 48.192 222.133 48.0806C223.996 47.9692 225.585 48.2662 225.927 47.7242C226.075 47.457 225.808 46.9818 225.095 46.5141C224.143 45.9823 223.055 45.7424 221.967 45.8243C220.879 45.9061 219.84 46.3061 218.977 46.9744C218.339 47.5238 218.138 48.0583 218.324 48.2959Z" fill="#263238"/>
<path d="M211.778 81.3193C209.602 91.0377 213.574 101.075 218.548 109.695C220.427 112.947 222.476 116.154 223.597 119.748C224.718 123.341 224.77 127.469 222.788 130.661C223.482 130.896 224.237 130.875 224.917 130.603C225.598 130.331 226.159 129.825 226.5 129.176C226.686 131.166 226.864 133.148 227.042 135.116C229.462 136.155 232.343 134.418 233.508 132.042C234.674 129.666 234.578 126.897 234.459 124.254C234.102 116.496 234.385 107.319 234.028 99.5609L220.197 96.7545L211.778 81.3193Z" fill="#263238"/>
<path d="M249.063 39.1272C254.304 49.2243 254.935 61.0809 254.557 72.4772C254.178 83.8735 252.916 95.3663 254.794 106.629C255.537 111.046 256.762 115.538 256.086 119.948C255.685 122.554 254.638 125.019 254.111 127.603C253.584 130.186 253.666 133.089 255.277 135.168C256.888 137.247 259.828 138.049 262.419 137.551C265.009 136.937 267.344 135.534 269.101 133.535C273.08 129.34 275.159 123.608 275.931 117.862C276.703 112.116 276.273 106.28 275.842 100.496C274.723 85.4499 273.6 70.4058 272.471 55.3642C271.989 48.8605 271.469 42.2009 268.833 36.2392C265.964 30.0304 261.241 24.8636 255.314 21.4499C248.35 17.2998 239.329 15.5105 232.172 19.3192C229.782 20.5887 227.488 23.0313 228.059 25.6744C228.512 27.7755 230.554 29.0747 232.417 30.129L250.807 40.5972" fill="#263238"/>
<path d="M258.543 120.372C258.744 120.268 258.358 119.102 257.571 117.053C256.784 115.004 255.603 112.086 254.386 108.411C252.944 104.161 251.995 99.7594 251.557 95.2927C251.082 90.3036 251.72 84.7576 252.745 78.9592C253.77 73.1609 254.972 67.4664 255.292 62.1358C255.669 57.394 255.229 52.6227 253.992 48.0296C253.151 44.9109 251.666 42.0027 249.634 39.4916C249.248 39.0685 248.892 38.7047 248.61 38.3928C248.345 38.129 248.065 37.8811 247.771 37.6504C247.303 37.294 247.028 37.1456 246.947 37.2198C246.865 37.294 247.006 37.5984 247.31 38.081L247.897 38.9645C248.105 39.3209 248.357 39.7069 248.639 40.1747C250.156 42.7602 251.24 45.5766 251.847 48.5122C252.706 52.8929 252.898 57.3782 252.418 61.8165C251.951 66.8502 250.703 72.3813 249.657 78.3282C248.61 84.275 248.016 90.2071 248.684 95.5377C249.271 100.214 250.49 104.79 252.307 109.139C253.498 112.053 254.895 114.879 256.487 117.595C257.608 119.488 258.358 120.469 258.543 120.372Z" fill="#263238"/>
<path d="M276.807 45.037C276.654 44.9595 276.492 44.8997 276.325 44.8588L274.929 44.4059C274.32 44.2203 273.57 43.9827 272.701 43.6635C271.833 43.3442 270.86 43.0547 269.791 42.6463C267.638 41.9039 265.106 40.8868 262.367 39.6766C259.627 38.4665 256.591 37.0633 253.51 35.4448C250.429 33.8263 247.57 32.1261 245.001 30.5225C242.433 28.9188 240.198 27.3746 238.32 26.0233C237.384 25.37 236.567 24.7315 235.84 24.1895C235.112 23.6476 234.489 23.1724 233.991 22.7715L232.826 21.8731C232.693 21.7632 232.551 21.6639 232.402 21.5762C232.52 21.701 232.647 21.8175 232.781 21.9251L233.917 22.868C234.407 23.2838 235.008 23.7812 235.736 24.3529C236.463 24.9245 237.258 25.563 238.193 26.2312C240.027 27.5973 242.269 29.149 244.816 30.7897C247.362 32.4305 250.243 34.1084 253.331 35.7417C256.42 37.3751 259.442 38.7709 262.241 39.9662C265.04 41.1615 267.579 42.1192 269.739 42.8616C270.816 43.2477 271.803 43.5447 272.709 43.8268C273.615 44.1089 274.32 44.3317 274.936 44.5024L276.354 44.8959C276.502 44.9527 276.653 44.9998 276.807 45.037Z" fill="#455A64"/>
<path d="M276.941 47.2942C276.774 47.2459 276.603 47.2135 276.429 47.1977L274.944 46.9749L273.868 46.8265L272.606 46.5963C271.692 46.4255 270.653 46.2696 269.525 45.9875L267.743 45.5866C267.126 45.4455 266.488 45.2525 265.827 45.0817C264.498 44.7477 263.117 44.2873 261.647 43.8196C258.49 42.7412 255.4 41.4718 252.397 40.0184C249.408 38.5341 246.513 36.8705 243.725 35.0367C242.463 34.1606 241.245 33.3439 240.169 32.4976C239.627 32.0818 239.085 31.6957 238.595 31.2874L237.184 30.0995C236.271 29.3571 235.506 28.6146 234.816 28.0356L233.851 27.1669L233.108 26.4245L231.987 25.3851C231.863 25.2614 231.731 25.1449 231.594 25.0361C231.713 25.1647 231.845 25.2816 231.987 25.3851C232.24 25.6598 232.589 26.0161 233.027 26.4764L233.769 27.2189C234.051 27.4936 234.37 27.7831 234.712 28.1024C235.395 28.7334 236.152 29.4759 237.058 30.2109L238.461 31.3988C238.951 31.8071 239.486 32.2006 240.028 32.6238C241.104 33.485 242.314 34.3091 243.584 35.2C246.37 37.0658 249.274 38.7497 252.278 40.2411C255.292 41.7035 258.397 42.9707 261.573 44.0349C263.058 44.4952 264.439 44.9481 265.775 45.2748C266.443 45.4455 267.082 45.6311 267.698 45.7648L269.495 46.1509C270.631 46.4107 271.678 46.5592 272.591 46.7151C273.044 46.7819 273.467 46.8636 273.86 46.9156L274.944 47.0418L276.429 47.1977C276.597 47.2429 276.768 47.2751 276.941 47.2942Z" fill="white"/>
<path d="M268.32 126.697C268.345 126.633 268.36 126.565 268.365 126.497C268.365 126.341 268.424 126.14 268.462 125.88C268.536 125.346 268.662 124.559 268.759 123.527C269.067 120.632 269.213 117.722 269.197 114.811C269.197 111.099 268.959 106.733 268.491 101.885C268.024 97.037 267.37 91.7212 266.724 86.1381C265.395 75.0017 264.2 64.8824 263.324 57.5546C262.878 53.9092 262.515 50.9618 262.255 48.8978C262.129 47.8881 262.025 47.1012 261.95 46.5443L261.861 45.9355C261.856 45.8652 261.843 45.7956 261.824 45.7277C261.83 45.798 261.842 45.8676 261.861 45.9355C261.861 46.0915 261.861 46.2919 261.921 46.5518C261.98 47.1086 262.062 47.903 262.166 48.9127C262.396 50.9766 262.73 53.9315 263.131 57.5768C263.985 64.9121 265.15 75.0165 266.442 86.1753C267.095 91.7583 267.764 97.0667 268.239 101.915C268.714 106.763 268.981 111.136 268.981 114.811C269.019 117.717 268.908 120.624 268.647 123.52C268.565 124.544 268.462 125.338 268.402 125.873C268.402 126.133 268.358 126.333 268.343 126.489C268.328 126.645 268.32 126.697 268.32 126.697Z" fill="#455A64"/>
<path d="M260.36 93.0869C260.395 92.9183 260.412 92.7467 260.412 92.5746L260.501 91.0898C260.576 89.8202 260.657 87.9864 260.732 85.7146C260.88 81.1783 260.977 74.8974 260.865 67.9705C260.754 61.0436 260.442 54.7701 260.123 50.2413C259.967 47.9694 259.826 46.1431 259.715 44.8735C259.655 44.2647 259.611 43.7821 259.581 43.3886C259.574 43.2183 259.549 43.0491 259.507 42.8838C259.495 43.0544 259.495 43.2255 259.507 43.3961C259.507 43.7599 259.551 44.2424 259.588 44.8809C259.663 46.1728 259.766 47.9991 259.893 50.2413C260.138 54.7775 260.405 61.0436 260.524 67.9705C260.643 74.8974 260.576 81.1635 260.479 85.6997C260.427 87.927 260.383 89.7757 260.353 91.0749C260.353 91.6912 260.353 92.1737 260.353 92.5598C260.342 92.7354 260.344 92.9117 260.36 93.0869Z" fill="#455A64"/>
<path d="M296.061 80.1298L302.267 69.0379C298.875 63.4963 297.415 56.9865 298.117 50.527C298.819 44.0675 301.642 38.0228 306.145 33.3388C310.648 28.6549 316.577 25.5959 323.004 24.6406C329.431 23.6853 335.993 24.8875 341.664 28.0592C347.334 31.2309 351.794 36.1931 354.344 42.1692C356.894 48.1454 357.391 54.7983 355.757 61.087C354.123 67.3757 350.45 72.9453 345.314 76.9243C340.177 80.9033 333.866 83.0671 327.369 83.0772C320.843 83.0995 314.499 80.9323 309.35 76.9225L296.061 80.1298Z" fill="#FAFAFA"/>
<path d="M296.061 80.13L309.335 76.841L309.283 76.9969C309.274 76.9886 309.266 76.9783 309.261 76.9668C309.256 76.9552 309.253 76.9427 309.253 76.9301C309.253 76.9175 309.256 76.905 309.261 76.8934C309.266 76.8819 309.274 76.8716 309.283 76.8633C309.301 76.8511 309.321 76.8446 309.343 76.8446C309.364 76.8446 309.385 76.8511 309.402 76.8633C311.27 78.2935 313.298 79.5019 315.445 80.4641C318.008 81.5868 320.718 82.3368 323.493 82.6914C325.028 82.8976 326.579 82.9647 328.126 82.8918C328.921 82.8399 329.73 82.825 330.546 82.7359L333.019 82.3498C340.358 80.8234 346.84 76.5602 351.149 70.4264C353.545 67.0362 355.19 63.1737 355.975 59.0969C356.781 54.7898 356.639 50.3586 355.559 46.1118C354.448 41.6755 352.301 37.5661 349.293 34.1216L348.098 32.8075C347.704 32.3694 347.236 32.0056 346.813 31.6047C346.394 31.1974 345.953 30.8133 345.492 30.454L344.096 29.4071C343.627 29.0491 343.13 28.7288 342.611 28.4494L341.126 27.5511L339.582 26.8086C339.076 26.5436 338.552 26.3129 338.015 26.1182C333.866 24.4786 329.397 23.8033 324.949 24.1433C320.737 24.4504 316.646 25.6905 312.973 27.7738C306.371 31.5243 301.456 37.6615 299.238 44.9239C298.339 48.0145 297.916 51.2239 297.983 54.4419C298.136 59.5887 299.628 64.6069 302.312 69.0009C302.319 69.0147 302.323 69.03 302.323 69.0455C302.323 69.061 302.319 69.0763 302.312 69.09L296.023 80.1374C296.343 79.5657 298.251 76.106 302.148 69.0009V69.0975C299.407 64.6889 297.871 59.6378 297.694 54.4493C297.611 51.2028 298.027 47.9628 298.926 44.8423C301.16 37.4753 306.142 31.2497 312.839 27.4545C316.552 25.331 320.691 24.0628 324.956 23.7424C329.462 23.3932 333.989 24.0736 338.193 25.7321C338.738 25.9293 339.269 26.1624 339.782 26.43L341.349 27.1724L342.834 28.0856C343.349 28.3746 343.845 28.697 344.319 29.0508L345.729 30.1124C346.219 30.454 346.62 30.8549 347.073 31.2781C347.526 31.7012 347.971 32.0576 348.372 32.5031L349.575 33.832C352.627 37.3191 354.806 41.4825 355.93 45.9782C357.023 50.2788 357.162 54.7664 356.338 59.1266C355.545 63.2533 353.877 67.1622 351.446 70.5897C347.085 76.7936 340.516 81.0942 333.086 82.6097L330.591 82.9958C329.767 83.0774 328.943 83.0923 328.141 83.1442C326.578 83.2136 325.013 83.139 323.464 82.9215C320.667 82.551 317.939 81.7783 315.364 80.6274C313.203 79.6492 311.165 78.4207 309.291 76.9672L309.424 76.8262C309.442 76.8441 309.451 76.8681 309.451 76.893C309.451 76.9179 309.442 76.9418 309.424 76.9598H309.387L296.061 80.13Z" fill="#263238"/>
<path d="M339.642 45.4277C339.368 45.7695 339.065 46.0875 338.737 46.378L336.153 48.8726C333.926 50.9588 330.904 53.8246 327.519 56.9725L327.006 57.4551L326.88 57.5739L326.739 57.4551L322.596 53.8989H322.849L317.199 59.0142L315.565 60.4545C315.377 60.6355 315.17 60.7971 314.949 60.9371C315.105 60.7271 315.282 60.5331 315.476 60.358C315.892 59.9645 316.412 59.4597 317.043 58.8731L322.589 53.6761L322.715 53.5648L322.841 53.6687L326.999 57.2101H326.732L327.244 56.735C330.629 53.587 333.71 50.7955 335.96 48.7167L338.625 46.3261C338.938 45.9983 339.279 45.6977 339.642 45.4277Z" fill="#263238"/>
<path d="M340.057 52.2584C339.919 51.6038 339.844 50.9375 339.834 50.2687C339.745 49.0288 339.649 47.2989 339.559 45.3983L339.775 45.5988H339.426C337.451 45.6804 335.654 45.7398 334.355 45.7547C333.655 45.8094 332.951 45.792 332.254 45.7027C332.942 45.5546 333.644 45.475 334.348 45.4651C335.639 45.376 337.429 45.2721 339.411 45.1904H339.752H339.953V45.3909C340.027 47.3064 340.079 49.0214 340.094 50.2612C340.144 50.9266 340.132 51.5953 340.057 52.2584Z" fill="#263238"/>
</svg>
