<svg width="223" height="227" viewBox="0 0 223 227" fill="none" xmlns="http://www.w3.org/2000/svg">
<path d="M77.7051 226.556C72.9152 226.556 68.9295 223.143 68.3701 218.589H20.8825C17.5217 218.589 14.7946 215.867 14.7946 212.506V192.433L6.16329 188.814C3.69407 188.718 1.43463 187.114 0.617379 184.628L0.302718 183.666C-0.199867 182.132 -0.073128 180.458 0.656712 179.021C0.897079 178.549 1.19863 178.107 1.54388 177.718L14.0429 147.904C14.0648 147.703 14.091 147.498 14.1347 147.292C14.2571 146.658 14.4843 146.051 14.7946 145.492V114.672C14.7946 58.8592 48.8305 11.3628 95.7238 1.73501C99.2375 1.00954 102.882 0.502585 106.549 0.227256C108.625 0.0742959 110.731 0 112.82 0H124.974C151.493 0 176.321 12.1713 194.886 34.2719C195.061 34.4729 195.284 34.7308 195.498 34.993C213.228 56.4686 223 84.7707 223 114.672V212.506C223 215.867 220.273 218.589 216.912 218.589H185.984C185.957 218.62 185.936 218.646 185.909 218.677C184.231 220.591 181.775 221.758 179.166 221.876L78.164 226.543C78.0066 226.552 77.858 226.556 77.7051 226.556Z" fill="white"/>
<path d="M211.799 116.424L217.948 150.277V212.505H21.918V136.261L32.6689 108.636L97.983 7.69565C101.269 7.01388 104.63 6.55063 108.035 6.29715C109.962 6.15293 111.902 6.08301 113.856 6.08301H126.01C151.528 6.08301 174.621 18.3723 191.263 38.1872C191.455 38.4101 196.559 71.0387 196.743 71.2616C212.909 90.8406 211.799 86.9248 211.799 116.424Z" fill="#FF7900"/>
<path d="M184.28 54.7516C184.28 55.4814 184.245 56.2112 184.171 56.9367C184.101 57.6622 183.996 58.3833 183.852 59.0956C183.712 59.8124 183.533 60.5204 183.323 61.2152C183.109 61.9145 182.864 62.6006 182.584 63.2736C182.305 63.9467 181.994 64.6066 181.649 65.249C181.308 65.8914 180.932 66.5164 180.526 67.1239C180.124 67.7313 179.687 68.3126 179.223 68.8764C178.76 69.4401 178.275 69.982 177.759 70.4977C177.244 71.0134 176.702 71.5029 176.138 71.9662C175.574 72.425 174.989 72.8621 174.381 73.2641C173.778 73.6706 173.153 74.0464 172.506 74.3873C171.864 74.7326 171.208 75.0429 170.531 75.3226C169.858 75.6022 169.172 75.847 168.477 76.0611C167.778 76.2709 167.07 76.4501 166.353 76.5899C165.641 76.7342 164.919 76.839 164.194 76.909C163.469 76.9833 162.739 77.0182 162.009 77.0182C161.279 77.0182 160.554 76.9833 159.828 76.909C159.103 76.839 158.382 76.7342 157.665 76.5899C156.952 76.4501 156.244 76.2709 155.545 76.0611C154.846 75.847 154.16 75.6022 153.487 75.3226C152.814 75.0429 152.154 74.7326 151.511 74.3873C150.869 74.0464 150.244 73.6706 149.637 73.2641C149.033 72.8621 148.448 72.425 147.884 71.9662C147.32 71.5029 146.778 71.0134 146.263 70.4977C145.747 69.982 145.258 69.4401 144.794 68.8764C144.331 68.3126 143.898 67.7313 143.492 67.1239C143.09 66.5164 142.714 65.8914 142.369 65.249C142.028 64.6066 141.713 63.9467 141.438 63.2736C141.158 62.6006 140.909 61.9145 140.699 61.2152C140.49 60.5204 140.31 59.8124 140.17 59.0956C140.026 58.3833 139.921 57.6622 139.847 56.9367C139.777 56.2112 139.742 55.4814 139.742 54.7516C139.742 54.0261 139.777 53.2962 139.847 52.5708C139.921 51.8453 140.026 51.1242 140.17 50.4075C140.31 49.6951 140.49 48.9871 140.699 48.2879C140.909 47.593 141.158 46.9069 141.438 46.2338C141.713 45.5608 142.028 44.9009 142.369 44.2585C142.714 43.616 143.09 42.9911 143.492 42.3836C143.898 41.7761 144.331 41.1905 144.794 40.6268C145.258 40.063 145.747 39.5254 146.263 39.0097C146.778 38.494 147.32 38.0046 147.884 37.5413C148.448 37.0781 149.033 36.6454 149.637 36.239C150.244 35.8369 150.869 35.4611 151.511 35.1158C152.154 34.7749 152.814 34.4603 153.487 34.1849C154.16 33.9052 154.846 33.6605 155.545 33.4464C156.244 33.2366 156.952 33.0574 157.665 32.9175C158.382 32.7733 159.103 32.6684 159.828 32.5941C160.554 32.5242 161.279 32.4893 162.009 32.4893C162.739 32.4893 163.469 32.5242 164.194 32.5941C164.919 32.6684 165.641 32.7733 166.353 32.9175C167.07 33.0574 167.778 33.2366 168.477 33.4464C169.172 33.6605 169.858 33.9052 170.531 34.1849C171.208 34.4603 171.864 34.7749 172.506 35.1158C173.153 35.4611 173.778 35.8369 174.381 36.239C174.989 36.6454 175.574 37.0781 176.138 37.5413C176.702 38.0046 177.244 38.494 177.759 39.0097C178.275 39.5254 178.76 40.063 179.223 40.6268C179.687 41.1905 180.124 41.7761 180.526 42.3836C180.932 42.9911 181.308 43.616 181.649 44.2585C181.994 44.9009 182.305 45.5608 182.584 46.2338C182.864 46.9069 183.109 47.593 183.323 48.2879C183.533 48.9871 183.712 49.6951 183.852 50.4075C183.996 51.1242 184.101 51.8453 184.171 52.5708C184.245 53.2962 184.28 54.0261 184.28 54.7516Z" fill="#FFCD72"/>
<path d="M208.101 184.72C208.101 185.362 208.07 186.005 208.005 186.647C207.944 187.29 207.848 187.923 207.721 188.557C207.599 189.191 207.441 189.816 207.253 190.432C207.065 191.048 206.851 191.651 206.602 192.25C206.357 192.844 206.082 193.426 205.776 193.994C205.475 194.562 205.142 195.113 204.784 195.65C204.426 196.188 204.041 196.703 203.635 197.202C203.224 197.7 202.791 198.176 202.337 198.631C201.882 199.09 201.406 199.518 200.908 199.929C200.409 200.335 199.889 200.72 199.356 201.078C198.819 201.436 198.268 201.769 197.7 202.07C197.132 202.376 196.546 202.651 195.952 202.896C195.357 203.145 194.75 203.359 194.134 203.547C193.517 203.735 192.892 203.893 192.259 204.015C191.629 204.142 190.991 204.238 190.349 204.299C189.707 204.364 189.064 204.395 188.422 204.395C187.775 204.395 187.132 204.364 186.49 204.299C185.852 204.238 185.214 204.142 184.58 204.015C183.951 203.893 183.326 203.735 182.71 203.547C182.089 203.359 181.486 203.145 180.892 202.896C180.293 202.651 179.712 202.376 179.143 202.07C178.575 201.769 178.025 201.436 177.487 201.078C176.95 200.72 176.434 200.335 175.936 199.929C175.437 199.518 174.961 199.09 174.507 198.631C174.048 198.176 173.615 197.7 173.209 197.202C172.798 196.703 172.418 196.188 172.059 195.65C171.701 195.113 171.369 194.562 171.063 193.994C170.761 193.426 170.486 192.844 170.237 192.25C169.992 191.651 169.774 191.048 169.59 190.432C169.402 189.816 169.245 189.191 169.118 188.557C168.991 187.923 168.9 187.29 168.834 186.647C168.773 186.005 168.742 185.362 168.742 184.72C168.742 184.073 168.773 183.431 168.834 182.788C168.9 182.15 168.991 181.512 169.118 180.879C169.245 180.249 169.402 179.624 169.59 179.008C169.774 178.392 169.992 177.784 170.237 177.19C170.486 176.596 170.761 176.01 171.063 175.442C171.369 174.874 171.701 174.323 172.059 173.786C172.418 173.252 172.798 172.737 173.209 172.238C173.615 171.74 174.048 171.259 174.507 170.805C174.961 170.35 175.437 169.918 175.936 169.507C176.434 169.101 176.95 168.716 177.487 168.358C178.025 167.999 178.575 167.671 179.143 167.366C179.712 167.064 180.293 166.789 180.892 166.54C181.486 166.295 182.089 166.076 182.71 165.888C183.326 165.705 183.951 165.548 184.58 165.421C185.214 165.294 185.852 165.202 186.49 165.137C187.132 165.076 187.775 165.045 188.422 165.045C189.064 165.045 189.707 165.076 190.349 165.137C190.991 165.202 191.629 165.294 192.259 165.421C192.892 165.548 193.517 165.705 194.134 165.888C194.75 166.076 195.357 166.295 195.952 166.54C196.546 166.789 197.132 167.064 197.7 167.366C198.268 167.671 198.819 167.999 199.356 168.358C199.889 168.716 200.409 169.101 200.908 169.507C201.406 169.918 201.882 170.35 202.337 170.805C202.791 171.259 203.224 171.74 203.635 172.238C204.041 172.737 204.426 173.252 204.784 173.786C205.142 174.323 205.475 174.874 205.776 175.442C206.082 176.01 206.357 176.596 206.602 177.19C206.851 177.784 207.065 178.392 207.253 179.008C207.441 179.624 207.599 180.249 207.721 180.879C207.848 181.512 207.944 182.15 208.005 182.788C208.07 183.431 208.101 184.073 208.101 184.72Z" fill="#FFCD72"/>
<path d="M119.201 71.1312C115.53 78.7486 108.494 84.9719 100.164 86.4447C95.3565 87.2838 90.4093 86.5671 85.5189 86.7375C80.6329 86.9211 75.3798 88.2671 72.408 92.161C66.8359 99.4857 72.5785 109.926 71.6869 119.086C70.6424 129.702 60.4072 137.389 50.0015 139.74C40.8326 141.821 31.0781 140.501 22.5866 136.585C22.3637 136.485 22.1409 136.375 21.918 136.262V114.677C21.918 61.0926 54.7695 16.568 97.9874 7.69629C110.604 16.8215 119.699 30.9157 122.125 46.3297C123.44 54.6726 122.863 63.5181 119.201 71.1312Z" fill="#96C8FF"/>
<path d="M217.949 114.672V150.277C217.403 150.417 216.843 150.53 216.275 150.631C208.548 151.968 200.253 149.578 194.428 144.325C188.598 139.071 185.351 131.078 185.888 123.251C186.317 116.883 189.052 110.94 190.77 104.795C192.492 98.6506 193.06 91.6144 189.529 86.3001C186.347 81.5146 180.364 78.9405 177.825 73.7879C176.488 71.0521 176.296 67.888 176.418 64.8332C176.894 53.2038 182.799 43.327 191.264 38.1875C191.46 38.4104 191.653 38.6333 191.832 38.8562C207.998 58.4351 217.949 85.1769 217.949 114.672Z" fill="#FF81B0"/>
<path d="M75.4364 217.798C73.3386 197.909 61.9584 78.9578 60.0355 58.8326C59.8825 57.2243 61.2067 55.8084 63.0073 55.6467L165.412 46.3117C167.274 46.1413 168.921 47.3693 169.066 49.0257L183.059 212.619C183.204 214.275 181.783 215.713 179.921 215.801L78.9151 220.468C77.1364 220.551 75.6025 219.376 75.4364 217.798Z" fill="#00143A"/>
<path d="M72.7891 68.5311L85.0696 205.042L171.785 199.076L160.619 59.2529L72.7891 68.5311Z" fill="white"/>
<path d="M155.048 112.484C154.554 120.612 151.272 127.924 146.198 133.522L102.329 139.619C91.9712 133.146 85.3983 121.347 86.1893 108.306C87.3431 89.2992 103.697 74.8248 122.716 75.9785C141.723 77.1323 156.201 93.4772 155.048 112.484Z" fill="#96C8FF"/>
<path d="M133.584 98.8302C133.182 105.429 127.505 110.451 120.906 110.053C114.306 109.651 109.281 103.978 109.683 97.3793C110.085 90.7801 115.757 85.7543 122.357 86.1563C128.96 86.5584 133.986 92.231 133.584 98.8302Z" fill="#FFDEDE"/>
<path d="M146.196 133.522C139.409 141.017 129.409 145.47 118.532 144.81C112.571 144.448 107.055 142.59 102.322 139.618C103.201 134.038 107.108 116.438 121.425 114.826C134.164 113.392 142.695 126.717 146.196 133.522Z" fill="#FFDEDE"/>
<path d="M102.065 163.397L93.0053 164.201L92.2012 155.145L101.261 154.337L102.065 163.397Z" fill="#96C8FF"/>
<path d="M103.106 175.039L94.0468 175.848L93.2383 166.788L102.298 165.979L103.106 175.039Z" fill="#96C8FF"/>
<path d="M104.212 186.966L95.1479 187.774L94.3438 178.715L103.403 177.906L104.212 186.966Z" fill="#96C8FF"/>
<path d="M155.102 155.697L107.575 159.932L107.457 158.599L154.984 154.359L155.102 155.697Z" fill="#96C8FF"/>
<path d="M157.061 166.741L109.534 170.975L109.416 169.638L156.939 165.403L157.061 166.741Z" fill="#96C8FF"/>
<path d="M157.94 177.172L110.413 181.407L110.295 180.074L157.822 175.839L157.94 177.172Z" fill="#96C8FF"/>
<path d="M96.4465 62.2413C95.3189 62.2413 94.3487 61.3847 94.2307 60.2397C94.1695 59.6497 94.3444 59.0685 94.7202 58.6096C95.096 58.1464 95.6292 57.8579 96.2236 57.8011L134.979 53.8547C136.207 53.728 137.296 54.6239 137.422 55.8432C137.545 57.0669 136.653 58.1638 135.43 58.2862L96.6737 62.2326C96.5994 62.237 96.5208 62.2413 96.4465 62.2413ZM135.207 54.3661C135.145 54.3661 135.089 54.3704 135.032 54.3748L96.276 58.3212C95.8215 58.3649 95.4151 58.5878 95.1266 58.9418C94.8426 59.2914 94.7071 59.7371 94.7552 60.1873C94.8469 61.1225 95.686 61.7999 96.6213 61.7082L135.377 57.7618C136.308 57.67 136.994 56.8309 136.898 55.8957C136.811 55.0216 136.068 54.3661 135.207 54.3661Z" fill="#FFDEDE"/>
<path d="M132.902 216.422C129.58 216.422 126.875 213.717 126.875 210.395C126.875 207.074 129.58 204.373 132.902 204.373C136.223 204.373 138.928 207.074 138.928 210.395C138.928 213.717 136.223 216.422 132.902 216.422ZM132.902 204.897C129.869 204.897 127.399 207.362 127.399 210.395C127.399 213.428 129.869 215.898 132.902 215.898C135.935 215.898 138.404 213.428 138.404 210.395C138.404 207.362 135.935 204.897 132.902 204.897Z" fill="#FFDEDE"/>
<path d="M67.6357 133.884L68.8463 152.375C68.8463 152.375 55.8359 137.9 55.8359 132.547C55.8359 131.699 55.8359 130.44 55.849 128.897C55.8578 128.718 55.8578 128.53 55.8578 128.329C55.9321 122.547 56.238 113.51 57.5272 108.44C57.5578 108.283 57.6015 108.125 57.6452 107.968C58.2003 106.001 58.9257 104.734 59.8566 104.669C63.8773 104.406 73.2647 106.823 75.1439 113.247C77.0144 119.68 67.6357 133.884 67.6357 133.884Z" fill="#FFA495"/>
<path d="M177.797 151.038L175.564 142.909C175.564 142.909 155.373 142.909 154.836 140.942C154.302 138.98 152.694 123.972 154.477 122.543C154.477 122.543 149.478 103.961 152.157 101.282C154.836 98.6029 164.131 96.8155 164.131 96.8155H165.914C165.914 96.8155 163.952 77.6998 169.847 73.0542C175.743 68.4085 181.643 73.5873 181.643 73.5873L177.351 99.4945C177.351 99.4945 183.072 104.678 182.714 110.215C182.355 115.752 180.389 122.718 180.389 122.718C180.389 122.718 186.647 130.76 184.322 137.726C181.997 144.696 177.832 150.269 177.832 150.269L177.797 151.038Z" fill="#FFA495"/>
<path d="M63.1655 118.475C63.2092 122.653 60.7618 126.704 57.2219 128.338C56.9072 128.478 56.5926 128.601 56.2779 128.727C56.1337 128.78 55.9938 128.845 55.8496 128.898C55.8583 128.719 55.8583 128.531 55.8583 128.33C55.9326 128.308 56.0069 128.277 56.0812 128.247C56.3959 128.12 56.6974 127.993 57.0034 127.858C60.3641 126.315 62.6716 122.452 62.6411 118.475C62.5974 114.777 60.6875 111.032 57.5278 108.44C57.5584 108.283 57.6021 108.126 57.6414 107.968C57.7157 107.947 57.79 107.968 57.8512 108.021C61.142 110.709 63.1262 114.62 63.1655 118.475Z" fill="#00143A"/>
<path d="M177.353 99.7562C177.339 99.7562 177.322 99.7562 177.305 99.7518C177.165 99.7256 177.069 99.5901 177.095 99.4459L181.732 74.3167C181.557 73.7966 180.023 70.0775 172.047 71.7033C163.625 73.4208 166.152 96.5528 166.178 96.7844C166.195 96.9286 166.09 97.0597 165.946 97.0772C165.798 97.0903 165.675 96.9898 165.658 96.8456C165.548 95.871 163.053 73.0012 171.942 71.1876C180.831 69.3739 182.199 74.037 182.252 74.2337C182.265 74.273 182.265 74.3123 182.26 74.3517L177.615 99.5421C177.589 99.6688 177.479 99.7562 177.353 99.7562Z" fill="#00143A"/>
<path d="M182.793 107.872C182.513 104.166 180.778 101.321 177.64 99.3719C177.566 99.3195 177.483 99.2758 177.4 99.2233C177.326 99.1709 177.242 99.1272 177.155 99.0879C175.254 98.0084 172.894 97.2174 170.071 96.7366C168.865 96.5269 167.527 96.4526 166.142 96.4832H165.88C165.788 96.4832 165.705 96.4963 165.617 96.4963C159.962 96.7279 153.682 98.6902 151.938 101.124C149.81 104.157 153.831 120.983 154.207 122.517C154.22 122.548 154.228 122.578 154.228 122.6C154.237 122.653 154.272 122.705 154.312 122.736C154.364 122.788 154.447 122.819 154.534 122.797C154.543 122.797 154.587 122.788 154.67 122.766C155.509 122.591 160.338 121.573 167.571 120.122C175.381 118.558 180.171 122.871 180.21 122.915C180.262 122.954 180.328 122.976 180.389 122.976H180.455C180.485 122.967 180.516 122.954 180.538 122.923C180.59 122.902 180.621 122.862 180.643 122.81C180.664 122.727 183.33 114.812 182.793 107.872ZM180.262 122.272C179.266 121.499 175.949 119.252 170.941 119.252C169.861 119.252 168.703 119.353 167.475 119.606C160.517 120.992 155.78 122.001 154.679 122.233C153.136 115.892 150.754 103.729 152.371 101.43C152.695 100.967 153.197 100.517 153.84 100.097C155.518 99.0048 158.131 98.0914 160.967 97.5451C160.989 97.5451 160.998 97.5364 161.02 97.5364C161.051 97.5233 161.081 97.5233 161.116 97.5146C162.628 97.2305 164.201 97.0513 165.735 97.012C165.849 96.9989 165.976 96.9989 166.103 96.9989C167.466 96.9683 168.79 97.0426 169.988 97.2523C173.545 97.8598 176.338 98.9524 178.366 100.517C178.374 100.526 178.374 100.534 178.383 100.534C178.396 100.548 178.396 100.556 178.396 100.556C180.262 102.007 181.469 103.865 181.997 106.133C182.133 106.697 182.216 107.295 182.268 107.916C182.732 113.908 180.769 120.647 180.262 122.272Z" fill="#00143A"/>
<path d="M175.564 143.171C175.564 143.171 175.559 143.171 175.555 143.171C174.79 143.141 156.846 142.455 155.373 142.184C154.127 141.956 153.966 139.837 153.695 136.328C153.594 135.003 153.476 133.504 153.28 131.909C152.611 126.407 154.171 122.6 154.237 122.439C154.293 122.308 154.451 122.242 154.582 122.299C154.713 122.356 154.779 122.509 154.722 122.644C154.704 122.683 153.148 126.49 153.804 131.844C154.001 133.456 154.114 134.96 154.215 136.288C154.442 139.208 154.621 141.515 155.465 141.668C156.902 141.93 175.389 142.638 175.577 142.647C175.721 142.651 175.835 142.774 175.826 142.918C175.822 143.062 175.704 143.171 175.564 143.171Z" fill="#00143A"/>
<path d="M166.627 102.479C163.266 99.949 157.694 100.766 153.63 101.365C153.547 101.374 153.473 101.426 153.429 101.492C153.39 101.553 153.368 101.64 153.39 101.723C154.657 107.055 156.077 112.439 157.62 117.741C157.651 117.867 157.764 117.95 157.891 117.95H157.935C161.61 117.404 166.461 115.302 168.432 111.967C170.355 108.703 169.599 104.713 166.627 102.479ZM167.929 111.675C166.186 114.642 161.715 116.744 158.101 117.33C156.624 112.23 155.247 107.033 154.028 101.889C157.956 101.313 163.192 100.622 166.282 102.938C169.009 104.997 169.704 108.672 167.929 111.675Z" fill="#00143A"/>
<path d="M178.689 93.4944C178.641 93.4944 178.593 93.4812 178.549 93.455C176.124 91.8992 174.507 88.8793 174.227 85.3831C173.982 82.3501 174.647 79.4307 175.477 76.2055C175.508 76.0875 175.613 76.0088 175.731 76.0088H181.644C181.788 76.0088 181.906 76.1224 181.906 76.271C181.906 76.4152 181.788 76.5332 181.644 76.5332H175.932C175.141 79.6318 174.516 82.4506 174.747 85.3394C175.014 88.6783 176.543 91.5452 178.833 93.0136C178.956 93.0923 178.991 93.254 178.912 93.3764C178.86 93.455 178.777 93.4944 178.689 93.4944Z" fill="#00143A"/>
<path d="M168.148 127.005C167.257 125.392 165.797 124.181 164.141 123.679C162.397 123.154 160.212 123.784 158.468 124.299L157.996 124.435C157.891 124.466 157.808 124.562 157.808 124.675C157.659 129.43 157.799 134.251 158.197 138.992C158.206 139.128 158.324 139.233 158.459 139.233C158.459 139.233 158.459 139.233 158.468 139.233C161.44 139.15 164.8 138.909 166.898 136.947C168.126 135.793 168.926 134.093 169.127 132.14C169.315 130.313 168.97 128.486 168.148 127.005ZM168.603 132.087C168.41 133.914 167.676 135.496 166.544 136.558C164.634 138.341 161.527 138.617 158.699 138.7C158.324 134.124 158.197 129.474 158.324 124.885L158.616 124.802C160.299 124.308 162.388 123.701 163.983 124.181C165.513 124.645 166.868 125.768 167.698 127.258C168.463 128.644 168.777 130.365 168.603 132.087Z" fill="#00143A"/>
<path d="M64.9289 206.405L7.28906 182.259L21.5668 148.192L79.2067 172.338L64.9289 206.405Z" fill="#FFCD72"/>
<path d="M42.8654 180.896L21.1406 148.472L21.9797 147.904L43.3199 179.755L79.0864 171.845L79.3049 172.837L42.8654 180.896Z" fill="#00143A"/>
<path d="M37.2713 172.96L7.43966 182.736L7.125 181.774L36.9523 171.998L37.2713 172.96Z" fill="#00143A"/>
<path d="M65.3941 206.217L64.4414 206.571L53.957 178.225L54.9054 177.871L65.3941 206.217Z" fill="#00143A"/>
<path d="M198.194 100.592L205.104 100.924L198.623 103.979L197.832 111.124L194.558 104.796L187.627 103.857L194.095 101.33L194.899 93.6562L198.194 100.592Z" fill="white"/>
<path d="M42.1294 194.142L49.0389 194.47L42.5577 197.529L41.7667 204.675L38.4933 198.342L31.5664 197.402L38.0301 194.876L38.8342 187.202L42.1294 194.142Z" fill="white"/>
<path d="M43.3291 96.7584L50.2342 97.0905L43.7574 100.145L42.9664 107.291L39.6886 100.963L32.7617 100.019L39.2254 97.4926L40.0339 89.8184L43.3291 96.7584Z" fill="white"/>
<path d="M204.106 183.823L208.66 189.028L201.965 186.481L196.266 190.868L198.556 184.121L194.426 178.479L200.732 181.38L206.82 176.639L204.106 183.823Z" fill="white"/>
<path d="M69.2783 47.4045C69.0161 46.9893 68.8325 46.4299 68.732 45.722C68.6271 45.0183 68.6533 44.4764 68.815 44.0962C69.6104 44.153 70.2878 44.0044 70.8472 43.6548L71.4459 43.126C72.0753 42.4093 72.084 41.5396 71.4809 40.5213L68.0284 35.0453L66.3065 36.1291C66.0661 36.2821 65.699 36.0811 65.2095 35.5304C64.9779 35.2551 64.7594 34.9623 64.5627 34.6476C64.3617 34.333 64.1912 34.0096 64.0427 33.6818C63.7542 33.0044 63.7324 32.5892 63.9771 32.4319L69.0903 29.2066C69.3744 29.0274 69.641 28.975 69.8901 29.0493C70.1349 29.1236 70.3315 29.2765 70.4757 29.5038L76.8739 39.6385C77.761 41.0457 77.9621 42.4093 77.4857 43.7291C77.0093 45.0533 76.1134 46.124 74.8023 46.95C73.4956 47.776 72.3506 48.2261 71.376 48.3004C70.4014 48.3747 69.7022 48.0775 69.2783 47.4045Z" fill="white"/>
<path d="M87.766 40.115C85.5721 41.0327 83.4831 41.0633 81.499 40.2067C79.5149 39.3458 77.946 37.5408 76.7922 34.7832C75.6385 32.0299 75.4637 29.6481 76.2634 27.6421C77.0675 25.6362 78.5753 24.1677 80.7867 23.2456C82.9937 22.3191 85.0696 22.271 87.0143 23.1014C88.9591 23.9274 90.5237 25.7585 91.7124 28.5948C92.9011 31.4268 93.0891 33.8261 92.2762 35.7927C91.4633 37.755 89.9599 39.1972 87.766 40.115ZM82.6091 27.7645C81.8618 28.0791 81.3767 28.6866 81.1538 29.5825C80.9353 30.4872 81.0882 31.5535 81.6083 32.7991C82.1284 34.0402 82.7664 34.8881 83.5269 35.3513C84.2917 35.8102 85.0652 35.8758 85.8562 35.548C86.6429 35.2158 87.1455 34.6127 87.3552 33.7343C87.565 32.8559 87.4077 31.7939 86.8876 30.544C86.3632 29.2941 85.7076 28.4419 84.9166 27.983C84.13 27.5241 83.3608 27.4498 82.6091 27.7645Z" fill="white"/>
<path d="M97.1439 31.9867L95.033 23.1981L93.2762 23.622C92.9965 23.6875 92.7168 23.3816 92.4283 22.6999C92.2972 22.3677 92.188 22.0181 92.1006 21.6554C92.0131 21.2926 91.952 20.9343 91.917 20.5759C91.8646 19.8417 91.9738 19.4396 92.2579 19.3741L100.553 17.3768C100.832 17.3113 101.108 17.6172 101.379 18.3033C101.523 18.6311 101.645 18.9764 101.733 19.3391C101.816 19.7018 101.868 20.0646 101.89 20.4273C101.96 21.1571 101.855 21.5548 101.575 21.6248L99.919 22.0225L102.034 30.8111L103.765 30.396C104.045 30.3304 104.329 30.6363 104.613 31.3137C104.761 31.6459 104.879 31.9911 104.967 32.3538C105.054 32.7122 105.107 33.0749 105.124 33.4377C105.176 34.1719 105.067 34.574 104.788 34.6395L96.4665 36.6455C96.1824 36.711 95.9114 36.4007 95.6405 35.719C95.4919 35.3912 95.3739 35.0416 95.2865 34.6788C95.1991 34.3205 95.1466 33.9577 95.1292 33.595C95.0592 32.8652 95.1641 32.4631 95.4438 32.3975L97.1439 31.9867Z" fill="white"/>
<path d="M120.346 32.4448C120.377 32.7988 119.599 33.0435 118.012 33.1746C116.426 33.3057 115.552 33.2533 115.399 33.0085L110.513 25.4654L111.168 33.3363C111.195 33.6378 110.425 33.8564 108.865 33.9875C107.305 34.1142 106.51 34.0268 106.488 33.7253L105.081 16.7947C105.059 16.5412 105.714 16.3621 107.047 16.2528C107.572 16.2047 108.184 16.2004 108.896 16.2353C109.599 16.2703 110.041 16.4101 110.216 16.6505L114.914 24.1062L114.254 16.161C114.228 15.842 114.997 15.6147 116.566 15.4836C118.135 15.3569 118.934 15.4487 118.961 15.7677L120.346 32.4448Z" fill="white"/>
<path d="M137.559 17.4463C137.612 17.1098 138.547 17.0836 140.361 17.3633C142.179 17.6386 143.062 17.9489 143.009 18.281L141.239 29.8012C140.977 31.5099 140.151 32.8079 138.761 33.6995C137.376 34.591 135.606 34.8707 133.456 34.5386C131.306 34.2108 129.64 33.3848 128.465 32.065C127.289 30.7451 126.848 29.1412 127.136 27.2489L128.849 16.1309C128.897 15.7943 129.833 15.7681 131.646 16.0478C133.464 16.3275 134.347 16.6334 134.295 16.97L132.555 28.289C132.503 28.6212 132.638 28.914 132.957 29.1718C133.294 29.4297 133.665 29.587 134.068 29.6482C134.465 29.7137 134.845 29.6744 135.199 29.5389C135.553 29.4078 135.763 29.1587 135.816 28.7872L137.559 17.4463Z" fill="white"/>
<path d="M144.344 30.1469C144.567 30.4878 144.986 30.9903 145.594 31.659C146.206 32.3233 146.852 32.769 147.534 32.9919C148.216 33.2192 148.649 33.0662 148.823 32.5374C148.902 32.2927 148.876 32.0479 148.745 31.8032C148.609 31.5541 148.329 31.222 147.892 30.8112C147.46 30.4003 147.136 30.0857 146.922 29.8628C146.712 29.6399 146.446 29.3034 146.122 28.8489C145.799 28.3944 145.581 27.9617 145.467 27.5509C145.126 26.419 145.192 25.1472 145.659 23.7356C146.127 22.3197 147.049 21.3014 148.421 20.6764C149.798 20.0515 151.336 20.0209 153.041 20.5847C154.199 20.9649 155.226 21.4456 156.126 22.0181C157.022 22.5906 157.42 23.0845 157.319 23.4953C157.306 23.5433 157.289 23.5914 157.275 23.6395C157.088 24.2033 156.677 24.8588 156.039 25.5974C155.401 26.3447 154.99 26.738 154.815 26.7861C153.963 25.9164 153.128 25.3483 152.315 25.0773C151.507 24.8107 151.004 24.9637 150.812 25.5449C150.694 25.8989 150.89 26.3097 151.393 26.7817C151.502 26.8866 151.655 27.0352 151.861 27.2275C152.066 27.4198 152.298 27.6471 152.56 27.9005C152.827 28.1584 153.097 28.4643 153.382 28.8139C153.666 29.1679 153.954 29.605 154.247 30.1294C154.832 31.2132 154.907 32.4151 154.47 33.7349C153.906 35.4568 152.962 36.7023 151.655 37.4846C150.344 38.2625 148.697 38.3412 146.708 37.7206C145.742 37.4016 144.894 37.0345 144.169 36.6149C143.443 36.1954 142.867 35.6578 142.443 35.0023C142.019 34.3424 141.914 33.6868 142.132 33.0269C142.351 32.367 142.687 31.7508 143.146 31.1826C143.601 30.6101 143.999 30.2649 144.344 30.1469Z" fill="white"/>
<path d="M155.488 36.671C155.536 36.5661 156.271 36.8414 157.691 37.5057C159.107 38.1656 159.797 38.5415 159.754 38.6376L158.207 41.9503C158.137 42.1033 157.389 41.8498 155.969 41.1855C154.549 40.5256 153.863 40.1454 153.906 40.0536L155.488 36.671ZM159.929 37.0643C159.885 37.1561 159.317 36.9463 158.22 36.435C157.118 35.9193 156.59 35.6265 156.625 35.5522L161.463 23.9927C161.519 23.8704 162.249 24.137 163.656 24.7925C165.059 25.448 165.737 25.8283 165.684 25.9375L159.929 37.0643Z" fill="white"/>
</svg>
