<svg width="480" height="306" viewBox="0 0 480 306" fill="none" xmlns="http://www.w3.org/2000/svg">
<path d="M135.87 0.000335693H92.8809V62.951H135.87V0.000335693Z" fill="#F5F5F5"/>
<path d="M124.975 7.92889H81.9863V70.8796H124.975V7.92889Z" fill="#E0E0E0"/>
<path d="M327.61 94.0113H327.333H326.5H323.262L311.115 94.0569L269.208 94.2092H269.094V94.0874C268.634 92.4019 268.552 90.6239 268.856 88.8982C269.159 87.1726 269.84 85.5481 270.841 84.1572C271.843 82.7662 273.138 81.6482 274.62 80.894C276.102 80.1399 277.729 79.771 279.37 79.8175L279.22 80.0383C278.955 79.0492 278.844 78.0201 278.893 76.9924C278.942 75.2703 279.41 73.5918 280.251 72.1228C281.093 70.6537 282.278 69.4451 283.689 68.6162C285.063 67.8496 286.59 67.4537 288.139 67.463C289.688 67.4723 291.212 67.8865 292.577 68.6696L292.357 68.7533C293.115 66.8736 294.23 65.1825 295.63 63.7867C297.03 62.3909 298.685 61.3207 300.49 60.6437C302.152 59.9714 303.925 59.6706 305.7 59.7596C307.474 59.8487 309.213 60.3258 310.809 61.1615C313.686 62.7848 315.949 65.4244 317.214 68.6315C318.369 71.4457 318.643 74.584 317.996 77.5787L317.882 77.4341C319.534 77.2511 321.203 77.5129 322.736 78.1955C324.1 78.7849 325.328 79.6838 326.336 80.8302C326.795 81.3463 327.176 81.9344 327.468 82.574C327.727 83.1649 327.93 83.7823 328.073 84.4167C328.318 85.5258 328.456 86.6586 328.486 87.7977C328.535 89.3616 328.409 90.9263 328.108 92.4579C328.028 92.8574 327.926 93.2515 327.802 93.6381L327.674 94.0189" fill="#EBEBEB"/>
<path d="M439.385 64.093C437.401 64.4471 435.551 65.3917 434.046 66.8185C432.54 68.2454 431.441 70.0969 430.873 72.1611C430.305 74.2253 430.292 76.4189 430.835 78.4908C431.378 80.5627 432.455 82.4292 433.943 83.8766C435.431 85.3241 437.27 86.294 439.249 86.6754C441.228 87.0569 443.267 86.8344 445.134 86.0334C447 85.2325 448.618 83.8854 449.803 82.1465C450.987 80.4075 451.69 78.3468 451.831 76.2003L454.77 75.6749L456.364 72.1265L458.655 74.9744L462.334 74.3195L463.907 70.7863L466.199 73.6342L469.358 73.0707L470.319 70.9157L471.742 72.6519L473.585 72.3245L475.606 69.4613L472.141 65.3799L450.258 69.271C449.128 67.3539 447.491 65.8386 445.556 64.9169C443.62 63.9952 441.473 63.7085 439.385 64.093ZM433.421 76.7791C433.322 76.1382 433.402 75.4803 433.652 74.8882C433.902 74.2961 434.309 73.7964 434.824 73.452C435.339 73.1076 435.937 72.9339 436.544 72.953C437.151 72.972 437.739 73.1828 438.234 73.5589C438.729 73.9349 439.109 74.4594 439.325 75.0661C439.542 75.6728 439.586 76.3346 439.452 76.9681C439.318 77.6016 439.012 78.1784 438.572 78.6259C438.132 79.0733 437.578 79.3713 436.979 79.4823C436.58 79.5564 436.17 79.5452 435.775 79.4493C435.379 79.3534 435.005 79.1746 434.674 78.9233C434.344 78.6721 434.063 78.3532 433.848 77.9852C433.632 77.6172 433.488 77.2073 433.421 76.7791Z" fill="#EBEBEB"/>
<path d="M428.517 151.693L429.84 177.659C429.862 178.105 430.042 178.525 430.344 178.834C430.645 179.142 431.046 179.316 431.463 179.319L475.121 179.654C475.336 179.656 475.549 179.613 475.748 179.527C475.948 179.441 476.129 179.313 476.282 179.152C476.436 178.991 476.558 178.799 476.642 178.587C476.726 178.376 476.77 178.148 476.772 177.918L476.907 157.709C476.909 157.478 476.868 157.248 476.787 157.034C476.705 156.82 476.585 156.625 476.433 156.461C476.281 156.296 476.1 156.166 475.9 156.077C475.7 155.988 475.486 155.942 475.27 155.942H448.421C448.206 155.943 447.993 155.898 447.795 155.809C447.597 155.72 447.418 155.589 447.268 155.424L442.635 150.475C442.331 150.15 441.92 149.964 441.49 149.957L430.168 149.873C429.946 149.871 429.726 149.917 429.522 150.008C429.317 150.1 429.132 150.234 428.978 150.405C428.824 150.575 428.703 150.777 428.624 150.998C428.545 151.22 428.508 151.456 428.517 151.693Z" fill="#EBEBEB"/>
<path d="M476.944 152.895L429.238 152.521L429.029 183.024L476.735 183.399L476.944 152.895Z" fill="#F5F5F5"/>
<path d="M425.43 155.227L428.853 187.057C428.881 187.331 429.002 187.586 429.193 187.771C429.385 187.956 429.633 188.06 429.892 188.062L476.382 188.42C476.646 188.423 476.902 188.318 477.097 188.127C477.293 187.937 477.413 187.674 477.435 187.392L479.997 155.6C480.01 155.445 479.992 155.289 479.945 155.142C479.899 154.994 479.824 154.859 479.725 154.744C479.627 154.629 479.507 154.538 479.374 154.476C479.24 154.413 479.096 154.382 478.951 154.382L426.476 153.971C426.327 153.97 426.18 154.003 426.044 154.067C425.908 154.132 425.786 154.227 425.687 154.346C425.588 154.465 425.514 154.605 425.469 154.757C425.425 154.909 425.412 155.069 425.43 155.227Z" fill="#EBEBEB"/>
<path d="M423.008 295.046C411.942 286.777 409.43 271.441 409.872 257.613C409.943 255.328 409.708 252.876 410.733 250.858C411.757 248.84 414.141 247.455 416.07 248.422C417.671 249.229 418.368 251.224 419.265 252.869C420.457 255.065 422.206 256.855 424.31 258.031C425.684 258.793 427.385 259.257 428.737 258.458C430.594 257.361 430.815 254.612 430.8 252.32C430.772 248.046 430.746 243.777 430.722 239.512C430.593 237.221 430.811 234.922 431.37 232.705C432.039 230.527 433.504 228.509 435.547 227.892C437.589 227.276 440.101 228.54 440.528 230.786C440.608 231.735 440.627 232.689 440.585 233.642C440.649 234.593 441.062 235.644 441.902 235.926C442.741 236.208 443.617 235.545 444.257 234.868C446.47 232.583 447.965 229.575 449.366 226.613C450.768 223.651 452.135 220.613 454.141 218.085C456.148 215.557 458.916 213.562 461.969 213.379C465.022 213.196 468.31 215.222 469.085 218.443C469.861 221.664 468.096 224.953 466.182 227.58C463.335 231.46 459.98 234.878 456.219 237.731C455.498 238.169 454.925 238.841 454.583 239.65C454.12 241.172 455.472 242.695 456.881 243.198C458.475 243.769 460.212 243.586 461.863 243.8C463.513 244.013 465.342 244.797 465.976 246.488C466.851 248.825 465.022 251.285 463.222 252.892C459.62 256.11 455.528 258.642 451.124 260.377C449.544 260.994 447.886 261.534 446.62 262.722C445.353 263.91 444.577 265.966 445.346 267.58C446.114 269.195 448.086 269.712 449.737 269.385C451.387 269.057 452.861 268.098 454.433 267.466C457.379 266.278 461.179 266.491 463.065 269.217C463.64 270.154 464.004 271.221 464.127 272.333C464.251 273.446 464.131 274.574 463.777 275.629C463.059 277.73 461.956 279.657 460.532 281.294C455.863 287.275 449.796 291.824 442.948 294.475C436.123 297.011 429.797 297.696 423.022 295.039" fill="#EBEBEB"/>
<path d="M422.84 305.281C423.443 298.881 424.616 292.557 426.341 286.396C428.485 278.886 431.03 271.513 433.962 264.313L436.233 258.633C436.987 256.767 437.727 254.917 438.56 253.158C440.164 249.78 441.943 246.5 443.89 243.335C445.726 240.289 447.569 237.487 449.312 234.875C451.056 232.263 452.735 229.865 454.343 227.748C456.871 224.377 459.645 221.227 462.641 218.328C463.694 217.308 464.541 216.546 465.117 216.044L465.779 215.465C465.849 215.393 465.928 215.332 466.014 215.282L465.807 215.503C465.644 215.648 465.437 215.854 465.167 216.105C464.605 216.638 463.744 217.422 462.74 218.458C459.798 221.387 457.062 224.545 454.557 227.908C452.963 230.032 451.312 232.438 449.575 235.05C447.839 237.662 446.017 240.487 444.188 243.518C442.262 246.692 440.499 249.976 438.908 253.356C438.083 255.107 437.343 256.935 436.595 258.808L434.318 264.489C431.395 271.693 428.848 279.065 426.69 286.571C424.959 292.706 423.768 299 423.132 305.372" fill="#E0E0E0"/>
<path d="M438.673 253.113C438.574 252.793 438.505 252.464 438.466 252.13C438.353 251.498 438.217 250.607 438.068 249.435C437.762 247.15 437.449 243.99 437.107 240.495C436.766 237 436.396 233.847 436.075 231.578C435.912 230.444 435.769 229.522 435.67 228.89C435.592 228.564 435.551 228.229 435.549 227.893C435.672 228.203 435.763 228.528 435.819 228.86C435.969 229.477 436.154 230.383 436.353 231.525C436.759 233.809 437.164 236.954 437.499 240.449C437.833 243.944 438.118 247.013 438.345 249.397C438.452 250.47 438.545 251.384 438.616 252.107C438.671 252.439 438.69 252.776 438.673 253.113Z" fill="#E0E0E0"/>
<path d="M466.212 247.6C465.849 247.688 465.48 247.736 465.109 247.744C464.397 247.813 463.379 247.904 462.12 248.056C459.601 248.353 456.128 248.886 452.328 249.648C448.528 250.409 445.105 251.285 442.65 251.978C441.419 252.321 440.43 252.625 439.746 252.831C439.396 252.957 439.037 253.051 438.672 253.113C439.002 252.932 439.348 252.784 439.704 252.671C440.373 252.412 441.355 252.069 442.55 251.689C444.991 250.927 448.407 250.006 452.221 249.229C455.478 248.559 458.766 248.068 462.07 247.76C463.337 247.638 464.361 247.592 465.073 247.577C465.452 247.554 465.833 247.561 466.212 247.6Z" fill="#E0E0E0"/>
<path d="M426.68 285.856C426.602 285.743 426.538 285.62 426.488 285.49C426.36 285.208 426.203 284.85 426.018 284.424C425.613 283.503 425.058 282.14 424.396 280.449C423.065 277.076 421.371 272.355 419.564 267.116C417.756 261.877 416.098 257.133 414.839 253.737C414.22 252.084 413.714 250.691 413.33 249.709L412.932 248.612C412.877 248.486 412.836 248.353 412.811 248.216C412.888 248.329 412.953 248.452 413.003 248.582L413.472 249.648C413.878 250.569 414.433 251.932 415.095 253.623C416.426 256.996 418.119 261.717 419.927 266.964C421.734 272.21 423.392 276.939 424.652 280.335L426.161 284.363L426.559 285.46C426.614 285.586 426.655 285.719 426.68 285.856Z" fill="#E0E0E0"/>
<path d="M463.271 273.231C463.157 273.301 463.035 273.355 462.908 273.391L461.841 273.771L457.927 275.134C454.618 276.284 450.064 277.921 445.04 279.703C440.015 281.485 435.433 283.13 432.102 284.204C430.437 284.744 429.085 285.163 428.146 285.43L427.064 285.734C426.939 285.776 426.81 285.804 426.68 285.818C426.793 285.745 426.915 285.689 427.043 285.65L428.103 285.277L432.024 283.914C435.333 282.764 439.852 281.127 444.911 279.3C449.971 277.472 454.511 275.881 457.842 274.807C459.507 274.266 460.859 273.848 461.798 273.581L462.887 273.276C463.013 273.247 463.142 273.232 463.271 273.231Z" fill="#E0E0E0"/>
<path d="M468.034 305.311C468.034 305.425 365.724 305.509 239.547 305.509C113.369 305.509 11.0312 305.425 11.0312 305.311C11.0312 305.197 113.32 305.136 239.547 305.136C365.774 305.136 468.034 305.204 468.034 305.311Z" fill="#263238"/>
<path d="M415.325 278.727C416.563 280.44 418.79 279.732 419.787 278.59C420.783 277.448 421.146 275.864 421.48 274.341C422.235 270.876 422.996 267.244 422.149 263.802C421.932 262.756 421.452 261.792 420.762 261.015C420.411 260.636 419.973 260.361 419.493 260.22C419.012 260.078 418.505 260.074 418.022 260.208C416.897 260.589 416.25 261.815 415.794 262.98C414.447 266.406 413.832 270.11 413.994 273.823C413.964 275.564 414.428 277.274 415.325 278.727Z" fill="#407BFF"/>
<g opacity="0.2">
<path d="M415.323 278.727C416.561 280.44 418.788 279.732 419.785 278.59C420.781 277.448 421.144 275.864 421.478 274.341C422.233 270.876 422.994 267.244 422.147 263.802C421.93 262.756 421.45 261.792 420.76 261.015C420.409 260.636 419.971 260.361 419.491 260.22C419.01 260.078 418.503 260.074 418.02 260.208C416.896 260.589 416.248 261.815 415.793 262.98C414.445 266.406 413.83 270.11 413.992 273.823C413.962 275.564 414.426 277.274 415.323 278.727Z" fill="black"/>
</g>
<path d="M420.071 287.469C421.969 286.387 424.141 285.984 426.269 286.32C427.425 286.37 428.531 286.831 429.415 287.629C430.233 288.497 430.454 290.089 429.607 290.919C429.053 291.359 428.375 291.582 427.685 291.551C426.034 291.619 424.191 291.406 422.925 292.541C422.213 293.18 421.75 294.216 420.868 294.566C420.423 294.701 419.949 294.677 419.518 294.498C419.087 294.32 418.722 293.996 418.477 293.576C418.009 292.717 417.866 291.697 418.079 290.728C418.153 290.058 418.372 289.414 418.718 288.849C419.063 288.283 419.526 287.811 420.071 287.469Z" fill="#407BFF"/>
<path d="M412.242 281.445C412.797 280.579 413.147 279.582 413.261 278.539C413.375 277.496 413.25 276.439 412.897 275.459C412.158 273.497 410.927 271.792 409.339 270.533C407.543 268.99 405.484 267.837 403.276 267.137C402.421 266.822 401.514 266.707 400.614 266.802C400.17 266.853 399.744 267.018 399.372 267.283C399.001 267.548 398.694 267.906 398.479 268.325C397.917 269.627 398.586 271.127 399.291 272.337C400.524 274.482 401.913 276.519 403.447 278.429C404.685 279.952 406.087 281.475 407.88 282.092C409.673 282.709 411.509 282.534 412.384 281.178" fill="#407BFF"/>
<path d="M416.511 305.47C416.559 305.204 416.581 304.933 416.575 304.663C416.575 304.069 416.639 303.33 416.675 302.447C416.711 301.563 416.803 300.414 416.981 299.203C417.191 297.889 417.498 296.596 417.899 295.335C418.291 294.077 418.847 292.885 419.55 291.794C420.125 290.905 420.879 290.166 421.756 289.631C422.347 289.27 422.989 289.013 423.656 288.87C423.898 288.846 424.136 288.795 424.368 288.717C424.115 288.686 423.859 288.686 423.606 288.717C422.912 288.81 422.239 289.037 421.621 289.388C420.696 289.911 419.899 290.66 419.294 291.573C418.559 292.681 417.981 293.9 417.579 295.19C417.171 296.469 416.869 297.784 416.675 299.119C416.528 300.206 416.445 301.303 416.426 302.401C416.426 303.338 416.426 304.099 416.426 304.617C416.423 304.904 416.452 305.19 416.511 305.47Z" fill="#263238"/>
<path d="M416.57 303.772C416.58 303.648 416.58 303.523 416.57 303.399C416.57 303.117 416.57 302.759 416.52 302.325C416.471 301.404 416.407 300.041 416.378 298.396C416.3 295.076 416.378 290.492 416.627 285.451C416.876 280.41 417.381 275.826 417.851 272.544C417.965 271.722 418.079 270.983 418.186 270.336C418.292 269.688 418.378 269.125 418.47 268.668C418.563 268.211 418.605 267.907 418.655 267.617C418.679 267.494 418.693 267.37 418.698 267.244C418.646 267.357 418.61 267.478 418.591 267.602L418.349 268.645C418.243 269.095 418.136 269.65 418.015 270.298C417.894 270.945 417.759 271.684 417.638 272.506C416.98 276.792 416.538 281.114 416.314 285.451C416.036 290.515 416.022 295.122 416.157 298.442C416.214 300.109 416.314 301.449 416.399 302.378L416.506 303.444C416.514 303.556 416.535 303.666 416.57 303.772Z" fill="#263238"/>
<path d="M416.17 294.915C416.178 294.543 416.156 294.171 416.106 293.803C415.999 292.793 415.845 291.789 415.644 290.795C415.35 289.321 414.974 287.866 414.519 286.44C413.976 284.684 413.318 282.971 412.548 281.315C411.208 278.263 409.361 275.498 407.097 273.152C406.704 272.752 406.288 272.378 405.852 272.033C405.66 271.88 405.489 271.728 405.318 271.606L404.841 271.286C404.55 271.082 404.249 270.897 403.938 270.73C404.987 271.532 405.993 272.399 406.948 273.327C409.133 275.698 410.924 278.451 412.242 281.467C413.008 283.108 413.669 284.802 414.22 286.539C414.681 287.953 415.076 289.392 415.402 290.848C415.679 292.09 415.85 293.133 415.964 293.818C416.004 294.189 416.073 294.556 416.17 294.915Z" fill="#263238"/>
<path d="M80.5417 134.377H0.0859375V192.035H80.5417V134.377Z" fill="#FAFAFA"/>
<path d="M58.6781 169.351H56.5432V155.545C56.4914 153.988 55.8768 152.513 54.8288 151.431C53.7809 150.348 52.3813 149.744 50.925 149.744C49.4686 149.744 48.0691 150.348 47.0211 151.431C45.9731 152.513 45.3585 153.988 45.3067 155.545V169.351H43.1719V155.545C43.233 153.387 44.0774 151.338 45.526 149.834C46.9747 148.33 48.9137 147.489 50.9321 147.489C52.9505 147.489 54.8895 148.33 56.3382 149.834C57.7868 151.338 58.6312 153.387 58.6923 155.545L58.6781 169.351Z" fill="#263238"/>
<path d="M59.1199 163.205H42.7171C41.3848 163.205 40.3047 164.361 40.3047 165.786V175.198C40.3047 176.624 41.3848 177.779 42.7171 177.779H59.1199C60.4523 177.779 61.5323 176.624 61.5323 175.198V165.786C61.5323 164.361 60.4523 163.205 59.1199 163.205Z" fill="#263238"/>
<path d="M50.9243 170.492C50.5738 170.492 50.2312 170.381 49.9398 170.173C49.6485 169.964 49.4213 169.668 49.2872 169.322C49.1531 168.975 49.118 168.594 49.1864 168.226C49.2548 167.859 49.4235 167.521 49.6713 167.256C49.9191 166.99 50.2349 166.81 50.5786 166.737C50.9223 166.663 51.2786 166.701 51.6024 166.845C51.9261 166.988 52.2029 167.231 52.3976 167.543C52.5923 167.855 52.6962 168.221 52.6962 168.596C52.6962 169.099 52.5095 169.581 52.1772 169.937C51.8449 170.293 51.3942 170.492 50.9243 170.492Z" fill="#455A64"/>
<path d="M51.4053 169.349H50.4375V173.255H51.4053V169.349Z" fill="#455A64"/>
<path d="M39.7801 169.182C41.3169 168.457 42.621 167.266 43.5306 165.755C44.4402 164.244 44.9152 162.481 44.8966 160.684C44.8966 155.605 41.3385 151.47 36.8767 151.447C32.4148 151.425 28.8069 155.521 28.7855 160.585C28.7485 162.4 29.2174 164.185 30.1325 165.714C31.0476 167.242 32.3673 168.444 33.9234 169.167C21.5626 171.185 22.0892 185.584 22.0892 185.584L51.4008 185.729C51.4008 185.729 52.0698 171.169 39.7801 169.182Z" fill="#407BFF"/>
<path d="M80.5341 192.042C80.5341 192.042 80.5341 191.676 80.5341 190.983C80.5341 190.29 80.5341 189.27 80.5341 187.937C80.5341 185.264 80.5341 181.351 80.4914 176.34C80.4914 166.319 80.4487 151.927 80.4202 134.375L80.5625 134.535H0.14944L0.33446 134.337C0.33446 154.897 0.33446 174.414 0.33446 192.003L0.170787 191.821L58.118 191.904L74.6846 191.958H79.0895H80.2281H80.6195H79.1322H74.7557L58.2319 192.011L0.170787 192.095H0V191.92C0 174.33 0 154.798 0 134.254V134.056H0.192138L80.6408 134.101H80.7903V134.254C80.7903 151.844 80.7333 166.273 80.712 176.317C80.712 181.312 80.712 185.219 80.6764 187.884C80.6764 189.201 80.6764 190.206 80.6764 190.93C80.6764 191.653 80.5341 192.042 80.5341 192.042Z" fill="#263238"/>
<path d="M80.52 141.303C80.52 141.41 62.516 141.501 40.3205 141.501C18.1251 141.501 0.121094 141.41 0.121094 141.303C0.121094 141.197 18.118 141.105 40.3205 141.105C62.5231 141.105 80.52 141.197 80.52 141.303Z" fill="#263238"/>
<path d="M5.38003 137.848C5.38003 138.024 5.33121 138.196 5.23972 138.343C5.14823 138.489 5.0182 138.604 4.86606 138.671C4.71392 138.738 4.54652 138.756 4.38501 138.722C4.2235 138.687 4.07515 138.603 3.9587 138.478C3.84226 138.353 3.76297 138.195 3.73084 138.022C3.69872 137.849 3.7152 137.67 3.77822 137.507C3.84124 137.344 3.94795 137.205 4.08487 137.107C4.22179 137.009 4.38277 136.957 4.54744 136.957C4.76826 136.957 4.98003 137.051 5.13618 137.218C5.29232 137.385 5.38003 137.612 5.38003 137.848Z" fill="#263238"/>
<path d="M8.10464 137.848C8.10464 138.084 8.01692 138.311 7.86078 138.478C7.70464 138.645 7.49287 138.739 7.27205 138.739C7.05123 138.739 6.83946 138.645 6.68332 138.478C6.52717 138.311 6.43945 138.084 6.43945 137.848C6.43945 137.612 6.52717 137.385 6.68332 137.218C6.83946 137.051 7.05123 136.957 7.27205 136.957C7.49287 136.957 7.70464 137.051 7.86078 137.218C8.01692 137.385 8.10464 137.612 8.10464 137.848Z" fill="#263238"/>
<path d="M11.0324 137.848C11.0323 138.023 10.984 138.195 10.8934 138.341C10.8028 138.487 10.674 138.601 10.5231 138.669C10.3722 138.737 10.2059 138.756 10.045 138.723C9.88415 138.691 9.73579 138.608 9.61855 138.486C9.5013 138.364 9.42037 138.207 9.38587 138.036C9.35138 137.864 9.36485 137.686 9.4246 137.523C9.48436 137.36 9.58775 137.219 9.72183 137.118C9.85591 137.018 10.0147 136.962 10.1784 136.957C10.2896 136.954 10.4001 136.975 10.5036 137.018C10.6071 137.062 10.7014 137.127 10.781 137.21C10.8606 137.293 10.9239 137.392 10.967 137.502C11.0102 137.612 11.0324 137.729 11.0324 137.848Z" fill="#263238"/>
<path d="M80.5341 192.042C80.5341 192.042 80.5341 191.676 80.5341 190.983C80.5341 190.29 80.5341 189.27 80.5341 187.937C80.5341 185.264 80.5341 181.351 80.4914 176.34C80.4914 166.319 80.4487 151.927 80.4202 134.375L80.5625 134.535H0.14944L0.33446 134.337C0.33446 154.897 0.33446 174.414 0.33446 192.003L0.170787 191.821L58.118 191.904L74.6846 191.958H79.0895H80.2281H80.6195H79.1322H74.7557L58.2319 192.011L0.170787 192.095H0V191.92C0 174.33 0 154.798 0 134.254V134.056H0.192138L80.6408 134.101H80.7903V134.254C80.7903 151.844 80.7333 166.273 80.712 176.317C80.712 181.312 80.712 185.219 80.6764 187.884C80.6764 189.201 80.6764 190.206 80.6764 190.93C80.6764 191.653 80.5341 192.042 80.5341 192.042Z" fill="#263238"/>
<path d="M39.7866 193.962C39.687 193.962 39.6016 193.536 39.6016 193.01C39.6016 192.485 39.687 192.059 39.7866 192.059C39.8862 192.059 39.9787 192.485 39.9787 193.01C39.9787 193.536 39.8933 193.962 39.7866 193.962Z" fill="#263238"/>
<path d="M39.7884 202.275C39.6078 201.598 39.5451 200.891 39.6034 200.189C39.5446 199.49 39.6074 198.785 39.7884 198.11C39.978 198.783 40.0432 199.489 39.9805 200.189C40.0429 200.891 39.9776 201.6 39.7884 202.275Z" fill="#263238"/>
<path d="M39.7884 210.606C39.6078 209.928 39.5451 209.221 39.6034 208.519C39.5446 207.82 39.6074 207.115 39.7884 206.44C39.978 207.113 40.0432 207.82 39.9805 208.519C40.0429 209.221 39.9776 209.93 39.7884 210.606Z" fill="#263238"/>
<path d="M39.7884 218.936C39.6078 218.258 39.5451 217.551 39.6034 216.849C39.5446 216.15 39.6074 215.445 39.7884 214.77C39.978 215.443 40.0432 216.149 39.9805 216.849C40.0429 217.551 39.9776 218.26 39.7884 218.936Z" fill="#263238"/>
<path d="M39.7884 227.267C39.6078 226.589 39.5451 225.882 39.6034 225.18C39.5446 224.481 39.6074 223.776 39.7884 223.102C39.978 223.775 40.0432 224.481 39.9805 225.18C40.0429 225.883 39.9776 226.591 39.7884 227.267Z" fill="#263238"/>
<path d="M41.5656 233.336C40.9912 233.53 40.386 233.597 39.7866 233.534L39.6016 233.336V232.62C39.6016 232.392 39.6016 232.186 39.6443 232.011C39.6443 231.668 39.7225 231.455 39.7723 231.455C39.8222 231.455 39.872 231.668 39.9076 232.011C39.9076 232.186 39.9076 232.392 39.9076 232.62V232.978V233.336C39.8222 233.245 40.0855 233.534 39.7154 233.138C40.3383 233.064 40.9687 233.132 41.5656 233.336Z" fill="#263238"/>
<path d="M48.5605 233.336C47.9957 233.529 47.3999 233.596 46.8099 233.534C46.2222 233.596 45.6288 233.528 45.0664 233.336C45.6288 233.143 46.2222 233.076 46.8099 233.138C47.3999 233.075 47.9957 233.143 48.5605 233.336Z" fill="#263238"/>
<path d="M55.5559 233.336C54.991 233.529 54.3953 233.596 53.8053 233.534C53.2152 233.596 52.6195 233.529 52.0547 233.336C52.6195 233.143 53.2152 233.075 53.8053 233.138C54.3953 233.075 54.991 233.143 55.5559 233.336Z" fill="#263238"/>
<path d="M62.552 233.336C61.9871 233.529 61.3914 233.596 60.8014 233.534C60.2113 233.596 59.6156 233.529 59.0508 233.336C59.6156 233.143 60.2113 233.075 60.8014 233.138C61.3914 233.075 61.9871 233.143 62.552 233.336Z" fill="#263238"/>
<path d="M69.539 233.337C68.3874 233.601 67.1965 233.601 66.0449 233.337C67.1965 233.073 68.3874 233.073 69.539 233.337Z" fill="#263238"/>
<path d="M76.5331 233.337C75.3815 233.601 74.1907 233.601 73.0391 233.337C74.1907 233.073 75.3815 233.073 76.5331 233.337Z" fill="#263238"/>
<path d="M83.5285 233.337C82.3745 233.601 81.1814 233.601 80.0273 233.337C81.1814 233.073 82.3745 233.073 83.5285 233.337Z" fill="#263238"/>
<path d="M90.5175 233.337C89.3659 233.601 88.1751 233.601 87.0234 233.337C88.1751 233.073 89.3659 233.073 90.5175 233.337Z" fill="#263238"/>
<path d="M97.5136 233.337C96.362 233.601 95.1712 233.601 94.0195 233.337C95.1712 233.073 96.362 233.073 97.5136 233.337Z" fill="#263238"/>
<path d="M104.509 233.337C103.355 233.601 102.162 233.601 101.008 233.337C102.162 233.073 103.355 233.073 104.509 233.337Z" fill="#263238"/>
<path d="M111.496 233.337C110.344 233.601 109.154 233.601 108.002 233.337C109.154 233.073 110.344 233.073 111.496 233.337Z" fill="#263238"/>
<path d="M116.777 233.337C116.777 233.443 116.379 233.535 115.888 233.535C115.397 233.535 114.998 233.443 114.998 233.337C114.998 233.23 115.397 233.139 115.888 233.139C116.379 233.139 116.777 233.23 116.777 233.337Z" fill="#263238"/>
<path d="M117.61 17.5968H74.6211V80.5475H117.61V17.5968Z" fill="white"/>
<path d="M117.631 80.5006C117.631 80.5006 117.631 80.394 117.631 80.1884C117.631 79.9828 117.631 79.6782 117.631 79.2975C117.631 78.536 117.631 77.3481 117.631 75.8557C117.631 72.8479 117.631 68.4618 117.574 62.9107C117.574 51.8313 117.496 36.1222 117.446 17.5347L117.638 17.7403L74.6563 17.7936L74.8698 17.5652V80.5159L74.699 80.3331L105.918 80.4016L114.607 80.4473H116.891H117.688C117.688 80.4473 117.439 80.4473 116.934 80.4473H114.678L106.025 80.5006L74.7132 80.6225H74.5353V80.4321C74.5353 62.766 74.4855 40.9956 74.457 17.4814V17.253H74.6776H117.659H117.859V17.4662C117.859 36.1069 117.809 51.8694 117.788 62.9792C117.788 68.4999 117.788 72.8783 117.745 75.8633C117.745 77.3405 117.745 78.4751 117.745 79.2594C117.745 79.6325 117.745 79.9219 117.745 80.1275C117.719 80.2556 117.68 80.3806 117.631 80.5006Z" fill="#263238"/>
<path d="M100.901 30.2435C100.901 30.373 96.2256 30.472 90.4544 30.4796C84.6832 30.4872 80.0078 30.3882 80.0078 30.2588C80.0078 30.1293 84.6832 30.0227 90.4544 30.0227C96.2256 30.0227 100.901 30.1141 100.901 30.2435Z" fill="#263238"/>
<path d="M112.202 35.7025C112.202 35.8319 104.993 35.9386 96.1047 35.9462C87.2165 35.9538 80.0078 35.8548 80.0078 35.7253C80.0078 35.5959 87.2165 35.4893 96.1047 35.4893C104.993 35.4893 112.202 35.573 112.202 35.7025Z" fill="#263238"/>
<path d="M112.209 41.4146C112.209 41.5365 105.001 41.6431 96.1125 41.6507C87.2243 41.6583 80.0156 41.5593 80.0156 41.4375C80.0156 41.3156 87.2243 41.2014 96.1125 41.1938C105.001 41.1862 112.209 41.2852 112.209 41.4146Z" fill="#263238"/>
<path d="M112.208 47.1186C112.208 47.248 105.006 47.3546 96.1183 47.3622C87.2302 47.3698 80.0215 47.2708 80.0215 47.1414C80.0215 47.0119 87.2231 46.9053 96.1183 46.8977C105.014 46.8901 112.208 46.9967 112.208 47.1186Z" fill="#263238"/>
<path d="M112.215 52.8211C112.215 52.9506 105.006 53.0572 96.1183 53.0648C87.2302 53.0724 80.0215 52.9734 80.0215 52.8516C80.0215 52.7297 87.2302 52.6155 96.1183 52.6079C105.006 52.6003 112.215 52.6993 112.215 52.8211Z" fill="#263238"/>
<path d="M112.214 58.5327C112.214 58.6622 105.012 58.7688 96.1242 58.7764C87.2361 58.784 80.0273 58.685 80.0273 58.5556C80.0273 58.4261 87.2289 58.3195 96.1242 58.3119C105.019 58.3043 112.214 58.4185 112.214 58.5327Z" fill="#263238"/>
<path d="M112.221 64.2361C112.221 64.3656 105.012 64.4722 96.1242 64.4798C87.2361 64.4874 80.0273 64.3884 80.0273 64.2666C80.0273 64.1447 87.2361 64.0305 96.1242 64.0229C105.012 64.0153 112.221 64.1143 112.221 64.2361Z" fill="#263238"/>
<path d="M97.3346 69.9543C97.3346 70.0837 93.4634 70.1903 88.6885 70.1903C83.9135 70.1903 80.0352 70.0989 80.0352 69.9695C80.0352 69.84 83.9064 69.7334 88.6885 69.7334C93.4706 69.7334 97.3346 69.84 97.3346 69.9543Z" fill="#263238"/>
<path d="M113.872 85.1086C118.695 85.1086 122.604 80.9254 122.604 75.7653C122.604 70.6052 118.695 66.4221 113.872 66.4221C109.05 66.4221 105.141 70.6052 105.141 75.7653C105.141 80.9254 109.05 85.1086 113.872 85.1086Z" fill="#407BFF"/>
<path d="M118.883 72.1629C119.253 72.536 117.538 75.1479 115.054 78.0034C114.649 78.4603 114.257 78.8943 113.88 79.2979L113.275 79.9375L112.67 79.3969C110.5 77.4475 109.077 75.7723 109.34 75.4068C109.603 75.0413 111.475 76.1149 113.773 77.8892L112.571 77.9881C112.919 77.5617 113.282 77.1048 113.695 76.648C116.207 73.7925 118.506 71.7898 118.883 72.1629Z" fill="#E0E0E0"/>
<path d="M92.8588 83.9812C92.6122 82.7258 92.6122 81.4292 92.8588 80.1739C93.1055 81.4292 93.1055 82.7258 92.8588 83.9812Z" fill="#263238"/>
<path d="M92.8588 91.5964C92.6122 90.3411 92.6122 89.0445 92.8588 87.7891C93.1055 89.0445 93.1055 90.3411 92.8588 91.5964Z" fill="#263238"/>
<path d="M92.8588 99.2087C92.6122 97.9534 92.6122 96.6568 92.8588 95.4014C93.1055 96.6568 93.1055 97.9534 92.8588 99.2087Z" fill="#263238"/>
<path d="M92.8588 106.825C92.6122 105.57 92.6122 104.273 92.8588 103.018C93.1055 104.273 93.1055 105.57 92.8588 106.825Z" fill="#263238"/>
<path d="M92.8588 114.44C92.6122 113.185 92.6122 111.888 92.8588 110.633C93.1055 111.888 93.1055 113.185 92.8588 114.44Z" fill="#263238"/>
<path d="M92.8588 122.053C92.6122 120.798 92.6122 119.501 92.8588 118.246C93.1055 119.501 93.1055 120.798 92.8588 122.053Z" fill="#263238"/>
<path d="M92.8588 129.669C92.6122 128.413 92.6122 127.117 92.8588 125.861C93.1055 127.117 93.1055 128.413 92.8588 129.669Z" fill="#263238"/>
<path d="M92.8588 137.284C92.6122 136.029 92.6122 134.732 92.8588 133.477C93.1055 134.732 93.1055 136.029 92.8588 137.284Z" fill="#263238"/>
<path d="M96.283 141.221C95.7084 141.414 95.1034 141.482 94.5039 141.419C93.9489 141.434 93.3938 141.393 92.8459 141.297H92.7676V141.244C92.7676 141.16 92.8103 141.115 92.8316 141.115C92.853 141.115 92.8814 141.16 92.9028 141.244L92.8316 141.176C93.3788 141.072 93.9343 141.029 94.4897 141.046C95.0924 140.974 95.7024 141.034 96.283 141.221Z" fill="#263238"/>
<path d="M103.398 141.22C102.225 141.484 101.013 141.484 99.8398 141.22C101.013 140.956 102.225 140.956 103.398 141.22Z" fill="#263238"/>
<path d="M110.515 141.22C109.342 141.484 108.13 141.484 106.957 141.22C108.13 140.956 109.342 140.956 110.515 141.22Z" fill="#263238"/>
<path d="M117.632 141.22C116.459 141.484 115.247 141.484 114.074 141.22C115.247 140.956 116.459 140.956 117.632 141.22Z" fill="#263238"/>
<path d="M124.748 141.22C123.574 141.484 122.363 141.484 121.189 141.22C122.363 140.956 123.574 140.956 124.748 141.22Z" fill="#263238"/>
<path d="M243.283 72.3389C243.036 71.0835 243.036 69.7869 243.283 68.5316C243.529 69.7869 243.529 71.0835 243.283 72.3389Z" fill="#263238"/>
<path d="M243.283 79.954C243.036 78.6986 243.036 77.4021 243.283 76.1467C243.529 77.4021 243.529 78.6986 243.283 79.954Z" fill="#263238"/>
<path d="M243.283 87.5682C243.036 86.3128 243.036 85.0162 243.283 83.7608C243.529 85.0162 243.529 86.3128 243.283 87.5682Z" fill="#263238"/>
<path d="M243.283 95.1756C243.036 93.9202 243.036 92.6236 243.283 91.3682C243.529 92.6236 243.529 93.9202 243.283 95.1756Z" fill="#263238"/>
<path d="M243.282 102.797C243.036 101.541 243.036 100.245 243.282 98.9893C243.528 100.245 243.528 101.541 243.282 102.797Z" fill="#263238"/>
<path d="M243.283 110.412C243.036 109.157 243.036 107.86 243.283 106.605C243.529 107.86 243.529 109.157 243.283 110.412Z" fill="#263238"/>
<path d="M243.283 118.026C243.036 116.771 243.036 115.474 243.283 114.219C243.529 115.474 243.529 116.771 243.283 118.026Z" fill="#263238"/>
<path d="M243.283 125.64C243.036 124.385 243.036 123.088 243.283 121.833C243.529 123.088 243.529 124.385 243.283 125.64Z" fill="#263238"/>
<path d="M291.61 77.2277H291.19H289.93H285.027L266.639 77.2962L203.169 77.4562H203.027L202.977 77.281C202.28 74.7287 202.156 72.0362 202.616 69.423C203.076 66.8098 204.107 64.3499 205.624 62.2439C207.141 60.1378 209.102 58.4453 211.347 57.3043C213.591 56.1633 216.056 55.6061 218.54 55.6781L218.306 56.0056C217.915 54.5204 217.75 52.978 217.815 51.4367C218.007 46.1826 220.796 41.1112 225.08 38.7659C227.158 37.6034 229.47 37.0027 231.814 37.0159C234.158 37.0292 236.464 37.6561 238.53 38.842L238.203 38.9715C239.347 36.1302 241.03 33.5742 243.146 31.4652C245.261 29.3562 247.763 27.7402 250.492 26.7194C255.73 24.6787 261.537 24.9452 266.105 27.4809C270.45 29.9393 273.865 33.9324 275.769 38.7811C277.518 43.0416 277.937 47.792 276.964 52.3277L276.787 52.1144C279.293 51.8302 281.826 52.2256 284.152 53.2643C286.218 54.1593 288.077 55.5232 289.603 57.262C290.3 58.0386 290.879 58.9277 291.318 59.8967C291.71 60.7934 292.017 61.7295 292.236 62.6913C292.605 64.3675 292.815 66.0793 292.862 67.8007C292.94 70.1725 292.746 72.5456 292.286 74.8672C292.165 75.4671 292.012 76.0594 291.83 76.6414C291.702 77.0373 291.631 77.2277 291.631 77.2277" fill="#407BFF"/>
<path d="M283.563 51.1471H280.823V33.5114C280.823 31.4737 280.066 29.5195 278.72 28.0786C277.373 26.6377 275.547 25.8282 273.643 25.8282C271.738 25.8282 269.912 26.6377 268.565 28.0786C267.219 29.5195 266.462 31.4737 266.462 33.5114V51.1471H263.723V33.5114C263.723 30.6962 264.768 27.9963 266.628 26.0056C268.489 24.0149 271.012 22.8965 273.643 22.8965C276.274 22.8965 278.797 24.0149 280.657 26.0056C282.517 27.9963 283.563 30.6962 283.563 33.5114V51.1471Z" fill="#E0E0E0"/>
<path d="M284.791 43.2969H262.489C261.156 43.2969 260.076 44.4527 260.076 45.8783V59.3411C260.076 60.7668 261.156 61.9225 262.489 61.9225H284.791C286.123 61.9225 287.203 60.7668 287.203 59.3411V45.8783C287.203 44.4527 286.123 43.2969 284.791 43.2969Z" fill="#E0E0E0"/>
<path d="M273.64 52.6093C273.191 52.6108 272.751 52.4695 272.377 52.2031C272.002 51.9368 271.71 51.5575 271.537 51.1133C271.365 50.6692 271.319 50.1801 271.407 49.7082C271.494 49.2363 271.71 48.8028 272.028 48.4626C272.346 48.1225 272.751 47.8909 273.192 47.7975C273.633 47.704 274.09 47.7527 274.505 47.9375C274.92 48.1223 275.275 48.4348 275.524 48.8355C275.773 49.2361 275.905 49.7068 275.903 50.1879C275.903 50.8301 275.665 51.446 275.241 51.9001C274.816 52.3542 274.241 52.6093 273.64 52.6093Z" fill="#455A64"/>
<path d="M274.262 51.1474H273.023V56.135H274.262V51.1474Z" fill="#455A64"/>
<path d="M440.43 45.2917C442.47 43.2607 443.934 40.6561 444.655 37.7759C445.376 34.8958 445.325 31.8566 444.507 29.0063C443.689 26.156 442.137 23.6099 440.029 21.6594C437.922 19.7089 435.343 18.4329 432.59 17.9774C429.836 17.522 427.018 17.9055 424.458 19.0842C421.899 20.2628 419.701 22.1888 418.117 24.6418C416.533 27.0948 415.626 29.9755 415.501 32.9542C415.376 35.9329 416.037 38.8891 417.409 41.4844L414.384 44.5302L415.096 49.8605L410.421 48.5203L406.642 52.3277L407.354 57.658L402.664 56.2493L399.433 59.4703L399.874 62.737L397.028 61.8841L395.164 63.7497L394.879 68.7221L401.803 70.5877L424.269 48.1548C426.928 49.4278 429.878 49.8352 432.752 49.326C435.626 48.8169 438.296 47.4138 440.43 45.2917ZM438.238 25.7676C438.816 26.4273 439.199 27.2559 439.337 28.1483C439.475 29.0407 439.362 29.9569 439.013 30.7807C438.664 31.6045 438.094 32.2989 437.375 32.7758C436.657 33.2527 435.823 33.4908 434.978 33.4598C434.133 33.4288 433.316 33.1302 432.63 32.6017C431.944 32.0733 431.42 31.3388 431.124 30.4913C430.828 29.6439 430.774 28.7216 430.969 27.8414C431.164 26.9611 431.598 26.1626 432.218 25.5468C433.045 24.7245 434.142 24.2862 435.27 24.3275C436.399 24.3689 437.466 24.8867 438.238 25.7676Z" fill="#263238"/>
<path d="M438.239 25.7686C438.239 25.7686 437.961 25.4868 437.392 25.1137C436.59 24.5931 435.648 24.3734 434.716 24.4893C433.959 24.5755 433.239 24.8857 432.638 25.3851C432.036 25.8845 431.576 26.5533 431.31 27.3166C431.044 28.0799 430.981 28.9074 431.13 29.7065C431.278 30.5056 431.632 31.2446 432.151 31.8407C432.67 32.4368 433.334 32.8664 434.068 33.0814C434.803 33.2963 435.579 33.2882 436.309 33.0578C437.039 32.8274 437.695 32.3838 438.203 31.7769C438.711 31.17 439.051 30.4237 439.185 29.6216C439.355 28.6315 439.215 27.6089 438.787 26.7128C438.481 26.0808 438.21 25.7914 438.239 25.7686C438.267 25.7457 438.317 25.8219 438.445 25.9666C438.626 26.1715 438.784 26.399 438.915 26.6443C439.419 27.562 439.608 28.6393 439.448 29.6901C439.352 30.3071 439.142 30.8974 438.83 31.4264C438.518 31.9553 438.111 32.4123 437.631 32.7704C437.152 33.1286 436.611 33.3808 436.04 33.5122C435.468 33.6436 434.878 33.6515 434.303 33.5356C433.377 33.3516 432.53 32.853 431.889 32.1137C431.248 31.3744 430.847 30.4337 430.745 29.4312C430.676 28.8082 430.725 28.1767 430.888 27.5741C431.051 26.9715 431.326 26.41 431.695 25.923C432.065 25.4359 432.522 25.0331 433.04 24.7385C433.557 24.4438 434.125 24.2633 434.709 24.2076C435.691 24.1055 436.676 24.3749 437.491 24.969C437.711 25.125 437.912 25.3091 438.089 25.5173C438.151 25.592 438.202 25.6768 438.239 25.7686Z" fill="#263238"/>
<path d="M440.43 45.2925C440.364 45.372 440.293 45.4459 440.216 45.5134L439.562 46.1378C438.682 46.8987 437.727 47.5549 436.715 48.0948C434.767 49.092 432.639 49.6255 430.479 49.6583C428.32 49.6912 426.179 49.2227 424.205 48.2851H424.326L401.903 70.7561L401.831 70.817H401.746L394.822 68.959L394.68 68.9209V68.7686C394.765 67.2457 394.858 65.5248 394.957 63.8039V63.7277L395.014 63.6744L396.9 61.786L396.971 61.7174H397.071L399.917 62.5779L399.689 62.7911C399.554 61.7707 399.405 60.6514 399.248 59.5244V59.4178L399.312 59.3493L402.564 56.1054L402.636 56.0293H402.735L407.425 57.438L407.19 57.6512C406.962 55.9531 406.713 54.1256 406.478 52.3209V52.2219L406.542 52.1458L407.546 51.1482L410.321 48.3765L410.399 48.3003H410.499L415.189 49.7091L414.954 49.9223C414.712 48.1201 414.475 46.3434 414.242 44.592V44.493L414.313 44.4245L417.331 41.3786L417.295 41.6146C416.135 39.3994 415.475 36.9249 415.366 34.3883C415.313 33.1561 415.397 31.9215 415.616 30.7104C415.817 29.5205 416.149 28.3601 416.605 27.2533C417.737 24.4418 419.601 22.0373 421.973 20.3255C424.345 18.6138 427.127 17.6668 429.987 17.597C432.848 17.5272 435.667 18.3376 438.11 19.932C440.552 21.5263 442.516 23.8374 443.767 26.5908C444.943 29.1929 445.435 32.0885 445.19 34.967C445.029 37.0977 444.462 39.1706 443.525 41.0588L443.248 41.6223L442.949 42.1248C442.743 42.4446 442.579 42.7645 442.38 43.0234C441.981 43.5412 441.668 44.0057 441.369 44.3331L440.657 45.0946L440.416 45.3306L440.636 45.0641L441.298 44.3026C441.59 43.9752 441.889 43.5412 442.273 42.9929C442.465 42.7264 442.629 42.4066 442.821 42.0868L443.12 41.5842L443.383 41.0207C444.439 38.8144 444.999 36.3749 445.019 33.8963C445.038 31.4177 444.517 28.9684 443.497 26.7431C441.933 23.3766 439.294 20.7204 436.058 19.2553C432.822 17.7901 429.203 17.6128 425.856 18.7553C423.869 19.4336 422.041 20.5564 420.491 22.0491C418.941 23.5419 417.706 25.3704 416.868 27.4132C416.425 28.4935 416.103 29.6257 415.907 30.7865C415.693 31.9674 415.614 33.1718 415.672 34.3731C415.776 36.8526 416.424 39.2711 417.565 41.4319L417.629 41.5613L417.53 41.6679L414.513 44.7138L414.569 44.5463C414.807 46.3129 415.044 48.0897 415.281 49.8766L415.324 50.1736L415.053 50.0974L410.364 48.6887L410.542 48.643L407.766 51.4148L406.763 52.4123L406.82 52.2448C407.069 54.0799 407.311 55.9074 407.532 57.575L407.574 57.872L407.304 57.7959L402.614 56.3872L402.792 56.3415L399.54 59.5853L399.597 59.4102C399.746 60.5372 399.896 61.6565 400.038 62.6769V62.9739L399.775 62.8977L396.928 62.0373L397.099 61.9916L395.213 63.88L395.27 63.7506C395.171 65.4715 395.071 67.1696 394.979 68.7153L394.85 68.525L401.775 70.3982H401.618L424.119 48.0186L424.169 47.9653H424.24C426.188 48.8995 428.3 49.3748 430.434 49.359C432.568 49.3433 434.673 48.8368 436.608 47.8739C437.629 47.3554 438.595 46.7224 439.49 45.9855C439.782 45.7342 440.003 45.5362 440.159 45.3915L440.43 45.2925Z" fill="#263238"/>
<path d="M439.932 43.4946C441.972 41.4636 443.436 38.859 444.157 35.9788C444.878 33.0987 444.827 30.0595 444.008 27.2092C443.19 24.359 441.639 21.8128 439.531 19.8623C437.423 17.9118 434.845 16.6358 432.091 16.1803C429.338 15.7249 426.52 16.1084 423.96 17.2871C421.401 18.4657 419.203 20.3918 417.619 22.8447C416.035 25.2977 415.128 28.1784 415.003 31.1571C414.878 34.1358 415.539 37.092 416.911 39.6873L413.893 42.7332L414.605 48.0634L409.915 46.6547L406.137 50.4621L406.848 55.7924L402.159 54.3836L398.935 57.658L399.376 60.9247L396.53 60.0718L394.644 61.9603L394.359 66.925L401.283 68.7906L423.749 46.3654C426.412 47.6423 429.367 48.051 432.245 47.5404C435.123 47.0298 437.797 45.6226 439.932 43.4946ZM437.74 23.9629C438.319 24.6222 438.702 25.4508 438.841 26.3436C438.98 27.2363 438.868 28.1531 438.519 28.9775C438.17 29.8019 437.6 30.4969 436.881 30.9743C436.163 31.4516 435.328 31.6899 434.483 31.6589C433.638 31.6278 432.82 31.3289 432.134 30.7999C431.447 30.2709 430.923 29.5358 430.628 28.6877C430.333 27.8396 430.28 26.9168 430.475 26.0363C430.671 25.1559 431.106 24.3574 431.727 23.7421C432.553 22.9222 433.649 22.4852 434.776 22.5266C435.902 22.568 436.968 23.0843 437.74 23.9629Z" fill="#E0E0E0"/>
<path d="M437.739 23.9631C437.739 23.9631 437.462 23.689 436.893 23.3159C436.091 22.792 435.15 22.5696 434.217 22.6838C433.46 22.7715 432.741 23.0828 432.141 23.5829C431.54 24.0831 431.081 24.7523 430.816 25.5156C430.551 26.2789 430.489 27.1061 430.639 27.9047C430.788 28.7033 431.142 29.4416 431.661 30.037C432.181 30.6323 432.845 31.0613 433.579 31.2757C434.313 31.4902 435.088 31.4816 435.818 31.2511C436.548 31.0206 437.204 30.5771 437.712 29.9704C438.219 29.3638 438.559 28.6178 438.693 27.8161C438.864 26.8277 438.722 25.8064 438.287 24.9149C437.981 24.2829 437.711 23.9936 437.739 23.9631C437.768 23.9327 437.818 24.024 437.946 24.1611C438.127 24.366 438.285 24.5936 438.416 24.8388C438.92 25.7566 439.108 26.8339 438.949 27.8847C438.856 28.5042 438.647 29.0974 438.337 29.6296C438.026 30.1618 437.619 30.6223 437.14 30.984C436.661 31.3458 436.119 31.6014 435.546 31.7361C434.973 31.8707 434.381 31.8816 433.804 31.7682C432.878 31.5804 432.033 31.0796 431.392 30.3395C430.752 29.5993 430.35 28.6588 430.246 27.6562C430.141 26.7258 430.302 25.7832 430.709 24.953C431.046 24.2512 431.544 23.6521 432.157 23.2114C432.769 22.7708 433.475 22.5028 434.21 22.4326C435.192 22.335 436.175 22.604 436.992 23.194C437.213 23.3477 437.414 23.5321 437.59 23.7423C437.699 23.8844 437.749 23.958 437.739 23.9631Z" fill="#263238"/>
<path d="M439.932 43.4951C439.864 43.5705 439.793 43.6417 439.718 43.7083L439.071 44.3327C438.191 45.0938 437.236 45.75 436.224 46.2897C434.276 47.287 432.148 47.8204 429.988 47.8533C427.829 47.8861 425.688 47.4176 423.714 46.4801H423.835L401.383 68.9282L401.319 68.9967H401.227L394.302 67.1387H394.16V66.9864C394.246 65.4635 394.338 63.735 394.438 62.014V61.9379L394.487 61.8922C395.071 61.3059 395.719 60.651 396.373 60.0038L396.452 59.9276H396.544L399.391 60.7805L399.163 60.9937C399.021 59.9733 398.871 58.8539 398.722 57.727V57.628L398.786 57.5518L402.038 54.3156L402.109 54.2394H402.209L406.898 55.6405L406.663 55.8614C406.436 54.1557 406.187 52.3358 405.952 50.5311V50.4321L406.023 50.3636L407.019 49.3584L409.794 46.5867L409.873 46.5105H409.972L414.662 47.9192L414.427 48.1401C414.185 46.3278 413.943 44.5459 413.715 42.8098V42.7108L413.787 42.6423L416.804 39.5964V39.8324C415.638 37.6192 414.975 35.1439 414.868 32.6061C414.773 30.1608 415.197 27.7241 416.107 25.4787C417.239 22.6672 419.102 20.2627 421.475 18.5509C423.847 16.8392 426.629 15.8922 429.489 15.8224C432.35 15.7526 435.169 16.563 437.611 18.1573C440.054 19.7517 442.018 22.0628 443.269 24.8163C444.451 27.4004 444.956 30.2798 444.728 33.1467C444.567 35.2776 444 37.3507 443.063 39.2385L442.792 39.802L442.486 40.3045C442.28 40.632 442.116 40.9442 441.924 41.2107C441.518 41.7285 441.212 42.1854 440.914 42.5128L440.202 43.2743C440.045 43.4418 439.96 43.5179 439.96 43.5179C439.96 43.5179 440.031 43.419 440.181 43.2514L440.842 42.49C441.134 42.1625 441.433 41.7285 441.824 41.1726C442.009 40.9061 442.173 40.5863 442.365 40.2665L442.664 39.7639L442.935 39.2004C443.769 37.334 444.251 35.31 444.354 33.2441C444.457 31.1782 444.179 29.1107 443.535 27.1599C442.892 25.209 441.895 23.4129 440.603 21.8741C439.311 20.3353 437.748 19.0839 436.003 18.1915C434.259 17.299 432.368 16.7829 430.437 16.6726C428.506 16.5623 426.574 16.86 424.751 17.5487C422.928 18.2374 421.249 19.3036 419.811 20.6865C418.373 22.0693 417.204 23.7417 416.37 25.6082C415.484 27.804 415.075 30.1863 415.174 32.5756C415.277 35.0528 415.926 37.4688 417.067 39.6268L417.138 39.7639L417.032 39.8629L414.014 42.9088L414.071 42.7412C414.304 44.5079 414.541 46.2846 414.783 48.0715L414.826 48.3761L414.555 48.2924L409.866 46.8836L410.043 46.838L407.268 49.6097L406.265 50.6148L406.322 50.4397C406.571 52.2748 406.813 54.1024 407.033 55.77L407.076 56.0746L406.806 55.9908L402.13 54.6126L402.308 54.5669L399.056 57.8107L399.113 57.6432C399.262 58.7702 399.419 59.9276 399.554 60.9099L399.59 61.1993L399.326 61.1231L396.48 60.2627L396.651 60.217L394.758 62.1054L394.815 61.976C394.715 63.6969 394.616 65.395 394.523 66.9408L394.395 66.7504L401.319 68.6236L401.162 68.6693L423.628 46.2821L423.685 46.2288H423.749C425.982 47.2974 428.425 47.7653 430.866 47.5918C432.678 47.4478 434.452 46.9579 436.103 46.145C437.108 45.6185 438.062 44.9858 438.95 44.2566L439.618 43.655L439.932 43.4951Z" fill="#263238"/>
<path d="M438.573 42.2546C439.303 41.4173 439.97 40.5184 440.565 39.5666C441.243 38.4378 441.757 37.2054 442.088 35.9115C442.545 34.2032 442.69 32.4168 442.515 30.6498C442.312 28.5106 441.642 26.4525 440.558 24.6418C439.314 22.5625 437.575 20.8752 435.52 19.7532C434.418 19.1425 433.235 18.7162 432.012 18.4891C431.381 18.3679 430.744 18.289 430.104 18.2531C429.451 18.2432 428.797 18.2788 428.148 18.3597C425.424 18.6954 422.873 19.9574 420.87 21.9599C418.866 23.9625 417.516 26.6 417.018 29.4847C416.898 30.1716 416.82 30.8659 416.783 31.5636C416.772 32.2501 416.801 32.9367 416.868 33.6195C417.004 34.9314 417.32 36.2145 417.808 37.4269C418.709 39.6999 420.16 41.6742 422.013 43.1455C423.489 44.3096 425.179 45.1264 426.97 45.5424C428.762 45.9585 430.616 45.9642 432.41 45.5594C433.64 45.2959 434.826 44.8337 435.926 44.1887C436.854 43.6155 437.739 42.9664 438.573 42.247C438.573 42.247 438.523 42.3079 438.423 42.4069L437.961 42.8485C437.714 43.0983 437.447 43.325 437.164 43.5262C436.791 43.807 436.401 44.0613 435.997 44.2877C434.887 44.9643 433.687 45.4548 432.439 45.7421C430.611 46.1758 428.718 46.1889 426.885 45.7806C425.052 45.3723 423.321 44.552 421.807 43.3739C419.904 41.8726 418.408 39.8569 417.473 37.5335C416.97 36.2961 416.646 34.9841 416.513 33.6424C416.435 32.9451 416.404 32.2427 416.42 31.5407C416.449 30.8222 416.527 30.107 416.655 29.401C417.169 26.4361 418.559 23.726 420.62 21.6698C422.681 19.6136 425.305 18.3198 428.105 17.9789C428.771 17.8966 429.441 17.8635 430.112 17.8799C430.768 17.9147 431.422 17.9961 432.069 18.1236C433.325 18.364 434.539 18.8083 435.669 19.441C437.771 20.5981 439.545 22.336 440.807 24.4743C441.909 26.3292 442.582 28.4383 442.771 30.6269C442.929 32.421 442.762 34.2306 442.28 35.9572C441.926 37.2638 441.386 38.5042 440.679 39.6351C440.432 40.0527 440.156 40.4498 439.854 40.823C439.638 41.0988 439.4 41.3536 439.142 41.5845L438.694 42.049C438.63 42.2089 438.573 42.2622 438.573 42.2546Z" fill="#263238"/>
<path d="M437.968 31.0061C437.968 31.0061 438.281 30.6634 438.679 29.9553C439.168 29.1094 439.423 28.1331 439.415 27.1389C439.408 26.1446 439.138 25.1729 438.637 24.3356C438.168 23.5569 437.511 22.9281 436.736 22.5157C435.891 22.0499 434.933 21.8694 433.99 21.9979C432.972 22.1225 432.019 22.5928 431.27 23.3397C430.521 24.0866 430.015 25.0708 429.827 26.1479C429.644 27.1493 429.746 28.1863 430.118 29.1253C430.385 29.7924 430.778 30.3931 431.273 30.8897C431.767 31.3862 432.352 31.7678 432.992 32.0103C433.631 32.2528 434.31 32.351 434.986 32.2988C435.663 32.2465 436.322 32.0449 436.921 31.7067C437.633 31.3107 437.925 30.9452 437.953 31.0061C437.982 31.067 437.889 31.1051 437.733 31.2574C437.518 31.4822 437.279 31.6791 437.021 31.8437C436.176 32.3646 435.208 32.6123 434.235 32.5569C433.261 32.5015 432.323 32.1453 431.535 31.5315C430.747 30.9208 430.138 30.0836 429.778 29.1171C429.417 28.1507 429.321 27.0946 429.499 26.0718C429.7 24.9128 430.243 23.8535 431.049 23.0501C431.855 22.2467 432.881 21.7417 433.975 21.6096C434.654 21.522 435.343 21.5815 436 21.7843C436.657 21.9871 437.269 22.3291 437.8 22.7901C438.331 23.2511 438.77 23.8217 439.091 24.4678C439.412 25.114 439.608 25.8226 439.668 26.5515C439.775 27.7831 439.478 29.016 438.829 30.039C438.656 30.3154 438.455 30.5707 438.231 30.8005C438.153 30.8826 438.064 30.9519 437.968 31.0061Z" fill="#263238"/>
<path d="M399.434 67.9161C399.363 67.84 404.416 62.6696 410.728 56.3722C417.04 50.0749 422.213 45.0263 422.284 45.1101C422.356 45.1939 417.303 50.3566 410.984 56.6616C404.665 62.9666 399.527 67.9999 399.434 67.9161Z" fill="#263238"/>
<path d="M377.593 136.707C376.42 136.971 375.208 136.971 374.035 136.707C375.208 136.443 376.42 136.443 377.593 136.707Z" fill="#263238"/>
<path d="M384.71 136.707C383.537 136.971 382.326 136.971 381.152 136.707C382.326 136.443 383.537 136.443 384.71 136.707Z" fill="#263238"/>
<path d="M391.826 136.707C390.652 136.971 389.441 136.971 388.268 136.707C389.441 136.443 390.652 136.443 391.826 136.707Z" fill="#263238"/>
<path d="M398.941 136.707C397.768 136.971 396.556 136.971 395.383 136.707C396.556 136.443 397.768 136.443 398.941 136.707Z" fill="#263238"/>
<path d="M406.058 136.707C404.885 136.971 403.673 136.971 402.5 136.707C403.673 136.443 404.885 136.443 406.058 136.707Z" fill="#263238"/>
<path d="M413.175 136.707C412.002 136.971 410.79 136.971 409.617 136.707C410.79 136.443 412.002 136.443 413.175 136.707Z" fill="#263238"/>
<path d="M419.217 135.557C419.288 135.557 419.359 136.029 419.387 136.707V136.852H419.209H418.498C417.898 136.914 417.293 136.847 416.719 136.654C417.293 136.461 417.898 136.394 418.498 136.456H419.209L419.039 136.639C419.074 136.029 419.138 135.557 419.217 135.557Z" fill="#263238"/>
<path d="M419.216 127.943C419.463 129.199 419.463 130.495 419.216 131.751C418.97 130.495 418.97 129.199 419.216 127.943Z" fill="#263238"/>
<path d="M419.216 120.328C419.463 121.584 419.463 122.88 419.216 124.135C418.97 122.88 418.97 121.584 419.216 120.328Z" fill="#263238"/>
<path d="M419.216 112.712C419.463 113.967 419.463 115.264 419.216 116.519C418.97 115.264 418.97 113.967 419.216 112.712Z" fill="#263238"/>
<path d="M419.216 105.098C419.463 106.353 419.463 107.649 419.216 108.905C418.97 107.649 418.97 106.353 419.216 105.098Z" fill="#263238"/>
<path d="M419.216 97.4843C419.463 98.7396 419.463 100.036 419.216 101.292C418.97 100.036 418.97 98.7396 419.216 97.4843Z" fill="#263238"/>
<path d="M419.216 89.869C419.463 91.1244 419.463 92.421 419.216 93.6764C418.97 92.421 418.97 91.1244 419.216 89.869Z" fill="#263238"/>
<path d="M419.216 82.2546C419.463 83.51 419.463 84.8065 419.216 86.0619C418.97 84.8065 418.97 83.51 419.216 82.2546Z" fill="#263238"/>
<path d="M419.216 74.6395C419.463 75.8949 419.463 77.1914 419.216 78.4468C418.97 77.1914 418.97 75.8949 419.216 74.6395Z" fill="#263238"/>
<path d="M419.216 67.0244C419.463 68.2798 419.463 69.5763 419.216 70.8317C418.97 69.5763 418.97 68.2798 419.216 67.0244Z" fill="#263238"/>
<path d="M419.216 59.4093C419.463 60.6647 419.463 61.9612 419.216 63.2166C418.97 61.9612 418.97 60.6647 419.216 59.4093Z" fill="#263238"/>
<path d="M365.859 212.603C364.686 212.867 363.474 212.867 362.301 212.603C363.474 212.339 364.686 212.339 365.859 212.603Z" fill="#263238"/>
<path d="M372.976 212.603C371.803 212.867 370.591 212.867 369.418 212.603C370.591 212.339 371.803 212.339 372.976 212.603Z" fill="#263238"/>
<path d="M380.089 212.603C378.916 212.867 377.704 212.867 376.531 212.603C377.704 212.339 378.916 212.339 380.089 212.603Z" fill="#263238"/>
<path d="M387.207 212.603C386.033 212.867 384.822 212.867 383.648 212.603C384.822 212.339 386.033 212.339 387.207 212.603Z" fill="#263238"/>
<path d="M394.324 212.603C393.151 212.867 391.939 212.867 390.766 212.603C391.939 212.339 393.151 212.339 394.324 212.603Z" fill="#263238"/>
<path d="M401.441 212.603C400.268 212.867 399.056 212.867 397.883 212.603C399.056 212.339 400.268 212.339 401.441 212.603Z" fill="#263238"/>
<path d="M408.556 212.603C407.383 212.867 406.171 212.867 404.998 212.603C406.171 212.339 407.383 212.339 408.556 212.603Z" fill="#263238"/>
<path d="M415.671 212.603C414.498 212.867 413.286 212.867 412.113 212.603C413.286 212.339 414.498 212.339 415.671 212.603Z" fill="#263238"/>
<path d="M422.789 212.603C421.615 212.867 420.404 212.867 419.23 212.603C420.404 212.339 421.615 212.339 422.789 212.603Z" fill="#263238"/>
<path d="M429.906 212.603C428.733 212.867 427.521 212.867 426.348 212.603C427.521 212.339 428.733 212.339 429.906 212.603Z" fill="#263238"/>
<path d="M436.36 211.894C436.425 211.894 436.467 212.168 436.503 212.609V212.747H436.346C436.047 212.747 435.635 212.785 435.236 212.785C434.637 212.851 434.031 212.784 433.457 212.587C434.032 212.394 434.637 212.326 435.236 212.389C435.663 212.389 436.047 212.389 436.346 212.434L436.204 212.587C436.247 212.168 436.304 211.894 436.36 211.894Z" fill="#263238"/>
<path d="M436.438 204.279C436.617 204.894 436.675 205.542 436.609 206.183C436.662 206.826 436.592 207.474 436.402 208.087C436.227 207.471 436.171 206.823 436.239 206.183C436.185 205.54 436.253 204.893 436.438 204.279Z" fill="#263238"/>
<path d="M436.5 196.664C436.676 197.28 436.734 197.927 436.671 198.568C436.724 199.211 436.654 199.858 436.465 200.471C436.29 199.855 436.234 199.207 436.301 198.568C436.247 197.925 436.315 197.278 436.5 196.664Z" fill="#263238"/>
<path d="M436.575 189.051C436.75 189.667 436.808 190.314 436.745 190.954C436.795 191.597 436.724 192.244 436.539 192.858C436.364 192.242 436.306 191.595 436.368 190.954C436.319 190.311 436.389 189.664 436.575 189.051Z" fill="#263238"/>
<path d="M413.025 165.186L414.334 190.916C414.354 191.359 414.532 191.776 414.831 192.082C415.131 192.388 415.528 192.56 415.942 192.561L459.216 192.904C459.647 192.906 460.061 192.725 460.368 192.401C460.675 192.077 460.849 191.636 460.853 191.175L460.988 171.149C460.99 170.919 460.949 170.692 460.869 170.479C460.788 170.267 460.669 170.074 460.518 169.911C460.367 169.748 460.187 169.619 459.99 169.531C459.792 169.443 459.58 169.397 459.365 169.397H432.751C432.321 169.396 431.909 169.213 431.605 168.887L427.015 163.975C426.866 163.814 426.689 163.686 426.493 163.599C426.298 163.511 426.088 163.466 425.877 163.465L414.654 163.374C414.435 163.374 414.218 163.421 414.016 163.513C413.814 163.605 413.631 163.739 413.479 163.909C413.327 164.078 413.208 164.278 413.13 164.498C413.052 164.717 413.016 164.952 413.025 165.186Z" fill="#407BFF"/>
<path d="M461.02 166.37L413.734 165.999L413.527 196.229L460.813 196.6L461.02 166.37Z" fill="#F5F5F5"/>
<path d="M409.957 168.68L413.352 200.235C413.378 200.507 413.499 200.76 413.689 200.943C413.88 201.126 414.128 201.226 414.384 201.225L460.461 201.59C460.725 201.593 460.98 201.488 461.174 201.297C461.368 201.107 461.487 200.844 461.507 200.562L464.048 169.053C464.059 168.899 464.041 168.744 463.995 168.598C463.948 168.452 463.873 168.318 463.776 168.204C463.678 168.091 463.56 168 463.428 167.937C463.296 167.875 463.153 167.842 463.009 167.842L411.003 167.438C410.856 167.437 410.71 167.47 410.575 167.534C410.44 167.597 410.319 167.691 410.22 167.808C410.122 167.925 410.047 168.063 410.002 168.214C409.956 168.364 409.941 168.523 409.957 168.68Z" fill="#407BFF"/>
<path d="M371.337 119.619H133.165C127.439 119.619 122.797 124.586 122.797 130.714V291.734C122.797 297.861 127.439 302.829 133.165 302.829H371.337C377.064 302.829 381.706 297.861 381.706 291.734V130.714C381.706 124.586 377.064 119.619 371.337 119.619Z" fill="#263238"/>
<path d="M111.938 289.283H392.48V291.758C392.48 295.352 391.145 298.8 388.77 301.342C386.394 303.884 383.172 305.312 379.813 305.312H124.64C121.28 305.312 118.059 303.884 115.683 301.342C113.308 298.8 111.973 295.352 111.973 291.758V289.283H111.938Z" fill="#263238"/>
<path d="M374.035 126.898H129.75V281.614H374.035V126.898Z" fill="#455A64"/>
<path d="M226.729 289.283L230.208 295.207H279.189L282.427 289.283H226.729Z" fill="#455A64"/>
<path d="M367.182 132.138H137.108C135.823 132.138 134.781 133.253 134.781 134.628V278.629C134.781 280.004 135.823 281.119 137.108 281.119H367.182C368.467 281.119 369.509 280.004 369.509 278.629V134.628C369.509 133.253 368.467 132.138 367.182 132.138Z" fill="#EBEBEB"/>
<path d="M369.509 143.058H134.781V281.128H369.509V143.058Z" fill="#FAFAFA"/>
<path d="M154.031 137.896C154.031 138.294 153.92 138.683 153.714 139.013C153.507 139.344 153.213 139.602 152.869 139.754C152.526 139.906 152.148 139.945 151.783 139.867C151.418 139.789 151.084 139.596 150.821 139.314C150.559 139.033 150.38 138.674 150.309 138.283C150.237 137.893 150.275 137.488 150.418 137.121C150.562 136.754 150.804 136.44 151.114 136.22C151.423 136 151.787 135.884 152.159 135.885C152.406 135.885 152.65 135.937 152.877 136.039C153.105 136.14 153.311 136.288 153.485 136.475C153.659 136.661 153.797 136.883 153.89 137.127C153.984 137.371 154.032 137.632 154.031 137.896Z" fill="#263238"/>
<path d="M142.673 137.896C142.673 138.293 142.563 138.682 142.357 139.013C142.15 139.343 141.857 139.601 141.514 139.753C141.17 139.905 140.793 139.945 140.428 139.867C140.064 139.79 139.729 139.598 139.466 139.317C139.204 139.036 139.025 138.678 138.952 138.288C138.88 137.898 138.917 137.494 139.059 137.126C139.201 136.759 139.442 136.445 139.751 136.224C140.06 136.003 140.423 135.885 140.795 135.885C141.293 135.885 141.771 136.097 142.123 136.474C142.475 136.851 142.673 137.362 142.673 137.896Z" fill="#263238"/>
<path d="M148.125 137.896C148.125 138.294 148.014 138.683 147.807 139.013C147.601 139.344 147.307 139.602 146.963 139.754C146.619 139.906 146.241 139.945 145.877 139.867C145.512 139.789 145.177 139.596 144.915 139.314C144.652 139.033 144.474 138.674 144.402 138.283C144.331 137.893 144.369 137.488 144.512 137.121C144.656 136.754 144.897 136.44 145.207 136.22C145.517 136 145.881 135.884 146.253 135.885C146.499 135.885 146.743 135.937 146.971 136.039C147.198 136.14 147.405 136.288 147.579 136.475C147.753 136.661 147.89 136.883 147.984 137.127C148.078 137.371 148.125 137.632 148.125 137.896Z" fill="#263238"/>
<path d="M379.507 289.283C379.507 289.382 322.044 289.466 251.173 289.466C180.303 289.466 122.818 289.382 122.818 289.283C122.818 289.184 180.275 289.1 251.173 289.1C322.072 289.1 379.507 289.184 379.507 289.283Z" fill="#455A64"/>
<path d="M204.612 212.609H151.049V216.447H204.612V212.609Z" fill="#E0E0E0"/>
<path d="M273.796 159.375H220.232V163.213H273.796V159.375Z" fill="#E0E0E0"/>
<path d="M353.462 173.653C353.462 173.752 323.638 173.836 286.847 173.836C250.056 173.836 220.232 173.752 220.232 173.653C220.232 173.554 250.056 173.478 286.847 173.478C323.638 173.478 353.462 173.554 353.462 173.653Z" fill="#E0E0E0"/>
<path d="M353.462 182.029C353.462 182.128 323.638 182.204 286.847 182.204C250.056 182.204 220.232 182.128 220.232 182.029C220.232 181.93 250.056 181.846 286.847 181.846C323.638 181.846 353.462 181.93 353.462 182.029Z" fill="#E0E0E0"/>
<path d="M353.462 190.397C353.462 190.496 323.638 190.579 286.847 190.579C250.056 190.579 220.232 190.496 220.232 190.397C220.232 190.298 250.056 190.222 286.847 190.222C323.638 190.222 353.462 190.298 353.462 190.397Z" fill="#E0E0E0"/>
<path d="M353.462 198.773C353.462 198.872 323.638 198.948 286.847 198.948C250.056 198.948 220.232 198.872 220.232 198.773C220.232 198.674 250.056 198.59 286.847 198.59C323.638 198.59 353.462 198.674 353.462 198.773Z" fill="#E0E0E0"/>
<path d="M353.462 207.142C353.462 207.241 323.638 207.324 286.847 207.324C250.056 207.324 220.232 207.241 220.232 207.142C220.232 207.043 250.056 206.967 286.847 206.967C323.638 206.967 353.462 207.043 353.462 207.142Z" fill="#E0E0E0"/>
<path d="M272.238 215.518C272.238 215.617 260.596 215.694 246.235 215.694C231.875 215.694 220.232 215.617 220.232 215.518C220.232 215.42 231.875 215.336 246.235 215.336C260.596 215.336 272.238 215.42 272.238 215.518Z" fill="#E0E0E0"/>
<path d="M352.465 231.76C352.465 231.859 332.86 231.943 308.686 231.943C284.513 231.943 264.9 231.859 264.9 231.76C264.9 231.661 284.498 231.585 308.686 231.585C332.874 231.585 352.465 231.661 352.465 231.76Z" fill="#E0E0E0"/>
<path d="M352.465 240.655C352.465 240.754 332.86 240.83 308.686 240.83C284.513 240.83 264.9 240.754 264.9 240.655C264.9 240.556 284.498 240.472 308.686 240.472C332.874 240.472 352.465 240.556 352.465 240.655Z" fill="#E0E0E0"/>
<path d="M352.467 249.549C352.467 249.648 332.862 249.724 308.688 249.724C284.514 249.724 264.938 249.64 264.938 249.549C264.938 249.457 284.536 249.366 308.724 249.366C332.911 249.366 352.467 249.442 352.467 249.549Z" fill="#E0E0E0"/>
<path d="M352.465 258.428C352.465 258.527 332.86 258.603 308.686 258.603C284.513 258.603 264.9 258.527 264.9 258.428C264.9 258.329 284.498 258.245 308.686 258.245C332.874 258.245 352.465 258.329 352.465 258.428Z" fill="#E0E0E0"/>
<path d="M204.747 230.915C204.747 231.014 193.063 231.09 178.645 231.09C164.228 231.09 152.543 231.014 152.543 230.915C152.543 230.816 164.228 230.732 178.645 230.732C193.063 230.732 204.747 230.816 204.747 230.915Z" fill="#E0E0E0"/>
<path d="M204.747 237.891C204.747 237.99 193.063 238.073 178.645 238.073C164.228 238.073 152.543 237.99 152.543 237.891C152.543 237.792 164.228 237.716 178.645 237.716C193.063 237.716 204.747 237.792 204.747 237.891Z" fill="#E0E0E0"/>
<path d="M204.747 244.874C204.747 244.973 193.063 245.057 178.645 245.057C164.228 245.057 152.543 244.973 152.543 244.874C152.543 244.775 164.228 244.691 178.645 244.691C193.063 244.691 204.747 244.775 204.747 244.874Z" fill="#E0E0E0"/>
<path d="M204.747 251.833C204.747 251.932 193.063 252.008 178.645 252.008C164.228 252.008 152.543 251.932 152.543 251.833C152.543 251.734 164.228 251.65 178.645 251.65C193.063 251.65 204.747 251.757 204.747 251.833Z" fill="#E0E0E0"/>
<path d="M204.747 258.832C204.747 258.931 193.063 259.015 178.645 259.015C164.228 259.015 152.543 258.931 152.543 258.832C152.543 258.733 164.228 258.657 178.645 258.657C193.063 258.657 204.747 258.733 204.747 258.832Z" fill="#E0E0E0"/>
<path d="M258.198 227.527H220.197V266.872H258.198V227.527Z" fill="#F5F5F5"/>
<path d="M223.145 263.499L233.662 243.252L242.259 256.197L247.489 249.321L255.26 263.499H223.145Z" fill="#EBEBEB"/>
<path d="M245.921 239.314C245.922 239.895 245.763 240.463 245.462 240.946C245.162 241.429 244.734 241.806 244.233 242.029C243.732 242.252 243.181 242.311 242.648 242.198C242.116 242.085 241.627 241.805 241.244 241.395C240.86 240.985 240.599 240.462 240.494 239.892C240.388 239.323 240.443 238.733 240.651 238.197C240.86 237.661 241.212 237.203 241.663 236.881C242.115 236.56 242.646 236.389 243.188 236.39C243.913 236.39 244.608 236.698 245.121 237.247C245.633 237.795 245.921 238.539 245.921 239.314Z" fill="#EBEBEB"/>
<path d="M255.258 263.613C255.251 263.557 255.251 263.501 255.258 263.445C255.258 263.331 255.258 263.179 255.258 262.989C255.258 262.57 255.258 261.983 255.258 261.222C255.258 259.661 255.258 257.415 255.215 254.536C255.215 248.787 255.173 240.609 255.137 230.778L255.294 230.946H223.185L223.363 230.756V239.65C223.363 242.543 223.363 245.376 223.363 248.125C223.363 253.638 223.363 258.846 223.363 263.643L223.207 263.468L246.42 263.56L252.967 263.598H254.703H255.158H255.315H254.739H253.031L246.519 263.636L223.207 263.727H223.043V263.56C223.043 258.762 223.043 253.554 223.043 248.041C223.043 245.292 223.043 242.459 223.043 239.566V230.794L223.228 230.596H255.336H255.493V230.756C255.457 240.655 255.429 248.848 255.415 254.62C255.415 257.468 255.379 259.714 255.372 261.268C255.372 262.014 255.372 262.593 255.372 263.004C255.372 263.187 255.372 263.331 255.372 263.445C255.339 263.505 255.301 263.562 255.258 263.613Z" fill="#EBEBEB"/>
<path d="M203.601 152.827H152.059V206.191H203.601V152.827Z" fill="#F5F5F5"/>
<path d="M156.051 201.621L170.312 174.163L181.975 191.715L189.063 182.394L199.602 201.621H156.051Z" fill="#E0E0E0"/>
<path d="M186.942 168.832C186.942 169.617 186.725 170.384 186.318 171.036C185.91 171.689 185.331 172.197 184.654 172.498C183.976 172.798 183.231 172.876 182.512 172.723C181.792 172.57 181.132 172.192 180.613 171.638C180.095 171.083 179.742 170.376 179.599 169.606C179.456 168.837 179.529 168.039 179.81 167.314C180.09 166.589 180.565 165.97 181.175 165.534C181.785 165.098 182.502 164.865 183.235 164.865C184.218 164.865 185.161 165.283 185.857 166.027C186.552 166.771 186.942 167.78 186.942 168.832Z" fill="#E0E0E0"/>
<path d="M199.601 201.775C199.601 201.775 199.601 201.699 199.601 201.554C199.601 201.409 199.601 201.188 199.601 200.929C199.601 200.366 199.601 199.566 199.601 198.531C199.601 196.414 199.565 193.353 199.544 189.469C199.544 181.672 199.48 170.577 199.437 157.252L199.643 157.472L156.099 157.51C156.042 157.564 156.562 157.015 156.341 157.259V169.229C156.341 173.154 156.341 176.986 156.341 180.728C156.341 188.198 156.341 195.264 156.341 201.767L156.128 201.539L187.617 201.653L196.498 201.714H198.861H199.465H199.679H199.494H198.903H196.59L187.759 201.775L156.128 201.889H155.914V201.66C155.914 195.158 155.914 188.091 155.914 180.621C155.914 176.885 155.914 173.052 155.914 169.123V157.267C155.694 157.495 156.213 156.932 156.163 156.993L199.707 157.031H199.921V157.259C199.878 170.646 199.843 181.794 199.814 189.622C199.814 193.482 199.771 196.528 199.757 198.63C199.757 199.643 199.757 200.435 199.757 200.99C199.757 201.242 199.757 201.432 199.757 201.584C199.72 201.66 199.666 201.725 199.601 201.775Z" fill="#E0E0E0"/>
<path d="M210.512 173.104L213.06 178.625L218.753 179.508L214.632 183.811L215.6 189.879L210.512 187.016L205.417 189.879L206.392 183.811L202.271 179.508L207.964 178.625L210.512 173.104Z" fill="#407BFF"/>
<path d="M228.444 153.915L230.991 159.435L236.684 160.319L232.564 164.621L233.539 170.69L228.444 167.819L223.348 170.69L224.323 164.621L220.203 160.319L225.896 159.435L228.444 153.915Z" fill="#407BFF"/>
<path d="M252.412 146.385L254.96 151.906L260.653 152.789L256.533 157.084L257.508 163.153L252.412 160.29L247.317 163.153L248.292 157.084L244.172 152.789L249.865 151.906L252.412 146.385Z" fill="#407BFF"/>
<path d="M277.217 154.099L279.765 159.62L285.458 160.503L281.337 164.798L282.312 170.867L277.217 168.004L272.122 170.867L273.097 164.798L268.977 160.503L274.67 159.62L277.217 154.099Z" fill="#407BFF"/>
<path d="M294.311 172.388L296.858 177.909L302.551 178.792L298.431 183.094L299.406 189.156L294.311 186.293L289.223 189.156L290.191 183.094L286.07 178.792L291.763 177.909L294.311 172.388Z" fill="#407BFF"/>
<path d="M300.518 198.933L303.065 204.454L308.758 205.337L304.638 209.632L305.606 215.701L300.518 212.838L295.423 215.701L296.398 209.632L292.277 205.337L297.97 204.454L300.518 198.933Z" fill="#407BFF"/>
<path d="M294.483 225.295L297.03 230.816L302.723 231.699L298.603 236.002L299.578 242.071L294.483 239.2L289.388 242.071L290.362 236.002L286.242 231.699L291.935 230.816L294.483 225.295Z" fill="#407BFF"/>
<path d="M276.321 243.594L278.869 249.115L284.562 249.998L280.442 254.293L281.417 260.362L276.321 257.499L271.233 260.362L272.201 254.293L268.088 249.998L273.781 249.115L276.321 243.594Z" fill="#407BFF"/>
<path d="M251.928 251.133L254.476 256.653L260.169 257.537L256.048 261.839L257.023 267.9L251.928 265.037L246.84 267.9L247.808 261.839L243.688 257.537L249.38 256.653L251.928 251.133Z" fill="#407BFF"/>
<path d="M228.629 243.603L231.177 249.124L236.87 250.007L232.75 254.302L233.724 260.371L228.629 257.508L223.541 260.371L224.509 254.302L220.389 250.007L226.089 249.124L228.629 243.603Z" fill="#407BFF"/>
<path d="M210.198 224.816L212.738 230.337L218.431 231.228L214.318 235.522L215.286 241.591L210.198 238.728L205.102 241.591L206.077 235.522L201.957 231.228L207.65 230.337L210.198 224.816Z" fill="#407BFF"/>
<path d="M203.993 198.964L206.54 204.484L212.233 205.368L208.113 209.67L209.088 215.731L203.993 212.868L198.897 215.731L199.872 209.67L195.752 205.368L201.445 204.484L203.993 198.964Z" fill="#407BFF"/>
<path d="M269.983 217.901H265.002V188.889C265.002 185.606 263.783 182.456 261.613 180.134C259.443 177.812 256.5 176.508 253.431 176.508C250.362 176.508 247.419 177.812 245.249 180.134C243.079 182.456 241.86 185.606 241.86 188.889V217.901H236.879V188.889C236.879 186.563 237.307 184.26 238.139 182.111C238.971 179.963 240.19 178.01 241.727 176.365C243.264 174.721 245.089 173.416 247.097 172.526C249.105 171.636 251.258 171.178 253.431 171.178C255.605 171.178 257.757 171.636 259.765 172.526C261.774 173.416 263.598 174.721 265.135 176.365C266.672 178.01 267.892 179.963 268.724 182.111C269.555 184.26 269.983 186.563 269.983 188.889V217.901Z" fill="#263238"/>
<path d="M271.605 204.995H235.256C232.972 204.995 231.121 206.976 231.121 209.419V231.205C231.121 233.648 232.972 235.629 235.256 235.629H271.605C273.889 235.629 275.74 233.648 275.74 231.205V209.419C275.74 206.976 273.889 204.995 271.605 204.995Z" fill="#407BFF"/>
<path d="M257.159 216.318C257.159 217.107 256.94 217.879 256.531 218.535C256.121 219.191 255.538 219.702 254.857 220.004C254.176 220.306 253.426 220.385 252.703 220.231C251.979 220.077 251.315 219.697 250.793 219.139C250.272 218.581 249.917 217.87 249.773 217.096C249.629 216.322 249.703 215.52 249.985 214.791C250.267 214.062 250.745 213.439 251.358 213C251.972 212.562 252.693 212.328 253.43 212.328C254.419 212.328 255.367 212.748 256.067 213.497C256.766 214.245 257.159 215.26 257.159 216.318Z" fill="#263238"/>
<path d="M254.445 217.901H252.41V226.11H254.445V217.901Z" fill="#263238"/>
<path d="M233.498 232.721C233.398 232.721 233.312 227.611 233.312 221.299C233.312 214.986 233.398 209.877 233.498 209.877C233.597 209.877 233.683 214.986 233.683 221.299C233.683 227.611 233.626 232.721 233.498 232.721Z" fill="#FAFAFA"/>
<path d="M250.513 221.436C250.513 221.436 250.335 221.375 250.072 221.169C249.703 220.874 249.379 220.52 249.111 220.119C248.65 219.462 248.33 218.704 248.173 217.9C248.016 217.095 248.027 216.264 248.204 215.464C248.381 214.665 248.721 213.917 249.199 213.274C249.676 212.63 250.281 212.108 250.969 211.742C251.378 211.515 251.817 211.355 252.271 211.27C252.435 211.234 252.605 211.234 252.769 211.27C252.195 211.48 251.636 211.734 251.097 212.032C250.464 212.404 249.912 212.914 249.475 213.529C249.037 214.144 248.725 214.85 248.558 215.602C248.392 216.353 248.374 217.134 248.506 217.894C248.638 218.653 248.917 219.375 249.325 220.012C249.685 220.52 250.082 220.996 250.513 221.436Z" fill="#FAFAFA"/>
<path d="M96.4743 191.395C95.9723 193.138 96.0123 195.009 96.5882 196.725C97.1718 198.427 97.9258 200.056 98.8369 201.584C100.011 198.541 101.021 195.429 101.861 192.263C101.996 191.93 102.052 191.567 102.023 191.206C101.995 190.844 101.883 190.496 101.698 190.192C101.502 190.018 101.274 189.891 101.028 189.819C100.783 189.746 100.526 189.731 100.274 189.773C98.758 189.872 97.32 190.528 96.2039 191.631" fill="#263238"/>
<path d="M33.7241 276.809L22.082 305.281H38.1077L49.5221 276.581L33.7241 276.809Z" fill="#263238"/>
<path d="M102.951 304.946C118.657 299.38 107.89 277.152 107.89 277.152L39.24 284.059C36.6039 284.059 34.0752 285.177 32.2079 287.168C30.3406 289.159 29.2868 291.861 29.2773 294.681C29.2773 297.509 30.327 300.22 32.1953 302.22C34.0637 304.219 36.5978 305.342 39.24 305.342L103.015 304.976" fill="#455A64"/>
<path d="M118.564 305.311C133.871 299.783 123.78 277.137 123.78 277.137L56.888 283.883C50.3553 283.975 47.1602 287.348 47.1602 294.491C47.1602 300.354 49.1954 305.303 56.8667 305.151L118.593 305.319" fill="#455A64"/>
<path d="M103.484 280.899H103.299H102.737L100.602 280.991L92.7314 281.41L66.7644 282.933C65.4906 283.001 64.2381 283.115 63.007 283.138C61.7759 283.161 60.5448 283.214 59.3493 283.29C58.1538 283.367 56.9796 283.466 55.7912 283.595C54.6491 283.684 53.5237 283.94 52.4466 284.356C51.4042 284.774 50.456 285.423 49.6641 286.26C48.9113 287.086 48.3337 288.075 47.9705 289.161C47.6281 290.174 47.3895 291.223 47.2589 292.291C47.1323 293.272 47.0705 294.262 47.0739 295.253C47.0476 296.963 47.3479 298.66 47.9563 300.241C48.4188 301.417 49.133 302.46 50.0413 303.287C50.5967 303.798 51.2396 304.188 51.9342 304.436C52.4039 304.596 52.4181 304.543 51.9342 304.36C51.2614 304.084 50.6397 303.681 50.0982 303.172C49.2296 302.346 48.5503 301.317 48.1128 300.165C47.5343 298.608 47.2559 296.943 47.2945 295.268C47.2986 294.292 47.3675 293.318 47.5008 292.352C47.6313 291.311 47.87 290.29 48.2124 289.306C48.5583 288.267 49.1148 287.323 49.8421 286.542C50.606 285.739 51.5204 285.119 52.5249 284.722C53.5815 284.33 54.6825 284.092 55.7983 284.014C56.9369 283.892 58.1111 283.793 59.3066 283.724C60.5021 283.656 61.7119 283.595 62.9501 283.572C64.1883 283.549 65.4408 283.443 66.7075 283.374L92.7243 281.691L100.595 281.151L102.73 280.983L103.285 280.93C103.352 280.934 103.42 280.924 103.484 280.899Z" fill="#263238"/>
<path d="M118.6 287.911C118.438 288.042 118.255 288.14 118.059 288.2C117.535 288.403 116.986 288.524 116.43 288.558C115.503 288.633 114.572 288.49 113.702 288.138C112.833 287.787 112.046 287.236 111.397 286.523C110.749 285.811 110.254 284.955 109.948 284.016C109.642 283.077 109.532 282.077 109.627 281.088C109.669 280.494 109.796 279.912 110.004 279.359C110.06 279.151 110.154 278.957 110.281 278.788C110.085 279.548 109.954 280.325 109.89 281.111C109.832 282.053 109.96 282.997 110.266 283.883C110.572 284.768 111.048 285.575 111.664 286.251C112.28 286.927 113.022 287.456 113.842 287.805C114.662 288.154 115.541 288.314 116.422 288.276C117.158 288.232 117.887 288.109 118.6 287.911Z" fill="#263238"/>
<path d="M84.5549 242.884L78.2001 266.139L54.6953 268.835V273.297L89.2374 273.807L93.9341 243.531L84.5549 242.884Z" fill="#FFBE9D"/>
<path d="M115.203 218.595C119.373 218.595 130.666 220.879 131.655 229.027C132.552 236.382 133.89 244.728 133.89 244.728L119.031 245.155L124.091 246.594L126.226 280.928L87.7556 279.497L89.7979 261.846L91.5058 244.218L83.1016 243.457C83.1016 243.457 85.9481 228.098 90.9934 223.354C94.1576 220.618 98.0133 218.955 102.066 218.579C106.442 218.315 110.827 218.315 115.203 218.579" fill="#407BFF"/>
<path d="M92.8892 232.795C92.9818 232.795 92.3911 239.009 91.5799 246.654C90.7686 254.299 90.0356 260.49 89.9431 260.474C89.8506 260.459 90.4413 254.261 91.2596 246.616C92.078 238.97 92.8038 232.795 92.8892 232.795Z" fill="#263238"/>
<path d="M116.351 218.648C116.351 218.648 116.351 218.747 116.394 218.938C116.437 219.128 116.43 219.41 116.437 219.768C116.457 220.801 116.315 221.831 116.017 222.814C115.628 224.315 114.877 225.68 113.839 226.773C113.2 227.425 112.442 227.928 111.612 228.251C110.709 228.567 109.765 228.727 108.815 228.723C107.863 228.749 106.91 228.68 105.969 228.517C105.09 228.369 104.255 228.007 103.528 227.459C102.366 226.494 101.549 225.131 101.215 223.598C100.963 222.606 100.855 221.579 100.895 220.552C100.895 220.194 100.931 219.912 100.952 219.722C100.957 219.624 100.973 219.526 101.002 219.433C101.021 219.806 101.021 220.179 101.002 220.552C101.007 221.567 101.144 222.577 101.407 223.552C101.759 225.017 102.561 226.312 103.684 227.23C104.38 227.745 105.176 228.083 106.011 228.22C106.924 228.376 107.849 228.442 108.773 228.418C109.688 228.418 110.599 228.264 111.47 227.961C112.266 227.664 112.993 227.189 113.604 226.568C114.619 225.517 115.367 224.207 115.775 222.76C116.079 221.8 116.25 220.797 116.28 219.783C116.337 219.09 116.33 218.648 116.351 218.648Z" fill="#263238"/>
<g opacity="0.2">
<path d="M118.415 232.798C116.992 240.085 115.135 247.57 113.711 254.88C113.51 256.451 112.995 257.957 112.203 259.297C111.616 260.064 110.931 260.738 110.168 261.3C107.422 263.65 104.367 265.554 101.102 266.95C105.868 266.514 110.589 265.635 115.213 264.323C115.599 264.299 115.977 264.194 116.325 264.014C116.673 263.833 116.984 263.58 117.241 263.27C117.497 262.96 117.693 262.599 117.818 262.207C117.942 261.815 117.993 261.4 117.967 260.987C118.992 251.644 118.679 242.225 118.415 232.813" fill="black"/>
</g>
<path d="M134.135 244.851C133.766 244.919 133.392 244.95 133.018 244.942L129.965 245.064C127.396 245.156 123.838 245.247 119.903 245.331H118.643H118.487V245.163C118.344 241.257 118.408 237.785 118.487 235.264C118.487 234.023 118.565 233.018 118.608 232.325C118.609 231.965 118.64 231.605 118.7 231.251C118.728 231.608 118.728 231.967 118.7 232.325C118.7 233.086 118.7 234.069 118.7 235.272C118.7 237.769 118.658 241.242 118.807 245.125L118.643 244.958H119.91C123.838 244.874 127.396 244.82 129.972 244.798H133.025C133.396 244.785 133.767 244.803 134.135 244.851Z" fill="#263238"/>
<path d="M25.2572 246.503L38.3866 274.145H79.7887L78.1093 270.543L66.1185 270.155L56.3408 246.869C56.0437 246.16 55.561 245.558 54.951 245.136C54.341 244.715 53.6299 244.491 52.9037 244.493H26.4243C26.2036 244.495 25.9871 244.557 25.7948 244.673C25.6024 244.788 25.4405 244.954 25.3241 245.155C25.2077 245.355 25.1405 245.584 25.1288 245.82C25.1171 246.056 25.1613 246.291 25.2572 246.503Z" fill="#E0E0E0"/>
<path d="M44.4072 260.589C45.2837 260.589 45.9941 259.828 45.9941 258.89C45.9941 257.953 45.2837 257.192 44.4072 257.192C43.5308 257.192 42.8203 257.953 42.8203 258.89C42.8203 259.828 43.5308 260.589 44.4072 260.589Z" fill="#263238"/>
<path d="M116.558 197.768L115.078 220.247C114.959 222.014 114.219 223.668 113.008 224.876C111.796 226.084 110.201 226.756 108.545 226.757C107.649 226.757 106.763 226.561 105.941 226.179C105.118 225.798 104.378 225.241 103.765 224.541C103.152 223.842 102.68 223.016 102.377 222.113C102.074 221.211 101.948 220.252 102.005 219.295C102.141 217.155 102.254 215.396 102.254 215.396C102.254 215.396 97.1805 214.551 97.1094 209.114C97.1094 206.548 97.394 201.499 97.7498 196.71C97.9516 194.028 99.0879 191.526 100.933 189.7C102.779 187.873 105.199 186.855 107.713 186.849C108.97 186.925 110.2 187.271 111.33 187.865C112.46 188.459 113.467 189.29 114.292 190.308C115.117 191.326 115.742 192.511 116.131 193.792C116.521 195.074 116.666 196.426 116.558 197.768Z" fill="#FFBE9D"/>
<path d="M102.225 215.679C104.574 215.727 106.884 215.025 108.857 213.661C108.857 213.661 107.285 217.575 102.211 217.088L102.225 215.679Z" fill="#EB996E"/>
<path d="M99.3438 200.259C99.3438 200.461 99.4187 200.655 99.5522 200.798C99.6856 200.94 99.8666 201.021 100.055 201.021C100.241 201.031 100.423 200.964 100.562 200.833C100.702 200.702 100.788 200.518 100.803 200.32C100.803 200.118 100.728 199.925 100.594 199.782C100.461 199.639 100.28 199.559 100.091 199.559C99.9056 199.548 99.7238 199.615 99.5842 199.746C99.4446 199.877 99.3583 200.061 99.3438 200.259Z" fill="#263238"/>
<path d="M98.8862 199.192C98.9787 199.291 99.5266 198.856 100.309 198.856C101.092 198.856 101.661 199.275 101.733 199.176C101.804 199.077 101.683 198.948 101.434 198.75C101.094 198.501 100.692 198.368 100.281 198.369C99.8743 198.371 99.4784 198.509 99.1494 198.765C98.9217 198.963 98.8435 199.146 98.8862 199.192Z" fill="#263238"/>
<path d="M106.699 200.488C106.699 200.69 106.774 200.883 106.908 201.026C107.041 201.169 107.222 201.249 107.411 201.249C107.59 201.25 107.763 201.178 107.895 201.048C108.027 200.918 108.108 200.74 108.122 200.548C108.122 200.347 108.047 200.153 107.914 200.01C107.781 199.867 107.6 199.787 107.411 199.787C107.232 199.786 107.059 199.858 106.927 199.988C106.795 200.118 106.714 200.296 106.699 200.488Z" fill="#263238"/>
<path d="M106.565 199.343C106.658 199.442 107.213 199.008 107.989 199.016C108.764 199.024 109.341 199.435 109.412 199.328C109.483 199.222 109.362 199.1 109.113 198.909C108.776 198.656 108.372 198.523 107.96 198.529C107.554 198.526 107.158 198.662 106.829 198.917C106.608 199.115 106.523 199.29 106.565 199.343Z" fill="#263238"/>
<path d="M103.733 205.544C103.322 205.408 102.896 205.326 102.466 205.3C102.267 205.3 102.075 205.239 102.039 205.095C102.024 204.872 102.071 204.649 102.175 204.455L102.765 202.833C103.31 201.456 103.753 200.035 104.089 198.584C103.441 199.912 102.892 201.292 102.445 202.711C102.253 203.282 102.061 203.823 101.883 204.341C101.754 204.6 101.719 204.901 101.783 205.186C101.813 205.261 101.858 205.327 101.914 205.381C101.971 205.435 102.038 205.475 102.111 205.498C102.22 205.526 102.332 205.542 102.445 205.544C102.872 205.607 103.306 205.607 103.733 205.544Z" fill="#263238"/>
<path d="M106.034 206.145C105.906 206.145 105.906 207.043 105.18 207.668C104.454 208.292 103.55 208.216 103.543 208.338C103.536 208.459 103.75 208.513 104.127 208.528C104.624 208.537 105.109 208.356 105.493 208.018C105.862 207.694 106.099 207.23 106.155 206.723C106.19 206.343 106.091 206.145 106.034 206.145Z" fill="#263238"/>
<path d="M106.368 196.07C106.446 196.298 107.229 196.191 108.14 196.306C109.051 196.42 109.798 196.694 109.919 196.488C110.04 196.283 109.848 196.176 109.549 195.955C109.151 195.685 108.7 195.516 108.231 195.46C107.763 195.405 107.288 195.465 106.845 195.636C106.503 195.78 106.332 195.963 106.368 196.07Z" fill="#263238"/>
<path d="M99.18 196.77C99.3152 196.96 99.8916 196.77 100.504 196.77C101.116 196.77 101.692 196.899 101.82 196.694C101.948 196.488 101.82 196.412 101.55 196.229C101.228 196.012 100.853 195.902 100.472 195.914C100.092 195.926 99.7236 196.06 99.4148 196.298C99.1942 196.481 99.1302 196.679 99.18 196.77Z" fill="#263238"/>
<path d="M114.842 202.207C114.927 202.161 118.336 201.103 118.222 204.819C118.108 208.535 114.664 207.651 114.664 207.545C114.664 207.438 114.842 202.207 114.842 202.207Z" fill="#FFBE9D"/>
<path d="M115.746 206.144C115.746 206.144 115.81 206.19 115.909 206.243C115.98 206.275 116.057 206.291 116.134 206.291C116.21 206.291 116.287 206.275 116.358 206.243C116.582 206.097 116.766 205.889 116.891 205.642C117.016 205.394 117.078 205.116 117.069 204.835C117.084 204.515 117.035 204.196 116.927 203.898C116.897 203.782 116.841 203.675 116.764 203.586C116.687 203.497 116.592 203.429 116.486 203.388C116.417 203.365 116.344 203.368 116.277 203.397C116.211 203.427 116.156 203.48 116.123 203.548C116.073 203.654 116.123 203.73 116.073 203.73C116.023 203.73 116.002 203.67 116.073 203.517C116.092 203.425 116.143 203.343 116.215 203.289C116.263 203.252 116.317 203.225 116.375 203.211C116.432 203.196 116.492 203.194 116.55 203.205C116.692 203.239 116.824 203.311 116.932 203.415C117.041 203.519 117.122 203.651 117.169 203.799C117.305 204.129 117.366 204.489 117.347 204.85C117.351 205.181 117.265 205.506 117.1 205.786C116.934 206.066 116.696 206.289 116.415 206.426C116.319 206.448 116.221 206.448 116.125 206.427C116.03 206.406 115.939 206.364 115.86 206.304C115.753 206.266 115.739 206.182 115.746 206.144Z" fill="#EB996E"/>
<path d="M84.1932 274.189H33.5898V276.832H84.1932V274.189Z" fill="#263238"/>
<path d="M68.6074 275.515L83.9998 305.311H97.7839L84.1919 276.832L68.6074 275.515Z" fill="#263238"/>
<path d="M84.1869 276.833C84.1869 276.939 72.8437 277.092 58.8532 277.168C44.8628 277.244 33.5195 277.213 33.5195 277.107C33.5195 277 44.8628 276.848 58.8532 276.772C72.8437 276.696 84.1869 276.726 84.1869 276.833Z" fill="#455A64"/>
<path d="M96.3478 194.288C96.8097 194.47 97.3024 194.544 97.7932 194.506C98.284 194.468 98.7616 194.319 99.1942 194.068C99.1171 194.16 99.0591 194.269 99.0242 194.387C98.9892 194.505 98.9781 194.63 98.9916 194.753C99.005 194.876 99.0427 194.995 99.1022 195.101C99.1617 195.207 99.2415 195.299 99.3366 195.37C99.7363 195.634 100.208 195.744 100.674 195.682C103.203 195.577 105.607 194.479 107.428 192.598C107.468 193.068 107.636 193.515 107.912 193.883C108.188 194.251 108.559 194.525 108.979 194.669C109.826 194.939 110.729 194.939 111.576 194.669C111.262 196.045 111.209 197.474 111.42 198.873C111.534 199.568 111.836 200.213 112.289 200.727C112.742 201.242 113.325 201.603 113.967 201.766C114.13 202.486 114.185 203.229 114.131 203.967C114.181 204.728 114.579 205.551 115.277 205.573C115.974 205.596 116.337 204.919 116.423 204.271C116.508 203.624 116.145 202.307 116.579 201.264C117.013 200.22 116.864 200.335 117.326 199.2C117.789 198.065 118.038 196.497 118.422 195.316C118.84 194.142 118.872 192.851 118.515 191.654C118.318 191.067 117.958 190.559 117.484 190.199C117.009 189.838 116.443 189.641 115.86 189.636C116.073 189.048 116.106 188.403 115.956 187.793C115.806 187.183 115.479 186.64 115.023 186.241C114.567 185.841 114.005 185.606 113.416 185.569C112.828 185.532 112.244 185.695 111.747 186.034C111.747 186.034 107.791 183.156 103.414 184.747C99.0377 186.339 98.383 190.588 97.4294 190.717C96.4759 190.847 93.5867 189.194 94.0848 190.23C94.5829 191.265 95.4084 192.309 95.8212 192.354C96.2339 192.4 92.5121 190.717 93.793 192.225C94.5059 193.09 95.3748 193.792 96.3478 194.288Z" fill="#263238"/>
<path d="M131.231 230.512C130.824 229.989 130.363 229.517 129.858 229.104C128.425 228.049 126.714 227.515 124.976 227.581C122.777 227.581 120.258 228.593 117.781 230.215C115.305 231.837 112.765 234.023 109.619 235.492C106.647 236.93 103.268 237.064 100.204 235.866C98.8864 235.338 97.6562 234.587 96.5609 233.642C95.5291 232.789 94.6182 231.929 93.7145 231.236C92.3671 230.059 90.7215 229.34 88.9893 229.172C88.3516 229.156 87.7155 229.246 87.1035 229.439C87.1035 229.439 87.1035 229.439 87.2174 229.378C87.3307 229.322 87.4472 229.274 87.5661 229.233C88.0277 229.085 88.5075 229.014 88.9893 229.02C90.7691 229.128 92.4742 229.822 93.871 231.007C95.6928 232.355 97.5501 234.495 100.276 235.523C103.262 236.654 106.541 236.515 109.434 235.135C112.508 233.703 115.027 231.487 117.568 229.903C120.108 228.319 122.67 227.253 124.933 227.299C126.724 227.257 128.477 227.854 129.915 228.997C130.297 229.307 130.64 229.671 130.932 230.078C131.048 230.209 131.149 230.355 131.231 230.512Z" fill="#FAFAFA"/>
<path d="M118.572 250.555C118.572 250.555 118.223 250.311 117.59 249.923C116.692 249.37 115.72 248.969 114.707 248.735C113.214 248.38 111.663 248.409 110.182 248.819C108.502 249.268 106.787 250.212 104.88 250.966C103.947 251.334 102.977 251.59 101.991 251.727C101.07 251.851 100.14 251.869 99.2155 251.781C97.6527 251.632 96.1272 251.186 94.711 250.463C93.7545 249.988 92.8656 249.37 92.0709 248.628C91.8502 248.434 91.6433 248.223 91.4517 247.996C91.3165 247.851 91.2454 247.768 91.2596 247.753C91.2738 247.737 91.5798 248.027 92.1634 248.514C92.9804 249.195 93.8717 249.768 94.8177 250.22C96.2193 250.886 97.7156 251.295 99.244 251.43C101.116 251.586 102.996 251.297 104.752 250.585C106.496 249.773 108.28 249.064 110.096 248.461C111.376 248.119 112.707 248.06 114.009 248.286C115.31 248.513 116.555 249.02 117.668 249.778C117.914 249.947 118.152 250.13 118.379 250.326C118.508 250.471 118.579 250.547 118.572 250.555Z" fill="#FAFAFA"/>
<path d="M124.17 263.354C123.723 263.165 123.264 263.007 122.797 262.882C121.5 262.658 120.171 262.786 118.933 263.255C118.073 263.557 117.24 263.939 116.442 264.398C115.574 264.885 114.67 265.464 113.695 266.027C112.675 266.646 111.594 267.144 110.472 267.512C109.244 267.897 107.947 267.955 106.693 267.679C104.11 267.078 102.068 265.479 100.189 264.283C98.588 263.091 96.752 262.309 94.8233 261.999C93.5186 261.851 92.204 262.155 91.073 262.867C90.669 263.148 90.2965 263.477 89.9629 263.849C90.0203 263.728 90.0921 263.616 90.1764 263.514C90.4139 263.22 90.6895 262.964 90.9947 262.753C92.1392 261.958 93.5003 261.599 94.8588 261.732C96.581 261.824 98.481 262.73 100.381 263.956C102.281 265.182 104.309 266.705 106.786 267.276C107.982 267.539 109.22 267.487 110.394 267.124C111.491 266.766 112.55 266.286 113.553 265.692C114.528 265.144 115.439 264.573 116.321 264.085C117.143 263.634 118 263.262 118.883 262.974C120.159 262.508 121.529 262.421 122.847 262.722C123.202 262.813 123.546 262.949 123.872 263.126C124.071 263.255 124.178 263.339 124.17 263.354Z" fill="#FAFAFA"/>
<path d="M125.986 277.906C125.876 277.979 125.756 278.033 125.63 278.066C125.27 278.175 124.901 278.242 124.527 278.264C123.148 278.264 121.784 277.958 120.521 277.365C119.651 277.002 118.763 276.694 117.859 276.444C116.819 276.21 115.751 276.144 114.693 276.246C112.444 276.452 110.074 277.365 107.576 278.142C106.339 278.536 105.073 278.814 103.79 278.972C102.59 279.092 101.38 279.075 100.183 278.919C98.1683 278.619 96.1965 278.053 94.3117 277.236C93.0434 276.705 91.8012 276.105 90.5899 275.439C90.1559 275.21 89.8285 275.012 89.6079 274.883C89.4885 274.824 89.3762 274.75 89.2734 274.662C89.4012 274.692 89.5238 274.743 89.6364 274.815L90.6469 275.302C91.5293 275.728 92.7817 276.345 94.4042 276.985C96.277 277.755 98.2287 278.284 100.218 278.561C101.401 278.701 102.594 278.701 103.776 278.561C105.037 278.404 106.282 278.129 107.498 277.739C110.01 276.977 112.408 276.056 114.721 275.865C115.815 275.764 116.916 275.843 117.987 276.101C118.901 276.365 119.797 276.693 120.67 277.084C121.9 277.683 123.227 278.024 124.577 278.089C125.051 278.07 125.522 278.009 125.986 277.906Z" fill="#FAFAFA"/>
<path d="M133.286 241.005C133.166 241.19 133.019 241.354 132.852 241.492C132.412 241.89 131.917 242.213 131.386 242.452C130.591 242.806 129.736 242.985 128.874 242.977C127.817 242.935 126.781 242.641 125.843 242.117C124.846 241.606 123.95 241.05 123.075 240.715C122.308 240.418 121.485 240.321 120.676 240.434C120.132 240.509 119.616 240.738 119.182 241.096C118.883 241.37 118.755 241.568 118.727 241.545C118.8 241.329 118.922 241.135 119.082 240.982C119.509 240.55 120.047 240.263 120.627 240.16C121.484 239.998 122.365 240.072 123.188 240.373C124.163 240.772 125.113 241.235 126.035 241.759C126.916 242.256 127.887 242.547 128.881 242.612C129.701 242.638 130.517 242.496 131.287 242.193C131.988 241.869 132.658 241.471 133.286 241.005Z" fill="#FAFAFA"/>
<path d="M91.9577 240.624C91.9577 240.624 91.915 240.754 91.7299 240.891C91.4609 241.068 91.1488 241.155 90.8333 241.142C90.3703 241.124 89.9184 240.986 89.5168 240.739C89.0685 240.472 88.6415 240.099 88.179 239.779C87.3945 239.227 86.4403 239.022 85.5175 239.208C84.8059 239.345 84.4145 239.627 84.3789 239.566C84.6683 239.239 85.0468 239.017 85.4606 238.934C85.9531 238.791 86.4686 238.764 86.972 238.853C87.4755 238.942 87.955 239.147 88.3782 239.452C88.8692 239.787 89.282 240.16 89.6876 240.419C90.0388 240.656 90.435 240.807 90.8475 240.86C91.2307 240.89 91.6142 240.809 91.9577 240.624Z" fill="#FAFAFA"/>
<path d="M72.6297 265.212L82.9838 263.88L90.2779 268.997L118.173 261.847L118.992 245.186L131.516 244.851L131.225 264.405C131.195 265.901 130.889 267.376 130.325 268.745C129.761 270.114 128.949 271.35 127.936 272.382C126.923 273.414 125.73 274.221 124.425 274.758C123.119 275.294 121.727 275.549 120.33 275.507L79.4684 274.297L77.732 270.573L68.9648 270.299L72.6297 265.212Z" fill="#FFBE9D"/>
<path d="M117.824 261.846C117.652 261.914 117.476 261.97 117.297 262.014L115.782 262.44L110.181 263.963L91.679 268.761L89.964 269.195H89.8928L89.8359 269.149L82.5418 264.017H82.6414L72.2873 265.296H72.3514L69.6188 269.012C69.3056 269.416 69.0637 269.773 68.9071 269.987C68.8264 270.104 68.7359 270.214 68.6367 270.314C68.7028 270.185 68.7789 270.063 68.8644 269.949L69.5761 268.936L72.2375 265.128H72.2802L82.6272 263.743H82.6841H82.7339L90.0351 268.844H89.907L91.6292 268.403L110.131 263.704L115.76 262.319L117.29 261.961C117.464 261.905 117.643 261.867 117.824 261.846Z" fill="#EB996E"/>
<path d="M78.2853 268.389C76.9491 268.56 75.6023 268.618 74.2575 268.564H73.5459H73.6527C72.8407 269.358 71.967 270.076 71.041 270.711C71.7735 269.836 72.576 269.031 73.4392 268.305L73.489 268.259H74.2789C75.6154 268.186 76.9553 268.229 78.2853 268.389Z" fill="#EB996E"/>
<path d="M122.962 265.181C122.467 264.258 121.769 263.479 120.928 262.912C120.086 262.345 119.128 262.008 118.137 261.929C118.424 261.82 118.733 261.794 119.033 261.853C119.769 261.933 120.478 262.194 121.104 262.614C121.73 263.034 122.254 263.605 122.634 264.282C122.816 264.545 122.93 264.855 122.962 265.181Z" fill="#EB996E"/>
</svg>
