<svg width="722" height="501" viewBox="0 0 722 501" fill="none" xmlns="http://www.w3.org/2000/svg">
<path d="M86.9867 165.499C77.7898 190.939 71.7539 219.858 71.7539 248.237C71.7539 276.629 76.9182 303.942 86.1281 329.113C86.4143 329.652 86.4143 330.178 86.7005 330.717C123.488 425.25 220.66 494.869 334.197 496.205H721.13V0H334.483C220.075 1.34732 122.916 69.9012 86.9867 165.499Z" fill="#F7F7F7"/>
<path d="M583.623 270.209C583.623 272.662 583.562 275.108 583.448 277.553C583.334 279.991 583.159 282.436 582.931 284.866C582.703 287.303 582.414 289.733 582.072 292.155C581.73 294.576 581.335 296.982 580.879 299.388C580.423 301.785 579.907 304.175 579.344 306.549C578.774 308.923 578.151 311.281 577.475 313.622C576.799 315.964 576.061 318.282 575.279 320.593C574.488 322.895 573.652 325.173 572.756 327.435C571.859 329.697 570.917 331.936 569.914 334.142C568.918 336.357 567.869 338.547 566.767 340.698C565.666 342.857 564.518 344.992 563.317 347.087C562.117 349.19 560.863 351.253 559.563 353.292C558.271 355.323 556.926 357.323 555.536 359.29C554.137 361.258 552.701 363.186 551.219 365.074C549.737 366.969 548.218 368.817 546.645 370.634C545.079 372.442 543.468 374.218 541.819 375.947C540.162 377.675 538.475 379.364 536.743 381.005C535.01 382.654 533.247 384.247 531.438 385.801C529.63 387.354 527.791 388.859 525.914 390.317C524.037 391.775 522.129 393.185 520.191 394.547C518.246 395.901 516.27 397.216 514.271 398.474C512.265 399.733 510.236 400.936 508.177 402.091C506.117 403.246 504.028 404.345 501.915 405.388C499.81 406.432 497.675 407.428 495.516 408.36C493.358 409.3 491.177 410.176 488.981 411.004C486.777 411.825 484.558 412.598 482.324 413.306C480.09 414.015 477.84 414.669 475.576 415.266C473.311 415.856 471.031 416.397 468.736 416.875C466.449 417.353 464.146 417.767 461.836 418.126C459.526 418.484 457.208 418.787 454.883 419.026C452.557 419.265 450.232 419.448 447.899 419.568C445.566 419.687 443.233 419.743 440.893 419.743C438.56 419.743 436.227 419.687 433.894 419.568C431.561 419.448 429.228 419.265 426.902 419.026C424.584 418.787 422.267 418.484 419.956 418.126C417.646 417.767 415.344 417.353 413.049 416.875C410.761 416.397 408.481 415.856 406.217 415.266C403.952 414.669 401.703 414.015 399.461 413.306C397.227 412.598 395.016 411.825 392.812 411.004C390.616 410.176 388.435 409.3 386.276 408.36C384.118 407.428 381.983 406.432 379.87 405.388C377.765 404.345 375.675 403.246 373.616 402.091C371.556 400.936 369.527 399.733 367.521 398.474C365.515 397.216 363.547 395.901 361.601 394.547C359.664 393.185 357.748 391.775 355.871 390.317C354.002 388.859 352.155 387.354 350.354 385.801C348.546 384.247 346.775 382.654 345.05 381.005C343.317 379.364 341.623 377.675 339.974 375.947C338.325 374.218 336.714 372.442 335.141 370.634C333.575 368.817 332.048 366.969 330.566 365.074C329.084 363.186 327.648 361.258 326.257 359.29C324.866 357.323 323.521 355.323 322.222 353.292C320.93 351.253 319.676 349.19 318.475 347.087C317.275 344.992 316.127 342.857 315.025 340.698C313.923 338.547 312.875 336.357 311.871 334.142C310.876 331.936 309.926 329.697 309.037 327.435C308.14 325.173 307.304 322.895 306.514 320.593C305.724 318.282 304.994 315.964 304.318 313.622C303.641 311.281 303.018 308.923 302.448 306.549C301.878 304.175 301.369 301.785 300.913 299.388C300.457 296.982 300.062 294.576 299.713 292.155C299.371 289.733 299.089 287.303 298.861 284.866C298.626 282.436 298.459 279.991 298.345 277.553C298.231 275.108 298.17 272.662 298.17 270.209C298.17 267.763 298.231 265.318 298.345 262.872C298.459 260.435 298.626 257.989 298.861 255.56C299.089 253.122 299.371 250.693 299.713 248.271C300.062 245.849 300.457 243.444 300.913 241.038C301.369 238.64 301.878 236.251 302.448 233.877C303.018 231.503 303.641 229.145 304.318 226.803C304.994 224.461 305.724 222.143 306.514 219.833C307.304 217.531 308.14 215.253 309.037 212.991C309.926 210.728 310.876 208.49 311.871 206.275C312.875 204.069 313.923 201.878 315.025 199.727C316.127 197.569 317.275 195.434 318.475 193.339C319.676 191.236 320.93 189.173 322.222 187.134C323.521 185.102 324.866 183.103 326.257 181.135C327.648 179.168 329.084 177.24 330.566 175.352C332.048 173.456 333.575 171.608 335.141 169.792C336.714 167.976 338.325 166.207 339.974 164.479C341.623 162.75 343.317 161.061 345.05 159.413C346.775 157.772 348.546 156.178 350.354 154.625C352.155 153.072 354.002 151.566 355.871 150.109C357.748 148.651 359.664 147.241 361.601 145.879C363.547 144.524 365.515 143.21 367.521 141.952C369.527 140.693 371.556 139.49 373.616 138.335C375.675 137.18 377.765 136.081 379.87 135.037C381.983 133.994 384.118 132.998 386.276 132.066C388.435 131.126 390.616 130.242 392.812 129.421C395.016 128.593 397.227 127.828 399.461 127.119C401.703 126.41 403.952 125.757 406.217 125.16C408.481 124.57 410.761 124.028 413.049 123.551C415.344 123.073 417.646 122.658 419.956 122.3C422.267 121.941 424.584 121.639 426.902 121.4C429.228 121.161 431.561 120.978 433.894 120.858C436.227 120.739 438.56 120.683 440.893 120.683C443.233 120.683 445.566 120.739 447.899 120.858C450.232 120.978 452.557 121.161 454.883 121.4C457.208 121.639 459.526 121.941 461.836 122.3C464.146 122.658 466.449 123.073 468.736 123.551C471.031 124.028 473.311 124.57 475.576 125.16C477.84 125.757 480.09 126.41 482.324 127.119C484.558 127.828 486.777 128.593 488.981 129.421C491.177 130.242 493.358 131.126 495.516 132.066C497.675 132.998 499.81 133.994 501.915 135.037C504.028 136.081 506.117 137.18 508.177 138.335C510.236 139.49 512.265 140.693 514.271 141.952C516.27 143.21 518.246 144.524 520.191 145.879C522.129 147.241 524.037 148.651 525.914 150.109C527.791 151.566 529.63 153.072 531.438 154.625C533.247 156.178 535.01 157.772 536.743 159.413C538.475 161.061 540.162 162.75 541.819 164.479C543.468 166.207 545.079 167.976 546.645 169.792C548.218 171.608 549.737 173.456 551.219 175.352C552.701 177.24 554.137 179.168 555.536 181.135C556.926 183.103 558.271 185.102 559.563 187.134C560.863 189.173 562.117 191.236 563.317 193.339C564.518 195.434 565.666 197.569 566.767 199.727C567.869 201.878 568.918 204.069 569.914 206.275C570.917 208.49 571.859 210.728 572.756 212.991C573.652 215.253 574.488 217.531 575.279 219.833C576.061 222.143 576.799 224.461 577.475 226.803C578.151 229.145 578.774 231.503 579.344 233.877C579.907 236.251 580.423 238.64 580.879 241.038C581.335 243.444 581.73 245.849 582.072 248.271C582.414 250.693 582.703 253.122 582.931 255.56C583.159 257.989 583.334 260.435 583.448 262.872C583.562 265.318 583.623 267.763 583.623 270.209Z" fill="#141623"/>
<path d="M394.306 242.113C360.778 232.864 323.784 247.752 298.402 262.019C296.282 302.963 310.136 344.656 339.986 375.93C395.719 434.319 486.098 434.319 541.824 375.93C566.415 350.169 580.147 317.389 583.027 283.742C455.009 313.287 447.334 256.714 394.306 242.113Z" fill="#141623"/>
<path d="M388.928 339.263C366.548 338.211 344.754 347.364 326.227 359.225C330.345 365.048 334.935 370.632 339.989 375.93C395.722 434.319 486.101 434.319 541.827 375.93C550.505 366.841 557.831 356.883 563.796 346.321C460.544 389.886 440.839 341.669 388.928 339.263Z" fill="#141623"/>
<path d="M399.718 328.542H365.104V224.795H399.718C404.308 252.588 405.045 280.962 401.93 308.978L399.718 328.542Z" fill="#FD871B"/>
<path d="M399.688 328.541C399.688 329.728 399.582 330.907 399.361 332.07C399.141 333.241 398.806 334.372 398.373 335.471C397.94 336.571 397.408 337.614 396.777 338.602C396.147 339.598 395.432 340.506 394.627 341.35C393.821 342.195 392.947 342.943 392.005 343.604C391.063 344.266 390.067 344.823 389.019 345.277C387.97 345.731 386.883 346.074 385.774 346.305C384.657 346.544 383.532 346.655 382.4 346.655C381.26 346.655 380.135 346.544 379.025 346.305C377.908 346.074 376.829 345.731 375.781 345.277C374.732 344.823 373.736 344.266 372.794 343.604C371.844 342.943 370.97 342.195 370.172 341.35C369.367 340.506 368.652 339.598 368.022 338.602C367.391 337.614 366.859 336.571 366.426 335.471C365.985 334.372 365.658 333.241 365.438 332.07C365.218 330.907 365.104 329.728 365.104 328.541C365.104 327.346 365.218 326.175 365.438 325.004C365.658 323.841 365.985 322.702 366.426 321.603C366.859 320.504 367.391 319.46 368.022 318.472C368.652 317.485 369.367 316.569 370.172 315.732C370.97 314.888 371.844 314.139 372.794 313.478C373.736 312.817 374.732 312.259 375.781 311.797C376.829 311.343 377.908 311 379.025 310.769C380.135 310.538 381.26 310.419 382.4 310.419C383.532 310.419 384.657 310.538 385.774 310.769C386.883 311 387.97 311.343 389.019 311.797C390.067 312.259 391.063 312.817 392.005 313.478C392.947 314.139 393.821 314.888 394.627 315.732C395.432 316.569 396.147 317.485 396.777 318.472C397.408 319.46 397.94 320.504 398.373 321.603C398.806 322.702 399.141 323.841 399.361 325.004C399.582 326.175 399.688 327.346 399.688 328.541Z" fill="#FD871B"/>
<path d="M399.688 224.795C399.688 225.982 399.582 227.161 399.361 228.332C399.141 229.495 398.806 230.626 398.373 231.725C397.94 232.825 397.408 233.868 396.777 234.864C396.147 235.852 395.432 236.768 394.627 237.604C393.821 238.448 392.947 239.197 392.005 239.858C391.063 240.52 390.067 241.077 389.019 241.531C387.97 241.985 386.883 242.336 385.774 242.567C384.657 242.798 383.532 242.909 382.4 242.909C381.26 242.909 380.135 242.798 379.025 242.567C377.908 242.336 376.829 241.985 375.781 241.531C374.732 241.077 373.736 240.52 372.794 239.858C371.844 239.197 370.97 238.448 370.172 237.604C369.367 236.768 368.652 235.852 368.022 234.864C367.391 233.868 366.859 232.825 366.426 231.725C365.985 230.626 365.658 229.495 365.438 228.332C365.218 227.161 365.104 225.982 365.104 224.795C365.104 223.608 365.218 222.429 365.438 221.258C365.658 220.095 365.985 218.964 366.426 217.865C366.859 216.766 367.391 215.714 368.022 214.726C368.652 213.739 369.367 212.822 370.172 211.986C370.97 211.142 371.844 210.393 372.794 209.732C373.736 209.071 374.732 208.513 375.781 208.059C376.829 207.597 377.908 207.254 379.025 207.023C380.135 206.792 381.26 206.673 382.4 206.673C383.532 206.673 384.657 206.792 385.774 207.023C386.883 207.254 387.97 207.597 389.019 208.059C390.067 208.513 391.063 209.071 392.005 209.732C392.947 210.393 393.821 211.142 394.627 211.986C395.432 212.822 396.147 213.739 396.777 214.726C397.408 215.714 397.94 216.766 398.373 217.865C398.806 218.964 399.141 220.095 399.361 221.258C399.582 222.429 399.688 223.608 399.688 224.795Z" fill="#FD871B"/>
<path d="M365.104 328.542H399.718V329.959C399.924 364.65 396.489 399.501 389.49 433.857L385.31 454.314H367.664L365.104 328.542Z" fill="#FD871B"/>
<path d="M399.688 328.541C399.688 329.728 399.582 330.907 399.361 332.07C399.141 333.241 398.806 334.372 398.373 335.471C397.94 336.571 397.408 337.614 396.777 338.602C396.147 339.598 395.432 340.506 394.627 341.35C393.821 342.195 392.947 342.943 392.005 343.604C391.063 344.266 390.067 344.823 389.019 345.277C387.97 345.731 386.883 346.074 385.774 346.305C384.657 346.544 383.532 346.655 382.4 346.655C381.26 346.655 380.135 346.544 379.025 346.305C377.908 346.074 376.829 345.731 375.781 345.277C374.732 344.823 373.736 344.266 372.794 343.604C371.844 342.943 370.97 342.195 370.172 341.35C369.367 340.506 368.652 339.598 368.022 338.602C367.391 337.614 366.859 336.571 366.426 335.471C365.985 334.372 365.658 333.241 365.438 332.07C365.218 330.907 365.104 329.728 365.104 328.541C365.104 327.346 365.218 326.175 365.438 325.004C365.658 323.841 365.985 322.702 366.426 321.603C366.859 320.504 367.391 319.46 368.022 318.472C368.652 317.485 369.367 316.569 370.172 315.732C370.97 314.888 371.844 314.139 372.794 313.478C373.736 312.817 374.732 312.259 375.781 311.797C376.829 311.343 377.908 311 379.025 310.769C380.135 310.538 381.26 310.419 382.4 310.419C383.532 310.419 384.657 310.538 385.774 310.769C386.883 311 387.97 311.343 389.019 311.797C390.067 312.259 391.063 312.817 392.005 313.478C392.947 314.139 393.821 314.888 394.627 315.732C395.432 316.569 396.147 317.485 396.777 318.472C397.408 319.46 397.94 320.504 398.373 321.603C398.806 322.702 399.141 323.841 399.361 325.004C399.582 326.175 399.688 327.346 399.688 328.541Z" fill="#FD871B"/>
<path d="M385.516 454.282C385.516 454.903 385.463 455.509 385.349 456.114C385.227 456.719 385.06 457.301 384.84 457.867C384.612 458.44 384.338 458.982 384.011 459.492C383.685 460.001 383.312 460.471 382.902 460.909C382.484 461.348 382.028 461.73 381.542 462.072C381.055 462.415 380.538 462.702 379.999 462.941C379.452 463.172 378.897 463.355 378.319 463.474C377.742 463.594 377.164 463.65 376.579 463.65C375.986 463.65 375.409 463.594 374.831 463.474C374.254 463.355 373.699 463.172 373.152 462.941C372.612 462.702 372.096 462.415 371.609 462.072C371.123 461.73 370.667 461.348 370.257 460.909C369.839 460.471 369.466 460.001 369.139 459.492C368.813 458.982 368.539 458.44 368.319 457.867C368.091 457.301 367.924 456.719 367.81 456.114C367.696 455.509 367.635 454.903 367.635 454.282C367.635 453.669 367.696 453.063 367.81 452.458C367.924 451.852 368.091 451.271 368.319 450.697C368.539 450.132 368.813 449.59 369.139 449.08C369.466 448.57 369.839 448.1 370.257 447.662C370.667 447.224 371.123 446.842 371.609 446.499C372.096 446.157 372.612 445.87 373.152 445.631C373.699 445.392 374.254 445.217 374.831 445.097C375.409 444.978 375.986 444.922 376.579 444.922C377.164 444.922 377.742 444.978 378.319 445.097C378.897 445.217 379.452 445.392 379.999 445.631C380.538 445.87 381.055 446.157 381.542 446.499C382.028 446.842 382.484 447.224 382.902 447.662C383.312 448.1 383.685 448.57 384.011 449.08C384.338 449.59 384.612 450.132 384.84 450.697C385.06 451.271 385.227 451.852 385.349 452.458C385.463 453.063 385.516 453.669 385.516 454.282Z" fill="#FD871B"/>
<path d="M385.517 454.282C385.517 454.282 386.429 473.543 396.072 481.955C403.018 488.025 409.66 496.19 408.072 498.349C406.484 500.507 385.107 498.349 381.55 498.349C378.548 498.349 375.197 487.284 369.756 482.728C367.461 480.784 366.169 477.797 366.108 474.714C366.017 469.966 366.222 462.821 367.636 454.282H385.517Z" fill="#FD871B"/>
<path d="M409.513 500.069C410.926 500.069 411.899 498.596 411.398 497.241C410.805 495.608 409.809 493.45 408.046 491.387C405.896 488.83 403.981 487.005 398.722 484.512C398.722 484.512 386.837 481.278 381.046 493.386C381.046 493.386 372.573 483.588 370.665 480.011C368.72 476.443 366.045 466.023 366.045 466.023C366.045 466.023 364.107 471.783 366.045 480.665C367.99 489.538 367.572 500.101 367.572 500.101H370.338L370.194 487.842C370.194 487.842 377.9 492.183 379.838 500.101H409.513V500.069Z" fill="#141623"/>
<path d="M306.407 453.27C306.407 453.883 306.346 454.488 306.232 455.094C306.118 455.699 305.951 456.281 305.723 456.854C305.502 457.42 305.221 457.961 304.894 458.471C304.575 458.981 304.203 459.459 303.785 459.889C303.374 460.327 302.918 460.718 302.432 461.052C301.946 461.395 301.429 461.689 300.882 461.92C300.342 462.159 299.788 462.335 299.21 462.454C298.632 462.574 298.055 462.637 297.462 462.637C296.877 462.637 296.299 462.574 295.722 462.454C295.144 462.335 294.582 462.159 294.042 461.92C293.503 461.689 292.986 461.395 292.5 461.052C292.006 460.718 291.558 460.327 291.14 459.889C290.729 459.459 290.357 458.981 290.03 458.471C289.703 457.961 289.43 457.42 289.202 456.854C288.981 456.281 288.807 455.699 288.693 455.094C288.579 454.488 288.525 453.883 288.525 453.27C288.525 452.656 288.579 452.043 288.693 451.438C288.807 450.84 288.981 450.251 289.202 449.685C289.43 449.111 289.703 448.578 290.03 448.06C290.357 447.55 290.729 447.08 291.14 446.642C291.558 446.212 292.006 445.822 292.5 445.479C292.986 445.137 293.503 444.85 294.042 444.611C294.582 444.38 295.144 444.205 295.722 444.077C296.299 443.958 296.877 443.902 297.462 443.902C298.055 443.902 298.632 443.958 299.21 444.077C299.788 444.205 300.342 444.38 300.882 444.611C301.429 444.85 301.946 445.137 302.432 445.479C302.918 445.822 303.374 446.212 303.785 446.642C304.203 447.08 304.575 447.55 304.894 448.06C305.221 448.578 305.502 449.111 305.723 449.685C305.951 450.251 306.118 450.84 306.232 451.438C306.346 452.043 306.407 452.656 306.407 453.27Z" fill="#FD871B"/>
<path d="M288.761 451.262C288.761 451.262 283.936 469.879 272.757 475.917C264.732 480.29 256.586 486.758 257.703 489.259C258.82 491.753 280.144 494.405 283.609 495.202C286.55 495.879 292.052 485.834 298.314 482.568C300.966 481.182 302.82 478.561 303.519 475.542C304.583 470.922 305.844 463.896 306.202 455.269L288.761 451.262Z" fill="#FD871B"/>
<path d="M255.939 490.614C254.556 490.303 253.91 488.638 254.67 487.411C255.582 485.93 256.996 484.082 259.146 482.417C261.791 480.386 264.025 479.055 269.641 477.797C269.641 477.797 281.906 477.303 285.083 490.43C285.083 490.43 295.35 482.759 297.964 479.708C300.578 476.658 305.343 467.075 305.343 467.075C305.343 467.075 306.049 473.145 302.348 481.365C298.64 489.594 296.877 500.013 296.877 500.013L294.172 499.392L296.816 487.435C296.816 487.435 288.404 489.968 284.878 497.265L255.939 490.614Z" fill="#141623"/>
<path d="M300.465 325.243L334.289 333.01L355.491 231.669L321.667 223.903C311.491 250.03 304.964 277.576 302.319 305.648L300.465 325.243Z" fill="#FD871B"/>
<path d="M334.668 329.123C334.668 330.318 334.554 331.497 334.334 332.66C334.114 333.823 333.787 334.962 333.354 336.061C332.913 337.161 332.381 338.204 331.75 339.192C331.12 340.18 330.405 341.096 329.6 341.94C328.802 342.776 327.928 343.525 326.986 344.186C326.036 344.848 325.04 345.405 323.991 345.867C322.943 346.321 321.864 346.664 320.747 346.895C319.637 347.126 318.512 347.245 317.372 347.245C316.24 347.245 315.115 347.126 313.998 346.895C312.889 346.664 311.802 346.321 310.753 345.867C309.705 345.405 308.709 344.848 307.767 344.186C306.825 343.525 305.951 342.776 305.145 341.94C304.347 341.096 303.625 340.18 302.995 339.192C302.364 338.204 301.832 337.161 301.399 336.061C300.966 334.962 300.639 333.823 300.411 332.66C300.19 331.497 300.084 330.318 300.084 329.123C300.084 327.936 300.19 326.757 300.411 325.594C300.639 324.423 300.966 323.292 301.399 322.193C301.832 321.093 302.364 320.05 302.995 319.062C303.625 318.066 304.347 317.158 305.145 316.314C305.951 315.47 306.825 314.721 307.767 314.06C308.709 313.399 309.705 312.841 310.753 312.387C311.802 311.933 312.889 311.59 313.998 311.359C315.115 311.12 316.24 311.009 317.372 311.009C318.512 311.009 319.637 311.12 320.747 311.359C321.864 311.59 322.943 311.933 323.991 312.387C325.04 312.841 326.036 313.399 326.986 314.06C327.928 314.721 328.802 315.47 329.6 316.314C330.405 317.158 331.12 318.066 331.75 319.062C332.381 320.05 332.913 321.093 333.354 322.193C333.787 323.292 334.114 324.423 334.334 325.594C334.554 326.757 334.668 327.936 334.668 329.123Z" fill="#FD871B"/>
<path d="M355.87 227.782C355.87 228.969 355.763 230.148 355.535 231.319C355.315 232.482 354.988 233.621 354.555 234.72C354.122 235.811 353.59 236.863 352.959 237.851C352.328 238.838 351.606 239.755 350.808 240.591C350.003 241.435 349.129 242.184 348.187 242.845C347.244 243.506 346.241 244.064 345.193 244.518C344.144 244.98 343.065 245.323 341.948 245.554C340.838 245.785 339.713 245.904 338.581 245.904C337.441 245.904 336.317 245.785 335.207 245.554C334.09 245.323 333.011 244.98 331.962 244.518C330.913 244.064 329.918 243.506 328.968 242.845C328.026 242.184 327.152 241.435 326.346 240.591C325.548 239.755 324.826 238.838 324.196 237.851C323.565 236.863 323.033 235.811 322.6 234.72C322.167 233.621 321.84 232.482 321.62 231.319C321.399 230.148 321.285 228.969 321.285 227.782C321.285 226.595 321.399 225.416 321.62 224.245C321.84 223.082 322.167 221.951 322.6 220.852C323.033 219.752 323.565 218.709 324.196 217.721C324.826 216.725 325.548 215.809 326.346 214.973C327.152 214.129 328.026 213.38 328.968 212.719C329.918 212.057 330.913 211.5 331.962 211.046C333.011 210.592 334.09 210.249 335.207 210.01C336.317 209.779 337.441 209.668 338.581 209.668C339.713 209.668 340.838 209.779 341.948 210.01C343.065 210.249 344.144 210.592 345.193 211.046C346.241 211.5 347.244 212.057 348.187 212.719C349.129 213.38 350.003 214.129 350.808 214.973C351.606 215.809 352.328 216.725 352.959 217.721C353.59 218.709 354.122 219.752 354.555 220.852C354.988 221.951 355.315 223.082 355.535 224.245C355.763 225.416 355.87 226.595 355.87 227.782Z" fill="#FD871B"/>
<path d="M334.258 333.01L300.433 325.244L300.137 326.598C292.849 360.46 289.08 395.247 288.905 430.376L288.791 451.294L306.019 455.269L334.258 333.01Z" fill="#FD871B"/>
<path d="M334.668 329.123C334.668 330.318 334.554 331.497 334.334 332.66C334.114 333.823 333.787 334.962 333.354 336.061C332.913 337.161 332.381 338.204 331.75 339.192C331.12 340.18 330.405 341.096 329.6 341.94C328.802 342.776 327.928 343.525 326.986 344.186C326.036 344.848 325.04 345.405 323.991 345.867C322.943 346.321 321.864 346.664 320.747 346.895C319.637 347.126 318.512 347.245 317.372 347.245C316.24 347.245 315.115 347.126 313.998 346.895C312.889 346.664 311.802 346.321 310.753 345.867C309.705 345.405 308.709 344.848 307.767 344.186C306.825 343.525 305.951 342.776 305.145 341.94C304.347 341.096 303.625 340.18 302.995 339.192C302.364 338.204 301.832 337.161 301.399 336.061C300.966 334.962 300.639 333.823 300.411 332.66C300.19 331.497 300.084 330.318 300.084 329.123C300.084 327.936 300.19 326.757 300.411 325.594C300.639 324.423 300.966 323.292 301.399 322.193C301.832 321.093 302.364 320.05 302.995 319.062C303.625 318.066 304.347 317.158 305.145 316.314C305.951 315.47 306.825 314.721 307.767 314.06C308.709 313.399 309.705 312.841 310.753 312.387C311.802 311.933 312.889 311.59 313.998 311.359C315.115 311.12 316.24 311.009 317.372 311.009C318.512 311.009 319.637 311.12 320.747 311.359C321.864 311.59 322.943 311.933 323.991 312.387C325.04 312.841 326.036 313.399 326.986 314.06C327.928 314.721 328.802 315.47 329.6 316.314C330.405 317.158 331.12 318.066 331.75 319.062C332.381 320.05 332.913 321.093 333.354 322.193C333.787 323.292 334.114 324.423 334.334 325.594C334.554 326.757 334.668 327.936 334.668 329.123Z" fill="#FD871B"/>
<path d="M322.905 203.319C322.905 203.319 302.842 249.011 297.492 303.888C292.143 358.764 281.906 434.288 281.906 434.288C281.906 434.288 305.107 447.535 317.106 434.288L356.752 240.448L360.316 239.954L360.931 440.143C360.931 440.143 380.226 455.644 395.607 443.871C395.607 443.871 405.311 364.778 399.688 336.77C399.688 336.77 408.283 245.873 401.869 214.846C397.249 192.502 399.688 192.104 399.688 192.104L322.905 203.319Z" fill="#FFA300"/>
<path d="M368.664 57.728C363.899 37.0886 344.103 37.8852 344.103 37.8852C344.103 37.8852 324.337 37.0886 319.58 57.728C314.815 78.3753 312.809 90.6347 312.809 90.6347C312.809 90.6347 320.134 102.87 344.133 103.428C368.101 102.87 375.457 90.6347 375.457 90.6347C375.457 90.6347 373.428 78.3753 368.664 57.728Z" fill="#141623"/>
<path d="M354.016 90.0532L346.782 91.041L339.547 92.0208C340.049 98.25 337.754 110.605 337.754 110.605L349.046 109.06L360.339 107.522C360.316 107.554 355.08 96.2108 354.016 90.0532Z" fill="#FD871B"/>
<path d="M346.774 91.0641L339.54 92.0519C339.661 93.5335 339.631 95.3497 339.486 97.2615C341.774 98.0024 344.601 98.2174 348.074 97.7554C351.098 97.3253 353.537 96.5207 355.452 95.4453C354.807 93.5017 354.275 91.6218 354.009 90.0525L346.774 91.0641Z" fill="#141623"/>
<path d="M360.135 72.6718C360.135 72.6718 360.811 67.3427 364.193 67.4622C367.574 67.5578 368.312 72.2735 367.46 75.3563C366.609 78.4391 364.694 80.0959 361.047 80.0402L360.135 72.6718Z" fill="#FD871B"/>
<path d="M330.254 76.7747C330.254 76.7747 328.286 71.812 325.048 72.8317C321.819 73.8433 322.259 78.5909 323.817 81.3312C325.375 84.0714 327.67 85.1866 331.166 84.1351L330.254 76.7747Z" fill="#FD871B"/>
<path d="M356.344 50.3997C350.994 46.0186 345.933 44.8157 341.579 45.684C337.171 46.0504 332.581 48.5756 328.493 54.2154C328.493 54.2154 325.346 63.9257 327.467 72.1782C329.465 80.0405 329.024 98.0034 347.818 95.4463C366.611 92.8575 361.755 75.6035 361.785 67.4625C361.755 58.9311 356.344 50.3997 356.344 50.3997Z" fill="#FD871B"/>
<path d="M349.455 64.1092C348.049 63.4002 346.902 62.8745 346.605 63.5834C346.286 64.2924 347.19 65.3996 348.604 66.1086C350.017 66.8175 351.431 66.8175 351.75 66.1404C352.016 65.4633 350.868 64.85 349.455 64.1092Z" fill="#141623"/>
<path d="M343.194 67.9562L343.726 75.5396L343.87 77.4195C343.9 77.7302 343.9 78.0648 343.961 78.2798C344.045 78.5268 344.197 78.7419 344.372 78.9012C344.577 79.0525 344.812 79.1401 345.048 79.172C345.162 79.172 345.284 79.172 345.398 79.1401L345.838 79.0525L347.609 78.6224C347.784 78.5905 347.958 78.6781 347.989 78.8693C348.019 79.0525 347.928 79.2357 347.753 79.2676L345.99 79.6659L345.549 79.7615C345.375 79.7933 345.192 79.8252 345.018 79.7933C344.668 79.7615 344.311 79.6101 344.045 79.3632C343.786 79.1162 343.574 78.8056 343.46 78.4392C343.346 78.0648 343.368 77.7302 343.368 77.4195L343.285 75.5077L342.928 67.9323C342.928 67.8367 342.989 67.7729 343.08 67.7729C343.133 67.8367 343.194 67.9004 343.194 67.9562Z" fill="#141623"/>
<path d="M324.964 75.97C325.314 75.5399 325.876 75.4124 326.4 75.508C326.932 75.6036 327.373 75.9382 327.73 76.3126C328.376 77.0773 328.817 78.0332 328.847 79.0528C328.847 79.1404 328.787 79.2041 328.695 79.2041C328.635 79.2041 328.581 79.1723 328.551 79.1165C328.224 78.2482 327.844 77.4198 327.259 76.7746C326.993 76.432 326.636 76.1851 326.286 76.0656C325.907 75.9382 325.489 75.9382 325.139 76.1532C325.078 76.1851 324.995 76.1532 324.964 76.0975C324.934 76.0975 324.934 76.0338 324.964 75.97Z" fill="#141623"/>
<path d="M325.669 78.8692C325.464 78.5904 325.373 78.216 325.342 77.8496C325.312 77.4831 325.434 77.0769 325.669 76.7423C325.905 76.4316 326.285 76.1528 326.665 76.1528C327.052 76.121 327.463 76.3122 327.668 76.6786C327.698 76.7742 327.668 76.8618 327.607 76.8937C327.546 76.9255 327.493 76.9255 327.463 76.8937C327.258 76.7423 326.992 76.7105 326.756 76.7742C326.551 76.8299 326.346 76.9574 326.194 77.1725C325.874 77.5708 325.844 78.1602 325.905 78.7736C325.905 78.8373 325.874 78.9249 325.783 78.9249C325.722 78.9249 325.692 78.9249 325.669 78.8692Z" fill="#141623"/>
<path d="M348.195 83.5769C347.518 83.4256 346.842 83.4256 346.196 83.553C345.869 83.6088 345.55 83.7363 345.223 83.8239C344.904 83.9513 344.577 84.1027 344.228 84.2301C344.106 84.262 343.992 84.1983 343.962 84.1027C343.931 84.0469 343.962 83.9513 343.992 83.8876C344.106 83.7363 344.251 83.5769 344.403 83.4256C344.547 83.3061 344.722 83.1787 344.904 83.0592C345.254 82.8441 345.634 82.6848 346.052 82.5971C346.462 82.5334 346.903 82.5334 347.283 82.629C347.693 82.7166 348.081 82.8998 348.369 83.2424C348.43 83.3061 348.43 83.4256 348.369 83.4893C348.339 83.5212 348.286 83.553 348.225 83.553L348.195 83.5769Z" fill="#141623"/>
<path d="M341.43 83.2742C342.076 82.8441 342.783 82.5015 343.49 82.1909C344.196 81.8882 344.926 81.6731 345.693 81.5138C346.461 81.3624 347.221 81.2668 348.019 81.2668C348.779 81.2987 349.577 81.3943 350.314 81.6731C350.428 81.705 350.458 81.8245 350.428 81.9439C350.397 82.0395 350.314 82.1033 350.223 82.1033C349.485 82.0395 348.756 82.0395 348.049 82.1033C347.312 82.1909 346.605 82.2865 345.868 82.4378C344.432 82.7485 343.018 83.1468 341.575 83.6088C341.491 83.6407 341.4 83.5769 341.369 83.4893C341.339 83.3937 341.369 83.3061 341.43 83.2742Z" fill="#141623"/>
<path d="M362.105 73.0708C362.105 73.0708 362.341 70.6731 363.747 70.7368C365.13 70.7926 365.457 72.9513 365.13 74.3374C364.811 75.7234 364.013 76.4961 362.516 76.4324L362.105 73.0708Z" fill="#141623"/>
<path d="M328.463 77.699C328.463 77.699 327.642 75.4447 326.32 75.8749C324.998 76.313 325.203 78.4638 325.879 79.7303C326.556 80.9969 327.468 81.5147 328.904 81.0526L328.463 77.699Z" fill="#141623"/>
<path d="M350.657 68.6815C350.71 69.1515 350.634 69.5736 350.421 69.9401C350.208 70.3065 349.919 70.5216 349.555 70.5694C349.19 70.6172 348.863 70.4977 348.567 70.195C348.263 69.8923 348.088 69.5099 348.027 69.0399C347.966 68.562 348.05 68.1478 348.263 67.7734C348.476 67.4069 348.764 67.1998 349.129 67.1441C349.486 67.0963 349.821 67.2237 350.117 67.5185C350.413 67.8212 350.596 68.2035 350.657 68.6815Z" fill="#141623"/>
<path d="M350.37 69.4221C350.415 69.7647 350.309 69.9558 350.058 69.9957C349.8 70.0275 349.655 69.8682 349.61 69.5257C349.564 69.1752 349.671 68.992 349.921 68.9521C350.18 68.9203 350.324 69.0716 350.37 69.4221Z" fill="#F1DBCE"/>
<path d="M337.436 64.6904C338.758 63.7982 339.784 63.1211 340.195 63.7663C340.613 64.4195 339.875 65.6781 338.553 66.5703C337.231 67.4625 335.848 67.6855 335.43 67.0323C335.05 66.3871 336.106 65.5905 337.436 64.6904Z" fill="#141623"/>
<path d="M339.654 70.1871C339.715 70.6571 339.639 71.0793 339.418 71.4457C339.205 71.8201 338.917 72.0272 338.559 72.075C338.195 72.1307 337.86 72.0033 337.564 71.7006C337.268 71.4059 337.093 71.0235 337.032 70.5456C336.971 70.0756 337.047 69.6534 337.26 69.287C337.48 68.9126 337.769 68.7055 338.126 68.6577C338.491 68.6099 338.818 68.7293 339.122 69.032C339.418 69.3268 339.593 69.7171 339.654 70.1871Z" fill="#141623"/>
<path d="M339.366 70.9277C339.412 71.2782 339.305 71.4694 339.055 71.5013C338.804 71.5331 338.652 71.3818 338.614 71.0313C338.568 70.6888 338.675 70.4976 338.925 70.4657C339.176 70.4259 339.328 70.5852 339.366 70.9277Z" fill="#F1DBCE"/>
<path d="M361.812 74.5199C361.577 73.5321 361.751 72.4886 362.192 71.5646C362.428 71.1026 362.785 70.6724 363.279 70.4255C363.75 70.1785 364.373 70.1785 364.814 70.4892C364.867 70.545 364.897 70.6406 364.837 70.7043C364.814 70.76 364.753 70.7919 364.692 70.76C364.312 70.6724 363.902 70.76 363.575 70.9751C363.256 71.1982 362.99 71.5009 362.808 71.8992C362.397 72.6718 362.223 73.564 362.109 74.5199C362.109 74.5836 362.048 74.6474 361.957 74.6474C361.873 74.6155 361.843 74.5836 361.812 74.5199Z" fill="#141623"/>
<path d="M362.365 71.9314C362.456 71.5331 362.806 71.2543 363.163 71.1667C363.543 71.0711 363.984 71.1986 364.28 71.4375C364.577 71.6845 364.782 72.0589 364.865 72.4253C364.957 72.7997 364.926 73.1661 364.812 73.5086C364.782 73.5963 364.691 73.6281 364.607 73.5963C364.546 73.5644 364.516 73.5325 364.516 73.4768C364.425 72.8554 364.28 72.3058 363.87 71.9951C363.695 71.8119 363.46 71.7482 363.254 71.7482C363.019 71.7482 362.783 71.8438 362.57 72.0589C362.517 72.1226 362.456 72.1226 362.396 72.0589C362.365 72.027 362.365 71.9951 362.365 71.9314Z" fill="#141623"/>
<path d="M327.958 73.4765C327.958 73.4765 329.812 67.2473 329.903 62.0137C329.995 56.7722 329.995 56.7722 329.995 56.7722L332.024 63.4954C332.024 63.4954 336.317 59.5204 334.311 50.2403L337.754 61.4561C337.754 61.4561 344.373 56.2226 345.345 47.5956V58.8115C345.345 58.8115 352.139 58.8115 354.221 51.0767C354.221 51.0767 356.547 59.8869 357.816 67.4066C357.816 67.4066 361.281 64.6902 360.871 55.203C360.46 45.7396 347.192 40.9681 339.463 42.6011C331.727 44.2341 326.605 50.5191 325.344 55.7606C324.082 60.9941 326.583 72.7676 326.583 72.7676L327.958 73.4765Z" fill="#141623"/>
<path d="M399.46 196.198C399.46 196.198 389.224 205.072 369.959 207.724C345.756 211.022 324.903 204.737 322.905 203.351C318.14 200.053 322.433 195.895 322.433 195.895L320.701 172.659C320.701 172.659 319.318 170.253 314.378 157.285C310.312 146.65 312.607 123.637 313.58 115.751C313.785 114.118 314.872 112.883 316.255 112.7L317.608 112.517L332.077 110.541L333.224 107.307C333.665 106.073 334.372 104.933 335.253 103.978L339.311 99.7238L348.522 108.263L355.521 95.4143L361.22 101.389C362.109 102.313 362.786 103.428 363.226 104.623L363.781 106.136L378.896 104.073V104.161L379.428 103.978L380.781 103.794C382.194 103.611 383.547 104.503 384.132 106.009C386.99 113.377 394.87 134.972 393.571 146.379C391.99 160.24 391.222 162.924 391.222 162.924L395.812 184.894C395.721 184.95 409.924 188.248 399.46 196.198Z" fill="#4059CB"/>
<path d="M334.813 193.552C334.813 193.552 336.135 195.217 337.374 196.874C338.605 198.571 348.081 201.622 348.575 199.622C349.077 197.583 344.548 195.584 345.254 195.217C345.961 194.843 345.254 192.134 345.254 192.134C345.254 192.134 346.136 191.179 348.932 189.697C351.721 188.223 353.872 178.481 353.872 178.481L395.395 183.476L391.162 162.988C391.162 162.988 391.253 162.677 391.397 161.785C390.691 161.657 389.984 161.506 389.254 161.379C382.514 160.088 368.075 159.164 355.901 158.67C343.697 158.176 326.697 165.202 326.697 165.202L320.488 172.228C320.64 172.539 320.701 172.626 320.701 172.626L321.636 185.292L328.255 190.748C330.018 192.19 332.108 193.122 334.311 193.457L334.813 193.552Z" fill="#141623"/>
<path d="M360.961 114.516C358.666 114.58 356.371 114.086 354.198 113.282C353.104 112.852 352.078 112.302 351.105 111.649C350.132 111.004 349.251 110.175 348.491 109.275C348.43 109.219 348.43 109.124 348.491 109.06C348.544 109.004 348.635 109.004 348.696 109.06C349.547 109.801 350.429 110.573 351.401 111.131C352.374 111.712 353.37 112.238 354.403 112.637C355.429 113.067 356.516 113.409 357.602 113.656C358.697 113.935 359.814 114.118 360.931 114.238C360.992 114.238 361.045 114.301 361.045 114.397C361.075 114.453 361.015 114.516 360.961 114.516Z" fill="#141623"/>
<path d="M348.696 109.219C348.133 110.263 347.457 111.25 346.636 112.111C345.838 112.979 344.927 113.744 343.961 114.421C342.989 115.074 341.963 115.656 340.899 116.118C339.843 116.58 338.756 116.954 337.608 117.169C337.517 117.201 337.456 117.137 337.434 117.042C337.434 116.954 337.456 116.89 337.517 116.858C338.581 116.492 339.637 116.054 340.633 115.536C341.636 115.042 342.639 114.453 343.574 113.807C344.516 113.194 345.398 112.453 346.226 111.649C347.077 110.884 347.753 109.96 348.46 109.036C348.491 108.972 348.574 108.972 348.635 109.004C348.726 109.092 348.726 109.155 348.696 109.219Z" fill="#141623"/>
<path d="M322.906 115.838C323.203 115.966 323.431 116.213 323.666 116.46C323.902 116.675 324.115 116.922 324.32 117.201C324.73 117.686 325.11 118.244 325.437 118.834C325.756 119.415 326.022 120.028 326.258 120.65C326.463 121.263 326.638 121.94 326.789 122.585C327.055 123.884 327.283 125.206 327.496 126.505C327.58 127.15 327.701 127.827 327.785 128.472L327.907 129.46C327.937 129.802 328.021 130.105 327.96 130.448C327.846 130.137 327.846 129.802 327.785 129.46L327.641 128.472L327.314 126.505C327.078 125.206 326.843 123.884 326.584 122.585C326.463 121.94 326.288 121.295 326.113 120.682C325.908 120.06 325.642 119.447 325.315 118.889C324.996 118.308 324.639 117.782 324.229 117.256C324.023 117.009 323.818 116.762 323.583 116.515C323.377 116.3 323.142 116.117 322.906 115.838Z" fill="#141623"/>
<path d="M353.227 118.555C354.222 119.782 354.898 121.232 355.605 122.618C356.312 124.036 356.958 125.485 357.551 126.967C358.728 129.922 359.724 133.005 359.929 136.239C360.02 137.872 359.899 139.441 359.868 141.043L359.694 145.822C359.549 148.992 359.405 152.171 359.222 155.373V155.309L360.37 165.912L361.487 176.514C362.224 183.596 362.961 190.654 363.638 197.743L363.546 197.528C364.223 198.237 364.755 199.034 365.165 199.902C365.575 200.762 365.872 201.686 366.016 202.642C366.168 203.598 366.199 204.578 366.047 205.534C365.933 206.49 365.606 207.414 365.135 208.218C365.287 207.262 365.515 206.402 365.606 205.478C365.727 204.554 365.697 203.63 365.545 202.73C365.401 201.838 365.104 200.977 364.694 200.141C364.284 199.344 363.752 198.572 363.166 197.958C363.106 197.895 363.075 197.831 363.075 197.743C362.255 190.685 361.487 183.596 360.727 176.546L359.58 165.944L358.493 155.309C358.493 155.285 358.493 155.254 358.493 155.254C358.728 152.075 358.903 148.905 359.078 145.727L359.283 140.955C359.314 139.386 359.428 137.753 359.374 136.207C359.192 133.101 358.227 130.05 357.11 127.118C356.547 125.637 355.932 124.195 355.256 122.777C354.549 121.423 353.781 120.029 353.227 118.555Z" fill="#141623"/>
<path d="M357.869 137.258C357.869 137.577 357.763 137.856 357.542 138.087C357.329 138.31 357.063 138.429 356.752 138.429C356.448 138.429 356.182 138.31 355.962 138.087C355.749 137.856 355.635 137.577 355.635 137.258C355.635 136.932 355.749 136.653 355.962 136.43C356.182 136.199 356.448 136.087 356.752 136.087C357.063 136.087 357.329 136.199 357.542 136.43C357.763 136.653 357.869 136.932 357.869 137.258Z" fill="#141623"/>
<path d="M356.752 155.771C356.752 156.098 356.645 156.377 356.425 156.6C356.205 156.831 355.946 156.942 355.635 156.942C355.331 156.942 355.065 156.831 354.844 156.6C354.624 156.377 354.518 156.098 354.518 155.771C354.518 155.453 354.624 155.174 354.844 154.943C355.065 154.72 355.331 154.6 355.635 154.6C355.946 154.6 356.205 154.72 356.425 154.943C356.645 155.174 356.752 155.453 356.752 155.771Z" fill="#141623"/>
<path d="M358.783 175.773C358.783 176.092 358.677 176.371 358.456 176.602C358.236 176.825 357.977 176.944 357.666 176.944C357.362 176.944 357.096 176.825 356.876 176.602C356.655 176.371 356.549 176.092 356.549 175.773C356.549 175.447 356.655 175.176 356.876 174.945C357.096 174.714 357.362 174.602 357.666 174.602C357.977 174.602 358.236 174.714 358.456 174.945C358.677 175.176 358.783 175.447 358.783 175.773Z" fill="#141623"/>
<path d="M360.781 196.389C360.781 196.707 360.675 196.986 360.454 197.209C360.242 197.44 359.976 197.56 359.664 197.56C359.36 197.56 359.094 197.44 358.874 197.209C358.661 196.986 358.547 196.707 358.547 196.389C358.547 196.062 358.661 195.783 358.874 195.56C359.094 195.329 359.36 195.218 359.664 195.218C359.976 195.218 360.242 195.329 360.454 195.56C360.675 195.783 360.781 196.062 360.781 196.389Z" fill="#141623"/>
<path d="M333.666 184.894C333.666 184.894 332.754 186.925 332.108 189.729C331.606 191.824 333.552 193.178 335.223 191.028C336.903 188.869 337.61 186.344 337.61 186.344L333.666 184.894Z" fill="#FD871B"/>
<path d="M333.666 184.895C333.666 184.895 332.754 186.926 332.108 189.73C331.606 191.825 333.552 193.179 335.223 191.028C336.903 188.869 337.61 186.344 337.61 186.344L333.666 184.895Z" fill="#141623"/>
<path d="M409.179 160.503L387.627 167.577L373.074 118.882L394.633 111.808L409.179 160.503Z" fill="#FD871B"/>
<path d="M395.157 115.345C395.157 116.126 395.089 116.898 394.945 117.655C394.8 118.42 394.587 119.161 394.299 119.878C394.018 120.595 393.668 121.28 393.258 121.925C392.847 122.57 392.376 123.167 391.852 123.717C391.327 124.267 390.757 124.753 390.142 125.191C389.526 125.621 388.873 125.979 388.189 126.282C387.505 126.577 386.798 126.8 386.069 126.951C385.347 127.103 384.61 127.182 383.865 127.182C383.128 127.182 382.391 127.103 381.661 126.951C380.939 126.8 380.232 126.577 379.548 126.282C378.864 125.979 378.211 125.621 377.595 125.191C376.98 124.753 376.41 124.267 375.886 123.717C375.361 123.167 374.89 122.57 374.48 121.925C374.069 121.28 373.72 120.595 373.431 119.878C373.15 119.161 372.937 118.42 372.793 117.655C372.648 116.898 372.572 116.126 372.572 115.345C372.572 114.572 372.648 113.8 372.793 113.043C372.937 112.278 373.15 111.537 373.431 110.821C373.72 110.104 374.069 109.419 374.48 108.773C374.89 108.128 375.361 107.531 375.886 106.981C376.41 106.431 376.98 105.945 377.595 105.507C378.211 105.077 378.864 104.719 379.548 104.416C380.232 104.121 380.939 103.898 381.661 103.747C382.391 103.596 383.128 103.516 383.865 103.516C384.61 103.516 385.347 103.596 386.069 103.747C386.798 103.898 387.505 104.121 388.189 104.416C388.873 104.719 389.526 105.077 390.142 105.507C390.757 105.945 391.327 106.431 391.852 106.981C392.376 107.531 392.847 108.128 393.258 108.773C393.668 109.419 394.018 110.104 394.299 110.821C394.587 111.537 394.8 112.278 394.945 113.043C395.089 113.8 395.157 114.572 395.157 115.345Z" fill="#4059CB"/>
<path d="M409.689 164C409.689 164.78 409.62 165.545 409.476 166.31C409.331 167.074 409.111 167.815 408.83 168.532C408.549 169.249 408.199 169.926 407.789 170.571C407.378 171.225 406.907 171.822 406.383 172.364C405.859 172.913 405.289 173.407 404.673 173.837C404.058 174.268 403.404 174.634 402.72 174.929C402.036 175.231 401.329 175.454 400.6 175.606C399.87 175.757 399.141 175.837 398.396 175.837C397.659 175.837 396.922 175.757 396.192 175.606C395.47 175.454 394.764 175.231 394.072 174.929C393.388 174.634 392.742 174.268 392.127 173.837C391.504 173.407 390.934 172.913 390.409 172.364C389.885 171.822 389.421 171.225 389.011 170.571C388.593 169.926 388.251 169.249 387.962 168.532C387.681 167.815 387.468 167.074 387.324 166.31C387.18 165.545 387.104 164.78 387.104 164C387.104 163.227 387.18 162.454 387.324 161.69C387.468 160.933 387.681 160.192 387.962 159.475C388.251 158.758 388.593 158.073 389.011 157.428C389.421 156.783 389.885 156.185 390.409 155.636C390.934 155.086 391.504 154.592 392.127 154.162C392.742 153.732 393.388 153.365 394.072 153.071C394.764 152.776 395.47 152.545 396.192 152.393C396.922 152.242 397.659 152.17 398.396 152.17C399.141 152.17 399.87 152.242 400.6 152.393C401.329 152.545 402.036 152.776 402.72 153.071C403.404 153.365 404.058 153.732 404.673 154.162C405.289 154.592 405.859 155.086 406.383 155.636C406.907 156.185 407.378 156.783 407.789 157.428C408.199 158.073 408.549 158.758 408.83 159.475C409.111 160.192 409.331 160.933 409.476 161.69C409.62 162.454 409.689 163.227 409.689 164Z" fill="#FD871B"/>
<path d="M373.074 118.89L393.896 110.048L405.394 138.215L379.078 145.822L373.074 118.89Z" fill="#4059CB"/>
<path d="M349.723 174.013L347.785 156.886L397.485 152.202L399.514 175.773L349.723 174.013Z" fill="#FD871B"/>
<path d="M409.689 164C409.689 164.78 409.62 165.545 409.476 166.31C409.331 167.074 409.111 167.815 408.83 168.532C408.549 169.249 408.199 169.926 407.789 170.571C407.378 171.225 406.907 171.822 406.383 172.364C405.859 172.913 405.289 173.407 404.673 173.837C404.058 174.268 403.404 174.634 402.72 174.929C402.036 175.231 401.329 175.454 400.6 175.606C399.87 175.757 399.141 175.837 398.396 175.837C397.659 175.837 396.922 175.757 396.192 175.606C395.47 175.454 394.764 175.231 394.072 174.929C393.388 174.634 392.742 174.268 392.127 173.837C391.504 173.407 390.934 172.913 390.409 172.364C389.885 171.822 389.421 171.225 389.011 170.571C388.593 169.926 388.251 169.249 387.962 168.532C387.681 167.815 387.468 167.074 387.324 166.31C387.18 165.545 387.104 164.78 387.104 164C387.104 163.227 387.18 162.454 387.324 161.69C387.468 160.933 387.681 160.192 387.962 159.475C388.251 158.758 388.593 158.073 389.011 157.428C389.421 156.783 389.885 156.185 390.409 155.636C390.934 155.086 391.504 154.592 392.127 154.162C392.742 153.732 393.388 153.365 394.072 153.071C394.764 152.776 395.47 152.545 396.192 152.393C396.922 152.242 397.659 152.17 398.396 152.17C399.141 152.17 399.87 152.242 400.6 152.393C401.329 152.545 402.036 152.776 402.72 153.071C403.404 153.365 404.058 153.732 404.673 154.162C405.289 154.592 405.859 155.086 406.383 155.636C406.907 156.185 407.378 156.783 407.789 157.428C408.199 158.073 408.549 158.758 408.83 159.475C409.111 160.192 409.331 160.933 409.476 161.69C409.62 162.454 409.689 163.227 409.689 164Z" fill="#FD871B"/>
<path d="M347.784 156.887C347.784 156.887 345.344 157.683 343.521 159.723C341.697 161.754 334.021 178.514 333.49 180.545C332.958 182.584 334.515 190.255 335.199 192.104C335.99 194.318 340.428 196.819 341.104 196.875C341.78 196.939 342.814 196.142 341.286 194.35C339.751 192.566 338.87 191.363 338.87 191.363L338.551 188.224C338.551 188.224 339.698 190.096 340.58 190.255C341.461 190.375 342.753 188.654 342.753 188.654C342.753 188.654 344.106 189.977 345.344 189.236C346.576 188.495 346.462 186.989 346.462 186.989C346.462 186.989 349.342 188.495 350.079 183.381C350.459 180.76 350.96 172.874 350.96 172.874C350.96 172.874 353.05 161.595 347.784 156.887Z" fill="#FD871B"/>
<path d="M334.196 106.567C334.196 106.567 334.697 102.01 334.226 100.744C333.755 99.477 327.638 92.8893 327.987 91.9652C328.929 89.464 331.49 91.2881 333.694 92.7937C335.898 94.3072 341.255 95.7808 343.573 96.0278C345.899 96.2747 363.134 85.951 365.368 87.2176C367.602 88.4523 359.783 93.5345 359.783 93.5345L354.691 97.3581C354.691 97.3581 356.636 99.4212 355.785 101.206C354.927 102.99 354.927 102.99 354.927 102.99C354.927 102.99 356.811 104.934 355.132 107.244L348.961 110.669C348.961 110.637 341.339 117.751 334.196 106.567Z" fill="#FD871B"/>
<path d="M306.148 127.389L328.08 121.733L339.722 171.272L317.791 176.936L306.148 127.389Z" fill="#FD871B"/>
<path d="M328.407 124.561C328.407 125.342 328.331 126.106 328.187 126.871C328.042 127.628 327.83 128.369 327.541 129.085C327.26 129.81 326.91 130.487 326.5 131.133C326.089 131.778 325.618 132.375 325.094 132.925C324.57 133.475 324 133.969 323.384 134.399C322.769 134.829 322.115 135.195 321.431 135.49C320.747 135.793 320.04 136.016 319.311 136.167C318.589 136.318 317.852 136.39 317.107 136.39C316.37 136.39 315.633 136.318 314.911 136.167C314.181 136.016 313.475 135.793 312.791 135.49C312.107 135.195 311.453 134.829 310.838 134.399C310.222 133.969 309.652 133.475 309.128 132.925C308.603 132.375 308.132 131.778 307.722 131.133C307.312 130.487 306.962 129.81 306.673 129.085C306.392 128.369 306.179 127.628 306.035 126.871C305.89 126.106 305.814 125.342 305.814 124.561C305.814 123.788 305.89 123.016 306.035 122.251C306.179 121.494 306.392 120.753 306.673 120.036C306.962 119.319 307.312 118.634 307.722 117.989C308.132 117.344 308.603 116.746 309.128 116.197C309.652 115.647 310.222 115.153 310.838 114.723C311.453 114.293 312.107 113.927 312.791 113.632C313.475 113.329 314.181 113.106 314.911 112.955C315.633 112.803 316.37 112.732 317.107 112.732C317.852 112.732 318.589 112.803 319.311 112.955C320.04 113.106 320.747 113.329 321.431 113.632C322.115 113.927 322.769 114.293 323.384 114.723C324 115.153 324.57 115.647 325.094 116.197C325.618 116.746 326.089 117.344 326.5 117.989C326.91 118.634 327.26 119.319 327.541 120.036C327.83 120.753 328.042 121.494 328.187 122.251C328.331 123.016 328.407 123.788 328.407 124.561Z" fill="#4059CB"/>
<path d="M340.019 174.013C340.019 174.794 339.95 175.558 339.806 176.323C339.662 177.088 339.441 177.829 339.16 178.546C338.879 179.263 338.529 179.94 338.119 180.593C337.709 181.238 337.237 181.835 336.713 182.385C336.189 182.935 335.619 183.421 335.003 183.851C334.388 184.289 333.734 184.647 333.05 184.95C332.366 185.245 331.659 185.468 330.93 185.619C330.2 185.771 329.471 185.85 328.726 185.85C327.989 185.85 327.252 185.771 326.522 185.619C325.793 185.468 325.094 185.245 324.402 184.95C323.718 184.647 323.072 184.289 322.449 183.851C321.834 183.421 321.264 182.935 320.739 182.385C320.215 181.835 319.751 181.238 319.333 180.593C318.923 179.94 318.573 179.263 318.292 178.546C318.011 177.829 317.798 177.088 317.654 176.323C317.51 175.558 317.434 174.794 317.434 174.013C317.434 173.24 317.51 172.468 317.654 171.711C317.798 170.946 318.011 170.205 318.292 169.488C318.573 168.772 318.923 168.086 319.333 167.441C319.751 166.796 320.215 166.199 320.739 165.649C321.264 165.099 321.834 164.605 322.449 164.175C323.072 163.745 323.718 163.379 324.402 163.084C325.094 162.789 325.793 162.566 326.522 162.415C327.252 162.256 327.989 162.184 328.726 162.184C329.471 162.184 330.2 162.256 330.93 162.415C331.659 162.566 332.366 162.789 333.05 163.084C333.734 163.379 334.388 163.745 335.003 164.175C335.619 164.605 336.189 165.099 336.713 165.649C337.237 166.199 337.709 166.796 338.119 167.441C338.529 168.086 338.879 168.772 339.16 169.488C339.441 170.205 339.662 170.946 339.806 171.711C339.95 172.468 340.019 173.24 340.019 174.013Z" fill="#FD871B"/>
<path d="M328.048 121.725L305.873 125.453L309.961 155.771L336.255 148.012L328.048 121.725Z" fill="#4059CB"/>
<path d="M348.962 110.636L334.197 106.566L318.018 168.532L339.812 174.785L348.962 110.636Z" fill="#FD871B"/>
<path d="M340.251 171.551C340.251 172.324 340.183 173.097 340.038 173.861C339.894 174.618 339.674 175.359 339.392 176.076C339.111 176.793 338.762 177.478 338.351 178.123C337.933 178.768 337.47 179.366 336.945 179.915C336.421 180.465 335.851 180.959 335.236 181.389C334.62 181.819 333.967 182.186 333.283 182.48C332.599 182.775 331.892 183.006 331.162 183.158C330.433 183.309 329.703 183.381 328.959 183.381C328.214 183.381 327.484 183.309 326.755 183.158C326.025 183.006 325.326 182.775 324.635 182.48C323.951 182.186 323.305 181.819 322.682 181.389C322.066 180.959 321.496 180.465 320.972 179.915C320.447 179.366 319.984 178.768 319.566 178.123C319.155 177.478 318.806 176.793 318.525 176.076C318.244 175.359 318.031 174.618 317.886 173.861C317.734 173.097 317.666 172.324 317.666 171.551C317.666 170.771 317.734 170.006 317.886 169.241C318.031 168.477 318.244 167.744 318.525 167.019C318.806 166.302 319.155 165.625 319.566 164.98C319.984 164.334 320.447 163.737 320.972 163.187C321.496 162.638 322.066 162.144 322.682 161.714C323.305 161.283 323.951 160.917 324.635 160.622C325.326 160.32 326.025 160.097 326.755 159.945C327.484 159.794 328.214 159.722 328.959 159.722C329.703 159.722 330.433 159.794 331.162 159.945C331.892 160.097 332.599 160.32 333.283 160.622C333.967 160.917 334.62 161.283 335.236 161.714C335.851 162.144 336.421 162.638 336.945 163.187C337.47 163.737 337.933 164.334 338.351 164.98C338.762 165.625 339.111 166.302 339.392 167.019C339.674 167.744 339.894 168.477 340.038 169.241C340.183 170.006 340.251 170.771 340.251 171.551Z" fill="#FD871B"/>
<path d="M354.784 97.4774C354.579 97.7244 354.374 97.9076 354.138 98.0589C353.902 98.2501 353.667 98.4014 353.431 98.5289C353.196 98.6484 352.93 98.7997 352.664 98.8953C352.398 98.9909 352.139 99.0785 351.843 99.1423C351.721 99.1741 351.607 99.0785 351.607 98.9591C351.607 98.8953 351.607 98.8316 351.668 98.7679C351.873 98.5289 352.079 98.3696 352.314 98.1864C352.55 98.0032 352.785 97.8757 353.021 97.7244C353.287 97.5969 353.522 97.4774 353.781 97.3818C354.047 97.2942 354.313 97.1986 354.609 97.1667C354.693 97.1667 354.784 97.2305 354.814 97.3261C354.845 97.3818 354.814 97.4456 354.784 97.4774Z" fill="#141623"/>
<path d="M354.989 102.934C354.875 103.117 354.723 103.269 354.579 103.428C354.434 103.579 354.252 103.667 354.108 103.795C353.933 103.89 353.751 103.978 353.576 104.041C353.401 104.105 353.196 104.161 352.96 104.161C352.846 104.161 352.725 104.073 352.725 103.946C352.725 103.89 352.725 103.858 352.755 103.826C352.869 103.643 353.021 103.484 353.165 103.332C353.31 103.181 353.492 103.086 353.637 102.99C353.811 102.902 353.986 102.807 354.168 102.743C354.343 102.687 354.548 102.624 354.784 102.624C354.898 102.624 354.989 102.719 354.989 102.807C355.02 102.87 355.02 102.902 354.989 102.934Z" fill="#141623"/>
<path d="M333.756 91.9891C336.051 93.0724 338.369 94.1159 340.725 94.9205C341.903 95.263 343.134 95.7808 344.198 95.4144C345.345 95.0718 346.516 94.5222 347.663 94.0283C349.988 93.0087 352.253 91.8696 354.518 90.7623L361.372 87.4326C361.456 87.3689 361.577 87.4326 361.638 87.5282C361.691 87.6158 361.638 87.7433 361.547 87.7991C359.343 89.0975 357.109 90.3322 354.875 91.5032C352.61 92.6741 350.346 93.8132 348.02 94.8568C346.842 95.3506 345.695 95.8764 344.403 96.2428C344.251 96.3065 344.046 96.3065 343.871 96.3384C343.696 96.3703 343.521 96.4021 343.347 96.3703C342.99 96.3703 342.663 96.2747 342.344 96.2109C341.698 96.0596 341.082 95.8445 340.489 95.6294C338.111 94.7054 335.816 93.5344 333.612 92.2679C333.521 92.2121 333.49 92.1165 333.551 92.0209C333.582 91.9891 333.696 91.9652 333.756 91.9891Z" fill="#141623"/>
<path d="M322.494 152.171C322.312 153.278 322.076 154.385 321.848 155.501C321.612 156.608 321.346 157.683 321.05 158.791C320.754 159.874 320.465 160.981 320.138 162.065C319.811 163.14 319.492 164.215 319.112 165.267C319.082 165.386 318.96 165.418 318.846 165.386C318.755 165.354 318.694 165.267 318.725 165.171C318.907 164.064 319.135 162.957 319.401 161.841C319.637 160.734 319.933 159.659 320.199 158.575C320.488 157.5 320.784 156.393 321.111 155.341C321.43 154.266 321.757 153.183 322.167 152.139C322.198 152.044 322.289 152.02 322.372 152.044C322.464 152.02 322.494 152.107 322.494 152.171Z" fill="#141623"/>
<path d="M341.636 163.171C340.047 166.836 338.345 170.412 336.757 174.077C335.929 175.893 335.169 177.709 334.462 179.565C334.105 180.489 333.786 181.413 333.634 182.369C333.489 183.317 333.52 184.305 333.694 185.261C333.725 185.388 333.634 185.476 333.52 185.508C333.428 185.539 333.314 185.476 333.284 185.356C332.988 184.337 332.904 183.317 332.988 182.273C333.079 181.222 333.398 180.242 333.694 179.286C334.34 177.374 335.138 175.526 335.929 173.678C336.757 171.862 337.608 170.038 338.52 168.285C339.432 166.501 340.344 164.741 341.339 163.012C341.4 162.925 341.491 162.893 341.575 162.956C341.636 162.988 341.666 163.108 341.636 163.171Z" fill="#141623"/>
<path d="M318.256 158.639C318.408 157.595 318.757 156.608 319.35 155.716C319.609 155.254 319.966 154.847 320.346 154.513C320.726 154.138 321.174 153.867 321.638 153.621C321.85 153.493 322.109 153.589 322.23 153.804C322.291 153.891 322.291 154.019 322.261 154.138V154.17C321.995 155.126 321.759 156.082 321.463 157.006C321.174 157.93 320.878 158.886 320.551 159.81C320.52 159.906 320.406 159.961 320.285 159.937C320.201 159.906 320.14 159.81 320.171 159.722C320.315 158.735 320.52 157.779 320.726 156.823C320.938 155.867 321.174 154.911 321.432 153.955L322.056 154.481C321.668 154.696 321.258 154.911 320.938 155.222C320.581 155.5 320.285 155.835 319.996 156.209C319.434 156.942 318.963 157.811 318.643 158.735C318.613 158.822 318.522 158.854 318.438 158.822C318.286 158.79 318.256 158.703 318.256 158.639Z" fill="#141623"/>
<path d="M383.342 153.278C384.163 153.095 385.014 152.944 385.842 152.816C386.663 152.665 387.514 152.569 388.373 152.482C389.224 152.386 390.045 152.322 390.896 152.259C391.755 152.203 392.575 152.171 393.427 152.203C393.548 152.203 393.632 152.29 393.632 152.418C393.632 152.506 393.579 152.601 393.487 152.601C392.667 152.784 391.808 152.944 390.987 153.063C390.166 153.183 389.308 153.278 388.457 153.374C387.606 153.461 386.785 153.525 385.926 153.557C385.075 153.589 384.254 153.621 383.395 153.621C383.312 153.621 383.221 153.525 383.221 153.43C383.221 153.374 383.281 153.31 383.342 153.278Z" fill="#141623"/>
<path d="M390.575 150.41C389.367 150.968 388.159 151.43 386.958 151.924C386.365 152.17 385.75 152.417 385.195 152.696C384.602 152.967 384.048 153.246 383.485 153.588C383.394 153.652 383.28 153.62 383.219 153.525C383.166 153.429 383.189 153.341 383.25 153.278C383.69 152.72 384.283 152.322 384.868 151.955C385.453 151.581 386.077 151.31 386.692 151.063C387.308 150.816 387.954 150.601 388.6 150.442C389.253 150.291 389.899 150.139 390.575 150.075C390.659 150.075 390.75 150.139 390.75 150.227C390.689 150.322 390.659 150.386 390.575 150.41Z" fill="#141623"/>
<path d="M371.374 113.282C373.403 115.377 375.311 117.568 377.051 119.942C377.932 121.113 378.753 122.347 379.49 123.606C380.227 124.904 380.926 126.195 381.398 127.676C381.838 129.15 381.99 130.664 382.104 132.145C382.195 133.651 382.226 135.132 382.135 136.606C382.021 139.601 381.694 142.557 381.223 145.48C381.192 145.608 381.109 145.671 380.987 145.671C380.873 145.639 380.812 145.544 380.812 145.424C380.957 143.943 381.078 142.493 381.162 141.019C381.253 139.538 381.344 138.056 381.344 136.606C381.367 133.683 381.314 130.696 380.546 127.955C380.136 126.593 379.49 125.303 378.783 124.036C378.077 122.778 377.256 121.575 376.428 120.404C375.607 119.201 374.725 118.062 373.844 116.923C372.962 115.784 372.05 114.644 371.108 113.529C371.047 113.473 371.047 113.346 371.108 113.282C371.192 113.227 371.313 113.227 371.374 113.282Z" fill="#141623"/>
<path d="M346.515 184.711C346.606 184.894 346.637 185.109 346.667 185.293C346.697 185.476 346.728 185.659 346.728 185.85C346.728 186.033 346.751 186.217 346.728 186.4C346.728 186.591 346.697 186.774 346.667 186.989V187.021C346.637 187.141 346.515 187.204 346.401 187.172C346.371 187.172 346.31 187.141 346.287 187.109C345.991 186.774 345.869 186.344 345.869 185.906C345.869 185.691 345.869 185.476 345.93 185.293C345.991 185.077 346.052 184.894 346.196 184.711C346.257 184.615 346.371 184.615 346.462 184.679C346.492 184.615 346.515 184.647 346.515 184.711Z" fill="#141623"/>
<path d="M342.878 186.496C342.962 186.679 342.992 186.894 343.023 187.077C343.053 187.268 343.083 187.452 343.083 187.635C343.083 187.818 343.114 188.001 343.083 188.192C343.083 188.376 343.053 188.559 343.023 188.774V188.806C342.992 188.925 342.878 188.989 342.757 188.957C342.726 188.957 342.665 188.925 342.643 188.901C342.346 188.559 342.225 188.129 342.225 187.699C342.225 187.483 342.225 187.268 342.285 187.077C342.346 186.862 342.407 186.679 342.551 186.496C342.612 186.4 342.726 186.4 342.817 186.464C342.848 186.432 342.848 186.432 342.878 186.496Z" fill="#141623"/>
<path d="M338.605 186.033C338.696 186.217 338.727 186.432 338.757 186.615C338.787 186.806 338.818 186.989 338.818 187.172C338.818 187.356 338.841 187.539 338.818 187.73C338.818 187.913 338.787 188.096 338.757 188.312V188.343C338.727 188.463 338.605 188.527 338.491 188.495C338.461 188.495 338.4 188.463 338.369 188.439C338.081 188.096 337.959 187.666 337.959 187.236C337.959 187.021 337.959 186.806 338.02 186.615C338.081 186.4 338.141 186.217 338.286 186.033C338.347 185.938 338.461 185.938 338.552 186.001C338.582 185.97 338.582 186.001 338.605 186.033Z" fill="#141623"/>
<path d="M351.433 170.317C351.486 170.691 351.517 171.057 351.517 171.4C351.517 171.766 351.517 172.109 351.486 172.475C351.464 172.842 351.403 173.184 351.342 173.519C351.281 173.861 351.198 174.228 351.046 174.57C350.992 174.69 350.871 174.722 350.787 174.69C350.726 174.666 350.666 174.602 350.666 174.538C350.605 174.172 350.582 173.798 350.582 173.463C350.582 173.089 350.605 172.754 350.635 172.38C350.666 172.013 350.726 171.671 350.81 171.336C350.901 170.994 350.992 170.627 351.106 170.285C351.137 170.197 351.258 170.165 351.342 170.197C351.403 170.229 351.433 170.285 351.433 170.317Z" fill="#141623"/>
<path d="M399.839 202.73C398.57 203.933 397.134 204.825 395.66 205.661C394.9 206.028 394.193 206.49 393.426 206.8L391.1 207.82C390.31 208.091 389.512 208.37 388.722 208.648L387.544 209.047L386.335 209.357L383.896 210.003C383.106 210.218 382.255 210.313 381.457 210.496L378.987 210.958C378.166 211.11 377.338 211.142 376.517 211.269C374.868 211.42 373.196 211.699 371.547 211.699L366.547 211.882L361.546 211.763C360.726 211.731 359.867 211.731 359.046 211.667L356.577 211.452L351.607 210.99L346.667 210.249C345.018 209.971 343.369 209.819 341.758 209.453C338.49 208.744 335.222 208.123 331.993 207.358L322.342 204.769C322.228 204.737 322.167 204.61 322.197 204.522C322.228 204.395 322.311 204.339 322.433 204.363L332.107 206.673C335.344 207.414 338.604 207.971 341.872 208.617C345.14 209.174 348.43 209.604 351.698 210.066L359.107 210.712C359.928 210.775 360.756 210.775 361.577 210.807L366.516 210.958L371.456 210.807C373.105 210.807 374.754 210.56 376.396 210.409C377.224 210.313 378.045 210.281 378.865 210.13L381.312 209.724C384.572 209.238 387.779 208.314 390.895 207.23L393.19 206.306C393.958 205.996 394.695 205.597 395.424 205.231C396.868 204.458 398.335 203.598 399.573 202.483C399.634 202.427 399.748 202.427 399.809 202.515C399.9 202.547 399.9 202.674 399.839 202.73Z" fill="#141623"/>
<path d="M389.726 203.319C389.931 203.63 390.106 203.964 390.25 204.307C390.402 204.641 390.516 204.984 390.661 205.319C390.782 205.661 390.866 206.027 390.957 206.402C391.048 206.768 391.102 207.143 391.102 207.509C391.102 207.629 391.018 207.724 390.896 207.724C390.843 207.724 390.752 207.692 390.722 207.629C390.516 207.326 390.372 206.983 390.22 206.649C390.076 206.306 389.954 205.972 389.84 205.629C389.749 205.287 389.635 204.92 389.574 204.554C389.513 204.179 389.46 203.813 389.43 203.439C389.43 203.351 389.513 203.255 389.604 203.255C389.665 203.255 389.696 203.287 389.726 203.319Z" fill="#141623"/>
<path d="M391.283 201.686C391.518 202.084 391.693 202.483 391.868 202.889C392.043 203.287 392.195 203.717 392.339 204.116C392.483 204.554 392.605 204.952 392.689 205.414C392.78 205.844 392.871 206.274 392.924 206.736C392.924 206.864 392.841 206.952 392.749 206.952C392.666 206.952 392.605 206.92 392.575 206.864C392.339 206.458 392.164 206.059 391.989 205.661C391.807 205.263 391.663 204.825 391.541 204.395C391.427 203.964 391.283 203.534 391.192 203.104C391.1 202.674 391.017 202.236 390.986 201.774C390.986 201.686 391.047 201.591 391.131 201.591C391.192 201.591 391.252 201.622 391.283 201.686Z" fill="#141623"/>
<path d="M366.076 214.16C365.78 216.662 365.514 219.123 365.195 221.624C364.868 224.118 364.579 226.579 364.222 229.049L363.698 232.777L363.432 234.625L363.28 235.581L363.257 235.7C363.257 235.732 363.257 235.732 363.227 235.796C363.196 235.883 363.136 235.979 363.105 236.011C362.93 236.194 362.809 236.194 362.725 236.258C362.52 236.321 362.368 236.345 362.193 236.377C360.932 236.505 359.754 236.441 358.546 236.377C357.345 236.321 356.167 236.226 354.959 236.106C354.753 236.074 354.609 235.915 354.609 235.7L354.222 229.813L353.902 223.935C353.902 223.807 353.986 223.719 354.077 223.719C354.199 223.719 354.282 223.775 354.282 223.903L354.875 229.758L355.399 235.636L355.05 235.238C356.228 235.334 357.428 235.421 358.606 235.485C359.784 235.549 360.992 235.581 362.11 235.485C362.254 235.453 362.368 235.453 362.459 235.421C362.49 235.421 362.55 235.365 362.459 235.453C362.429 235.485 362.429 235.517 362.398 235.581C362.398 235.612 362.398 235.549 362.398 235.549L362.429 235.453L362.573 234.561L362.87 232.713L363.432 229.017C363.781 226.547 364.161 224.086 364.579 221.593C364.959 219.123 365.37 216.662 365.78 214.192C365.81 214.105 365.871 214.041 365.985 214.041C366.016 213.977 366.076 214.073 366.076 214.16Z" fill="#141623"/>
<path d="M341.463 241.157C344.373 240.782 347.314 240.448 350.255 240.169L359.047 239.309L367.84 238.568C370.781 238.353 373.722 238.138 376.663 237.979C376.784 237.979 376.868 238.074 376.868 238.17C376.868 238.289 376.815 238.385 376.693 238.385C373.782 238.751 370.841 239.062 367.901 239.373L359.108 240.201L350.316 240.91C347.375 241.125 344.434 241.308 341.493 241.468C341.402 241.468 341.311 241.404 341.311 241.308C341.311 241.244 341.371 241.189 341.463 241.157Z" fill="#141623"/>
<path d="M347.079 243.372C348.523 242.727 349.959 242.081 351.403 241.492C352.847 240.878 354.283 240.265 355.757 239.676C355.788 239.676 355.841 239.644 355.871 239.644C357.581 239.492 359.314 239.309 361.016 239.15C361.046 239.15 361.077 239.15 361.107 239.15C363.136 239.492 365.135 239.803 367.164 240.201C369.193 240.568 371.191 240.942 373.198 241.372C373.312 241.404 373.372 241.492 373.342 241.619C373.312 241.715 373.22 241.803 373.137 241.771C371.108 241.556 369.079 241.277 367.05 240.974C365.021 240.695 362.992 240.353 360.993 240.05H361.077C359.375 240.201 357.634 240.321 355.902 240.48L356.016 240.448C354.549 241.03 353.075 241.556 351.608 242.113C350.134 242.663 348.667 243.189 347.17 243.682C347.079 243.714 346.988 243.651 346.965 243.563C346.965 243.499 346.988 243.404 347.079 243.372Z" fill="#141623"/>
<path d="M387.249 208.616C387.431 209.325 387.667 210.034 387.986 210.679C388.138 211.022 388.313 211.333 388.457 211.667C388.632 211.978 388.814 212.281 389.019 212.591C389.779 213.794 390.721 214.901 391.869 215.706C392.986 216.502 394.255 217.188 395.608 217.522L396.102 217.673L396.634 217.769L397.66 217.952C398.366 218.048 399.073 218.08 399.78 218.135H399.81C399.924 218.135 399.985 218.263 399.985 218.351C399.985 218.446 399.901 218.542 399.81 218.542C399.073 218.574 398.366 218.597 397.637 218.597L396.543 218.478L395.988 218.414L395.456 218.295C395.106 218.199 394.749 218.112 394.369 218.016L393.343 217.586C392.986 217.458 392.667 217.243 392.34 217.06C392.013 216.845 391.694 216.694 391.398 216.447C390.19 215.523 389.164 214.352 388.427 213.021C387.689 211.699 387.195 210.217 386.99 208.68C386.99 208.584 387.043 208.497 387.135 208.497C387.165 208.465 387.226 208.529 387.249 208.616Z" fill="#141623"/>
<path d="M322.403 217.307C323.11 217.307 323.817 217.275 324.493 217.156C324.843 217.092 325.169 217.028 325.519 216.965C325.846 216.877 326.195 216.781 326.522 216.694C327.844 216.256 329.106 215.611 330.139 214.686C331.196 213.794 332.138 212.719 332.845 211.452L333.141 210.99L333.377 210.496L333.84 209.509C334.137 208.832 334.342 208.123 334.608 207.446V207.414C334.638 207.326 334.752 207.262 334.874 207.294C334.965 207.326 335.018 207.446 334.988 207.541C334.813 208.282 334.669 209.015 334.433 209.756L334.023 210.839L333.817 211.357L333.551 211.851C333.377 212.193 333.194 212.528 332.989 212.87L332.313 213.794C332.108 214.105 331.842 214.384 331.553 214.655C331.287 214.933 331.021 215.212 330.725 215.427C329.547 216.383 328.194 217.092 326.758 217.459C325.314 217.833 323.847 217.952 322.373 217.706C322.289 217.706 322.229 217.618 322.229 217.522C322.229 217.371 322.289 217.307 322.403 217.307Z" fill="#141623"/>
<path d="M282.756 428.25C284.139 428.895 285.553 429.452 286.997 429.914C287.696 430.161 288.433 430.376 289.17 430.591L291.374 431.173C294.315 431.882 297.316 432.344 300.318 432.44C301.815 432.559 303.312 432.471 304.817 432.44C305.554 432.376 306.314 432.288 307.051 432.224C307.431 432.193 307.788 432.161 308.168 432.097L309.285 431.882C310.022 431.731 310.782 431.635 311.519 431.452L313.7 430.838C314.05 430.743 314.43 430.655 314.787 430.528L315.843 430.129L317.994 429.325H318.017C318.138 429.293 318.23 429.357 318.283 429.452C318.313 429.54 318.283 429.667 318.169 429.699C315.372 430.958 312.492 432.129 309.46 432.655L308.343 432.902C307.963 432.965 307.583 432.997 307.195 433.053C306.436 433.148 305.668 433.244 304.9 433.3C303.373 433.364 301.846 433.459 300.318 433.332C297.256 433.148 294.201 432.718 291.229 431.882C288.258 431.085 285.378 429.978 282.673 428.496C282.581 428.465 282.551 428.345 282.612 428.25C282.581 428.25 282.673 428.218 282.756 428.25Z" fill="#141623"/>
<path d="M361.016 432.87C362.346 433.794 363.752 434.63 365.165 435.427C366.579 436.231 367.992 436.996 369.459 437.705C372.339 439.123 375.341 440.326 378.426 441.13C381.489 442.022 384.665 442.301 387.781 441.656C389.308 441.345 390.843 440.82 392.249 440.111C393.663 439.402 395.076 438.541 396.254 437.458C396.338 437.402 396.459 437.402 396.543 437.49C396.604 437.585 396.604 437.705 396.543 437.769C394.164 440.111 391.162 441.712 387.956 442.453C384.749 443.225 381.344 442.915 378.221 442.022C375.075 441.13 372.05 439.927 369.162 438.382C366.252 436.876 363.486 435.148 360.872 433.149C360.78 433.085 360.78 432.997 360.841 432.902C360.841 432.838 360.963 432.806 361.016 432.87Z" fill="#141623"/>
<path d="M532.949 51.6257H516.975L440.891 500.068H456.864L532.949 51.6257Z" fill="#FFA300"/>
<path d="M516.711 51.6267H532.685L558.211 500.069H542.237L516.711 51.6267Z" fill="#FFA300"/>
<path d="M523.094 65.033H541.712L617.971 500.069H599.353L523.094 65.033Z" fill="#FFA300"/>
<path d="M606.352 375.253H410.312L434.159 88.1733H630.236L606.352 375.253Z" fill="#F1DBCE"/>
<path d="M609.848 131.062H441.068C440.832 131.062 440.627 130.847 440.627 130.6C440.627 130.353 440.832 130.138 441.068 130.138H609.848C610.084 130.138 610.289 130.353 610.289 130.6C610.289 130.879 610.084 131.062 609.848 131.062Z" fill="#141623"/>
<path d="M607.462 163.665H438.681C438.445 163.665 438.24 163.45 438.24 163.203C438.24 162.956 438.445 162.741 438.681 162.741H607.462C607.697 162.741 607.902 162.956 607.902 163.203C607.902 163.45 607.697 163.665 607.462 163.665Z" fill="#141623"/>
<path d="M605.12 196.23H436.339C436.103 196.23 435.891 196.015 435.891 195.768C435.891 195.521 436.103 195.306 436.339 195.306H605.12C605.355 195.306 605.56 195.521 605.56 195.768C605.56 196.015 605.355 196.23 605.12 196.23Z" fill="#141623"/>
<path d="M602.733 228.833H433.952C433.717 228.833 433.512 228.618 433.512 228.371C433.512 228.124 433.717 227.909 433.952 227.909H602.733C602.969 227.909 603.174 228.124 603.174 228.371C603.174 228.618 602.999 228.833 602.733 228.833Z" fill="#141623"/>
<path d="M600.385 261.398H431.597C431.361 261.398 431.156 261.183 431.156 260.936C431.156 260.689 431.361 260.474 431.597 260.474H600.385C600.613 260.474 600.826 260.689 600.826 260.936C600.826 261.183 600.613 261.398 600.385 261.398Z" fill="#141623"/>
<path d="M598.035 293.97H429.224C428.988 293.97 428.783 293.755 428.783 293.508C428.783 293.261 428.988 293.046 429.224 293.046H598.005C598.24 293.046 598.445 293.261 598.445 293.508C598.445 293.786 598.271 293.97 598.035 293.97Z" fill="#141623"/>
<path d="M595.649 326.566H426.868C426.633 326.566 426.428 326.351 426.428 326.104C426.428 325.857 426.633 325.642 426.868 325.642H595.649C595.885 325.642 596.09 325.857 596.09 326.104C596.09 326.351 595.885 326.566 595.649 326.566Z" fill="#141623"/>
<path d="M583.324 339.446H583.293C583.058 339.414 582.883 339.199 582.883 338.952L599.024 116.611C599.054 116.364 599.259 116.181 599.495 116.181C599.73 116.213 599.913 116.428 599.913 116.675L583.764 339.016C583.734 339.263 583.559 339.446 583.324 339.446Z" fill="#141623"/>
<path d="M559.437 339.447H559.414C559.178 339.415 558.996 339.2 558.996 338.953L575.145 116.612C575.175 116.365 575.38 116.181 575.616 116.181C575.851 116.213 576.026 116.428 576.026 116.675L559.878 339.017C559.878 339.264 559.672 339.447 559.437 339.447Z" fill="#141623"/>
<path d="M535.589 339.446H535.559C535.323 339.414 535.148 339.199 535.148 338.952L551.289 116.611C551.32 116.364 551.525 116.181 551.761 116.181C551.996 116.213 552.178 116.428 552.178 116.675L536.03 339.016C536 339.263 535.825 339.446 535.589 339.446Z" fill="#141623"/>
<path d="M511.712 339.447H511.689C511.454 339.415 511.271 339.2 511.271 338.953L527.42 116.611C527.45 116.364 527.656 116.181 527.891 116.181C528.127 116.213 528.302 116.428 528.302 116.675L512.153 339.016C512.153 339.263 511.948 339.447 511.712 339.447Z" fill="#141623"/>
<path d="M487.868 339.447H487.838C487.603 339.415 487.428 339.2 487.428 338.953L503.569 116.612C503.599 116.365 503.804 116.182 504.04 116.182C504.275 116.214 504.45 116.429 504.45 116.676L488.309 339.017C488.279 339.264 488.104 339.447 487.868 339.447Z" fill="#141623"/>
<path d="M463.986 339.446H463.955C463.727 339.414 463.545 339.199 463.545 338.952L479.693 116.611C479.724 116.364 479.929 116.181 480.165 116.181C480.4 116.213 480.575 116.428 480.575 116.675L464.426 339.016C464.426 339.263 464.221 339.446 463.986 339.446Z" fill="#141623"/>
<path d="M493.449 136.087H463.979L449.244 338.984H478.745L493.449 136.087Z" fill="#4059CB"/>
<path d="M535.471 214.87H505.978L496.98 338.985H526.473L535.471 214.87Z" fill="#FFA300"/>
<path d="M544.711 338.985H574.204L577.266 296.591H547.796L544.711 338.985Z" fill="#FD871B"/>
<path d="M440.13 339.446H440.1C439.864 339.414 439.689 339.199 439.689 338.952L455.83 116.611C455.861 116.364 456.066 116.181 456.302 116.181C456.537 116.213 456.712 116.428 456.712 116.675L440.571 339.016C440.541 339.263 440.335 339.446 440.13 339.446Z" fill="#141623"/>
<path d="M594.709 339.447H425.929C425.807 339.447 425.693 339.383 425.602 339.295C425.511 339.2 425.48 339.08 425.48 338.953L441.629 116.612C441.659 116.365 441.834 116.181 442.07 116.181H610.85C610.972 116.181 611.086 116.245 611.177 116.333C611.261 116.428 611.291 116.548 611.291 116.675L595.15 339.017C595.15 339.264 594.945 339.447 594.709 339.447ZM426.392 338.523H594.291L610.379 117.105H442.48L426.392 338.523Z" fill="#141623"/>
<path d="M445.604 131.061H436.515C436.279 131.061 436.074 130.846 436.074 130.599C436.074 130.352 436.279 130.137 436.515 130.137H445.604C445.839 130.137 446.045 130.352 446.045 130.599C446.045 130.878 445.839 131.061 445.604 131.061Z" fill="#141623"/>
<path d="M443.246 163.665H434.158C433.922 163.665 433.717 163.45 433.717 163.203C433.717 162.956 433.922 162.741 434.158 162.741H443.246C443.482 162.741 443.687 162.956 443.687 163.203C443.687 163.45 443.482 163.665 443.246 163.665Z" fill="#141623"/>
<path d="M440.869 196.23H431.781C431.545 196.23 431.34 196.015 431.34 195.768C431.34 195.521 431.545 195.306 431.781 195.306H440.869C441.097 195.306 441.31 195.521 441.31 195.768C441.31 196.015 441.128 196.23 440.869 196.23Z" fill="#141623"/>
<path d="M438.512 228.833H429.423C429.188 228.833 428.982 228.618 428.982 228.371C428.982 228.124 429.188 227.909 429.423 227.909H438.512C438.748 227.909 438.953 228.124 438.953 228.371C438.953 228.618 438.748 228.833 438.512 228.833Z" fill="#141623"/>
<path d="M436.158 261.398H427.07C426.842 261.398 426.629 261.183 426.629 260.936C426.629 260.689 426.842 260.474 427.07 260.474H436.158C436.394 260.474 436.599 260.689 436.599 260.936C436.569 261.183 436.394 261.398 436.158 261.398Z" fill="#141623"/>
<path d="M433.778 293.97H424.689C424.453 293.97 424.248 293.755 424.248 293.508C424.248 293.261 424.453 293.046 424.689 293.046H433.778C434.013 293.046 434.218 293.261 434.218 293.508C434.218 293.786 434.013 293.97 433.778 293.97Z" fill="#141623"/>
<path d="M431.42 326.566H422.331C422.096 326.566 421.891 326.351 421.891 326.104C421.891 325.857 422.096 325.642 422.331 325.642H431.42C431.656 325.642 431.861 325.857 431.861 326.104C431.861 326.351 431.656 326.566 431.42 326.566Z" fill="#141623"/>
<path d="M582.97 344.226H582.947C582.712 344.195 582.529 343.979 582.529 343.733L583.236 334.213C583.266 333.966 583.472 333.743 583.707 333.775C583.943 333.807 584.118 334.022 584.118 334.269L583.418 343.788C583.388 344.035 583.206 344.226 582.97 344.226Z" fill="#141623"/>
<path d="M559.122 344.226H559.092C558.856 344.195 558.682 343.979 558.682 343.733L559.388 334.213C559.419 333.966 559.624 333.743 559.86 333.775C560.095 333.807 560.27 334.022 560.27 334.269L559.563 343.788C559.533 344.035 559.328 344.226 559.122 344.226Z" fill="#141623"/>
<path d="M535.238 344.226H535.215C534.979 344.195 534.797 343.979 534.797 343.733L535.504 334.213C535.534 333.966 535.739 333.743 535.975 333.775C536.21 333.807 536.385 334.022 536.385 334.269L535.678 343.788C535.656 344.035 535.473 344.226 535.238 344.226Z" fill="#141623"/>
<path d="M511.392 344.226H511.362C511.126 344.195 510.951 343.979 510.951 343.733L511.658 334.213C511.688 333.966 511.893 333.743 512.129 333.775C512.365 333.807 512.539 334.022 512.539 334.269L511.833 343.788C511.802 344.035 511.597 344.226 511.392 344.226Z" fill="#141623"/>
<path d="M487.505 344.226H487.475C487.247 344.195 487.064 343.979 487.064 343.733L487.771 334.213C487.802 333.966 488.007 333.743 488.242 333.775C488.478 333.807 488.653 334.022 488.653 334.269L487.946 343.788C487.923 344.035 487.741 344.226 487.505 344.226Z" fill="#141623"/>
<path d="M463.661 344.226H463.631C463.395 344.195 463.221 343.979 463.221 343.733L463.927 334.213C463.95 333.966 464.163 333.743 464.399 333.775C464.627 333.807 464.809 334.022 464.809 334.269L464.102 343.788C464.072 344.035 463.867 344.226 463.661 344.226Z" fill="#141623"/>
<path d="M439.773 344.226H439.742C439.507 344.194 439.332 343.979 439.332 343.732L440.039 334.213C440.069 333.966 440.305 333.775 440.51 333.775C440.746 333.807 440.92 334.022 440.92 334.269L440.214 343.788C440.183 344.035 440.008 344.226 439.773 344.226Z" fill="#141623"/>
<path d="M499.738 80.1282H557.645V88.1736H499.738V80.1282Z" fill="#FFA300"/>
<path d="M399.719 367.207H614.384V379.475H399.719V367.207Z" fill="#FFA300"/>
<path d="M477.334 379.443L474.689 394.474H458.807L461.368 379.443H477.334ZM535.453 379.443L536.213 394.474H552.187L551.419 379.443H535.453ZM578.215 379.443L580.859 394.474H599.477L596.825 379.443H578.215ZM533.569 65.8931L543.151 80.0961H535.598L533.569 65.8931ZM557.651 93.16H505.482L499.744 88.1415H564.095L557.651 93.16Z" fill="#141623"/>
<path d="M499.738 80.1279H557.645M533.441 65.0327L535.592 80.096" stroke="#141623" stroke-width="0.156318" stroke-miterlimit="10" stroke-linecap="round" stroke-linejoin="round"/>
<path d="M597.765 130.599H584.443C576.623 146.348 574.176 150.904 573.234 153.246H573.151C572.353 150.108 570.916 146.929 565.536 130.599H551.713L564.153 159.595H554.677L554.152 166.469H565.384L564.974 171.639H553.742L553.21 178.514H564.442L563.089 195.768H575.499L576.851 178.514H588.357L588.881 171.639H577.383L577.794 166.469H589.299L589.823 159.595H580.21L597.765 130.599Z" fill="#FD871B"/>
</svg>
