<svg width="134" height="102" viewBox="0 0 134 102" fill="none" xmlns="http://www.w3.org/2000/svg">
<path d="M0.00976562 95.0591C0.0732588 95.1384 0.107844 95.2369 0.107844 95.3384C0.107844 95.4399 0.0732588 95.5384 0.00976562 95.6177V95.0591Z" fill="#FAFAFA"/>
<path d="M65.2617 60.0746C65.3059 65.5041 63.3939 70.7687 59.8739 74.9092C59.681 75.1478 59.4652 75.3671 59.2298 75.564C59.0443 75.709 58.8132 75.7834 58.5778 75.7741C58.3423 75.7647 58.1179 75.6721 57.9445 75.5129C57.771 75.3679 57.6617 75.1605 57.6403 74.9356C57.6189 74.7107 57.6871 74.4865 57.8302 74.3115C58.4081 73.4825 59.007 72.6655 59.597 71.8455C61.6218 69.033 62.8384 65.7221 63.1156 62.2702C63.7176 55.4941 61.5745 49.6552 56.7947 44.8194C53.4326 41.4074 49.294 39.4611 44.5232 38.8784C39.1196 38.1923 33.6586 39.6075 29.2724 42.8308C24.8862 46.054 21.9113 50.838 20.9644 56.1909C18.7039 68.4846 27.2853 78.7988 37.7057 80.8022C43.6293 81.9435 49.1435 80.7722 54.137 77.3421C54.4522 77.0718 54.8186 76.8675 55.2145 76.7414C55.4008 76.685 55.6001 76.688 55.7846 76.7499C55.9691 76.8118 56.1296 76.9295 56.2439 77.0868C56.3561 77.261 56.4126 77.4651 56.4062 77.6721C56.3997 77.879 56.3306 78.0792 56.2078 78.2462C55.878 78.6666 55.469 79.0186 55.0038 79.2824C52.3712 81.0132 49.4241 82.2122 46.3292 82.8116C40.8872 83.7847 35.6559 83.1119 30.8039 80.4358C24.4288 76.9066 20.4858 71.4911 18.9869 64.3817C16.4736 52.4605 24.5673 39.8245 37.0465 37.0822C40.6133 36.2983 44.1379 36.5776 47.6626 37.4186C56.6322 39.5572 63.1668 47.2013 64.7922 55.6083C65.0823 57.08 65.2395 58.5748 65.2617 60.0746Z" fill="#FAFAFA"/>
<path d="M46.1391 57.0888C45.6864 57.9464 45.3097 58.8419 45.0134 59.765C44.294 61.7924 43.6288 63.8378 42.8553 65.8442C42.6777 66.3313 42.4454 66.7968 42.163 67.2319C41.561 68.1329 40.658 68.1329 40.056 67.2499C39.6125 66.5385 39.2834 65.7622 39.0808 64.9492C38.6534 63.5675 38.3373 62.1528 37.8106 60.7982C37.6349 60.355 37.4288 59.9245 37.1936 59.5097C37.028 59.2093 36.8926 59.2754 36.7511 59.5097C36.4148 59.989 36.1246 60.4989 35.8842 61.0325C35.4388 62.0177 34.7104 62.3601 33.6478 62.315C32.182 62.252 30.7131 62.315 29.2443 62.315C28.4707 62.3232 27.6986 62.2466 26.9417 62.0868C26.8163 62.0741 26.6989 62.0194 26.6087 61.9316C26.5184 61.8438 26.4608 61.728 26.4451 61.6032C26.3948 61.3827 26.3606 61.1588 26.3427 60.9334C26.3152 60.7056 26.3719 60.4757 26.5021 60.2866C26.6323 60.0975 26.8271 59.9622 27.05 59.9062C27.5451 59.7453 28.065 59.6741 28.5851 59.6959C30.1744 59.6959 31.7626 59.6959 33.3499 59.6959C33.4528 59.708 33.5568 59.6849 33.6448 59.6303C33.7329 59.5758 33.7997 59.493 33.8345 59.3956C34.3191 58.4194 34.8217 57.4523 35.3394 56.4881C35.5421 56.0832 35.7883 55.7015 36.0739 55.3498C36.2635 55.1074 36.5105 54.9159 36.7925 54.7922C37.0746 54.6684 37.383 54.6165 37.6902 54.6409C37.8147 54.6346 37.938 54.6682 38.042 54.7369C38.146 54.8055 38.2252 54.9055 38.2681 55.0224C38.8129 56.2238 39.2162 57.4703 39.6557 58.7107C40.0229 59.747 40.366 60.7952 40.8175 61.8014C40.9137 62.0601 41.0577 62.2985 41.2419 62.5043C41.4851 62.1225 41.6792 61.7118 41.8198 61.2818C42.7078 58.8369 43.5807 56.389 44.4716 53.9441C44.6901 53.3308 44.9641 52.7387 45.2903 52.175C45.3265 52.0988 45.385 52.0354 45.4581 51.993C45.5312 51.9507 45.6154 51.9314 45.6997 51.9377C46.9428 51.9377 46.9428 51.9197 47.5056 53.049C48.3514 54.728 48.8842 56.5272 49.5644 58.2692C49.748 58.7378 49.8142 59.3535 50.1845 59.6208C50.5547 59.8882 51.1356 59.6779 51.6262 59.6779C53.0935 59.6268 54.5624 59.6539 56.0268 59.759C56.1441 59.759 56.2645 59.783 56.3819 59.804C57.2849 59.9692 57.6672 60.576 57.4264 61.483C57.3782 61.6503 57.2847 61.801 57.1562 61.9187C57.0276 62.0363 56.8691 62.1163 56.698 62.1498C56.3623 62.2383 56.0156 62.2778 55.6686 62.267L50.1453 62.321C50.0099 62.321 49.8775 62.321 49.745 62.321C49.3151 62.3523 48.8878 62.2329 48.5366 61.9834C48.1855 61.734 47.9327 61.37 47.8217 60.9544C47.5056 60.0233 47.1354 59.1132 46.7802 58.2001C46.6362 57.7938 46.4189 57.4172 46.1391 57.0888Z" fill="#FAFAFA"/>
<path d="M80.2598 61.2308C80.2598 54.4388 80.2598 47.6487 80.2598 40.8606C80.2598 40.4792 80.3741 40.4011 80.7263 40.4161C81.379 40.4506 82.0331 40.4506 82.6858 40.4161C83.0951 40.3921 83.1463 40.5392 83.1463 40.9027C83.1343 45.9607 83.1343 51.0197 83.1463 56.0797C83.1463 64.5978 83.1463 73.118 83.1463 81.6401C83.1463 82.0035 83.056 82.1056 82.6948 82.0876C82.0146 82.0576 81.3343 82.0606 80.6541 82.0876C80.323 82.1026 80.2628 81.9855 80.2628 81.6851C80.2648 74.857 80.2638 68.0389 80.2598 61.2308Z" fill="#FAFAFA"/>
<path d="M103.617 48.6734C103.398 49.232 103.178 49.7696 102.979 50.3162C102.648 51.2373 102.327 52.1643 102.016 53.0973C101.932 53.3466 101.817 53.4668 101.534 53.4487C101.149 53.4262 100.762 53.4262 100.376 53.4487C100.315 53.4595 100.253 53.4583 100.193 53.4451C100.133 53.4319 100.076 53.407 100.026 53.3719C99.9757 53.3367 99.9328 53.292 99.8999 53.2402C99.8669 53.1885 99.8445 53.1307 99.834 53.0703C99.3705 51.7158 98.8739 50.3673 98.3773 49.0308C98.3381 48.9227 98.3381 48.7034 98.1786 48.7304C98.0191 48.7575 98.1094 48.9557 98.1244 49.0758C98.3562 51.037 98.2629 53.0072 98.2839 54.9745C98.2839 55.1997 98.1906 55.2748 97.983 55.2748C97.4613 55.2628 96.9406 55.2628 96.4209 55.2748C96.1831 55.2748 96.0898 55.1967 96.0898 54.9504C96.0898 51.9831 96.0898 49.0148 96.0898 46.0454C96.0898 45.7451 96.2042 45.676 96.4721 45.682C97.2335 45.682 97.995 45.703 98.7535 45.682C98.8146 45.6722 98.877 45.6745 98.9372 45.6888C98.9974 45.7031 99.0541 45.7292 99.1042 45.7655C99.1543 45.8017 99.1966 45.8475 99.2289 45.9002C99.2612 45.9529 99.2827 46.0114 99.2922 46.0725C99.7617 47.6342 100.379 49.1479 100.815 50.7217C100.839 50.8118 100.839 50.9109 100.954 50.9589C101.107 50.8448 101.098 50.6586 101.137 50.4994C101.525 48.9377 102.17 47.46 102.642 45.9283C102.661 45.8508 102.708 45.783 102.774 45.7386C102.841 45.6941 102.921 45.676 103 45.688C103.813 45.688 104.625 45.688 105.441 45.688C105.706 45.688 105.784 45.8022 105.784 46.0514C105.784 49.0068 105.784 51.9621 105.784 54.9174C105.784 55.1967 105.682 55.2928 105.408 55.2808C104.914 55.2808 104.418 55.2628 103.927 55.2808C103.653 55.2808 103.581 55.1787 103.584 54.9294C103.611 52.9232 103.509 50.9109 103.738 48.9227C103.744 48.8386 103.75 48.7725 103.617 48.6734Z" fill="#FAFAFA"/>
<path d="M112.664 72.7521C112.664 73.6531 112.692 74.5361 112.664 75.4251C112.619 76.6024 112.3 77.6776 111.334 78.4615C110.587 78.9734 109.698 79.2408 108.792 79.2268C107.886 79.2128 107.006 78.9181 106.275 78.3834C105.918 78.0734 105.627 77.6947 105.42 77.27C105.213 76.8453 105.095 76.3833 105.071 75.9117C104.914 73.8934 105.035 71.8691 105.002 69.8478C105.002 69.5956 105.083 69.4814 105.348 69.4904C105.841 69.4904 106.335 69.5115 106.829 69.4904C107.181 69.4754 107.214 69.6616 107.211 69.9379C107.211 71.5988 107.211 73.2627 107.211 74.9266C107.179 75.4413 107.27 75.9562 107.479 76.4282C107.623 76.7312 107.867 76.9761 108.169 77.1229C108.472 77.2697 108.815 77.3096 109.143 77.2361C109.474 77.1794 109.778 77.0165 110.008 76.7721C110.239 76.5277 110.383 76.2151 110.419 75.8816C110.47 75.5839 110.497 75.2826 110.5 74.9806C110.5 73.3167 110.518 71.6529 110.5 69.989C110.5 69.5715 110.633 69.4574 111.027 69.4874C111.453 69.5115 111.88 69.5115 112.306 69.4874C112.607 69.4874 112.704 69.5775 112.698 69.8779C112.682 70.836 112.698 71.794 112.698 72.7521H112.664Z" fill="#FAFAFA"/>
<path d="M118.288 75.6649C117.764 76.641 117.225 77.602 116.735 78.5841C116.676 78.7576 116.557 78.9041 116.399 78.9968C116.241 79.0895 116.054 79.1221 115.874 79.0887C115.408 79.0632 114.941 79.0632 114.475 79.0887C114.195 79.0887 114.095 79.0226 114.246 78.7433C114.797 77.7162 115.335 76.68 115.892 75.6558C116.149 75.1715 116.516 74.7538 116.964 74.4365C117.084 74.3524 117.237 74.2653 117.009 74.1361C116.414 73.7252 115.949 73.1545 115.666 72.4903C115.215 71.6193 114.763 70.7483 114.294 69.8864C114.143 69.6071 114.192 69.5049 114.511 69.5079C115.07 69.5079 115.63 69.523 116.19 69.5079C116.458 69.5079 116.56 69.6611 116.663 69.8593C117.144 70.7864 117.631 71.7144 118.122 72.6435C118.174 72.7366 118.192 72.9017 118.342 72.8837C118.493 72.8657 118.477 72.7336 118.526 72.6405C119.022 71.7034 119.528 70.7694 120.015 69.8263C120.056 69.7228 120.129 69.6354 120.225 69.5779C120.32 69.5203 120.432 69.4957 120.542 69.5079C121.075 69.526 121.611 69.5079 122.143 69.5079C122.402 69.5079 122.538 69.559 122.378 69.8503C121.776 70.9496 121.21 72.0548 120.614 73.154C120.4 73.5396 120.089 73.8626 119.711 74.0911C119.507 74.2172 119.489 74.3133 119.711 74.4605C120.184 74.788 120.566 75.2291 120.822 75.7429C121.352 76.7401 121.879 77.7372 122.414 78.7283C122.556 78.9866 122.55 79.1127 122.204 79.1007C121.644 79.0857 121.084 79.0857 120.524 79.1007C120.426 79.1107 120.327 79.0882 120.243 79.0366C120.158 78.9851 120.093 78.9074 120.058 78.8154C119.561 77.8783 119.052 76.9473 118.553 76.0132C118.506 75.871 118.412 75.7485 118.288 75.6649Z" fill="#FAFAFA"/>
<path d="M90.9875 55.4256C89.8107 55.4256 88.7061 55.0892 87.6076 54.7228C87.3848 54.6477 87.3608 54.5336 87.439 54.3324C87.5925 53.9359 87.74 53.5365 87.8664 53.131C87.9507 52.8697 88.0861 52.8307 88.345 52.9058C89.1548 53.2111 90.006 53.3933 90.8701 53.4464C91.2154 53.4763 91.5633 53.4375 91.8934 53.3323C92.0267 53.2955 92.1464 53.2208 92.2379 53.1174C92.3294 53.0139 92.3888 52.8862 92.4089 52.7497C92.429 52.6132 92.4089 52.4738 92.351 52.3485C92.2932 52.2231 92.2001 52.1173 92.0831 52.0438C91.8004 51.845 91.4915 51.6863 91.1651 51.5723C90.4638 51.29 89.7385 51.0617 89.0583 50.7163C87.8152 50.0766 87.3939 49.2146 87.5955 47.758C87.737 46.7338 88.6369 45.9169 89.8227 45.6556C91.2795 45.3553 92.6459 45.6707 94.0003 46.1482C94.1899 46.2143 94.2441 46.3134 94.1688 46.5056C94.0003 46.9381 93.8377 47.3736 93.6873 47.8121C93.615 48.0283 93.4976 48.0523 93.296 47.9893C92.6827 47.7706 92.0482 47.6166 91.4029 47.5297C91.0193 47.463 90.6247 47.5067 90.2652 47.6559C90.1388 47.6989 90.0263 47.7748 89.939 47.8756C89.8517 47.9764 89.7929 48.0985 89.7686 48.2295C89.7544 48.3704 89.7856 48.5122 89.8575 48.6342C89.9295 48.7562 90.0386 48.8522 90.1689 48.9083C90.4878 49.0692 90.8154 49.2126 91.15 49.3378C91.9342 49.5896 92.6922 49.9165 93.4134 50.3139C94.4547 50.9656 94.8159 51.9087 94.5691 53.2482C94.4634 53.7452 94.2131 54.2001 93.8496 54.5559C93.4861 54.9116 93.0255 55.1525 92.5255 55.2484C92.0202 55.3597 91.5049 55.4191 90.9875 55.4256Z" fill="#FAFAFA"/>
<path d="M103.976 57.5879C105.03 57.5879 106.083 57.5879 107.136 57.5879C107.537 57.5879 107.669 57.7951 107.467 58.1074C106.399 59.7443 105.607 61.5313 104.68 63.2462C104.379 63.8078 104.06 64.3575 103.705 64.8861C103.642 64.9822 103.504 65.0663 103.561 65.1864C103.618 65.3065 103.775 65.2465 103.886 65.2465C104.912 65.2465 105.939 65.2465 106.965 65.2465C107.311 65.2465 107.428 65.3366 107.308 65.688C107.188 66.0394 107.076 66.4778 106.977 66.8743C106.971 66.9198 106.957 66.9638 106.934 67.0036C106.911 67.0434 106.881 67.0783 106.844 67.1063C106.808 67.1342 106.766 67.1547 106.722 67.1664C106.677 67.1782 106.631 67.1809 106.586 67.1746C104.638 67.1746 102.694 67.1746 100.747 67.1746C100.346 67.1746 100.232 66.9824 100.446 66.652C101.583 64.85 102.474 62.8948 103.474 61.0087C103.668 60.5849 103.906 60.1823 104.184 59.8074C104.238 59.7413 104.334 59.6722 104.271 59.5731C104.208 59.474 104.103 59.51 104.012 59.51C102.986 59.51 101.957 59.492 100.93 59.51C100.554 59.51 100.437 59.4019 100.464 59.0385C100.488 58.6805 100.488 58.3213 100.464 57.9633C100.464 57.6629 100.56 57.5638 100.858 57.5698C101.896 57.5969 102.935 57.5879 103.976 57.5879Z" fill="#FAFAFA"/>
<path d="M87.418 74.603C87.418 73.0623 87.6557 71.9 88.4172 70.9089C88.7411 70.4863 89.1488 70.1348 89.6148 69.8764C90.0809 69.6181 90.5953 69.4583 91.126 69.4072C92.1869 69.2777 93.2635 69.4044 94.2651 69.7766C94.524 69.8667 94.6022 69.9658 94.4969 70.2331C94.3626 70.5796 94.252 70.9349 94.1658 71.2963C94.0785 71.6597 93.925 71.7678 93.5639 71.6207C93.0858 71.4264 92.5751 71.3245 92.059 71.3203C90.7889 71.3203 90.0485 71.906 89.7836 73.1554C89.507 74.1928 89.6205 75.2953 90.1027 76.2549C90.2497 76.5477 90.474 76.795 90.7513 76.9701C91.0287 77.1453 91.3486 77.2417 91.6768 77.249C92.3427 77.2788 93.0076 77.1715 93.6301 76.9337C93.9311 76.8315 94.0665 76.8946 94.1568 77.1949C94.2772 77.5884 94.4367 77.9668 94.5812 78.3542C94.6019 78.3882 94.6139 78.4268 94.6162 78.4665C94.6186 78.5063 94.6111 78.546 94.5944 78.5821C94.5778 78.6183 94.5525 78.6498 94.5208 78.674C94.4891 78.6981 94.452 78.7142 94.4126 78.7207C93.1004 79.2012 91.7731 79.4174 90.3916 79.003C89.0101 78.5885 88.1674 77.6094 87.725 76.2789C87.5309 75.741 87.4271 75.1747 87.418 74.603Z" fill="#FAFAFA"/>
<path d="M130.037 45.6841C131.214 45.6841 132.388 45.6841 133.562 45.6841C133.899 45.6841 134.013 45.7952 133.998 46.1196C133.977 46.504 133.998 46.8914 133.998 47.2789C133.998 47.5342 133.905 47.6273 133.643 47.6213C132.923 47.6213 132.204 47.6213 131.482 47.6213C131.214 47.6213 131.157 47.6963 131.157 47.9546C131.157 50.2312 131.157 52.5077 131.172 54.7843C131.172 55.1868 131.06 55.3279 130.651 55.2949C130.225 55.2648 129.798 55.2648 129.372 55.2949C129.047 55.3159 128.963 55.1988 128.966 54.8894C128.966 52.6129 128.966 50.3363 128.966 48.0597C128.966 47.7114 128.893 47.6002 128.532 47.6183C127.867 47.6513 127.196 47.6183 126.531 47.6363C126.164 47.6543 126.067 47.5221 126.091 47.1798C126.115 46.8077 126.115 46.4345 126.091 46.0625C126.091 45.7772 126.197 45.6961 126.468 45.6991C127.662 45.6901 128.851 45.6841 130.037 45.6841Z" fill="#FAFAFA"/>
<path d="M98.7649 62.3799C98.7649 63.8305 98.7649 65.2812 98.7649 66.7318C98.7649 67.0772 98.6746 67.2063 98.3165 67.1823C97.8499 67.1523 97.3834 67.1673 96.9169 67.1823C96.6731 67.1823 96.5527 67.1283 96.5527 66.8489C96.5527 63.8816 96.5527 60.9143 96.5527 57.9469C96.5527 57.6466 96.6761 57.5805 96.941 57.5865C97.4195 57.5865 97.9011 57.6046 98.3797 57.5865C98.6806 57.5715 98.7649 57.7127 98.7619 57.992C98.7589 59.4516 98.7649 60.9293 98.7649 62.3799Z" fill="#FAFAFA"/>
<path d="M93.8493 62.3627C93.5483 62.2365 93.6416 62.1254 93.8493 62.0053C95.0532 61.3445 95.0532 59.8608 94.5777 59.0019C94.069 58.0588 93.1721 57.7435 92.1879 57.6474C90.8335 57.5182 89.4792 57.6233 88.1127 57.5843C87.7606 57.5843 87.6553 57.6954 87.6583 58.0408C87.6763 59.4914 87.6583 60.9421 87.6583 62.3897C87.6583 63.8373 87.6583 65.2909 87.6583 66.7386C87.6583 67.099 87.7696 67.1921 88.1157 67.1861C89.3016 67.1681 90.4874 67.1861 91.6733 67.1861C92.1667 67.1924 92.659 67.1379 93.139 67.0239C94.1864 66.7716 95.002 65.9547 95.1164 65.0236C95.2699 63.8583 94.9659 62.8522 93.8493 62.3627ZM90.653 59.5155C91.055 59.4942 91.4581 59.5113 91.8569 59.5665C92.3745 59.6656 92.6785 59.981 92.6575 60.4345C92.6459 60.655 92.5504 60.8627 92.3903 61.0151C92.2303 61.1676 92.0179 61.2532 91.7967 61.2544C91.4957 61.2754 91.2128 61.2544 90.9208 61.2544V61.2935C90.5928 61.2784 90.1624 61.3836 89.9577 61.2154C89.7531 61.0472 89.8975 60.5937 89.8915 60.2663C89.8704 59.5155 89.8765 59.5095 90.653 59.5155ZM92.1217 65.2219C91.7433 65.2669 91.3619 65.283 90.981 65.2699C90.6379 65.2279 90.1473 65.4261 89.9397 65.1858C89.732 64.9456 89.8795 64.5011 89.8764 64.1437C89.8764 63.2186 89.8764 63.2156 90.8095 63.2186C91.2355 63.198 91.6626 63.2151 92.0856 63.2697C92.3347 63.297 92.5636 63.4189 92.725 63.6101C92.8864 63.8014 92.9678 64.0473 92.9524 64.2968C92.9464 64.5237 92.8594 64.7409 92.7071 64.9094C92.5548 65.0779 92.3472 65.1866 92.1217 65.2159V65.2219Z" fill="#FAFAFA"/>
<path d="M72.5145 66.5031C72.5145 65.8003 72.343 65.509 71.9126 65.4729C71.4822 65.4369 71.2414 65.7012 71.133 66.374C70.2843 71.723 67.9848 76.3181 64.006 80.0423C63.897 80.1386 63.8108 80.2577 63.7536 80.3912C63.6963 80.5246 63.6695 80.6691 63.6749 80.8142C63.6749 82.0155 63.6749 83.2169 63.6749 84.4182C63.6487 84.5702 63.6703 84.7264 63.7365 84.8657C63.8028 85.0049 63.9106 85.1203 64.0451 85.1961C64.3792 85.3583 64.647 85.2231 64.9179 85.0069C67.9813 82.5647 70.5052 79.5165 72.3309 76.0538C72.4575 75.8206 72.5228 75.5592 72.5205 75.294C72.5205 73.7923 72.5205 72.3116 72.5205 70.822L72.5145 66.5031ZM71.0879 75.5373C69.5687 78.3853 67.5527 80.9401 65.1346 83.0817C65.0983 83.105 65.06 83.1251 65.0202 83.1418C65.0202 82.418 65.0202 81.7212 65.0202 81.0244C65.0202 80.8983 65.1135 80.8412 65.1888 80.7691C67.7747 78.2929 69.7746 75.2722 71.0427 71.9272C71.0615 71.8782 71.0847 71.8309 71.112 71.786C71.112 71.768 71.1481 71.759 71.1902 71.726C71.1902 72.9093 71.1902 74.0746 71.1902 75.2399C71.1814 75.3469 71.144 75.4496 71.0819 75.5373H71.0879Z" fill="#FAFAFA"/>
<path d="M103.633 77.8751C103.199 76.8569 102.913 75.7457 101.905 75.0819C101.788 75.0038 101.824 74.9318 101.92 74.8717C102.016 74.8116 102.101 74.7576 102.194 74.7065C103.753 73.8055 103.774 72.1176 103.196 71.0003C102.693 70.0332 101.797 69.6488 100.77 69.5497C99.3888 69.4206 97.9983 69.5257 96.6138 69.4866C96.2616 69.4866 96.1533 69.5918 96.1563 69.9431C96.1563 71.3938 96.1563 72.8444 96.1563 74.295C96.1563 75.7457 96.1563 77.1963 96.1563 78.6469C96.1563 78.9683 96.2346 79.1064 96.5807 79.0854C97.0327 79.0584 97.486 79.0584 97.9381 79.0854C98.2752 79.1064 98.3775 78.9923 98.3715 78.6589C98.3504 77.7579 98.3715 76.8779 98.3715 75.9859C98.3715 75.8478 98.3233 75.7006 98.5611 75.6706C99.0049 75.6103 99.4566 75.6847 99.8576 75.8839C100.258 76.0832 100.59 76.3981 100.809 76.7878C101.139 77.4381 101.43 78.107 101.682 78.7911C101.707 78.8867 101.766 78.97 101.848 79.0253C101.93 79.0806 102.029 79.1041 102.128 79.0914C102.663 79.0734 103.196 79.0764 103.729 79.0914C104.03 79.0914 104.126 79.0133 103.991 78.725C103.855 78.4367 103.753 78.1544 103.633 77.8751ZM100.52 73.6703C99.8673 73.8355 99.1962 73.7574 98.534 73.7664C98.3534 73.7664 98.3655 73.6373 98.3655 73.5172V71.6521C98.3655 71.5229 98.3655 71.4088 98.5491 71.4178C99.151 71.4478 99.771 71.3607 100.379 71.4809C100.639 71.5122 100.878 71.639 101.05 71.8367C101.221 72.0344 101.312 72.2887 101.306 72.5501C101.348 72.8047 101.288 73.0656 101.139 73.2764C100.989 73.4872 100.763 73.6308 100.508 73.6763L100.52 73.6703Z" fill="#FAFAFA"/>
<path d="M125.386 54.9636C124.742 53.6481 124.537 52.0834 123.153 51.1674C123.309 51.0652 123.427 50.9781 123.55 50.9061C125.148 50.0051 125.148 48.2391 124.54 47.1428C124.038 46.2418 123.189 45.8514 122.208 45.7493C120.76 45.5991 119.304 45.7132 117.85 45.6802C117.597 45.6802 117.549 45.8063 117.549 46.0286C117.549 48.9999 117.549 51.9693 117.549 54.9366C117.549 55.2069 117.66 55.279 117.907 55.273C118.373 55.273 118.843 55.2459 119.31 55.273C119.662 55.297 119.773 55.1829 119.764 54.8285C119.74 53.9275 119.764 53.0445 119.764 52.1525C119.764 52.0053 119.743 51.8792 119.972 51.8521C120.43 51.7832 120.899 51.8626 121.309 52.0788C121.719 52.295 122.049 52.6366 122.25 53.0535C122.569 53.6752 122.819 54.3359 123.093 54.9816C123.165 55.1588 123.249 55.264 123.466 55.2579C124.041 55.2579 124.616 55.2579 125.188 55.2579C125.401 55.273 125.489 55.1919 125.386 54.9636ZM121.717 49.9119C121.135 49.967 120.55 49.9861 119.966 49.969C119.785 49.969 119.734 49.8939 119.74 49.7287C119.74 49.4104 119.74 49.092 119.74 48.7076C119.782 48.3922 119.568 47.8847 119.824 47.6684C120.08 47.4522 120.538 47.6114 120.908 47.6114C121.187 47.6044 121.465 47.6215 121.741 47.6624C122.02 47.7027 122.273 47.8476 122.449 48.0674C122.624 48.2872 122.709 48.5656 122.686 48.8457C122.698 49.115 122.603 49.3778 122.421 49.5774C122.24 49.777 121.987 49.8972 121.717 49.9119Z" fill="#FAFAFA"/>
<path d="M59.0419 86.4598C59.0419 85.9162 59.0419 85.3696 59.0419 84.8229C59.0419 84.1862 58.5243 83.8829 57.9735 84.2223C55.6898 85.6387 53.2459 86.78 50.6929 87.6221C50.5514 87.6577 50.4265 87.7406 50.3388 87.857C50.2512 87.9734 50.2062 88.1163 50.2113 88.2618C50.2113 88.9916 50.2113 89.7244 50.2113 90.4573C50.208 90.5613 50.2295 90.6647 50.274 90.7588C50.3185 90.853 50.3847 90.9352 50.4673 90.9989C50.5498 91.0625 50.6463 91.1056 50.7489 91.1248C50.8514 91.1439 50.957 91.1385 51.0571 91.109C53.6167 90.6038 56.1164 89.8328 58.5152 88.8084C58.6803 88.7548 58.8222 88.6468 58.9179 88.5023C59.0136 88.3577 59.0573 88.1851 59.0419 88.0125C59.0299 87.502 59.0419 86.9824 59.0419 86.4598ZM57.519 87.7903C55.6609 88.5478 53.7432 89.1505 51.7854 89.5923C51.6169 89.6313 51.5326 89.5923 51.5477 89.4091C51.5612 89.3034 51.5612 89.1964 51.5477 89.0907C51.5115 88.8144 51.6079 88.6763 51.8938 88.5832C53.7574 87.9527 55.5524 87.1356 57.2511 86.1444C57.3866 86.0663 57.525 85.9973 57.7207 85.8951C57.7207 86.4658 57.7207 86.9583 57.7207 87.4479C57.7354 87.5201 57.723 87.5952 57.6858 87.6589C57.6486 87.7226 57.5892 87.7704 57.519 87.7933V87.7903Z" fill="#FAFAFA"/>
<path d="M68.735 53.961C67.2301 47.3532 63.6512 42.0699 58.2153 38.0751C52.1954 33.6509 45.423 31.8247 37.9734 32.8429C32.6699 33.5698 28.0647 35.8825 23.9622 39.2615C23.7198 39.4449 23.5154 39.6734 23.3602 39.9343C23.2551 40.1064 23.2031 40.3055 23.2106 40.5068C23.2181 40.7082 23.2848 40.9029 23.4023 41.0667C23.5037 41.2177 23.65 41.3331 23.8207 41.3967C23.9913 41.4603 24.1777 41.4688 24.3534 41.4211C24.6029 41.3672 24.8348 41.2515 25.0277 41.0847C25.3106 40.8444 25.5815 40.5831 25.8705 40.3518C31.4308 35.9126 37.7517 34.0644 44.8331 34.8072C50.3112 35.3929 55.1241 37.5435 59.0701 41.3821C65.9779 48.098 68.7441 56.2137 66.6251 65.6869C63.7867 78.35 50.57 88.5621 34.9785 84.3061C24.9223 81.5638 16.6961 72.0425 16.5487 60.5448C16.4656 56.9695 17.1363 53.4166 18.5172 50.1164C19.3704 48.1815 20.4461 46.352 21.7228 44.665C21.9238 44.4323 22.0735 44.1601 22.1622 43.866C22.2165 43.6582 22.2041 43.4387 22.1269 43.2383C22.0497 43.0379 21.9115 42.8667 21.7318 42.7487C21.5409 42.6398 21.3194 42.597 21.1016 42.6269C20.8839 42.6568 20.6821 42.7577 20.5278 42.9139C20.3659 43.0719 20.2169 43.2427 20.0823 43.4245C18.7555 45.1931 17.6365 47.1079 16.7473 49.1313C15.8978 51.1397 15.2828 53.239 14.9143 55.3877C14.8601 55.6881 14.7638 55.7962 14.4598 55.7692C14.1558 55.7421 13.8578 55.7692 13.5417 55.7692L8.29841 55.7481C7.98983 55.743 7.68611 55.8252 7.42252 55.9854C7.29052 56.0679 7.18213 56.183 7.10788 56.3196C7.03363 56.4562 6.99605 56.6096 6.99877 56.765C7.0015 56.9203 7.04444 57.0724 7.12344 57.2063C7.20244 57.3402 7.3148 57.4515 7.44961 57.5292C7.66027 57.6461 7.891 57.7225 8.12985 57.7545C9.40607 57.9527 10.6853 57.8296 11.9645 57.7966C12.7501 57.7785 13.5357 57.7485 14.3243 57.7966C14.535 57.7966 14.5922 57.8777 14.5741 58.0969C14.535 58.5204 14.5109 58.9469 14.5019 59.3704C14.5019 59.5867 14.4297 59.6708 14.2009 59.6918C13.1102 59.7899 12.0146 59.822 10.9201 59.7879C8.7198 59.7489 6.51954 59.7038 4.31927 59.6738C3.77056 59.6503 3.22326 59.7456 2.71497 59.9531C2.53372 60.0274 2.38082 60.1572 2.27834 60.3239C2.17587 60.4905 2.12913 60.6853 2.14487 60.8802C2.16062 61.0751 2.23803 61.2599 2.36593 61.4081C2.49384 61.5562 2.66561 61.6599 2.85644 61.7042C3.12921 61.7696 3.41009 61.7949 3.69019 61.7793C5.9326 61.7613 8.175 61.7312 10.4144 61.7222C11.6695 61.7222 12.9247 61.7523 14.1768 61.7553C14.4778 61.7553 14.5952 61.8544 14.5892 62.1728C14.585 62.5746 14.6111 62.9762 14.6674 63.3742C14.7066 63.6745 14.6103 63.7556 14.3093 63.7556C12.5725 63.7707 10.8388 63.7767 9.10508 63.7136C8.61229 63.6696 8.1156 63.7154 7.63923 63.8488C7.49389 63.8899 7.36082 63.9658 7.2516 64.0699C7.14237 64.174 7.06031 64.3032 7.01254 64.4462C6.96476 64.5893 6.95274 64.7418 6.9775 64.8905C7.00227 65.0392 7.06308 65.1796 7.15463 65.2995C7.37716 65.5515 7.68898 65.7077 8.02451 65.735C8.67187 65.8231 9.32703 65.8392 9.97796 65.7831C11.3655 65.744 12.7531 65.6989 14.1407 65.6929C15.0437 65.6929 15.1882 65.8371 15.3928 66.7051C15.9971 69.2229 16.9902 71.6315 18.3366 73.8446C18.9386 74.8388 19.6248 75.7669 20.2659 76.7311C20.3061 76.7724 20.3368 76.8221 20.3556 76.8765C20.3745 76.931 20.3812 76.9889 20.3751 77.0462C20.3691 77.1035 20.3505 77.1587 20.3207 77.2081C20.291 77.2574 20.2507 77.2997 20.2027 77.3318C19.372 78.1217 18.5683 78.9417 17.7526 79.7346C17.4968 79.9869 17.271 80.3564 16.964 80.4465C16.657 80.5366 16.2898 80.2002 15.9437 80.074C15.9196 80.074 15.8955 80.047 15.8714 80.038C15.6585 79.9396 15.4233 79.8992 15.1896 79.9208C14.956 79.9424 14.7322 80.0253 14.541 80.1611C14.2807 80.3524 14.0397 80.5687 13.8217 80.8069L5.06874 89.5172C4.79 89.7719 4.56311 90.0779 4.40054 90.4183C4.3382 90.5476 4.3077 90.6898 4.31155 90.8332C4.3154 90.9766 4.3535 91.117 4.42269 91.2427C4.49187 91.3685 4.59014 91.4759 4.70931 91.5561C4.82849 91.6363 4.96513 91.687 5.10787 91.7038C5.40225 91.7386 5.69912 91.6637 5.94163 91.4936C6.37037 91.1986 6.75978 90.8504 7.10045 90.4574C7.75193 89.6992 8.45599 88.9876 9.20741 88.3278C9.37898 88.1897 9.50841 88.1506 9.68599 88.3098C11.0495 89.5112 12.2535 90.8719 13.5417 92.1454C13.6862 92.2895 13.6802 92.4097 13.5207 92.5689C11.2391 94.8316 8.9616 97.1003 6.68809 99.375C6.55264 99.5101 6.45934 99.5522 6.2968 99.414C4.89821 98.2101 3.59037 96.905 2.38387 95.5094C2.22736 95.3292 2.28154 95.224 2.42902 95.0859C2.72999 94.835 2.98027 94.5292 3.16646 94.1848C3.27583 93.9988 3.31472 93.7798 3.27606 93.5676C3.2374 93.3554 3.12375 93.1641 2.95576 93.0284C2.56748 92.662 2.0889 92.668 1.54711 93.0825C0.880994 93.5692 0.34884 94.216 0 94.9627V95.0408C0.0663078 95.2212 0.0663078 95.4191 0 95.5995V95.6806C0.159527 96.3474 0.601988 96.8069 1.07756 97.2695C2.00161 98.1855 2.92867 99.0956 3.82564 100.042C4.51491 100.775 5.18312 101.583 6.23359 101.844H6.39312C7.06007 101.673 7.66322 101.313 8.12985 100.808C8.87331 100.063 9.63483 99.3059 10.3572 98.57C13.7584 95.1279 17.3011 91.827 20.6332 88.3158C20.9733 87.9584 21.3044 87.595 21.6325 87.2255C21.7738 87.0823 21.8651 86.8974 21.8928 86.6983C21.9204 86.4991 21.883 86.2964 21.786 86.1202C21.6174 85.7748 21.503 85.4054 21.3525 85.0509C21.317 84.9962 21.3018 84.9309 21.3095 84.8661C21.3172 84.8014 21.3473 84.7414 21.3947 84.6965C22.415 83.6242 23.4384 82.555 24.5521 81.5758C24.5843 81.5436 24.6225 81.518 24.6646 81.5005C24.7067 81.4831 24.7518 81.4741 24.7974 81.4741C24.843 81.4741 24.8881 81.4831 24.9302 81.5005C24.9723 81.518 25.0106 81.5436 25.0427 81.5758C25.6206 81.9573 26.2046 82.3267 26.7855 82.7021C28.6705 83.98 30.7118 85.0116 32.8595 85.7718C34.0876 86.1773 35.3638 86.3905 36.6039 86.748C36.7386 86.7717 36.8601 86.8431 36.9464 86.949C37.0326 87.0549 37.0777 87.1883 37.0735 87.3246C37.2209 88.8054 37.0494 90.2802 37.0223 91.7549C36.9688 92.4604 37.0267 93.1699 37.1939 93.8574C37.3654 94.4371 37.6785 94.6774 38.1841 94.6624C38.6898 94.6473 38.9336 94.362 39.069 93.7883C39.1547 93.3158 39.179 92.8343 39.1413 92.3556C39.1092 90.7537 39.1022 89.1428 39.1202 87.5229C39.1202 87.2946 39.1563 87.1895 39.4212 87.2225C39.8426 87.2646 40.273 87.2676 40.7004 87.2736C40.9051 87.2736 40.9774 87.3637 40.9804 87.5739C40.9954 88.0936 41.0466 88.6132 41.0466 89.1298C41.0466 91.9141 41.0466 94.6954 41.0466 97.4797C41.0254 97.852 41.0436 98.2255 41.1008 98.594C41.2362 99.2098 41.5613 99.453 42.1783 99.42C42.7201 99.39 43.0091 99.0896 43.0813 98.4859C43.0964 98.3147 43.1024 98.1405 43.1054 97.9693C43.1515 94.5172 43.1937 91.0681 43.2318 87.622C43.2318 87.3907 43.28 87.2916 43.5328 87.2826C43.9195 87.2717 44.3054 87.2396 44.6886 87.1865C44.9896 87.1444 45.0919 87.2075 45.095 87.5409C45.095 89.5803 45.1251 91.6167 45.1461 93.6532C45.1461 94.2329 45.2545 94.38 45.7903 94.5933C45.9017 94.6469 46.0238 94.675 46.1475 94.6753C46.2713 94.6756 46.3935 94.6483 46.5053 94.5953C46.617 94.5423 46.7155 94.4649 46.7933 94.3689C46.8712 94.2729 46.9264 94.1607 46.9551 94.0406C47.037 93.7468 47.0835 93.4443 47.0936 93.1395C47.1628 91.9682 47.1116 90.7968 47.0936 89.6254C47.0936 88.8384 47.0936 88.0515 47.0936 87.2676C47.0833 87.2041 47.0866 87.1392 47.1033 87.077C47.1199 87.0149 47.1495 86.957 47.1902 86.9071C47.2308 86.8572 47.2815 86.8164 47.3391 86.7874C47.3966 86.7585 47.4596 86.7419 47.524 86.7389C48.3668 86.5467 49.2035 86.3215 50.0222 86.0481C58.0528 83.3719 63.9432 78.3109 67.209 70.4296C69.4243 65.1102 70.0113 59.5957 68.735 53.961ZM16.362 89.7215C16.043 90.0429 15.7119 90.3522 15.4049 90.6826C15.2664 90.8298 15.1882 90.8118 15.0557 90.6826C13.7514 89.3891 12.4471 88.0976 11.1428 86.808C11.0495 86.7119 10.9442 86.6428 11.0766 86.4866C11.3959 86.0764 11.7719 85.7133 12.1933 85.4084C12.2188 85.383 12.2493 85.3632 12.2829 85.3502C12.3165 85.3372 12.3524 85.3314 12.3884 85.3331C12.4244 85.3348 12.4596 85.344 12.4918 85.3601C12.5241 85.3761 12.5526 85.3987 12.5755 85.4264C13.8941 86.629 15.147 87.9013 16.3289 89.2379C16.4047 89.3341 16.475 89.4343 16.5396 89.5383C16.4644 89.6074 16.4132 89.6674 16.359 89.7215H16.362ZM19.5165 86.5407C19.1712 87.0138 18.7562 87.4321 18.2854 87.7812C18.2533 87.8138 18.2146 87.8391 18.1719 87.8555C18.1292 87.8719 18.0834 87.8788 18.0377 87.876C17.992 87.8731 17.9475 87.8605 17.9071 87.839C17.8668 87.8174 17.8315 87.7875 17.8038 87.7511C16.5517 86.5497 15.2965 85.3243 14.1317 84.0237C13.8939 83.7564 13.9089 83.5882 14.1738 83.3569C14.5497 83.0575 14.8847 82.7101 15.1701 82.3237C15.2815 82.1615 15.3868 82.1705 15.5373 82.2516C15.7118 82.3491 15.8719 82.4705 16.0129 82.612L19.4292 86.0872C19.5014 86.1623 19.5706 86.2434 19.6459 86.3275C19.6063 86.4012 19.562 86.4725 19.5135 86.5407H19.5165ZM23.0682 80.1521C22.1018 81.2548 21.0641 82.2932 19.9619 83.2608C19.9138 83.3029 19.8566 83.3389 19.7874 83.393L19.6068 83.2398C19.2546 82.9154 18.9054 82.582 18.5443 82.2666C18.3877 82.1285 18.3938 82.0324 18.5443 81.8822C19.4943 80.802 20.5138 79.7846 21.5963 78.8366C21.786 78.6744 21.8973 78.6714 22.087 78.8576C22.3879 79.173 22.716 79.4733 23.0441 79.7587C23.1766 79.8968 23.2097 79.9929 23.0682 80.1521Z" fill="#FAFAFA"/>
<path d="M31.204 0H24.2811C23.4715 0 23.2969 0.174208 23.2969 0.982168V18.4749C23.2969 24.3599 23.2969 30.2439 23.2969 36.1269C23.2969 36.4603 23.2969 36.7757 23.649 36.9529C24.0012 37.1301 24.2751 36.9529 24.552 36.7517C26.6579 35.1437 28.9738 33.83 31.4358 32.847C32.0618 32.5947 32.122 32.5106 32.122 31.8498V0.931106C32.122 0.201239 31.9264 0 31.204 0ZM30.7977 31.2972C30.8121 31.411 30.7843 31.5261 30.7194 31.6208C30.6545 31.7154 30.557 31.783 30.4455 31.8108C28.5427 32.6067 26.7272 33.5961 25.0276 34.7633L24.6212 35.0396V34.5711C24.6212 23.6401 24.6212 12.7101 24.6212 1.78112C24.6212 1.40867 24.7206 1.32758 25.0788 1.33058C26.8667 1.3486 28.6546 1.3456 30.4425 1.33058C30.7435 1.33058 30.8127 1.40267 30.8127 1.70002C30.7966 11.5677 30.7916 21.4335 30.7977 31.2972Z" fill="#FAFAFA"/>
<path d="M71.6344 35.6731H64.5099C63.8928 35.6731 63.6701 35.8984 63.6701 36.5171C63.6701 37.8237 63.6701 39.1272 63.6701 40.4217C63.6652 40.7012 63.7675 40.9719 63.956 41.1786C64.3714 41.6802 64.7838 42.1878 65.1781 42.7075C66.3731 44.3876 67.4281 46.1626 68.3325 48.0148C69.2859 49.7953 70.0322 51.6787 70.5568 53.6284C70.8277 54.6707 71.0204 55.7309 71.1919 56.7942C71.2028 56.9498 71.2738 57.0951 71.3901 57.1994C71.5064 57.3037 71.6588 57.3587 71.815 57.3529C71.9563 57.3691 72.0989 57.3349 72.2173 57.2563C72.3358 57.1776 72.4225 57.0597 72.4621 56.9233C72.5059 56.7609 72.5242 56.5927 72.5163 56.4248C72.5163 53.1368 72.5163 49.8479 72.5163 46.558V36.5621C72.5163 35.8803 72.3056 35.6731 71.6344 35.6731ZM71.1769 50.8712C71.1769 50.8712 71.1618 50.8712 71.1287 50.9012C70.8729 50.3005 70.6411 49.6787 70.3552 49.099C68.8893 46.0955 67.3603 43.0919 65.145 40.5479C65.0975 40.4933 65.0614 40.4299 65.0387 40.3614C65.0159 40.2928 65.0071 40.2204 65.0125 40.1484C65.0125 39.2023 65.0125 38.2562 65.0125 37.313C65.0125 37.0788 65.0577 36.9917 65.3135 36.9947C67.1676 36.9947 69.0218 36.9947 70.8729 36.9947C71.0745 36.9947 71.1889 36.9947 71.1889 37.262C71.1809 41.7954 71.1769 46.3318 71.1769 50.8712Z" fill="#FAFAFA"/>
<path d="M44.7267 14.2751H37.6809C36.9435 14.2751 36.7539 14.4614 36.7539 15.1762V30.3943C36.7539 30.9949 37.0549 31.2352 37.6568 31.1511C39.957 30.8249 42.2897 30.7956 44.5973 31.064C45.3618 31.1541 45.5935 30.9529 45.5935 30.184V15.1371C45.5815 14.4824 45.3738 14.2751 44.7267 14.2751ZM44.2632 29.3371C44.2632 29.5833 44.2632 29.7215 43.9291 29.6855C42.0974 29.4917 40.2496 29.5068 38.4213 29.7305C38.1023 29.7635 38.0812 29.6644 38.0812 29.4031C38.0812 27.1536 38.0812 24.8981 38.0812 22.6546C38.0812 20.411 38.0812 18.2126 38.0812 15.9901C38.0812 15.6717 38.1655 15.5906 38.4785 15.5936C40.2663 15.6076 42.0531 15.6076 43.8388 15.5936C44.1579 15.5936 44.2692 15.6567 44.2692 16.0021C44.2552 20.4471 44.2532 24.8921 44.2632 29.3371Z" fill="#FAFAFA"/>
<path d="M116.222 54.8434C115.163 51.9001 113.959 49.0078 113.149 45.9774C113.143 45.9315 113.128 45.8872 113.105 45.8471C113.082 45.807 113.051 45.772 113.014 45.744C112.977 45.7161 112.935 45.6957 112.89 45.6842C112.845 45.6728 112.798 45.6703 112.752 45.6771C112.391 45.6771 112.03 45.6771 111.672 45.6771C111.313 45.6771 111 45.6951 110.669 45.6771C110.338 45.6591 110.176 45.7732 110.088 46.1126C109.718 47.5362 109.246 48.9297 108.737 50.3173C108.171 51.846 107.614 53.3807 107.04 54.9064C106.928 55.2068 106.991 55.2969 107.298 55.2819C107.605 55.2668 107.858 55.2819 108.138 55.2819C109.188 55.2819 109.191 55.2819 109.553 54.2877C109.569 54.1983 109.619 54.1186 109.694 54.0659C109.768 54.0131 109.86 53.9914 109.95 54.0054C110.775 54.0235 111.602 54.0054 112.43 54.0054C112.818 54.0054 113.264 53.8973 113.571 54.0565C113.878 54.2157 113.854 54.6812 113.977 55.0146C113.997 55.0984 114.048 55.1717 114.119 55.2206C114.19 55.2694 114.277 55.2901 114.362 55.2789C114.883 55.2789 115.404 55.2789 115.924 55.2789C116.358 55.2669 116.367 55.2518 116.222 54.8434ZM110.362 52.0833C110.576 51.4646 110.79 50.8819 110.964 50.2812C111.139 49.6806 111.316 49.0589 111.491 48.4462C111.512 48.3741 111.515 48.275 111.611 48.257C111.708 48.239 111.747 48.3351 111.759 48.4071C112.006 49.6595 112.505 50.8339 112.905 52.0833H110.362Z" fill="#FAFAFA"/>
<path d="M58.1767 28.5278H54.6553C53.4514 28.5278 52.2264 28.5278 51.0135 28.5278C50.4477 28.5278 50.2159 28.7711 50.2129 29.3357C50.2129 30.0686 50.2129 30.8014 50.2129 31.5342C50.2129 32.0718 50.3393 32.252 50.8419 32.4082C53.3391 33.1689 55.711 34.2911 57.8817 35.7389C57.9913 35.8373 58.1279 35.9005 58.2739 35.9203C58.4199 35.9401 58.5685 35.9156 58.7004 35.8501C58.8259 35.773 58.9258 35.6606 58.9874 35.5269C59.049 35.3933 59.0695 35.2445 59.0465 35.0992C59.0465 33.1951 59.0465 31.2939 59.0465 29.3928C59.0435 28.7471 58.8238 28.5308 58.1767 28.5278ZM57.7222 34.021C56.9969 33.6306 56.3287 33.2551 55.6455 32.9068C54.4266 32.2875 53.1606 31.7653 51.8592 31.345C51.6365 31.2729 51.5221 31.1888 51.5582 30.9335C51.5883 30.5912 51.4499 30.1406 51.6245 29.9334C51.799 29.7262 52.2716 29.8703 52.6147 29.8673C54.2008 29.8673 55.7839 29.8673 57.3701 29.8673C57.671 29.8673 57.7463 29.9364 57.7433 30.2368C57.7132 31.4771 57.7222 32.7235 57.7222 34.021Z" fill="#FAFAFA"/>
</svg>
