<svg width="80" height="80" viewBox="0 0 80 80" fill="none" xmlns="http://www.w3.org/2000/svg">
<path d="M69.0909 0H16.1818C11.0909 0 7.09091 4 7.09091 9.09091V49.0909C7.09091 50.1818 7.81818 50.9091 8.90909 50.9091C10 50.9091 10.7273 50.1818 10.7273 49.0909V9.09091C10.7273 6 13.0909 3.63636 16.1818 3.63636H60.9091C59.0909 5.63636 58.1818 8.18182 58.1818 10.9091V20V69.0909C58.1818 73.0909 54.9091 76.3636 50.9091 76.3636C46.9091 76.3636 43.6364 73.0909 43.6364 69.0909V60C43.6364 58.9091 42.9091 58.1818 41.8182 58.1818H5.45455C2.36364 58.1818 0 60.5455 0 63.6364V70.9091C0 76 4 80 9.09091 80H50.9091C56.9091 80 61.8182 75.0909 61.8182 69.0909V21.8182H78.1818C79.2727 21.8182 80 21.0909 80 20V10.9091C80 4.90909 75.0909 0 69.0909 0ZM9.09091 76.3636C6 76.3636 3.63636 74 3.63636 70.9091V63.6364C3.63636 62.5455 4.36364 61.8182 5.45455 61.8182H40V69.0909C40 71.8182 41.0909 74.3636 42.7273 76.3636H9.09091ZM76.3636 18.1818H61.8182V10.9091C61.8182 6.90909 65.0909 3.63636 69.0909 3.63636C73.0909 3.63636 76.3636 6.90909 76.3636 10.9091V18.1818ZM18.1818 29.0909H50.9091C52 29.0909 52.7273 28.3636 52.7273 27.2727V12.7273C52.7273 11.6364 52 10.9091 50.9091 10.9091H18.1818C17.0909 10.9091 16.3636 11.6364 16.3636 12.7273V27.2727C16.3636 28.3636 17.0909 29.0909 18.1818 29.0909ZM20 14.5455H49.0909V25.4545H20V14.5455ZM16.3636 34.5455C16.3636 33.4545 17.0909 32.7273 18.1818 32.7273H50.9091C52 32.7273 52.7273 33.4545 52.7273 34.5455C52.7273 35.6364 52 36.3636 50.9091 36.3636H18.1818C17.0909 36.3636 16.3636 35.6364 16.3636 34.5455ZM16.3636 41.8182C16.3636 40.7273 17.0909 40 18.1818 40H50.9091C52 40 52.7273 40.7273 52.7273 41.8182C52.7273 42.9091 52 43.6364 50.9091 43.6364H18.1818C17.0909 43.6364 16.3636 42.9091 16.3636 41.8182ZM16.3636 49.0909C16.3636 48 17.0909 47.2727 18.1818 47.2727H30.9091C32 47.2727 32.7273 48 32.7273 49.0909C32.7273 50.1818 32 50.9091 30.9091 50.9091H18.1818C17.0909 50.9091 16.3636 50.1818 16.3636 49.0909Z" fill="white" fill-opacity="0.4"/>
</svg>
