<svg width="80" height="77" viewBox="0 0 80 77" fill="none" xmlns="http://www.w3.org/2000/svg">
<path d="M44.9995 76.9999C44.9162 76.9999 44.8295 76.9933 44.7462 76.9799L1.41332 70.3133C0.599994 70.1867 0 69.4867 0 68.6667V12.0006C0 11.2239 0.536661 10.5506 1.29332 10.3773L44.6262 0.377363C45.1195 0.267365 45.6429 0.380697 46.0395 0.69736C46.4362 1.01069 46.6662 1.49069 46.6662 2.00068V75.3333C46.6662 75.8199 46.4562 76.2833 46.0862 76.5966C45.7795 76.8599 45.3962 76.9999 44.9995 76.9999ZM3.3333 67.2367L43.3329 73.39V4.09399L3.3333 13.3272V67.2367Z" fill="white" fill-opacity="0.4"/>
<path d="M78.3336 70.3337H45.0006C44.0806 70.3337 43.334 69.587 43.334 68.667C43.334 67.747 44.0806 67.0004 45.0006 67.0004H76.667V10.3343H45.0006C44.0806 10.3343 43.334 9.58762 43.334 8.66763C43.334 7.74764 44.0806 7.00098 45.0006 7.00098H78.3336C79.2536 7.00098 80.0003 7.7443 80.0003 8.66763V68.667C80.0003 69.587 79.2536 70.3337 78.3336 70.3337Z" fill="white" fill-opacity="0.4"/>
<path d="M31.6647 53.6659C31.1081 53.6659 30.5648 53.3892 30.2514 52.8825L13.5849 26.2161C13.0983 25.4328 13.3349 24.4061 14.1149 23.9195C14.8982 23.4295 15.9249 23.6662 16.4116 24.4495L33.0781 51.1159C33.5647 51.8959 33.3281 52.9259 32.5481 53.4125C32.2747 53.5825 31.9681 53.6659 31.6647 53.6659Z" fill="white" fill-opacity="0.4"/>
<path d="M14.9982 53.6659C14.6982 53.6659 14.3916 53.5859 14.1149 53.4125C13.3349 52.9259 13.0983 51.8959 13.5849 51.1159L30.2514 24.4495C30.7381 23.6662 31.7647 23.4295 32.5481 23.9195C33.3281 24.4061 33.5647 25.4328 33.0781 26.2161L16.4116 52.8825C16.0949 53.3892 15.5516 53.6659 14.9982 53.6659Z" fill="white" fill-opacity="0.4"/>
<path d="M58.3327 70.3339C57.4127 70.3339 56.666 69.5873 56.666 68.6673V8.66787C56.666 7.74788 57.4127 7.00122 58.3327 7.00122C59.2527 7.00122 59.9993 7.74455 59.9993 8.66787V68.6673C59.9993 69.5873 59.2527 70.3339 58.3327 70.3339Z" fill="white" fill-opacity="0.4"/>
<path d="M78.3336 60.3345H45.0006C44.0806 60.3345 43.334 59.5879 43.334 58.6679C43.334 57.7479 44.0806 57.0012 45.0006 57.0012H78.3336C79.2536 57.0012 80.0003 57.7479 80.0003 58.6679C80.0003 59.5879 79.2536 60.3345 78.3336 60.3345Z" fill="white" fill-opacity="0.4"/>
<path d="M78.3336 50.3353H45.0006C44.0806 50.3353 43.334 49.5886 43.334 48.6686C43.334 47.7486 44.0806 47.002 45.0006 47.002H78.3336C79.2536 47.002 80.0003 47.7486 80.0003 48.6686C80.0003 49.5886 79.2536 50.3353 78.3336 50.3353Z" fill="white" fill-opacity="0.4"/>
<path d="M78.3336 40.3338H45.0006C44.0806 40.3338 43.334 39.5871 43.334 38.6671C43.334 37.7471 44.0806 37.0005 45.0006 37.0005H78.3336C79.2536 37.0005 80.0003 37.7471 80.0003 38.6671C80.0003 39.5871 79.2536 40.3338 78.3336 40.3338Z" fill="white" fill-opacity="0.4"/>
<path d="M78.3336 30.334H45.0006C44.0806 30.334 43.334 29.5874 43.334 28.6674C43.334 27.7474 44.0806 27.0007 45.0006 27.0007H78.3336C79.2536 27.0007 80.0003 27.7441 80.0003 28.6674C80.0003 29.5907 79.2536 30.334 78.3336 30.334Z" fill="white" fill-opacity="0.4"/>
<path d="M78.3336 20.3343H45.0006C44.0806 20.3343 43.334 19.5876 43.334 18.6676C43.334 17.7476 44.0806 17.001 45.0006 17.001H78.3336C79.2536 17.001 80.0003 17.7443 80.0003 18.6676C80.0003 19.591 79.2536 20.3343 78.3336 20.3343Z" fill="white" fill-opacity="0.4"/>
</svg>
