<svg width="80" height="80" viewBox="0 0 80 80" fill="none" xmlns="http://www.w3.org/2000/svg">
<path d="M37.7809 54.049H42.2176V41.9491H53.3843V37.6458H42.2176V25.5459H37.7809V37.6458H26.7559V41.9491H37.7809V54.049Z" fill="white" fill-opacity="0.4"/>
<path d="M17.2117 71.5301H20.9768V60.7735H30.9268V57.4119H20.9768V46.522H17.2117V57.4119H7.26172V60.7735H17.2117V71.5301Z" fill="white" fill-opacity="0.4"/>
<path d="M59.0262 32.6677H62.7912V21.9178H72.8746V18.6895H62.7912V7.79956H59.0262V18.6895H49.0762V21.9178H59.0262V32.6677Z" fill="white" fill-opacity="0.4"/>
<path d="M38.4522 80.0001H41.6788V72.3335H48.5372V69.5135H41.6788V61.8469H38.4522V69.5135H31.7305V72.3335H38.4522V80.0001Z" fill="white" fill-opacity="0.4"/>
<path d="M17.3448 32.6674H20.8448V21.7825H30.9298V18.6892H20.8331V7.79932H17.3331V18.6892H7.25977V21.7825H17.3448V32.6674Z" fill="white" fill-opacity="0.4"/>
<path d="M69.9541 48.8066H73.1808V41.2766H80.0008V38.32H73.1808V30.79H69.9541V38.32H63.2324V41.2766H69.9541V48.8066Z" fill="white" fill-opacity="0.4"/>
<path fill-rule="evenodd" clip-rule="evenodd" d="M59.0262 71.5301H62.7912V60.7735H72.8746V57.4119H62.7912V46.522H59.0262V57.4119H49.0762V60.7735H59.0262V71.5301Z" fill="white" fill-opacity="0.4"/>
<path d="M48.5001 9.68016V7.39518H41.7768V0.000244141H39.3568V7.39518H32.6351V9.68016H39.3568V17.0751H41.7768V9.68016H48.5001ZM6.68502 48.2682H9.10503V40.8732H15.8334V38.5883H9.10503V31.3333H6.68502V38.5933H0V41.0132L6.68502 40.9999V48.2682Z" fill="white" fill-opacity="0.4"/>
</svg>
