<svg width="80" height="80" viewBox="0 0 80 80" fill="none" xmlns="http://www.w3.org/2000/svg">
<path d="M50.1991 10.4881C50.4522 9.84244 51.1796 9.52449 51.8252 9.77761C55.6984 11.2946 59.2048 13.5176 62.2458 16.3836C65.2779 19.2416 67.7016 22.6006 69.4477 26.3663C69.739 26.9951 69.4663 27.7411 68.8375 28.0324C68.667 28.1115 68.4867 28.1488 68.3109 28.1488C67.8375 28.1488 67.3837 27.8797 67.1714 27.4214C63.9048 20.3776 58.1301 14.9412 50.9096 12.1134C50.2648 11.8612 49.9468 11.1338 50.1991 10.4881ZM11.1618 28.0324C11.3323 28.1115 11.5126 28.1488 11.6893 28.1488C12.1627 28.1488 12.6166 27.8797 12.8288 27.4214C16.0954 20.3776 21.8701 14.9412 29.0907 12.1134C29.7363 11.8603 30.0543 11.1329 29.8012 10.4872C29.548 9.84156 28.8207 9.5236 28.175 9.77672C24.3018 11.2937 20.7954 13.5167 17.7544 16.3827C14.7223 19.2407 12.2986 22.5997 10.5525 26.3654C10.2594 26.9951 10.533 27.7411 11.1618 28.0324ZM68.6839 52.3346C68.0586 52.0353 67.3091 52.2981 67.0098 52.9234C63.4608 60.3269 56.9507 66.0084 49.1511 68.5094C48.4912 68.7207 48.1279 69.4277 48.3393 70.0876C48.5098 70.6205 49.0027 70.9597 49.5338 70.9597C49.6608 70.9597 49.7896 70.9402 49.9175 70.8993C58.3717 68.1878 65.4262 62.0313 69.2727 54.0087C69.5729 53.3843 69.3091 52.6348 68.6839 52.3346ZM31.6583 70.0893C31.8696 69.4295 31.5064 68.7225 30.8465 68.5111C23.0486 66.0101 16.5395 60.3287 12.9896 52.9243C12.6903 52.299 11.9407 52.0361 11.3154 52.3355C10.6911 52.6348 10.4273 53.3843 10.7266 54.0087C14.5731 62.033 21.6276 68.1896 30.08 70.9011C30.2079 70.942 30.3367 70.9615 30.4637 70.9615C30.9948 70.9615 31.4877 70.6213 31.6583 70.0893ZM31.4176 18.2229C31.0783 17.857 30.9051 17.3614 30.9424 16.8632C31.192 13.5335 33.2534 10.7155 36.1087 9.34864C35.1238 8.35659 34.5145 6.99152 34.5145 5.48612C34.5145 2.46112 36.9756 0.000976562 39.9997 0.000976562C43.0238 0.000976562 45.4848 2.46201 45.4848 5.48612C45.4848 6.99152 44.8755 8.35659 43.8906 9.34864C46.746 10.7164 48.8073 13.5335 49.0569 16.8632C49.0942 17.3623 48.921 17.8579 48.5817 18.2238C48.2425 18.5897 47.7611 18.7993 47.2611 18.7993H32.7382C32.2382 18.7984 31.7568 18.5888 31.4176 18.2229ZM39.9997 8.46139C41.6401 8.46139 42.9749 7.12651 42.9749 5.48612C42.9749 3.84573 41.6401 2.51086 39.9997 2.51086C38.3593 2.51086 37.0244 3.84573 37.0244 5.48612C37.0244 7.12651 38.3593 8.46139 39.9997 8.46139ZM33.5482 16.2886H46.452C45.8587 13.252 43.1605 10.9713 40.0006 10.9713C36.8406 10.9713 34.1406 13.252 33.5482 16.2886ZM79.5192 48.8237C79.1799 49.1897 78.6985 49.3993 78.1985 49.3993H63.6766C63.1765 49.3993 62.6943 49.1897 62.3559 48.8237C62.0166 48.4578 61.8434 47.9623 61.8807 47.4631C62.1303 44.1335 64.1917 41.3154 67.0471 39.9486C66.0621 38.9565 65.4528 37.5915 65.4528 36.0861C65.4528 33.0611 67.9139 30.6009 70.938 30.6009C73.9621 30.6009 76.4231 33.0619 76.4231 36.0861C76.4231 37.5915 75.8139 38.9565 74.8289 39.9486C77.6843 41.3163 79.7457 44.1335 79.9952 47.4631C80.0316 47.9623 79.8585 48.4578 79.5192 48.8237ZM70.9371 39.0622C72.5775 39.0622 73.9124 37.7273 73.9124 36.087C73.9124 34.4466 72.5775 33.1117 70.9371 33.1117C69.2967 33.1117 67.9618 34.4466 67.9618 36.087C67.9618 37.7273 69.2967 39.0622 70.9371 39.0622ZM77.3894 46.8894C76.7962 43.8528 74.098 41.5721 70.938 41.5721C67.778 41.5721 65.0789 43.8528 64.4865 46.8894H77.3894ZM16.3228 49.3993H1.80081C1.30078 49.3993 0.818524 49.1897 0.480143 48.8237C0.140874 48.4578 -0.0323127 47.9623 0.00498918 47.4631C0.254556 44.1335 2.31593 41.3154 5.17129 39.9486C4.18635 38.9565 3.57708 37.5915 3.57708 36.0861C3.57708 33.0611 6.03812 30.6009 9.06223 30.6009C12.0863 30.6009 14.5474 33.0619 14.5474 36.0861C14.5474 37.5915 13.9381 38.9565 12.9532 39.9486C15.8085 41.3163 17.8699 44.1335 18.1195 47.4631C18.1568 47.9623 17.9836 48.4578 17.6443 48.8237C17.305 49.1897 16.8237 49.3993 16.3228 49.3993ZM9.06223 39.0622C10.7026 39.0622 12.0375 37.7273 12.0375 36.087C12.0375 34.4466 10.7026 33.1117 9.06223 33.1117C7.42184 33.1117 6.08697 34.4466 6.08697 36.087C6.08608 37.7273 7.42095 39.0622 9.06223 39.0622ZM15.5137 46.8894C14.9204 43.8528 12.2222 41.5721 9.06223 41.5721C5.90223 41.5721 3.20318 43.8528 2.61079 46.8894H15.5137ZM49.0569 78.0639C49.0942 78.5631 48.921 79.0587 48.5817 79.4246C48.2425 79.7905 47.7611 80.0001 47.2611 80.0001H32.7382C32.2382 80.0001 31.756 79.7905 31.4176 79.4246C31.0783 79.0587 30.9051 78.5631 30.9424 78.0639C31.192 74.7343 33.2534 71.9163 36.1087 70.5494C35.1238 69.5574 34.5145 68.1923 34.5145 66.6869C34.5145 63.6619 36.9756 61.2017 39.9997 61.2017C43.0238 61.2017 45.4848 63.6628 45.4848 66.6869C45.4848 68.1923 44.8755 69.5574 43.8906 70.5494C46.7451 71.9171 48.8065 74.7343 49.0569 78.0639ZM39.9997 69.663C41.6401 69.663 42.9749 68.3282 42.9749 66.6878C42.9749 65.0474 41.6401 63.7125 39.9997 63.7125C38.3593 63.7125 37.0244 65.0474 37.0244 66.6878C37.0244 68.3282 38.3593 69.663 39.9997 69.663ZM46.4511 77.4902C45.8578 74.4537 43.1597 72.1729 39.9997 72.1729C36.8397 72.1729 34.1406 74.4537 33.5482 77.4902H46.4511ZM21.5779 26.7562C28.8899 24.6042 35.0829 24.9213 39.9997 27.6976C44.9164 24.9213 51.1085 24.6042 58.4214 26.7562C58.9552 26.9134 59.322 27.4036 59.322 27.9605V52.3523C59.322 52.7475 59.1355 53.1206 58.8184 53.3568C58.5023 53.5939 58.0919 53.6668 57.7127 53.5558C50.9957 51.5788 45.3969 51.8514 41.0734 54.3666C40.7368 54.562 40.3682 54.6597 39.9997 54.6597C39.6311 54.6597 39.2625 54.562 38.9268 54.3666C34.6033 51.8514 29.0045 51.5779 22.2875 53.5558C21.9083 53.6668 21.498 53.5939 21.1818 53.3568C20.8647 53.1197 20.6782 52.7475 20.6782 52.3523V27.9596C20.6773 27.4036 21.0441 26.9134 21.5779 26.7562ZM41.2546 29.8735V51.4473C45.5736 49.4534 50.7923 49.2048 56.8121 50.7093V28.9099C50.5881 27.2402 45.3622 27.5653 41.2546 29.8735ZM23.1872 50.7093C25.7735 50.0627 28.2123 49.7403 30.4948 49.7403C33.526 49.7403 36.281 50.3114 38.7447 51.4491V29.8735C34.6371 27.5653 29.4113 27.2411 23.1872 28.9099V50.7093ZM25.8472 36.9493C29.6342 36.2335 32.9336 36.3578 35.932 37.3277C36.0608 37.3694 36.1904 37.389 36.3183 37.389C36.8477 37.389 37.3406 37.0515 37.512 36.5204C37.7251 35.8605 37.3637 35.1535 36.7047 34.9404C33.3431 33.8524 29.5338 33.6987 25.3809 34.483C24.6997 34.6117 24.2521 35.2681 24.3809 35.9493C24.5096 36.6305 25.1651 37.079 25.8472 36.9493ZM25.8392 40.5925C29.5667 39.9113 32.9692 40.0285 35.9506 40.9415C36.0732 40.9788 36.1967 40.9966 36.3183 40.9966C36.8557 40.9966 37.3521 40.6484 37.5182 40.1084C37.7207 39.4459 37.3477 38.7443 36.6851 38.5418C33.3155 37.5115 29.5152 37.3712 25.388 38.1243C24.7059 38.2487 24.2547 38.9024 24.3791 39.5844C24.5034 40.2648 25.158 40.7177 25.8392 40.5925ZM25.8543 33.3071C29.652 32.5655 32.9416 32.6996 35.9124 33.7147C36.0466 33.7609 36.1833 33.7822 36.3183 33.7822C36.8406 33.7822 37.3273 33.4545 37.5058 32.9332C37.7296 32.2777 37.3797 31.5637 36.7242 31.3398C33.3262 30.179 29.6138 30.0165 25.3738 30.8443C24.6935 30.9766 24.2494 31.6365 24.3826 32.3159C24.515 32.9962 25.174 33.4403 25.8543 33.3071ZM35.9888 48.1639C36.099 48.1941 36.21 48.2083 36.3192 48.2083C36.8716 48.2083 37.3779 47.8406 37.5298 47.2819C37.7118 46.6132 37.3166 45.924 36.6478 45.7419C33.2756 44.8253 29.493 44.7117 25.4049 45.4044C24.7219 45.5199 24.2618 46.1682 24.3773 46.8512C24.4928 47.5342 25.1411 47.9942 25.8241 47.8788C29.5498 47.2473 32.97 47.3432 35.9888 48.1639ZM25.8312 44.2356C29.5569 43.5802 32.9674 43.6868 35.9702 44.5536C36.0865 44.5873 36.2038 44.6033 36.3192 44.6033C36.8636 44.6033 37.3654 44.2454 37.5244 43.6965C37.7163 43.0304 37.3326 42.335 36.6665 42.1432C33.2933 41.1698 29.5019 41.0428 25.3969 41.7648C24.7139 41.8847 24.2583 42.5357 24.3782 43.2187C24.4981 43.8999 25.15 44.3546 25.8312 44.2356ZM54.6033 41.7639C50.4984 41.041 46.7069 41.168 43.3337 42.1423C42.6676 42.3341 42.284 43.0304 42.4758 43.6956C42.6348 44.2454 43.1357 44.6024 43.681 44.6024C43.7965 44.6024 43.9137 44.5864 44.03 44.5527C47.0319 43.6859 50.4433 43.5793 54.169 44.2347C54.8511 44.3537 55.5021 43.899 55.6229 43.2169C55.741 42.5348 55.2854 41.8838 54.6033 41.7639ZM54.5953 45.4044C50.5072 44.7117 46.7247 44.8253 43.3524 45.7419C42.6836 45.924 42.2884 46.6132 42.4705 47.2819C42.6223 47.8406 43.1286 48.2083 43.681 48.2083C43.7902 48.2083 43.9004 48.1941 44.0114 48.1639C47.0302 47.3432 50.4504 47.2473 54.177 47.8788C54.8591 47.9942 55.5084 47.5342 55.6238 46.8512C55.7384 46.1682 55.2783 45.5199 54.5953 45.4044ZM43.681 37.3899C43.8089 37.3899 43.9394 37.3703 44.0673 37.3286C47.0666 36.3578 50.3651 36.2344 54.1522 36.9502C54.8334 37.079 55.4897 36.6314 55.6185 35.9502C55.7473 35.269 55.2996 34.6126 54.6184 34.4839C50.4664 33.6996 46.6563 33.8533 43.2947 34.9412C42.6357 35.1544 42.2733 35.8623 42.4873 36.5212C42.6588 37.0515 43.1517 37.3899 43.681 37.3899ZM43.681 33.7822C43.8151 33.7822 43.9528 33.7609 44.0869 33.7147C47.0577 32.6996 50.3474 32.5664 54.1451 33.3071C54.8254 33.4403 55.4844 32.9962 55.6167 32.3159C55.7499 31.6356 55.3059 30.9766 54.6255 30.8443C50.3856 30.0165 46.6731 30.179 43.2751 31.3398C42.6197 31.5637 42.2697 32.2777 42.4936 32.9332C42.6721 33.4545 43.1588 33.7822 43.681 33.7822ZM54.6104 38.1235C50.4841 37.3703 46.6829 37.5106 43.3133 38.5409C42.6508 38.7434 42.2777 39.445 42.4802 40.1076C42.6454 40.6484 43.1428 40.9957 43.6801 40.9957C43.8018 40.9957 43.9252 40.9779 44.0478 40.9406C47.0293 40.0285 50.4317 39.9113 54.1593 40.5916C54.8405 40.7159 55.495 40.2639 55.6194 39.5827C55.7446 38.9015 55.2925 38.2478 54.6104 38.1235Z" fill="white" fill-opacity="0.4"/>
</svg>
