<svg width="86" height="86" viewBox="0 0 86 86" fill="none" xmlns="http://www.w3.org/2000/svg">
<path d="M34.4286 14.4286H40.1429M25.8571 23V8.71429C25.8571 5.55837 28.4155 3 31.5714 3H54.4286C57.5846 3 60.1429 5.55837 60.1429 8.71429V37.2857C60.1429 40.4416 57.5846 43 54.4286 43H31.5714C28.4155 43 25.8571 45.5584 25.8571 48.7143V77.2857C25.8571 80.4417 28.4155 83 31.5714 83H54.4286C57.5846 83 60.1429 80.4417 60.1429 77.2857V63M45.8571 25.8571H8.71429C5.55837 25.8571 3 28.4155 3 31.5714V60.1429C3 63.2989 5.55837 65.8571 8.71429 65.8571H25.8571M40.1429 60.1429H77.2857C80.4417 60.1429 83 57.5846 83 54.4286V25.8571C83 22.7013 80.4417 20.1429 77.2857 20.1429H60.1429M45.8571 71.5714H51.5714" stroke="white" stroke-opacity="0.4" stroke-width="4.31267"/>
</svg>
