<svg width="32" height="31" viewBox="0 0 32 31" fill="none" xmlns="http://www.w3.org/2000/svg">
<path d="M16.4208 16.4229C18.5625 16.4229 20.2987 14.6928 20.2987 12.5586C20.2987 10.4244 18.5625 8.69434 16.4208 8.69434C14.2791 8.69434 12.543 10.4244 12.543 12.5586C12.543 14.6928 14.2791 16.4229 16.4208 16.4229Z" stroke="white" stroke-width="2" stroke-linecap="round" stroke-linejoin="round"/>
<path d="M26.1159 12.5587C26.1159 21.2533 16.4212 28.0158 16.4212 28.0158C16.4212 28.0158 6.72656 21.2533 6.72656 12.5587C6.72656 9.99649 7.74796 7.53925 9.56607 5.72751C11.3842 3.91577 13.85 2.89795 16.4212 2.89795C18.9924 2.89795 21.4583 3.91577 23.2764 5.72751C25.0945 7.53925 26.1159 9.99649 26.1159 12.5587V12.5587Z" stroke="white" stroke-width="2" stroke-linecap="round" stroke-linejoin="round"/>
</svg>
