<svg width="32" height="31" viewBox="0 0 32 31" fill="none" xmlns="http://www.w3.org/2000/svg">
<path d="M20.2285 4.83008C21.872 5.27053 23.3705 6.13358 24.5739 7.33277C25.7773 8.53197 26.6434 10.0252 27.0854 11.6629" stroke="white" stroke-width="2" stroke-linecap="round" stroke-linejoin="round"/>
<path d="M19.2266 8.56396C20.2127 8.82824 21.1117 9.34606 21.8338 10.0656C22.5558 10.7851 23.0755 11.681 23.3407 12.6637" stroke="white" stroke-width="2" stroke-linecap="round" stroke-linejoin="round"/>
<path d="M12.1171 15.0726C13.1227 17.1213 14.7892 18.7744 16.8497 19.7672C17.0004 19.8384 17.1672 19.8692 17.3335 19.8567C17.4999 19.8441 17.6601 19.7886 17.7984 19.6957L20.8323 17.6797C20.9665 17.5905 21.1209 17.5361 21.2815 17.5214C21.4421 17.5067 21.6038 17.5322 21.752 17.5955L27.4279 20.0195C27.6207 20.1011 27.7817 20.2429 27.8866 20.4236C27.9914 20.6043 28.0345 20.8141 28.0094 21.0214C27.83 22.4202 27.1451 23.706 26.0828 24.6379C25.0206 25.5698 23.654 26.0839 22.2388 26.0839C17.8677 26.0839 13.6757 24.3536 10.585 21.2737C7.49419 18.1937 5.75781 14.0164 5.75781 9.66072C5.75789 8.25046 6.2738 6.88859 7.20896 5.83009C8.14412 4.7716 9.43439 4.08907 10.8382 3.9103C11.0462 3.88522 11.2567 3.92817 11.438 4.03268C11.6194 4.13718 11.7617 4.29759 11.8436 4.48973L14.2782 10.1507C14.3412 10.2971 14.3669 10.4567 14.3529 10.6154C14.339 10.7741 14.2859 10.9269 14.1983 11.0602L12.1823 14.1299C12.0905 14.268 12.0363 14.4274 12.0249 14.5927C12.0134 14.7579 12.0452 14.9232 12.1171 15.0726V15.0726Z" stroke="white" stroke-width="2" stroke-linecap="round" stroke-linejoin="round"/>
</svg>
