<svg width="109" height="20" viewBox="0 0 109 20" fill="none" xmlns="http://www.w3.org/2000/svg">
<path d="M10.0588 0L13.2985 6.46638L20.1307 7.3155L14.7616 11.8354L16.29 19.1509L10.0588 15.4801L3.84064 19.1509L5.36905 11.8354L0 7.3155L7.26324 6.46638L10.0588 0Z" fill="#FF7900"/>
<path d="M32.2795 0L35.5192 6.46638L42.3514 7.3155L36.9823 11.8354L38.4977 19.1509L32.2795 15.4801L26.0613 19.1509L27.5898 11.8354L22.2207 7.3155L29.4839 6.46638L32.2795 0Z" fill="#FF7900"/>
<path d="M54.5002 0L57.7269 6.46638L64.559 7.3155L59.203 11.8354L60.7184 19.1509L54.5002 15.4801L48.282 19.1509L49.7974 11.8354L44.4414 7.3155L51.6916 6.46638L54.5002 0Z" fill="#FF7900"/>
<path d="M76.7203 0L79.947 6.46638L86.7791 7.3155L81.4101 11.8354L82.9385 19.1509L76.7203 15.4801L70.5021 19.1509L72.0175 11.8354L66.6484 7.3155L73.9117 6.46638L76.7203 0Z" fill="#FF7900"/>
<path d="M98.941 0L102.168 6.46638L109 7.3155L103.631 11.8354L105.159 19.1509L98.941 15.4801L92.7098 19.1509L94.2382 11.8354L88.8691 7.3155L96.1324 6.46638L98.941 0Z" fill="#FF7900"/>
</svg>
