<svg width="25" height="25" viewBox="0 0 25 25" fill="none" xmlns="http://www.w3.org/2000/svg">
<g clip-path="url(#clip0_3838_2877)">
<path d="M12.5006 9.66357C11.9396 9.66357 11.3911 9.82993 10.9247 10.1416C10.4582 10.4533 10.0947 10.8963 9.87998 11.4146C9.66529 11.9329 9.60912 12.5032 9.71857 13.0534C9.82801 13.6037 10.0982 14.1091 10.4949 14.5058C10.8915 14.9025 11.397 15.1726 11.9472 15.2821C12.4974 15.3915 13.0677 15.3353 13.586 15.1207C14.1043 14.906 14.5473 14.5424 14.859 14.0759C15.1707 13.6095 15.3371 13.0611 15.3371 12.5001C15.3361 11.7481 15.037 11.0271 14.5052 10.4954C13.9735 9.96364 13.2526 9.6645 12.5006 9.66357Z" fill="white"/>
<path d="M15.8379 5.27441H9.16389C8.13296 5.27561 7.1446 5.68567 6.41562 6.41465C5.68664 7.14362 5.27658 8.13199 5.27539 9.16291V15.8369C5.27658 16.8678 5.68664 17.8562 6.41562 18.5852C7.1446 19.3142 8.13296 19.7242 9.16389 19.7254H15.8379C16.8688 19.7242 17.8572 19.3142 18.5862 18.5852C19.3151 17.8562 19.7252 16.8678 19.7264 15.8369V9.16291C19.7252 8.13199 19.3151 7.14362 18.5862 6.41465C17.8572 5.68567 16.8688 5.27561 15.8379 5.27441ZM12.5009 16.8349C11.6435 16.8349 10.8054 16.5807 10.0925 16.1043C9.37961 15.628 8.82398 14.951 8.49587 14.1588C8.16777 13.3667 8.08192 12.4951 8.24919 11.6542C8.41645 10.8133 8.82932 10.0409 9.43558 9.43461C10.0418 8.82835 10.8143 8.41548 11.6552 8.24821C12.4961 8.08094 13.3677 8.16679 14.1598 8.4949C14.9519 8.823 15.629 9.37863 16.1053 10.0915C16.5816 10.8044 16.8359 11.6425 16.8359 12.4999C16.8346 13.6492 16.3774 14.7511 15.5647 15.5638C14.7521 16.3764 13.6502 16.8336 12.5009 16.8349ZM17.2644 8.82191C17.0527 8.82191 16.8458 8.75917 16.6698 8.64161C16.4938 8.52404 16.3566 8.35694 16.2755 8.16142C16.1945 7.9659 16.1732 7.75074 16.2144 7.54312C16.2555 7.33551 16.3573 7.14476 16.5069 6.99499C16.6565 6.84521 16.8471 6.74314 17.0546 6.70167C17.2622 6.66019 17.4774 6.68118 17.673 6.76197C17.8686 6.84276 18.0359 6.97974 18.1538 7.15559C18.2716 7.33143 18.3346 7.53825 18.3349 7.74991C18.3352 7.89066 18.3077 8.03008 18.254 8.16019C18.2003 8.2903 18.1215 8.40855 18.0221 8.50817C17.9226 8.60778 17.8045 8.68681 17.6745 8.74074C17.5445 8.79466 17.4051 8.82241 17.2644 8.82241V8.82191Z" fill="white"/>
<path d="M24.2419 6.23704C24.2405 5.81295 24.2017 5.38981 24.1259 4.97254C24.0289 4.46304 23.8924 3.96654 23.6484 3.50604C23.3942 3.02086 23.0635 2.57986 22.6689 2.20004C22.0728 1.61653 21.3365 1.19637 20.5309 0.980039C19.7894 0.780039 19.0309 0.738039 18.2704 0.739039C18.2679 0.735688 18.2663 0.731711 18.2659 0.727539H6.72887C6.72887 0.731539 6.72887 0.735539 6.72887 0.739039C6.29637 0.747039 5.86287 0.743539 5.43287 0.797039C4.96133 0.846894 4.4971 0.950913 4.04938 1.10704C3.35304 1.36389 2.72456 1.77638 2.21187 2.31304C1.62418 2.91028 1.20098 3.64939 0.983375 4.45854C0.786375 5.19454 0.743375 5.94504 0.742375 6.70104L0.734375 18.2845C0.748375 18.807 0.752875 19.3345 0.840875 19.8525C0.934375 20.4025 1.06787 20.938 1.32287 21.437C1.66203 22.1057 2.14531 22.6907 2.73787 23.15C3.16086 23.4872 3.64005 23.747 4.15338 23.9175C4.90938 24.1615 5.68937 24.255 6.48088 24.2595C6.97487 24.2625 7.46787 24.275 7.96187 24.273C11.5489 24.258 15.1364 24.299 18.7234 24.251C19.1972 24.2406 19.6694 24.1905 20.1349 24.101C21.0151 23.946 21.8343 23.5472 22.4994 22.95C23.2884 22.246 23.8209 21.385 24.0614 20.3455C24.2189 19.666 24.2579 18.9765 24.2649 18.285V18.147C24.2644 18.093 24.2439 6.39204 24.2419 6.23704ZM21.2229 15.837C21.2212 17.2651 20.6531 18.6343 19.6433 19.6441C18.6336 20.654 17.2645 21.2222 15.8364 21.224H9.16237C7.73418 21.2223 6.36498 20.6542 5.35509 19.6443C4.3452 18.6344 3.77709 17.2652 3.77537 15.837V9.16304C3.77709 7.73485 4.3452 6.36564 5.35509 5.35575C6.36498 4.34587 7.73418 3.77776 9.16237 3.77604H15.8364C17.2646 3.77776 18.6338 4.34587 19.6437 5.35575C20.6535 6.36564 21.2217 7.73485 21.2234 9.16304L21.2229 15.837Z" fill="white"/>
</g>
<defs>
<clipPath id="clip0_3838_2877">
<rect width="25" height="25" fill="white"/>
</clipPath>
</defs>
</svg>
