<svg width="25" height="25" viewBox="0 0 25 25" fill="none" xmlns="http://www.w3.org/2000/svg">
<path d="M21.875 25H3.125C1.4 25 0 23.6 0 21.875V3.125C0 1.4 1.4 0 3.125 0H21.875C23.6 0 25 1.4 25 3.125V21.875C25 23.6 23.6 25 21.875 25ZM9.6 18.85C15.4938 18.85 18.7188 13.9625 18.7188 9.73125C18.7188 9.59375 18.7188 9.45625 18.7125 9.31875C19.3375 8.86875 19.8813 8.3 20.3125 7.65625C19.7375 7.9125 19.1187 8.08125 18.4688 8.1625C19.1313 7.76875 19.6375 7.1375 19.8813 6.3875C19.2625 6.75625 18.575 7.01875 17.8438 7.1625C17.2563 6.5375 16.425 6.15 15.5062 6.15C13.7375 6.15 12.3 7.5875 12.3 9.35625C12.3 9.60625 12.3312 9.85 12.3812 10.0875C9.71875 9.95625 7.35625 8.675 5.775 6.7375C5.5 7.2125 5.34375 7.7625 5.34375 8.35C5.34375 9.4625 5.9125 10.4438 6.76875 11.0188C6.24375 11 5.75 10.8562 5.31875 10.6187V10.6625C5.31875 12.2125 6.425 13.5125 7.8875 13.8063C7.61875 13.8813 7.3375 13.9187 7.04375 13.9187C6.8375 13.9187 6.6375 13.9 6.44375 13.8625C6.85 15.1375 8.0375 16.0625 9.4375 16.0875C8.3375 16.95 6.95625 17.4625 5.45625 17.4625C5.2 17.4625 4.94375 17.45 4.69375 17.4187C6.10625 18.3188 7.79375 18.85 9.6 18.85Z" fill="white"/>
</svg>
